<?xml version="1.0" standalone="no"?>
<!DOCTYPE svg PUBLIC "-//W3C//DTD SVG 20010904//EN"
 "http://www.w3.org/TR/2001/REC-SVG-20010904/DTD/svg10.dtd">
<svg version="1.0" xmlns="http://www.w3.org/2000/svg"
 width="1174.000000pt" height="1174.000000pt" viewBox="0 0 1174.000000 1174.000000"
 preserveAspectRatio="xMidYMid meet">
<metadata>
Created by potrace 1.14, written by Peter Selinger 2001-2017
</metadata>
<g transform="translate(0.000000,1174.000000) scale(0.100000,-0.100000)"
fill="#000000" stroke="none">
<path d="M5688 9975 c-2 -2 -23 -6 -48 -9 -25 -4 -63 -9 -85 -13 -22 -3 -49
-7 -60 -9 -11 -2 -47 -10 -80 -19 -33 -8 -68 -17 -78 -20 -35 -8 -152 -49
-162 -55 -5 -4 -21 -11 -35 -15 -27 -8 -173 -79 -232 -113 -135 -77 -262 -176
-395 -308 -62 -61 -113 -116 -113 -122 0 -7 -4 -12 -8 -12 -5 0 -21 -18 -38
-41 -16 -22 -34 -46 -39 -52 -28 -33 -107 -161 -141 -227 -22 -41 -43 -78 -47
-81 -5 -3 -8 -9 -7 -13 1 -4 -13 -41 -30 -84 -18 -42 -33 -81 -34 -87 -1 -5
-5 -15 -8 -21 -4 -6 -9 -22 -12 -37 -2 -15 -7 -31 -11 -37 -4 -6 -9 -23 -12
-38 -8 -41 -11 -57 -13 -57 -1 0 -3 -11 -6 -25 -2 -14 -9 -47 -14 -75 -25
-125 -30 -193 -30 -350 0 -71 3 -148 6 -170 3 -22 7 -58 9 -80 1 -22 4 -42 5
-45 1 -3 3 -9 4 -15 4 -22 19 -101 23 -120 2 -11 6 -29 8 -40 34 -157 165
-449 263 -589 19 -28 45 -64 56 -81 12 -16 26 -35 31 -41 6 -6 26 -31 45 -55
56 -69 197 -209 204 -202 3 4 6 2 6 -4 0 -5 28 -32 63 -59 34 -27 64 -52 65
-56 2 -5 9 -8 15 -8 20 -1 84 -59 67 -61 -42 -4 -61 -9 -130 -34 -91 -32 -290
-129 -318 -156 -12 -10 -26 -20 -32 -21 -34 -8 -183 -156 -246 -244 -37 -52
-64 -103 -115 -219 -10 -25 -35 -125 -45 -185 -9 -53 -10 -298 -1 -355 3 -22
9 -60 13 -85 3 -25 10 -50 15 -56 5 -6 7 -13 4 -15 -4 -5 20 -102 50 -199 15
-47 49 -140 80 -215 5 -11 9 -22 10 -25 12 -36 142 -300 184 -375 13 -22 57
-96 98 -165 41 -69 80 -134 86 -145 7 -11 14 -22 17 -25 3 -3 40 -57 82 -120
42 -63 86 -126 97 -139 12 -13 21 -27 21 -32 0 -4 15 -25 33 -47 17 -22 39
-49 47 -62 8 -12 26 -37 40 -55 14 -17 36 -47 50 -65 14 -18 36 -47 50 -65 14
-18 36 -47 50 -65 14 -18 33 -42 44 -54 10 -11 30 -37 45 -56 14 -19 28 -37
31 -40 5 -5 140 -167 170 -204 8 -10 20 -23 25 -30 6 -6 39 -45 75 -86 36 -41
73 -84 83 -95 10 -11 40 -44 65 -73 46 -52 87 -97 166 -182 21 -22 36 -43 34
-45 -3 -3 -17 -6 -31 -7 -15 -1 -27 -6 -27 -11 0 -4 -4 -6 -10 -2 -5 3 -25 -1
-45 -9 -19 -8 -35 -13 -35 -11 0 2 -27 -10 -60 -26 -33 -16 -63 -29 -65 -29
-3 0 -35 -21 -73 -46 -167 -115 -327 -336 -300 -415 9 -28 74 -69 98 -62 25 8
64 26 91 45 82 55 285 137 376 152 15 2 28 5 28 6 0 12 279 18 365 7 168 -20
354 -86 488 -175 32 -22 64 -35 82 -34 32 1 90 36 91 55 0 7 2 21 4 32 5 24
-17 72 -71 155 -96 146 -243 263 -412 326 -37 14 -76 28 -87 30 -11 2 -33 7
-48 12 l-29 8 59 64 c67 74 77 85 158 176 33 37 65 72 70 78 6 6 37 42 70 81
33 38 75 87 94 107 19 21 41 48 49 60 9 13 21 28 27 33 7 6 29 33 51 60 21 28
41 52 45 55 3 3 32 39 64 80 32 41 69 86 82 99 13 13 23 29 23 37 0 7 4 14 9
16 5 2 53 62 106 133 53 72 103 138 111 148 8 9 14 22 14 27 0 6 4 10 9 10 5
0 14 14 21 30 7 17 16 30 19 30 8 0 61 77 61 88 0 4 11 20 25 35 14 15 24 27
21 27 -3 0 14 28 37 62 23 35 48 75 56 90 8 16 18 28 23 28 4 0 8 5 8 11 0 7
14 35 32 63 17 28 42 71 56 96 13 25 33 60 44 78 11 17 16 32 11 32 -4 0 -3 4
4 8 13 8 137 265 149 307 1 6 12 35 25 65 38 94 58 149 64 175 3 11 18 74 34
140 39 157 45 204 45 365 0 139 -4 186 -24 261 -73 283 -236 487 -508 641 -57
32 -188 87 -281 118 l-85 27 30 19 c16 10 43 29 59 41 17 13 35 27 40 31 99
73 234 203 315 302 25 30 47 57 50 60 10 10 108 156 131 195 87 152 197 428
213 539 4 21 8 41 10 45 2 3 7 29 11 56 4 28 9 61 11 75 15 91 21 331 10 425
-14 132 -19 163 -30 205 -7 25 -12 52 -11 60 0 8 -2 17 -5 20 -3 3 -13 34 -23
70 -32 121 -41 146 -86 245 -10 22 -26 57 -35 77 -37 84 -156 270 -228 358
-90 109 -182 200 -319 315 -34 29 -203 140 -208 136 -2 -1 -7 1 -10 6 -8 13
-197 107 -246 123 -22 7 -44 16 -50 20 -9 7 -127 44 -179 57 -12 2 -39 9 -61
14 -50 12 -59 14 -115 23 -25 4 -58 10 -75 12 -34 6 -412 14 -417 9z"/>
<path d="M465 7361 c-3 -2 -13 -6 -23 -7 -75 -10 -193 -76 -268 -151 -70 -69
-107 -127 -142 -222 -30 -83 -38 -195 -16 -231 21 -34 136 -140 151 -140 7 0
13 -4 13 -8 0 -4 25 -24 55 -43 30 -18 55 -37 55 -41 0 -5 5 -8 11 -8 6 0 31
-13 56 -30 24 -16 48 -30 54 -30 5 0 9 -4 9 -8 0 -5 16 -14 35 -22 19 -8 35
-17 35 -22 0 -4 4 -8 10 -8 5 0 31 -13 57 -28 148 -87 600 -321 614 -318 4 0
16 -8 28 -18 12 -11 21 -17 21 -14 0 3 68 -27 150 -68 83 -41 157 -74 165 -74
8 0 15 -4 15 -9 0 -5 10 -13 23 -16 12 -4 54 -22 92 -40 65 -30 90 -41 220
-100 86 -39 135 -61 295 -129 85 -37 169 -75 185 -84 17 -9 31 -15 32 -14 2 0
20 -6 40 -15 21 -8 43 -16 48 -18 6 -1 32 -12 58 -23 27 -12 51 -22 53 -22 2
0 23 -8 47 -19 67 -29 131 -56 137 -57 3 0 19 -6 35 -13 63 -26 380 -144 392
-145 7 -1 16 -5 19 -9 4 -4 16 -7 26 -7 10 0 26 -4 36 -9 22 -12 138 -43 177
-47 33 -4 33 -5 -31 42 -14 11 -42 34 -63 51 -20 18 -39 33 -42 33 -3 0 -18
10 -32 23 -13 12 -38 32 -53 44 -16 12 -77 59 -135 105 -58 45 -121 94 -139
108 -56 42 -95 75 -98 83 -2 4 -9 7 -16 7 -6 0 -18 9 -26 20 -8 11 -18 20 -23
20 -5 0 -14 6 -21 13 -7 6 -28 23 -46 37 -18 14 -38 30 -44 35 -6 6 -40 32
-76 60 -36 27 -67 52 -70 55 -3 3 -23 19 -45 35 -22 16 -47 35 -55 42 -8 7
-85 67 -170 134 -85 66 -167 130 -182 142 -15 12 -39 31 -54 42 -15 11 -32 25
-38 30 -6 6 -49 39 -96 75 -87 66 -105 81 -143 114 -12 10 -33 26 -47 34 -14
9 -29 22 -33 29 -4 7 -15 13 -22 13 -8 0 -15 4 -15 8 0 5 -20 23 -45 41 -24
17 -50 37 -57 44 -7 7 -40 32 -73 57 -33 25 -62 47 -65 50 -6 6 -147 117 -255
200 -38 29 -72 56 -75 59 -3 3 -32 26 -65 51 -33 25 -65 50 -71 55 -13 12 -44
37 -202 159 -68 53 -130 103 -139 111 -11 12 -32 15 -74 14 -32 -1 -61 -5 -64
-8z"/>
<path d="M11138 7357 c-7 -7 -74 -59 -148 -117 -74 -57 -137 -106 -140 -110
-3 -3 -23 -18 -45 -35 -41 -30 -45 -33 -81 -63 -30 -23 -67 -53 -219 -171 -71
-56 -137 -107 -145 -114 -8 -7 -53 -42 -100 -77 -47 -36 -89 -70 -95 -76 -5
-5 -28 -23 -50 -39 -22 -16 -45 -34 -52 -40 -20 -17 -33 -26 -173 -135 -74
-57 -137 -107 -140 -110 -3 -3 -23 -18 -45 -35 -22 -16 -42 -31 -45 -35 -3 -3
-77 -61 -165 -130 -88 -68 -162 -126 -165 -129 -3 -3 -43 -35 -90 -70 -47 -36
-92 -70 -100 -78 -12 -11 -100 -79 -155 -120 -6 -5 -28 -23 -50 -41 -22 -18
-44 -36 -50 -40 -41 -31 -142 -108 -151 -117 -15 -13 -42 -34 -174 -136 -58
-45 -136 -107 -175 -138 -38 -31 -85 -67 -104 -81 -19 -13 -29 -26 -23 -28 18
-6 211 51 367 108 77 28 145 52 150 53 6 2 16 6 22 10 7 5 21 10 30 12 10 2
35 11 55 19 21 9 39 15 40 14 2 -1 14 5 28 12 14 8 27 15 30 15 15 2 108 41
125 52 11 7 25 13 33 13 7 0 34 10 60 21 111 51 201 86 206 81 4 -3 6 -1 6 5
0 6 11 14 25 17 15 4 53 20 85 35 33 16 60 27 60 24 0 -3 7 1 16 8 9 7 22 14
29 15 6 1 42 16 79 33 37 17 69 31 71 31 6 0 273 123 316 146 14 7 29 11 33 7
3 -3 6 -1 6 5 0 7 4 12 10 12 30 0 817 392 990 494 25 14 72 40 105 57 33 18
62 34 65 38 3 3 46 31 95 61 50 29 92 57 95 60 3 4 28 22 55 40 56 38 61 42
110 86 60 55 83 98 79 146 -7 80 -13 113 -27 154 -51 141 -145 255 -270 323
-105 58 -267 89 -299 58z"/>
<path d="M510 5139 c-53 -38 -56 -42 -95 -94 -41 -55 -66 -101 -58 -109 3 -3
2 -6 -4 -6 -11 0 -33 -100 -34 -150 -2 -106 38 -227 82 -250 58 -31 166 -51
369 -66 96 -8 766 -8 935 -1 183 8 346 17 420 23 39 2 106 7 150 9 44 2 80 5
80 5 0 1 25 3 55 5 72 5 182 14 245 20 28 3 77 8 110 10 33 3 78 7 100 9 118
14 143 17 180 22 22 3 54 7 70 9 17 2 46 6 65 9 19 3 49 8 65 10 67 8 195 40
188 47 -5 4 -24 10 -43 12 -19 3 -46 8 -60 11 -14 3 -52 10 -85 15 -33 6 -71
13 -85 16 -74 14 -148 28 -173 31 -15 2 -39 6 -55 10 -15 3 -40 8 -57 11 -16
2 -37 7 -45 10 -8 3 -28 7 -45 8 -29 4 -54 8 -105 20 -14 3 -38 7 -55 10 -31
4 -118 20 -167 30 -45 8 -81 15 -117 21 -18 3 -43 8 -55 10 -11 3 -68 14 -126
24 -58 11 -117 22 -133 25 -15 2 -53 9 -85 15 -31 6 -68 12 -82 15 -14 3 -41
8 -60 11 -19 3 -41 7 -48 10 -8 2 -37 7 -65 10 -29 4 -55 8 -60 11 -4 2 -20 6
-35 9 -15 2 -43 7 -62 10 -19 4 -48 8 -64 10 -16 2 -46 9 -67 14 -22 6 -44 8
-49 5 -5 -3 -11 -1 -15 4 -3 5 -13 10 -23 9 -9 0 -91 14 -182 32 -91 17 -178
33 -195 36 -16 2 -52 8 -80 14 -27 6 -63 13 -80 15 -16 3 -52 10 -80 15 -129
25 -137 24 -185 -11z"/>
<path d="M11035 5149 c-49 -11 -103 -21 -120 -24 -16 -2 -41 -6 -55 -9 -14 -2
-42 -7 -62 -10 -21 -3 -59 -11 -85 -17 -27 -6 -61 -12 -78 -15 -16 -2 -41 -6
-55 -9 -62 -13 -87 -18 -110 -20 -14 -2 -36 -6 -50 -9 -14 -4 -38 -8 -55 -11
-16 -3 -43 -8 -60 -12 -16 -4 -37 -7 -45 -8 -8 -1 -28 -4 -45 -8 -16 -4 -46
-9 -65 -12 -19 -2 -57 -9 -85 -15 -27 -6 -63 -13 -80 -16 -27 -4 -77 -14 -155
-28 -14 -3 -34 -7 -45 -9 -11 -3 -42 -8 -69 -11 -27 -4 -52 -9 -56 -11 -3 -2
-24 -6 -46 -9 -22 -4 -51 -8 -64 -11 -13 -3 -42 -7 -64 -11 -22 -3 -43 -7 -46
-9 -3 -2 -23 -6 -45 -9 -22 -4 -47 -9 -55 -11 -8 -3 -31 -7 -50 -9 -19 -3 -71
-12 -115 -20 -44 -8 -91 -17 -105 -20 -14 -2 -43 -7 -65 -12 -22 -4 -47 -8
-55 -9 -8 -1 -26 -5 -40 -9 -14 -3 -38 -8 -55 -10 -16 -3 -40 -7 -51 -9 -12
-3 -37 -8 -55 -11 -43 -7 -68 -12 -204 -37 -60 -12 -120 -22 -132 -23 -13 0
-23 -3 -23 -6 0 -3 -17 -7 -37 -8 -40 -3 -71 -21 -40 -23 21 -2 26 -3 54 -12
12 -5 37 -10 55 -12 18 -2 44 -6 58 -10 14 -3 43 -8 65 -10 22 -2 51 -6 65 -9
14 -3 50 -7 80 -11 30 -3 71 -8 90 -10 19 -3 60 -7 90 -10 30 -3 80 -7 110
-10 30 -3 75 -7 100 -10 25 -3 77 -8 115 -11 39 -2 99 -7 135 -9 36 -2 97 -7
135 -10 192 -14 445 -27 552 -29 51 0 93 -4 93 -8 0 -4 13 -3 30 2 16 5 32 5
34 2 9 -15 816 -4 925 13 143 21 181 29 181 37 0 5 4 6 10 3 14 -9 66 24 79
49 51 99 60 251 21 356 -45 123 -168 252 -237 249 -15 -1 -68 -10 -118 -20z"/>
<path d="M3407 4160 c-15 -5 -47 -11 -70 -14 -40 -6 -60 -9 -117 -21 -41 -8
-143 -27 -165 -31 -24 -4 -288 -52 -330 -60 -29 -6 -38 -8 -100 -18 -16 -3
-41 -7 -55 -10 -14 -3 -38 -8 -55 -11 -58 -10 -133 -24 -161 -30 -12 -3 -39
-7 -60 -11 -21 -3 -73 -12 -114 -21 -76 -15 -112 -21 -165 -28 -16 -2 -30 -4
-30 -5 0 -1 -9 -3 -20 -5 -76 -14 -153 -28 -170 -30 -11 -2 -33 -6 -50 -10
-16 -3 -41 -8 -55 -11 -14 -2 -50 -10 -80 -16 -30 -6 -58 -11 -62 -10 -3 1
-37 -5 -75 -13 -37 -8 -79 -16 -93 -19 -47 -8 -58 -18 -84 -69 -44 -91 -51
-163 -26 -256 6 -22 15 -43 20 -46 6 -3 10 -13 10 -21 0 -7 17 -32 38 -55 51
-53 94 -55 245 -14 9 3 25 7 35 9 9 2 55 17 102 32 47 15 88 27 93 26 4 -1 7
2 7 6 0 5 7 9 15 9 8 0 37 9 63 20 91 40 257 105 295 116 20 6 37 15 37 19 0
4 6 8 13 8 16 0 481 204 527 231 8 5 22 12 30 15 34 13 445 219 450 225 3 3
23 16 45 28 74 40 110 63 130 82 11 10 17 19 15 18 -3 0 -18 -4 -33 -9z"/>
<path d="M8300 4164 c0 -6 39 -44 46 -44 3 0 45 -23 92 -51 135 -80 728 -369
757 -369 7 0 18 -7 25 -15 6 -8 15 -14 18 -13 4 1 24 -6 45 -15 69 -32 107
-47 114 -48 5 -1 24 -9 43 -19 19 -10 82 -36 140 -59 58 -23 114 -46 125 -51
59 -26 279 -107 315 -115 8 -2 29 -9 45 -15 17 -7 41 -14 55 -17 33 -7 42 -9
60 -16 21 -8 78 -17 129 -20 37 -2 49 2 74 27 72 73 104 165 93 272 -6 60 -43
151 -71 174 -11 9 -81 26 -147 35 -15 2 -51 8 -80 14 -67 14 -95 20 -133 26
-16 3 -43 7 -60 11 -16 3 -43 7 -60 10 -16 3 -41 7 -55 10 -14 3 -47 9 -75 14
-27 5 -62 12 -77 15 -16 3 -38 7 -50 9 -37 6 -191 35 -223 41 -16 3 -43 8 -60
10 -16 2 -41 7 -55 10 -14 4 -38 8 -55 11 -16 3 -55 10 -85 16 -30 6 -64 12
-75 13 -11 2 -58 10 -105 19 -113 21 -131 24 -155 29 -11 3 -63 12 -115 21
-93 16 -120 21 -170 31 -14 2 -38 7 -55 10 -16 3 -43 8 -60 11 -16 4 -39 7
-50 8 -11 1 -26 5 -32 9 -7 5 -13 6 -13 3 0 -2 -13 -1 -30 4 -16 5 -30 7 -30
4z"/>
</g>
</svg>
