<svg width="86" height="92" viewBox="0 0 86 92" fill="none" xmlns="http://www.w3.org/2000/svg">
<path d="M42.6458 85.7396C22.3906 85.7396 5.91144 69.2344 5.91144 48.9479C5.91144 30.5886 19.5937 14.9063 37.7291 12.4792L38.2448 16.3125C22.0156 18.4896 9.77602 32.5261 9.77602 48.9479C9.77602 67.1042 24.5208 81.8646 42.6458 81.8646C60.7708 81.8646 75.5052 67.099 75.5052 48.9479C75.5052 32.6354 63.3646 18.6198 47.2708 16.3438L47.8125 12.5156C65.8021 15.0521 79.375 30.7188 79.375 48.9479C79.3698 69.2344 62.8958 85.7396 42.6458 85.7396Z" fill="black"/>
<path d="M50.4896 23.7448C50.1927 23.7448 49.8958 23.6771 49.6198 23.5417L42.7604 20.1042L35.8958 23.5469C35.1771 23.8959 34.3125 23.7865 33.7187 23.2396C33.1302 22.6875 32.9375 21.8386 33.2344 21.0938L40.9635 1.72919C41.5521 0.260438 43.9635 0.25523 44.5521 1.72919L52.2865 21.0938C52.5833 21.8281 52.3906 22.6875 51.7969 23.2396C51.4323 23.5729 50.9635 23.7448 50.4896 23.7448ZM42.7552 7.66669L38.7083 17.8021L41.8958 16.2084C42.4375 15.9375 43.0781 15.9375 43.6198 16.2084L46.8021 17.7969L42.7552 7.66669Z" fill="black"/>
<mask id="mask0_1_7816" style="mask-type:luminance" maskUnits="userSpaceOnUse" x="39" y="75" width="6" height="17">
<path d="M39.6667 75.6667H45V91.5834H39.6667V75.6667Z" fill="white"/>
</mask>
<g mask="url(#mask0_1_7816)">
<path d="M42.7604 91.526C41.6927 91.526 40.8281 90.651 40.8281 89.5885V77.9688C40.8281 76.9063 41.6927 76.0312 42.7604 76.0312C43.8281 76.0312 44.6927 76.9063 44.6927 77.9688V89.5885C44.6927 90.6563 43.8281 91.526 42.7604 91.526Z" fill="black"/>
</g>
<path d="M13.7656 50.8594H2.16666C1.09895 50.8594 0.229156 49.9896 0.229156 48.9219C0.229156 47.8594 1.09895 46.9844 2.16666 46.9844H13.7656C14.8281 46.9844 15.6979 47.8594 15.6979 48.9219C15.6979 49.9896 14.8281 50.8594 13.7656 50.8594Z" fill="black"/>
<mask id="mask1_1_7816" style="mask-type:luminance" maskUnits="userSpaceOnUse" x="69" y="46" width="17" height="6">
<path d="M69 46.3333H85.3021V51.6666H69V46.3333Z" fill="white"/>
</mask>
<g mask="url(#mask1_1_7816)">
<path d="M83.3542 50.8594H71.7552C70.6927 50.8594 69.8229 49.9896 69.8229 48.9219C69.8229 47.8594 70.6927 46.9844 71.7552 46.9844H83.3542C84.4167 46.9844 85.2864 47.8594 85.2864 48.9219C85.2864 49.9896 84.4167 50.8594 83.3542 50.8594Z" fill="black"/>
</g>
</svg>
