<svg xmlns="http://www.w3.org/2000/svg" xmlns:xlink="http://www.w3.org/1999/xlink" width="288.106" height="72" viewBox="0 0 288.106 72">
  <defs>
    <clipPath id="clip-path">
      <rect id="Rectangle_274" data-name="Rectangle 274" width="84.673" height="72" fill="none"/>
    </clipPath>
  </defs>
  <g id="Group_177" data-name="Group 177" transform="translate(-272 -27)">
    <g id="Group_40" data-name="Group 40" transform="translate(272 27)">
      <g id="Group_39" data-name="Group 39" clip-path="url(#clip-path)">
        <path id="Path_66" data-name="Path 66" d="M73.086,45.385c-.294.189-.616.355-.55.8.038.248.139.413.421.4a9.222,9.222,0,0,1,.982-.034,1.441,1.441,0,0,1,.451.221l.45-.4c-.186.534.133.878.438,1.241.028-.026.057-.04.062-.06.123-.563.126-.562.694-.574.5-.01.992-.029,1.493-.044.083.4.026.475-.361.463a.644.644,0,0,0-.224.087c.058.116.087.287.18.335a1.379,1.379,0,0,0,.529.113,1.862,1.862,0,0,1,.851.136c.15.083.4-.01.685-.029l.284.83c-.233-.032-.45-.068-.668-.091-.451-.048-.906-.07-1.352-.147a.712.712,0,0,1-.389-.293.374.374,0,0,0-.436-.2,6.607,6.607,0,0,1-2.064.155c-.273-.046-.558-.055-.747-.318-.041-.057-.161-.076-.247-.08-.2-.009-.4,0-.6,0-.387-.006-.387-.008-.472-.362-.02-.009-.046-.03-.068-.027-.137.022-.273.049-.41.075a1.292,1.292,0,0,0,.115.429c.262.369.547.724.842,1.068.05.058.19.041.289.054a1.384,1.384,0,0,1,.359.052.249.249,0,0,1,.095.221.264.264,0,0,1-.179.166,7.771,7.771,0,0,1-.791.048c-.185,0-.135-.12-.111-.231a.7.7,0,0,0,.029-.3c-.021-.085-.107-.154-.164-.231a1.027,1.027,0,0,0-.212.18,1.908,1.908,0,0,0-.228,1.595c.046.188.025.345-.143.421-.19.087-.281-.087-.357-.218a1.775,1.775,0,0,1-.205-1.425.424.424,0,0,0,.031-.16,1.325,1.325,0,0,0-.068-.22c-.066.022-.153.025-.194.07-.17.189-.329.388-.487.588a5.3,5.3,0,0,0-.374.5.251.251,0,0,0,.019.234c.155.18.335.338.5.509.192.2.176.319-.075.4a1.156,1.156,0,0,0-.726.8c-.076.2.084.325.238.363a4.952,4.952,0,0,0,.728.074c-.034.234.01.5-.288.674a.466.466,0,0,0-.128.7,3.286,3.286,0,0,0,.615.757c.236.217.373.144.475-.167a1.152,1.152,0,0,1,.166-.311.392.392,0,0,0-.07-.6c-.117-.1-.122-.215.039-.3a.837.837,0,0,0,.159-.153,1,1,0,0,1-.165-.152,4.5,4.5,0,0,1-.33-.532c-.014-.028.093-.156.163-.18.317-.107.641-.193.992-.294v.417c-.16.019-.313.038-.465.054-.32.034-.372.117-.2.372a2.082,2.082,0,0,1,.16,1.734,2.208,2.208,0,0,1-.291.528,1.686,1.686,0,0,0,1.769.39c.163.171.038.59.435.526.251-.04.276-.259.274-.55a3.563,3.563,0,0,1,.3.336.4.4,0,0,0,.606.128.282.282,0,0,1,.4-.026c.217.168.361.094.5-.1.216-.309.22-.306.515-.059a.909.909,0,0,1,.144.127c.1.136.2.136.315.014a1.1,1.1,0,0,1,1.04-.255,7.241,7.241,0,0,0,.77.005l.318-1.034.081,0c-.013.335.376.612.09.993a.369.369,0,0,0-.014.241.213.213,0,0,0,.087.151.192.192,0,0,0,.161-.054,4,4,0,0,0,.269-.312c.114-.139.245-.165.375-.034a2.139,2.139,0,0,0,1.95.435c.09-.011.183-.01.274-.012.942-.021,1.886-.005,2.825-.071.961-.067,1.917-.209,2.873-.331a1.646,1.646,0,0,0,.357-.165.641.641,0,0,1,.169-.016,1.682,1.682,0,0,0,.526-.068c.212-.1.046-.273-.007-.4a.253.253,0,0,0-.373-.163,1.381,1.381,0,0,0-.213.167l-.324-.254.276-.578c-.044.026-.021.005-.014.009.327.205.487.023.623-.253.076-.154.23-.283.268-.442a7.189,7.189,0,0,0,.1-.889.191.191,0,0,1,.127.018c.234.164.363.044.49-.147a4.052,4.052,0,0,1,.3-.36l.077.034c.005.095.012.189.015.284.017.494.029.988.049,1.482.012.3.241.212.41.212.193,0,.249-.1.2-.286a.828.828,0,0,1,.014-.242l.084-.027a2.548,2.548,0,0,1,.171.551c.027.346.011.7.005,1.045a.285.285,0,0,0,.243.336c.192.044.377.12.609.2.013-.21.024-.378.04-.631a7.314,7.314,0,0,1,.38.727,5.486,5.486,0,0,1,.172.7c-.118.057-.352.008-.277.3.127.491.206.6.524.59a1.335,1.335,0,0,1,1.1.478,1.889,1.889,0,0,1,.231.547l-.078.064a1.9,1.9,0,0,0-.247-.046c-.415-.023-.5-.045-.507.409a1.116,1.116,0,0,1-.059.244l-.132-.016q.023-.31.046-.619c.009-.117.066-.3.015-.338a.542.542,0,0,0-.4-.1,1.138,1.138,0,0,0-.4.26c-.127.1-.23.238-.356.343-.189.158-.291.12-.4-.15.223-.039.436-.118.252-.389-.064-.094-.24-.2-.325-.175a1.907,1.907,0,0,0-.581.319c-.113.087.027.386.2.47.448.215.455.252.108.623a1.678,1.678,0,0,1-.147.134c.085.237.162.431.224.631.048.156.291.279.386.159.256-.324.707-.489.778-.962l.09.019-.081.568a.969.969,0,0,0,.126.045,1,1,0,0,0,.147.012l-.317,1a.672.672,0,0,1,.192.065c.059.047.134.114.137.176s-.065.141-.109.207a.106.106,0,0,1-.076.026c-.193,0-.445.081-.564-.011-.186-.145,0-.36.066-.546a.41.41,0,0,0-.009-.327c-.053-.07-.2-.079-.31-.091a1.563,1.563,0,0,0-.243.036c-.409.026-.4.023-.338.428a.459.459,0,0,1-.129.325c-.276.291-.283.3.031.539-.053.05-.13.089-.152.148a1.031,1.031,0,0,0-.073.386c0,.029.184.075.281.07.31-.017.618-.062.928-.083.2-.013.4,0,.525,0,.052.316.1.536.12.759a1.794,1.794,0,0,1-.009.528c-.053.251.066.443.427.584-.031.044-.053.109-.09.119-.167.045-.185.131-.134.288.027.083,0,.261-.042.274a.6.6,0,0,1-.388,0c-.058-.026-.083-.206-.063-.305a.456.456,0,0,1,.184-.219c.178-.137.171-.273-.006-.41a.406.406,0,0,1-.133-.243c-.051-.36-.083-.722-.126-1.083-.02-.167-.1-.228-.283-.2-.342.055-.689.079-1.031.137a.248.248,0,0,0-.138.191c0,.237.048.475.031.71a3.913,3.913,0,0,1-.164.644l.6.441.052-.065a.549.549,0,0,1,0,.216,3.315,3.315,0,0,0-.147,1.541,1.467,1.467,0,0,1-.506,1.221c-.13.11-.147.2,0,.3.107.071.207.153.316.219.358.215.387.205.627-.162,0,.136.051.3-.008.4a2.46,2.46,0,0,0-.033,1.915c.078.348.144.7.209,1.049.01.056,0,.155-.027.171-.306.158-.395.583-.785.633-.005,0-.008.014-.017.03.091.105.176.221.278.32.163.158.208.307.043.5-.024.028.039.156.089.216.032.04.111.041.243.083l-.412.3a8.192,8.192,0,0,1,.394.855c.137.411-.19.548-.477.667l.652.413c.059.259.105.507.174.748a1.067,1.067,0,0,1-.2.762c-.109.1-.343.153-.195.367.116.167.551.179.643.007a5.079,5.079,0,0,0,.507-1.169,2.7,2.7,0,0,0-.087-.914.255.255,0,0,0-.083-.166c-.176-.115-.163-.223-.034-.369A.4.4,0,0,0,93,74.3c.007-.266-.009-.533.017-.8.01-.1.108-.2.166-.295l.122.046q-.037.523-.074,1.046c0,.037,0,.073,0,.11-.008.36.014.393.369.308a1.184,1.184,0,0,1,.891.168c-.184.6-.351,1.186-.55,1.764a.533.533,0,0,0,.176.672c.156.128.221.1.31-.059.143-.253.3-.5.454-.736.045.016.07.017.077.028.181.322.231.324.432.008.058-.091.112-.185.2-.334l.7,1.078,1.028-1.885.059.025a5,5,0,0,1-.213.462c-.336.576-.191.869.526.939a2.936,2.936,0,0,1-.234.237c-.192.154-.15.305-.015.468s.26.182.416.031c.277-.267.568-.52.837-.794a.337.337,0,0,0,.072-.484c-.057-.083.028-.264.079-.407.112.242.306.375.5.235.126-.09.138-.341.247-.518a1.7,1.7,0,0,0,.012.536,1.879,1.879,0,0,0,.349.452l.8-1.246a1.283,1.283,0,0,1,.114.11.488.488,0,0,0,.711.17c.246-.12.484-.257.731-.373a.266.266,0,0,1,.221-.007c.287.21.562.436.841.656-.389.475-.957.67-1.361.119-.182-.247-.292-.218-.508-.026a3.34,3.34,0,0,1-.78.451.426.426,0,0,0-.292.439.47.47,0,0,1-.158.269,4.183,4.183,0,0,1-.371.325c-.2.162-.4.321-.611.5.259.3.547.6.8.93a3.042,3.042,0,0,1,.243.5.869.869,0,0,0,.2.309c.238.176.468.057.5-.239.035-.316.11-.376.4-.241.314.145.6.343.914.5.257.131.352.071.4-.214a.474.474,0,0,1,.052-.105l.393.481c.168-.191.32-.357.465-.529s.239-.161.4,0a1.776,1.776,0,0,0,.484.242l.016.014c-.17.58-.347,1.158-.508,1.741-.074.268-.186.353-.4.191a2.872,2.872,0,0,1-1-.948c-.231-.47-.749-.463-1.052.017a1.3,1.3,0,0,0-.275-.2,1.611,1.611,0,0,0-.532-.124c-.051,0-.132.194-.15.307-.037.22.118.329.3.4a1.589,1.589,0,0,1,.3.129.41.41,0,0,1,.127.2c.012.037-.034.093-.053.141a.937.937,0,0,1-.193-.112.888.888,0,0,0-.916-.278,3.816,3.816,0,0,1-.921.119c.194-.127.381-.268.585-.376.162-.086.224-.187.136-.349a.237.237,0,0,0-.384-.1.267.267,0,0,1-.22.022.613.613,0,0,0-.649.03.707.707,0,0,1-.184.053l-.8.248a.992.992,0,0,0,.046.171c.089.155.187.311.018.47a.566.566,0,0,1-.613.186c-.4-.143-.792-.283-1.188-.426a.555.555,0,0,0-.746.365c.233.015.442.018.648.044.133.017.345-.1.366.156a.345.345,0,0,1-.413.383,5.891,5.891,0,0,0-1.137-.078c-.305.006-.621-.261-.922-.425-.066-.036-.091-.148-.168-.283a1.82,1.82,0,0,0-.339.411c-.155.367-.328.34-.668.231-.39-.125-.818-.169-1.092-.559l-.054.071.063.316a.716.716,0,0,1-.239-.059.178.178,0,0,1,0-.17c.187-.24.029-.393-.122-.553-.048-.051-.094-.1-.171-.19l.341-.055.029-.08a.8.8,0,0,0-.234-.076c-.493,0-.761.378-1.1.632l.262.5a4.171,4.171,0,0,0-2.09.092A.788.788,0,0,1,87.8,81.8a2.087,2.087,0,0,0-1.994.138c-.047.024-.1.044-.13.061a6.11,6.11,0,0,0-.482-.633.522.522,0,0,0-.361-.089,1.041,1.041,0,0,0-.334.117c-.5.21-.518.257-.414.785a.615.615,0,0,1-.024.229.181.181,0,0,1-.1,0,.58.58,0,0,1-.048-.22c.025-.275-.019-.335-.293-.307a4.2,4.2,0,0,0-.5.113c.172-.211.331-.392.47-.586.041-.057.027-.153.038-.232-.085-.007-.19-.05-.252-.015a1.2,1.2,0,0,1-.8.034,4.729,4.729,0,0,0-1.1.107c-.125.016-.247.075-.371.079-.666.026-1.333.055-2,.052-.324,0-.647-.087-.972-.1-.347-.016-.367.02-.367.368,0,.265,0,.53,0,.837-.46,0-.905.006-1.35-.009-.046,0-.118-.123-.127-.2a.227.227,0,0,0-.276-.231c-.227.02-.454.041-.678.079-.171.029-.326.055-.433-.128a.193.193,0,0,0-.133-.077,6.875,6.875,0,0,0-.9-.049c-.114.006-.221.137-.363.231a4.114,4.114,0,0,1-.549.054,1.215,1.215,0,0,1-.463-.1,5.441,5.441,0,0,1-.562-.334l-.155.665c-.059-.025-.087-.028-.09-.039a.74.74,0,0,0-.911-.582,1.771,1.771,0,0,1-1.422-.443c-.254-.217-.494-.1-.744.073-.108-.551-.472-.121-.7-.243l-.092.415a.688.688,0,0,0-.975.218l-.559-.906c-.667.078-1.32.165-1.975.226a3.186,3.186,0,0,1-.6-.054c-.217-.022-.434-.055-.652-.062-1.062-.037-2.125-.055-3.186-.1a11.05,11.05,0,0,1-1.192-.165c-.06-.009-.113-.067-.169-.1a.581.581,0,0,1,.195-.082c.825,0,1.65,0,2.475,0a.514.514,0,0,0,.191-.017c.114-.048.22-.114.33-.172a1.963,1.963,0,0,0-.308-.3A1.416,1.416,0,0,0,61.019,80a.667.667,0,0,0,.236-.775c-.057-.243-.264-.178-.426-.2a1.08,1.08,0,0,0-.22,0c-.436.031-.5.1-.492.531.01.465-.006.483-.6.663a.8.8,0,0,0-.075-.157c-.1-.125-.214-.181-.338-.039-.086.1-.14.282-.234.3a1.733,1.733,0,0,1-.593-.025c-.47-.072-.935-.183-1.406-.232a3.989,3.989,0,0,0-.729.078c-.123.011-.263-.042-.372,0-.4.145-.8-.054-1.2.007-.588.09-1.17.255-1.76.286a5.617,5.617,0,0,1-2.293-.074.907.907,0,0,0-1.108.8c-.218-.146-.555-.024-.66-.373a.357.357,0,0,0-.228.012c-.058.027-.077.133-.134.167a1.8,1.8,0,0,1-.311.114,1.058,1.058,0,0,1,0-.275c.05-.194.124-.386-.152-.465-.209-.059-.364-.018-.385.238-.011.127-.029.253-.045.393a4.253,4.253,0,0,1-1.622-.169c-.284-.063-.577-.087-.865-.131-.153-.024-.3-.057-.457-.079-.2-.029-.4-.051-.6-.077.036.369.066.672.1.975l-.077,0c-.136-.213-.262-.433-.414-.634a.306.306,0,0,0-.25-.115,1.734,1.734,0,0,1-2.065-.722l-.31.578c-.175-.348-.277-.577-.4-.793a.416.416,0,0,0-.669-.034.28.28,0,0,0,.076.255c.263.209.287.357.048.646-.362-.285-.634-.113-.894.259-.173-.283-.338-.529-.479-.789-.1-.187-.205-.276-.4-.126a.232.232,0,0,1-.155.041,4.44,4.44,0,0,0-1.514.2,1.4,1.4,0,0,1-.433-.01c-.315-.037-.628-.114-.943-.127-.86-.034-1.722-.026-2.581-.068-.491-.024-.98-.107-1.468-.178a.6.6,0,0,1-.317-.187,43.8,43.8,0,0,0,5.248-.25l.122.432a2.808,2.808,0,0,0,.242-.193.755.755,0,0,1,.723-.2,4.541,4.541,0,0,0,1.093.017c.144-.012.276-.159.416-.247.014,0,.036,0,.048.011.117.1.229.272.35.279.1.005.2-.192.307-.3.019-.02.04-.038.06-.057.371-.36.37-.359.115-.808-.04-.07-.054-.155-.095-.225a1.872,1.872,0,0,0-.173-.237c-.066-.08-.193-.154-.194-.231s.111-.168.189-.237a1.917,1.917,0,0,1,.261-.164c-.318-.37-.722-.2-.992-.246a4.808,4.808,0,0,1,.31-.409.573.573,0,0,0,.218-.5c-.011-.088.14-.211.236-.3a5.915,5.915,0,0,0,.539-.445c.167-.19.014-.562-.283-.7-.163-.075-.174-.115-.114-.3.073-.22.25-.407.151-.713a3.094,3.094,0,0,1,.01-.976h.291a1.082,1.082,0,0,0,.1.253c.12.17.142.293-.072.418-.168.1-.142.262-.027.4A2.557,2.557,0,0,0,40.1,74a.65.65,0,0,1-.117.071c-.275.078-.32.154-.172.406.212.362.454.707.674,1.064.21.342.41.69.612,1.036.049.084.091.171.153.29l.656-.626c-.268-.232-.163-.407.068-.566.152-.1.114-.2-.019-.3-.442-.332-.436-.4.033-.715.086-.057.166-.125.269-.2a1.537,1.537,0,0,1-.581-1.32c-.013-.238-.016-.477,0-.715a.454.454,0,0,1,.1-.271.375.375,0,0,0,.056-.477c-.135-.267-.268-.534-.405-.807a1.937,1.937,0,0,0-.311-2.048c.076-.2.143-.384.215-.565.094-.237.181-.477.289-.707.238-.505.3-1-.256-1.314a3.12,3.12,0,0,1-.393-.342c-.29-.237-.456-.187-.583.188l-.559-.926c.015-.011.028-.03.041-.031.653-.041.672-.041.65-.692-.015-.445-.1-.887-.143-1.331-.013-.127-.013-.255-.014-.383a.893.893,0,0,0-.138-.651.487.487,0,0,1-.068-.289.244.244,0,0,1,.361-.24.965.965,0,0,0,.893-.372.372.372,0,0,0-.066-.275c-.027-.04-.142-.037-.213-.026-.322.051-.643.114-.965.165a.7.7,0,0,1-.195-.04c.094-.186.171-.355.263-.515a.363.363,0,0,0-.148-.559.229.229,0,0,1-.1-.189,7.433,7.433,0,0,0,.106-2.315,6.965,6.965,0,0,1,.042-.907c.013-.187,0-.345-.214-.417-.17-.057-.2-.2-.165-.358a1.376,1.376,0,0,1,.069-.293.518.518,0,0,0-.136-.745c.252-.342.271-.329.593-.116a1.784,1.784,0,0,0,.548.18c.1.026.225,0,.323.034a.6.6,0,0,0,.749-.471,2.761,2.761,0,0,1,.041-.572,4.035,4.035,0,0,1,.309-.628c.193.4.419.683.771.709a2.98,2.98,0,0,1,1.267.586,1.378,1.378,0,0,0,1.447.14c.154.207.017.6.418.573.17-.01.219-.111.28-.536.167.15.327.277.468.423s.255.132.419.008a.437.437,0,0,1,.391-.035c.2.115.333.139.471-.084a1.9,1.9,0,0,1,.323-.315l.544.513c.589-.66,1.375-.278,2.059-.422-.028-.4.069-.465.517-.381-.034.212-.072.422-.1.635-.005.044.031.131.058.134a.259.259,0,0,0,.165-.05.453.453,0,0,0,.129-.142c.181-.31.429-.3.681-.08a2.3,2.3,0,0,0,2.023.272,1.886,1.886,0,0,1,.217-.023c1.438-.041,2.877-.06,4.313-.133a12.358,12.358,0,0,0,1.563-.274c.2-.037.407-.084.613-.107.293-.033.174-.247.186-.4s-.037-.276-.232-.248a2.645,2.645,0,0,1-.46.06.42.42,0,0,1-.272-.132c-.032-.036.022-.16.053-.238a3.273,3.273,0,0,1,.152-.29c.468.126.629-.241.82-.578a.874.874,0,0,0,.02-1.1,1.773,1.773,0,0,0,.63.066c.169-.054.3-.238.484-.4.029.186.064.34.074.5.026.4.04.8.06,1.2.01.2.12.267.31.256.164-.009.306-.014.31-.241a.722.722,0,0,1,.151-.392l.213.622c-.339.273-.819.327-1.068.791a10.957,10.957,0,0,0,2.36.932l-.017.126c-.252,0-.505.015-.757.01-.136,0-.341-.1-.393-.041a1.115,1.115,0,0,0-.28.541c-.041.256.235.5.5.55a.266.266,0,0,1,.178.174c.03.285.186.314.422.264a2.49,2.49,0,0,1,.676-.054,2.478,2.478,0,0,1-1.181.465,1.9,1.9,0,0,0-.673.269.273.273,0,0,0-.029.26,1.1,1.1,0,0,0,.422.28c.206.063.2.147.1.291-.048.067-.1.133-.152.195-.148.169-.4.332-.021.524a.117.117,0,0,1,.032.1c-.044.253.119.383.291.511a1.143,1.143,0,0,1,.123.144,1.84,1.84,0,0,0-.336-.043c-.09.007-.221.024-.254.082a.308.308,0,0,0,.041.268c.12.169.075.279-.074.393-.309.235-.311.339,0,.645-.282.023-.26.214-.243.4.025.273.044.547.083.818.074.521.078.52-.344.839l.883.664a4.6,4.6,0,0,0-.485,1.835c-.086.379-.222.746-.351,1.168a1.76,1.76,0,0,0,1,.542,7.689,7.689,0,0,0-.158,1.028,3.877,3.877,0,0,0,.149.738c.081.452.156.9.217,1.36.007.048-.083.123-.143.162-.22.144-.447.278-.7.432a1.839,1.839,0,0,0,.2.263.191.191,0,0,1-.025.338c-.2.133-.11.248.009.349.136.116.292.211.457.328l-.182.152c-.145.121-.168.266-.024.388a.915.915,0,0,1,.258.8c0,.094-.1.2-.175.273a2.3,2.3,0,0,1-.284.22c.171.386.5.38.861.379-.288.119-.317.264-.146.507.187.266.163.283.076.757a1.621,1.621,0,0,0-1,.564.231.231,0,0,0,.093.388,2.053,2.053,0,0,0,1.224.356c.216-.039.43-.088.659-.136-.014-.029,0-.015,0,0,.036.13.071.261.106.392a3.527,3.527,0,0,0,.412-.172c.2-.115.388-.261.593-.373a.5.5,0,0,1,.29-.042c.374.05.508-.013.628-.325a.569.569,0,0,0-.31-.641.641.641,0,0,0-.135-.055c.03-.33.056-.63.087-.929.007-.07.045-.137.045-.206a1.411,1.411,0,0,0-.026-.509c-.1-.253-.081-.319.2-.355.222-.029.441-.072.669-.11-.186-.5-.083-.677.483-.812-.11.133-.18.229-.262.315a.578.578,0,0,0,.013.88,9.888,9.888,0,0,1,.655.843.686.686,0,0,1,.077.411,2.694,2.694,0,0,0-1.106-.806.542.542,0,0,0-.357,0c-.133.04-.167.154-.085.285.065.1.121.213.2.353.015-.04.013-.014,0-.011-.363.109-.311.3-.151.57.123.207.156.468.422.573.038.015.045.1.07.158a3.126,3.126,0,0,0,.263.49.962.962,0,0,1,.891-.576c.042,0,.115-.062.115-.1,0-.382.343-.405.569-.549.029-.018.062-.032.12-.06-.047-.058-.074-.121-.121-.144a1.138,1.138,0,0,1-.553-1.029,4.509,4.509,0,0,1,0-.879,1.629,1.629,0,0,1,.167-.4c.027-.069.072-.158.05-.213a3.446,3.446,0,0,0-.353-.736c-.07-.1-.278-.114-.427-.126a1.253,1.253,0,0,0-.376.123l.139-.4c.222.275.428.274.639.06a.719.719,0,0,0,.054-.794,5.723,5.723,0,0,1-.224-.586l-.225-.6c.081-.2.157-.4.245-.6.125-.284.264-.563.387-.848a.753.753,0,0,0-.27-1.01c-.136-.1-.27-.212-.4-.323-.149-.127-.291-.212-.49-.08a.228.228,0,0,1-.359-.11c-.113-.217-.225-.435-.336-.65.209-.051.459-.038.551-.153a.867.867,0,0,0,.059-.555c-.047-.5-.118-1.007-.182-1.51a.122.122,0,0,0-.037-.072c-.436-.361-.158-.8-.113-1.207.007-.06.278-.166.378-.127.372.145.567-.2.852-.276.033-.009.043-.229,0-.327a.269.269,0,0,0-.245-.1,2.914,2.914,0,0,0-.615.3c-.128.083-.219.248-.4.143-.2-.118-.445-.217-.456-.5a.813.813,0,0,1,.2-.7c.123-.12.1-.378.179-.558.1-.229-.028-.357-.174-.489.4-.457.161-1,.218-1.5,0-.024-.011-.066-.028-.073-.345-.145-.129-.316-.026-.483.128-.208.148-.388-.117-.509-.232-.106-.461-.22-.692-.328-.139-.065-.281-.125-.413-.183a8.971,8.971,0,0,0,.847-.466c.354-.246.353-.4.123-.634.013-.234.094-.46.015-.559-.093-.116-.323-.123-.494-.178l-.009-.082a2.39,2.39,0,0,1,.4-.009,3.237,3.237,0,0,0,.609.121c.356-.022.377-.109.228-.445-.119-.267-.214-.544-.322-.816-.075-.191-.045-.306.184-.353a.764.764,0,0,0,.6-.476c.054-.141.05-.247-.148-.261s-.378-.051-.574-.079a.425.425,0,0,1-.011-.11c.077-.465.141-.933.242-1.393a1.174,1.174,0,0,1,.251-.452c.086-.107.15-.153.008-.275a1.214,1.214,0,0,1-.455-.955c0-.1-.1-.2-.143-.306a.478.478,0,0,1-.063-.237c.063-.361-.053-.528-.428-.577-.207-.027-.416-.044-.622-.078a.716.716,0,0,1-.594-.483,2.026,2.026,0,0,0,.466-.009A.668.668,0,0,0,67,47.566c.072-.08.09-.279.148-.286a.971.971,0,0,1,.447.079,1.779,1.779,0,0,0,1.228-.023c-.325-.36-.6-.669-.88-.97a.2.2,0,0,0-.176-.055c-.3.142-.423-.1-.6-.246a.779.779,0,0,0-.309-.165c-.547-.133-1.095-.266-1.648-.37-.228-.043-.472.005-.7-.021a2.478,2.478,0,0,1-.567-.146.931.931,0,0,1-.234-.187c-.138-.116-.281-.158-.4.018a.3.3,0,0,0,.065.457,5.178,5.178,0,0,1,.577.464,8.094,8.094,0,0,1,.676.786c.038.049-.007.2-.062.273-.146.185-.438.346-.443.522s.27.357.451.5.066.228,0,.342c-.123.2-.242.41-.365.619-.215-.257-.593-.221-.939-.284-.183-.033-.258.042-.264.24a2.318,2.318,0,0,1-.116.484l-.111-.017a.47.47,0,0,1-.009-.185.539.539,0,0,0-.132-.6c-.348-.4-.342-.406-.007-.813.044-.053.083-.112.125-.169a.723.723,0,0,0-.963.086.3.3,0,0,0-.055.19c0,.249.02.5.009.746-.009.2-.013.377.185.509.044.029.051.2.009.257a2.7,2.7,0,0,1-.365.353,5.649,5.649,0,0,1-.3-.527c-.053-.121-.093-.187-.238-.134a.907.907,0,0,1-.9-.016c-.045-.031-.165.029-.243.066-.151.07-.3.153-.423.22a1.408,1.408,0,0,0-.21-.355c-.042-.037-.179,0-.253.039a3.81,3.81,0,0,0-.389.281c-.14-.475-.547-.614-.891-.83a.4.4,0,0,1-.118-.113c-.1-.155-.3-.316-.162-.5.054-.074.29-.021.442-.016.274.009.549.047.82.03A.478.478,0,0,0,59,47.884c.48-.68.368-.683,1.078-.151.064.048.12.105.177.155.03-.02.055-.027.058-.039a2.184,2.184,0,0,1,1.024-1.237,4.459,4.459,0,0,0,.475-.414c.112-.108.192-.251.057-.385-.151-.15-.263-.409-.562-.26a2.547,2.547,0,0,1-.3.107,1.006,1.006,0,0,0,.1-.289c.013-.375,0-.75.008-1.124,0-.159.033-.318.05-.477a4.738,4.738,0,0,0,.416.377.378.378,0,0,0,.521-.05c.081-.081.185-.218.166-.306-.055-.257-.784-.6-1.08-.535a1.182,1.182,0,0,1-.08-.3q-.005-1.193.008-2.387a2.391,2.391,0,0,1,.062-.371c.007.484.011.968.025,1.452a3.7,3.7,0,0,0,.065.425c.123-.07.2-.1.261-.15.151-.108.253-.208-.011-.319-.18-.076-.158-.186-.008-.305a.344.344,0,0,0,.137-.256.954.954,0,0,1,.147-.679,6.394,6.394,0,0,0,.327-.721c.054-.143,0-.255-.16-.328a.5.5,0,0,1-.154-.792,1.908,1.908,0,0,1,.251-.254c.083-.071.178-.126.29-.2a1.18,1.18,0,0,0-.129-.093.838.838,0,0,1-.481-.658c-.013-.1-.022-.2-.034-.3a.729.729,0,0,1,.4-.88c.559-.3.536-.456.188-.981a.669.669,0,0,0-.707-.358.237.237,0,0,1-.188-.059c.225-.081.452-.159.676-.245.43-.166.568-.325.509-.636a.4.4,0,0,0-.2-.277.422.422,0,0,0-.364.075c-.127.134-.273.209-.4.116-.089-.063-.1-.243-.136-.373a.456.456,0,0,1,0-.137c.007-.182-.046-.406.041-.533.067-.1.312-.07.476-.109.374-.09.4-.165.223-.507a.345.345,0,0,1,.058-.284c.152-.215.328-.412.513-.639l-.928-.718.421-.121.018-.057-.6-.184.521-.881c0,.005,0-.018-.01-.028-.328-.274-.327-.283-.193-.707a1.242,1.242,0,0,0,.019-.3c-.114,0-.25-.048-.337,0a8.69,8.69,0,0,0-1.2.716A4.077,4.077,0,0,1,59,29.519a4,4,0,0,0-.738.27c-.337.169-.656.374-1.011.58l.642.395c-.458.314-.819.758-1.446.634-.061-.012-.213.122-.218.2a7.89,7.89,0,0,0,.021.815l-1.01.159-.04.245a2.235,2.235,0,0,0-.536-.153.4.4,0,0,0-.434.45c.005.272-.1.576.248.8-.191.054-.341.148-.465.121a.465.465,0,0,0-.539.262c-.055.083-.143.143-.2.222-.156.2-.334.314-.6.157-.207.7-.785.85-1.442.986l.7.611-.016.059c-.188-.024-.377-.05-.565-.069a2.124,2.124,0,0,0-.41-.024.561.561,0,0,0-.569.617,1.869,1.869,0,0,0,0,.329c.037.222-.116.286-.272.348s-.218-.043-.3-.151a.331.331,0,0,0-.288-.1c-.437.155-.864.337-1.319.52a.633.633,0,0,0,.53.342c.182.018.366.009.549.017s.251.087.181.288c-.055-.026-.1-.047-.145-.069-.391-.2-.686-.024-.694.406,0,.164,0,.327,0,.522-.079-.028-.14-.032-.171-.064-.219-.222-.4-.151-.57.061-.079.1-.155.2-.233.3-.177.231-.351.465-.533.691a9.116,9.116,0,0,1-.752.9c-.474.455-.984.873-1.483,1.3a.211.211,0,0,1-.169.052c-.213-.082-.275.033-.324.207a1.9,1.9,0,0,1-.772.9,4.1,4.1,0,0,1-.639.428,1.735,1.735,0,0,0-.775.787.5.5,0,0,1-.322.2,2.718,2.718,0,0,1-.527.008c.026.193.047.343.064.493.036.306-.04.421-.329.5a.81.81,0,0,1-.844-.327.277.277,0,0,1,.105-.423c.267-.16.3-.337.1-.575a.332.332,0,0,1-.076-.228c.039-.334-.125-.413-.418-.374a2.9,2.9,0,0,1-.379,0,1.179,1.179,0,0,0,.026-.346c-.1-.417.143-.6.461-.75a1.2,1.2,0,0,0,.307-.225.392.392,0,0,0,.1-.215c.017-.129-.032-.357.013-.375a1.262,1.262,0,0,1,.607-.107.343.343,0,0,0,.393-.192c.16-.243.345-.47.544-.737.339.659.623.031.97-.031.087.179.163.364.265.533a1.371,1.371,0,0,0,.234.238,1.815,1.815,0,0,0,.138-.278,1.9,1.9,0,0,0,.039-.3c.038-.279-.039-.45-.358-.487a.759.759,0,0,1-.354-.23c-.12-.11-.211-.253-.327-.37-.333-.334-.332-.324-.763-.155a.436.436,0,0,1-.327-.015c-.442-.24-.873-.5-1.306-.754a.418.418,0,0,1-.181-.161.273.273,0,0,1,.055-.2c.661.022,1.138-.422,1.7-.652a2.819,2.819,0,0,1,.68-.182.584.584,0,0,0,.408-.22,2,2,0,0,1,.548-.429,3.5,3.5,0,0,1,.605-.206c.134.143.243.354.5.2.03-.018.149.075.2.137a.641.641,0,0,0,1.019,0l-.969-.852.015-.082c.631.033.856-.42,1.1-.854.113-.2.259-.378.375-.575a.722.722,0,0,1,.649-.4,1.26,1.26,0,0,0,.812-.372c.509-.37,1.047-.7,1.572-1.046a3.655,3.655,0,0,0,.426-.3,2.019,2.019,0,0,1,1.087-.577,1.247,1.247,0,0,0,.648-.388,10.033,10.033,0,0,1,2.608-1.748,1.1,1.1,0,0,1,1.087-.106.561.561,0,0,0,.813-.239c-.217-.219-.428-.426-.79-.331-.071.019-.162-.042-.244-.066a.729.729,0,0,1,.116-.222.658.658,0,0,1,.775-.167c.353.163.611-.139.914-.223.024-.007.037-.113.027-.167-.084-.441-.033-.521.38-.7a3.33,3.33,0,0,0,.585-.334.269.269,0,0,0,.043-.462c-.028-.028-.031-.08-.057-.149.163-.019.3-.033.445-.054a2.865,2.865,0,0,0,1.2-.735c.413-.3.829-.6,1.237-.9a.357.357,0,0,0,.138-.215.419.419,0,0,1,.374-.4,3.289,3.289,0,0,0,.723-.252c.323-.166.347-.366.064-.556.112-.081.207-.16.312-.224.173-.1.356-.189.526-.3.3-.191.645-.355.549-.825.282-.03.591.145.806-.182l-.367-.222c.015-.04.018-.069.027-.072.519-.125.633-.493.579-.963-.006-.054-.022-.126,0-.162.05-.066.149-.168.189-.152.081.03.2.136.189.2a2.777,2.777,0,0,1-.142.5c-.043.145-.124.3.088.436.079-.09.157-.184.241-.273.218-.231.428-.471.659-.688.379-.355.792-.677,1.152-1.051a1.9,1.9,0,0,0,.327-.649c.02-.053-.066-.2-.131-.222a9.615,9.615,0,0,0-1.138-.362c-.188-.044-.274-.108-.284-.294a1.659,1.659,0,0,0-.442-.952,15.081,15.081,0,0,0-2.123-1.975c-.279-.233-.539-.488-.781-.709l.308-.606h.057c0,.149.009.3,0,.446-.02.263.087.377.353.338a1.149,1.149,0,0,0,.245-.018c.236-.094.349.075.441.222.041.066-.06.206-.037.3a1.63,1.63,0,0,0,.2.5c.089.136.232.107.362.013s.225-.214.1-.386c-.012-.017,0-.052.007-.1.172-.019.315.02.356.2a.257.257,0,0,0,.4.182,5.458,5.458,0,0,0,.715-.474,3.023,3.023,0,0,0,.247-.223.977.977,0,0,1,.022.24,1.5,1.5,0,0,0,.345,1.171,1.362,1.362,0,0,0,.983.682c.568.065.61.524.758.914.037.1.08.191.117.278a17.036,17.036,0,0,0,4.337-3.09c.229.026.583.077.938.1a.54.54,0,0,0,.342-.1.279.279,0,0,1,.432.05c.14.168-.033.247-.143.311-.324.189-.654.366-.984.544a1.366,1.366,0,0,0-.919,1.425c-.462-.265-.865-.011-1.276.141-.037.014-.058.18-.027.25a.325.325,0,0,1-.2.5c-.22.089-.438.185-.656.28a.732.732,0,0,0-.507.527c.334.276.677.556,1.014.844.072.062.173.158.167.23-.023.255.147.3.321.364.257.095.513.191.764.3a1.171,1.171,0,0,1,.681.7c.043.124.114.238.22.455l.42-.6.117.107-.344.447c.273.05.515.081.749.143a2.319,2.319,0,0,1,.5.2c.059.031.084.126.124.191a1.454,1.454,0,0,1-.181.1c-.125.048-.253.087-.473.161.506.477.935.936,1.42,1.325.736.59,1.511,1.13,2.269,1.693a.657.657,0,0,1,.181.166.433.433,0,0,0,.637.185.432.432,0,0,1,.326.053c.031.017,0,.18-.026.266a4.44,4.44,0,0,1-.2.427c.191.11.41.222.614.358.108.072.179.2.285.275.564.4,1.148.781,1.7,1.2.435.333.811.744,1.254,1.065a2.809,2.809,0,0,1,.629.644l.155.215c-.042.037-.061.056-.082.07-.321.219-.313.206.014.4.225.137.415.331.639.47.261.163.338.1.376-.2.006-.049.2-.134.229-.111a6.593,6.593,0,0,1,.677.7c.13.162.065.331-.125.431a2.822,2.822,0,0,0-.342.173c-.092.066-.231.175-.222.249a.318.318,0,0,0,.372.285,1.163,1.163,0,0,0,.34-.1c.248-.111.485-.247.738-.345a.7.7,0,0,1,.291.011,9.21,9.21,0,0,0-.466.908c-.12.312.013.425.34.366a2.812,2.812,0,0,1,.521-.014.525.525,0,0,0,.6-.555c.213.24.379.437.556.623a.8.8,0,0,0,.946.312c0,.292.043.514.306.625.043.018.048.151.053.232.008.144,0,.288,0,.474.178,0,.349,0,.52,0,.136,0,.255-.006.251.194s-.1.231-.259.238-.346.023-.518.042a.762.762,0,0,0-.17.083c.6.366.53.906.459,1.536l-.719-.845-.077.052-.246.131a2.892,2.892,0,0,0-1.211-1.225c.01-.137.029-.3.032-.465s-.09-.171-.223-.14a1.16,1.16,0,0,0-.775.814.852.852,0,0,0,.448.809.4.4,0,0,0,.27-.061,2.407,2.407,0,0,0,.312-.252c.07.673-.139,1.391.655,1.833a1.058,1.058,0,0,0-.868.6c-.04.076-.24.1-.364.088-.047,0-.122-.154-.121-.236,0-.179.015-.337-.165-.454-.049-.032-.057-.149-.059-.228a.55.55,0,0,0-.718-.57c-.2.052-.265-.013-.314-.176a.722.722,0,0,0-.6-.522,1.279,1.279,0,0,1-.544-.371c-.187-.185-.318-.426-.5-.617a.485.485,0,0,0-.777.018l-.192-.114-.008-.019-.051-.05c-.07-.135-.145-.268-.208-.406a.515.515,0,0,0-.606-.33,2.587,2.587,0,0,1-.365-.232c-.81-.724-1.611-1.459-2.422-2.182Q75.9,30.87,73.366,28.63a3.82,3.82,0,0,0-.447-.3c-.079-.1-.154-.2-.238-.3a.427.427,0,0,0-.647-.123,3.648,3.648,0,0,1,.115.806,2.538,2.538,0,0,1-.455,1.185,2.79,2.79,0,0,0-.294.787c-.069.253.069.4.317.448l.5.1a1.576,1.576,0,0,1-1.061.934l.394.653c-.023.031-.035.064-.055.072-.209.077-.237.134-.178.379,0,.018,0,.037.006.055a1.811,1.811,0,0,1-.389,1.688l.684.843c-.132.046-.318.066-.33.121a1.813,1.813,0,0,0-.093.931,3.611,3.611,0,0,1,.178,1.261.652.652,0,0,1-.3.677.363.363,0,0,0-.115.251,3.622,3.622,0,0,0-.005.467c0,.3.117.433.422.46.151.014.3,0,.527,0-.174.106-.3.175-.415.255a2.58,2.58,0,0,0-.215.182c.085.073.159.181.257.21a3.859,3.859,0,0,0,.566.088,2.076,2.076,0,0,1-.853,1.206c.211.254-.011.416-.13.6.307.115.29.384.336.623.03.158.067.31.278.3.191,0,.365-.022.413-.265a1.351,1.351,0,0,1,.154-.467,1.617,1.617,0,0,1,.346-.3,3.207,3.207,0,0,1,.193.42c.02.067-.028.156-.049.234a.93.93,0,0,0-.062.207c-.006.336,0,.673,0,1.035-.175.044-.215-.073-.209-.28.007-.258-.176-.387-.455-.375-.306.013-.2.207-.182.372a1.108,1.108,0,0,1,0,.461c-.054.141-.1.231.031.35a.379.379,0,0,0,.446.084,4.186,4.186,0,0,1,.495-.132l.249.544M61.624,74.3a.124.124,0,0,0-.009-.047c0-.037-.008-.074-.012-.11.068-.226.13-.454.2-.679a3.6,3.6,0,0,0,.064-1.54c-.073-.678-.088-1.363-.15-2.042a3.571,3.571,0,0,1,.195-1.779.326.326,0,0,0-.051-.3c-.2-.14-.182-.329-.155-.516a5.337,5.337,0,0,1,.136-.615.758.758,0,0,0-.093-.752.276.276,0,0,1,.044-.26c.185-.081.153-.188.1-.334-.088-.264.057-.59-.214-.809-.019-.015-.013-.072-.007-.107a5.053,5.053,0,0,1,.125-.641c.079-.252.2-.489.3-.738a.519.519,0,0,0-.188-.692c-.265-.127-.286-.187-.068-.379a.266.266,0,0,0,.016-.443,1.581,1.581,0,0,0-.313-.2l0-.493a1.887,1.887,0,0,0,.407.033c.081-.01.216-.1.216-.153,0-.3.016-.617-.31-.8-.045-.025-.072-.081-.108-.122-.165-.184-.174-.339.053-.493a.318.318,0,0,0,.1-.488c-.179-.219-.1-.331.1-.447.125-.071.18-.162.066-.311-.254-.329-.194-.56.131-.722l-1.086-1.063c-.029.153-.054.247-.065.343a.48.48,0,0,1-.489.409c-.49-.036-.983-.051-1.471-.1a2.356,2.356,0,0,1-1.261-.428l.432-.441a3.774,3.774,0,0,1-.714-.008c-.4-.082-.385-.1-.483.292-.035.139-.038.343-.275.294-.193-.04-.334-.133-.294-.374a1.186,1.186,0,0,0-.024-.294l-.108.006c-.012.075-.029.15-.035.226a.519.519,0,0,1-.522.486c-.573-.042-1.145-.106-1.718-.14-.828-.05-1.659-.129-2.487-.107-1.11.029-2.217.154-3.327.216-.539.03-1.081,0-1.622.018-.232.007-.4,0-.367-.3.007-.062-.041-.13-.086-.261a1.989,1.989,0,0,1-1.311.936c.1.114.153.2.223.264.178.176.2.327-.017.5a1.893,1.893,0,0,0-.274.343l-.538-.646c-.059.172-.125.269-.116.358a.745.745,0,0,1-.385.751c-.192.131-.147.229.087.309a.3.3,0,0,1,.138.082c.159.209.375.192.6.173a3.685,3.685,0,0,1,.421.01q.024.475.047.949l-.908-.178c-.1.419-.424.318-.789.144a2.732,2.732,0,0,1-.369,1.7c.2-.034.376-.107.556-.153.2-.05.4-.074.6-.11.031.229.068.457.089.686a1.051,1.051,0,0,1-.048.213c-.053.386-.1.774-.157,1.16a.64.64,0,0,1-.108.326c-.124.135-.1.23-.028.382a3.318,3.318,0,0,1,.054,3.041c-.051.1-.1.207-.155.313.716.276.716.276.473.731.215.16.173.348.037.543a1.509,1.509,0,0,1-.113.187.477.477,0,0,0-.048.669.335.335,0,0,1-.015.266c-.068.157-.178.3-.245.453a1.016,1.016,0,0,0-.031.3c.094,0,.187,0,.281,0,.3-.012.552-.336.89-.158q0,.126,0,.253l-.767.683a3.31,3.31,0,0,1,.31.876,13.172,13.172,0,0,1-.088,1.467,1.263,1.263,0,0,0,.262,1.027.432.432,0,0,1,.048.361c-.095.291.137.679.439.649.252-.025.5-.119.746-.162.208-.036.42-.044.67-.069a1.513,1.513,0,0,1-.073.212c-.165.285,0,.36.269.4.076.011.164-.1.253-.135.141-.062.294-.17.428-.153.192.024.213.22.2.4a.837.837,0,0,0,.02.144,1.606,1.606,0,0,0,.637-.621c.058-.088.189-.221.238-.2a1.018,1.018,0,0,1,.309.256c.048.046.075.152.119.156a1.311,1.311,0,0,0,.515-.015c.067-.022.077-.216.113-.332.008-.026.013-.054.023-.079a.273.273,0,0,1,.359-.166.226.226,0,0,1,.182.31.833.833,0,0,0,.013.23l.075.013.224-.355a3.952,3.952,0,0,1,.828.409.663.663,0,0,0,.838.126,7.393,7.393,0,0,1,1.05-.362,1.485,1.485,0,0,1,.109.308c.024.152,0,.311.018.466.039.439.305.611.724.463.133-.047.216-.065.272.1.02.062.135.093.207.139.034-.067.1-.135.095-.2,0-.126-.066-.253-.057-.376a.286.286,0,0,1,.147-.218c.377-.084.583.073.643.461.012.075.024.151.04.253.487-.463.6.175.924.277a4.962,4.962,0,0,1,.069-.737.579.579,0,0,1,.578-.441c-.029.191-.047.34-.076.487-.019.1-.054.193-.082.29.121.006.272.061.358.009.184-.109.326-.286.5-.411a.445.445,0,0,1,.3-.068c.04.006.09.152.082.229a1.218,1.218,0,0,1-.113.358c-.084.186-.182.366-.3.6.264-.013.454-.015.642-.034s.251-.147.146-.283c-.177-.23-.042-.367.122-.469a1.554,1.554,0,0,1,.608-.265,13.179,13.179,0,0,1,1.719-.088,1.446,1.446,0,0,0,1.087-.494c.093-.092.061-.332.047-.5-.007-.089-.1-.171-.147-.254.223-.216.211-.334-.051-.455-.139-.064-.2-.13-.063-.257s.092-.233-.056-.322a.913.913,0,0,1-.136-.124l-.007-.083m27.716-4.709a1.384,1.384,0,0,0,.228-.387,2.008,2.008,0,0,0-.073-.736c-.072-.424.018-.872-.026-1.3-.063-.62.307-1.249-.044-1.859a.08.08,0,0,1,0-.054,6.889,6.889,0,0,1,.3-1.009.855.855,0,0,0-.065-1.012c-.166-.136-.174-.242-.033-.376s.1-.276-.031-.4c-.08-.074-.171-.136-.257-.2l.011-.511a3.125,3.125,0,0,1,.407.039c.178.04.2-.02.182-.184a1.214,1.214,0,0,0-.461-.9.281.281,0,0,1-.064-.44c.127-.192.41-.414.126-.71-.022-.023.041-.147.087-.208s.138-.075.167-.132.066-.2.03-.241a1.131,1.131,0,0,0-.335-.242,1.428,1.428,0,0,0-.156.2l-.274,0c.039-.245.107-.407.43-.4.173,0,.347-.2.522-.306l-.013-.1c-.617-.017-.708-.611-1.054-1a4.721,4.721,0,0,1-.184.655A.411.411,0,0,1,88.5,58a3.113,3.113,0,0,1-.623-.056c-.381-.047-.762-.092-1.142-.149a1.551,1.551,0,0,1-1.1-.494l.441-.261-.032-.048-1.09-.075a3.438,3.438,0,0,1-.072.356c-.044.14-.046.333-.276.3s-.267-.176-.252-.379a2.412,2.412,0,0,0-.037-.414c-.125.189-.149.387-.243.543a1.421,1.421,0,0,1-1.158.252,3.47,3.47,0,0,0-1.4-.178c-.021.116-.037.207-.054.3-.176-.38-.511-.3-.8-.32-.082-.007-.164-.02-.246-.021-.312,0-.625,0-.985,0l.258.387-.054.1a3.278,3.278,0,0,1-.866-.254,1.5,1.5,0,0,0-.917-.18,5,5,0,0,0-.705.066,14.184,14.184,0,0,1-2.85.135,1.439,1.439,0,0,1-.186-.028.528.528,0,0,0,0-.151c-.037-.1-.085-.206-.129-.309l-.236.2c-.184.159-.358.331-.555.47a1.646,1.646,0,0,1-.408.142,1.869,1.869,0,0,0,.174.276c.136.146.187.275.039.454a.356.356,0,0,1-.508.091c-.115-.064-.226-.137-.378-.23,0,.5,0,.954,0,1.4,0,.2.13.162.27.152a4.416,4.416,0,0,1,.557.026q0,.467-.009.933l-.719-.087c-.07.272-.123.55-.214.814a.458.458,0,0,1-.686.268c-.072-.033-.141-.073-.222-.116l-.33.8a.965.965,0,0,0,.191-.02c.243-.079.486-.159.725-.248.185-.069.369,0,.357.166-.028.375.22.8-.157,1.127-.036.032-.032.118-.033.18-.007.348-.017.7-.011,1.044a1.326,1.326,0,0,0,.067.483,6.2,6.2,0,0,1,.059,3c-.011.152-.036.234.132.287a.539.539,0,0,1,.193.156c-.181.256-.046.512-.012.768a.1.1,0,0,1-.03.075.97.97,0,0,0-.182,1.211c.206.524.384.694.881.556q0,.122,0,.244l-.7.621c.347.4.347.4.077.734l.668.2c0,.329,0,.659.009.988s.032.671.05,1.006a1.027,1.027,0,0,0,1.137.046l.745,0a2.728,2.728,0,0,0,.582.356,2.3,2.3,0,0,1,.431.164,5.8,5.8,0,0,0,1.119.451c.391.116.8.167,1.2.253a.623.623,0,0,0,.715-.184.231.231,0,0,1,.209-.058.246.246,0,0,1,.129.179,5.883,5.883,0,0,1,.006.659c-.007.172-.109.245-.278.208-.241-.052-.483-.129-.687.168-.125-.613-.593-.4-.921-.53l-.039.268c-.076-.08-.149-.122-.166-.18-.075-.253-.239-.25-.426-.156a1.939,1.939,0,0,1-1.263.133c-.35-.07-.479.189-.7.305-.073.038-.086.189-.127.288.088.032.175.069.265.1.146.042.294.078.441.116L75.4,78l-.879.1c.069.291.138.508.168.731.024.179.092.224.252.163.125-.046.251-.088.431-.151-.023.305-.041.559-.062.846a2.222,2.222,0,0,0,.212-.111c.137-.09.265-.2.405-.282A2.01,2.01,0,0,1,78.1,79.1a4.457,4.457,0,0,0,.6.264c.07.027.215.037.226.01.177-.4.446-.306.734-.157.027.014.071-.006.108-.009.591-.043,1.183-.092,1.774-.122a.392.392,0,0,1,.283.115.785.785,0,0,0,.874.239,5.259,5.259,0,0,0,1.111-.384,1.382,1.382,0,0,0,.59-.614,2.486,2.486,0,0,0,.079-.891c.005-.238-.083-.29-.309-.218-.311.1-.466.3-.4.593a2.383,2.383,0,0,1-1.624-.177c.4-.411.448-.448.9-.161a.127.127,0,0,0,.025.011c.147.05.293.195.441,0a.564.564,0,0,0,.034-.7c-.26-.22-.536-.422-.8-.625l1.082-.393c.172.156.326.391.536.465.38.134.3-.311.475-.489l.7.661a5.094,5.094,0,0,1,.754-.634.931.931,0,0,1,.584,0c.073.016.108.183.17.275.091.134.191.263.316.434.335-.343.663-.648.951-.986a.569.569,0,0,1,.529-.2.891.891,0,0,0,.315-.115c.325-.053.176-.3.2-.478.123-.38.252-.759.364-1.142a.244.244,0,0,0-.079-.192.634.634,0,0,1-.139-.682,1.587,1.587,0,0,0-.151-1.394q-.009-.917-.018-1.833M63.744,43.8a1.548,1.548,0,0,1,1.09.856.56.56,0,0,0,.5.32,1.781,1.781,0,0,0,1.191-.522c.385-.331.661-.347,1,.013a1.039,1.039,0,0,0,1.167.031.5.5,0,0,1,.761-.04,1.061,1.061,0,0,0,.438.189c.07.01.161-.123.243-.191-.072-.064-.136-.169-.217-.186-.277-.056-.568-.053-.84-.124-.59-.153-.593-.164-.911.313a1.614,1.614,0,0,1-.184-1.752c.128.114.253.23.383.341s.28.239.5.093a1.434,1.434,0,0,0-.787-.689.574.574,0,0,1-.318-.6c.014-.257.223-.225.376-.273.086-.027.189-.008.27-.042a1.012,1.012,0,0,0,.213-.167c-.085-.1-.152-.241-.26-.291-.089-.041-.227.025-.344.04-.262.035-.461-.072-.476-.282-.017-.228.162-.332.343-.349a.627.627,0,0,0,.484-.366.97.97,0,0,0,.048-.38c-.1.041-.207.076-.305.126-.121.062-.2.068-.234-.1a3.338,3.338,0,0,0-.135-.444c-.2-.541-.124-.777.317-1.04.013-.007.016-.031.037-.077-.055-.044-.118-.09-.175-.142-.1-.088-.187-.179-.28-.269a1.53,1.53,0,0,1,.313-.293c.072-.038.265-.005.288.046.128.3.361.327.635.322a2.4,2.4,0,0,1,.459.049.68.68,0,0,0,.856-.767c-.3.129-.593.268-.9.387-.32.125-.367.076-.393-.278-.007-.1-.078-.255-.142-.268a.663.663,0,0,0-.476.036c-.123.1-.235.19-.34.088-.064-.062-.029-.238-.018-.361.008-.091.082-.184.069-.266-.044-.287-.127-.569-.169-.856a1.079,1.079,0,0,1,.03-.457.387.387,0,0,1,.23-.194c.034-.012.128.1.175.172.093.137.171.284.3.5.186-.418.393-.763.231-1.123a.478.478,0,0,1,.149-.678,1.372,1.372,0,0,0,.228-.324c-.144-.033-.288-.068-.432-.1-.022,0-.05.016-.075.025a2.062,2.062,0,0,1-.235.5.3.3,0,0,0-.041.214c.084.236-.052.22-.159.213-.082-.256-.164-.483-.225-.715a.442.442,0,0,1,.02-.261,2.627,2.627,0,0,1,.208-.379c.274-.444.392-.484.894-.313.211.072.283.049.4-.147a1.7,1.7,0,0,1-1.132-.264c-.151-.074-.183-.171-.088-.305s.211-.285.329-.443c-.459-.366.151-.406.219-.658a.611.611,0,0,1-.323-.742c.043-.195.1-.386.136-.582a1.391,1.391,0,0,0,.025-.466c-.058-.318.159-.64-.02-.954-.011-.019.034-.065.038-.1.011-.106.014-.213.022-.32.006-.077-.011-.2.027-.222a.5.5,0,0,1,.263-.017c.151.012.3.036.451.055l.051-.15a4.474,4.474,0,0,0-.427-.262c-.219-.1-.239-.169-.067-.324.292-.263.293-.264-.028-.511a1.357,1.357,0,0,0-.141-.085l-.033-.108.5-.294-1.153-1.2a2.053,2.053,0,0,1,.237-.327,1.126,1.126,0,0,1,.429-.305.282.282,0,0,0,.255-.312.335.335,0,0,1,.169-.254c.289-.073.342-.25.3-.505a1.378,1.378,0,0,1,0-.22c0-.337.035-.367.36-.311a2.269,2.269,0,0,0,.348,0c-.048-.066-.059-.1-.08-.107A.532.532,0,0,0,70,22.215a1.523,1.523,0,0,1-1.315-.98c-.049-.095-.2-.147-.311-.2-.168-.075-.345-.129-.517-.195-.059-.023-.115-.057-.182-.09a1.766,1.766,0,0,0-.059.6c.072.253-.057.334-.226.423a5.408,5.408,0,0,0-.615.322c-.425.3-.834.622-1.278.955a1.072,1.072,0,0,1,.35,1.163c-.069.284-.149.567-.2.855-.079.465-.145.933-.2,1.4-.014.134.094.29.058.41a2.883,2.883,0,0,1-.291.541c.357.355.144.846.18,1.288.038.469.039.956-.51,1.157l.516.665c-.188.1-.314.151-.427.224-.416.266-.435.462-.091.821.1.109.206.221.35.375a1.192,1.192,0,0,0-.779.99c-.086.406-.426.759-.235,1.225a.767.767,0,0,0,.143-.415c0-.169.038-.248.222-.265.308-.029.358,0,.355.314a1.339,1.339,0,0,1-.05.406c-.13.39-.277.775-.423,1.159-.188.494-.191.5.281.712.169.077.246.166.144.36-.178.339-.338.687-.5,1.012a4.7,4.7,0,0,1,.52.857.6.6,0,0,1-.338.763c.058.384.121.708.15,1.035a.323.323,0,0,1-.462.34,1.262,1.262,0,0,1-.173-.083c-.17-.086-.229,0-.261.191.375-.062.619.06.68.443a1.191,1.191,0,0,0,.079.231c.127.33.009.485-.343.45-.054-.005-.108-.026-.162-.027a.458.458,0,0,0-.2.027.161.161,0,0,0-.01.147.47.47,0,0,0,.214.088,1.482,1.482,0,0,1,.344.022.415.415,0,0,1,.191.234c.012.033-.1.119-.17.171s-.158.1-.3.193c.168.059.306.065.361.136a1.185,1.185,0,0,1,.223.463.336.336,0,0,1-.146.281.352.352,0,0,1-.458-.127,2.475,2.475,0,0,0-.4-.3Zm-.479,36.163.779-.2c.243.375.369.406.752.191.042-.024.127-.042.146-.022a.23.23,0,0,1,.045.163,2.371,2.371,0,0,1-.072.3c.314.024.587.047.859.065.187.012.241-.1.219-.261-.007-.055-.023-.11-.055-.261l.917.518.606-.631a1.329,1.329,0,0,1-.1-.2c-.047-.14-.039-.33-.132-.415a.793.793,0,0,0-.475-.183,2.322,2.322,0,0,0-1.312.276.389.389,0,0,1-.321,0,1.009,1.009,0,0,0-.793-.175.3.3,0,0,1-.228-.06c-.142-.111-.267-.242-.372-.341-.284.189-.506.42-.842.4-.242-.016-.35.044-.331.315.012.158-.018.361-.2.377C62.3,79.61,62.3,79.4,62.2,79.3c-.146-.135-.347-.055-.491.087a1.873,1.873,0,0,0-.156.191c-.127.164-.119.3.082.4a1.472,1.472,0,0,1,.357.2c.525.487,1.109.279,1.759.172l-.483-.4M92.076,57.011a1.031,1.031,0,0,0-.022.183c.012.2.119.35.313.34.219-.012.2-.2.159-.359-.079-.352-.157-.7-.23-1.032a1.748,1.748,0,0,0-.319-.175.335.335,0,0,0-.269.018A.641.641,0,0,0,91.691,57c.125.127.236.231.385.013m1.973,24.04a5.122,5.122,0,0,0,.437.407,1.238,1.238,0,0,0,.334.125,2.02,2.02,0,0,0,.122-.4.655.655,0,0,0-.072-.316c-.024-.053-.11-.124-.155-.116-.235.042-.5.035-.665.295M91.327,54.382l-.074-.053a3.642,3.642,0,0,0-.5.263c-.254.187-.215.425.072.537.109.042.223.071.38.12l.121-.867M93.155,81.7l.028-.092a3.069,3.069,0,0,0-.277-.427c-.139-.154-.311-.1-.322.1-.007.127.03.323.115.373a1.1,1.1,0,0,0,.456.043M68.1,61.3l-.108-.1c-.122.115-.249.225-.362.348a.149.149,0,0,0,.021.142c.027.027.121.036.14.014.111-.13.208-.271.31-.408M47.679,76.6c-.039.133-.106.242-.076.292s.156.071.239.1l.031-.07-.195-.325m4.684.587.041-.125-.43-.127-.031.1.419.156" transform="translate(-24.017 -11.252)" fill="#8a857d"/>
        <path id="Path_67" data-name="Path 67" d="M101.763,91.618a2.341,2.341,0,0,0-.062.371q-.013,1.194-.008,2.387a1.191,1.191,0,0,0,.08.3l-.042.133c0,.083,0,.165,0,.248l.016.133c-.018.159-.047.318-.05.477-.008.375,0,.75-.008,1.124a1.006,1.006,0,0,1-.1.289c-.246.01-.491.029-.737.029q-7.468,0-14.935,0c-.392,0-.784.051-1.175.044-.618-.01-1.236-.048-1.912-.077a1.452,1.452,0,0,1,.161-.228c.822-.749,1.643-1.5,2.473-2.242q1.833-1.636,3.676-3.26,2.269-2.011,4.537-4.023,2.1-1.866,4.206-3.734,1.731-1.53,3.472-3.048a1.5,1.5,0,0,1,.292-.193c.02-.01.078.054.118.084l.029.038c0,.067,0,.134-.005.2,0,.026,0,.051,0,.077,0,.047,0,.095,0,.142l0,.078v.141l-.017.013.018.013c0,.084,0,.167,0,.251l-.018.011.018.011q0,.263,0,.525c-.148.1-.078.2,0,.306v1.018a.578.578,0,0,0-.085.19c-.011.27-.015.54-.006.81a3.051,3.051,0,0,0,.066.4c0,.048,0,.1,0,.143q.005.254.01.51v.146l-.017.008.017.008c0,.068.008.136.012.2l-.017.009.017.008c0,.069,0,.138,0,.207s-.008.154-.011.23l0,.145c-.023.033-.067.068-.066.1.02.545.046,1.09.071,1.635q0,.509,0,1.019,0,.591,0,1.183V90.4q0,.067,0,.135,0,.1,0,.2l-.019.009.019.01v.2l-.018.008.018.009,0,.2-.019.008.018.009c0,.067,0,.134-.005.2l-.019.01.018.011c0,.066,0,.133-.006.2" transform="translate(-64.6 -62.666)" fill="#00a04f"/>
        <path id="Path_68" data-name="Path 68" d="M231.105,85.629l.192.114a6.262,6.262,0,0,0,1.252,1.241c1.025.9,2.038,1.806,3.06,2.706,1.1.972,2.214,1.939,3.32,2.91.285.25.563.508.845.763.262.233.529.462.784.7a3.263,3.263,0,0,1,.275.334l-.053.084a5.383,5.383,0,0,0-.69-.056c-.507.021-1.014.07-1.521.107-.046-.051-.089-.144-.137-.147a4.934,4.934,0,0,0-.528.019l-.215.079a2.818,2.818,0,0,0-.4-.056q-6.081,0-12.163-.006c-.337,0-.673-.046-1.01-.071h.005l-.159.036-.4.053a2.308,2.308,0,0,0-1.463.234q-.124-.273-.249-.544a2.164,2.164,0,0,0,.084-.42q.01-3.112.006-6.223,0-2.789,0-5.579a2.567,2.567,0,0,0-.063-.4q0-.285,0-.569l.042-1.015q0-.362,0-.724.006-.789.012-1.577a3.824,3.824,0,0,1,.447.3q2.535,2.241,5.062,4.491c.811.723,1.612,1.458,2.422,2.182a2.612,2.612,0,0,0,.365.232,1.733,1.733,0,0,0,.814.737l.051.049.009.019" transform="translate(-173.034 -60.539)" fill="#f2e84b"/>
        <path id="Path_69" data-name="Path 69" d="M289.137,124.452l.215-.079c-.041.167-.085.334-.122.5a2.733,2.733,0,0,0-.079.444c-.01.2.031.409.008.609-.047.413.07.553.471.558a.272.272,0,0,0,.319-.284c.01-.105.016-.211.025-.328.114,0,.2.005.3,0,.193-.013.546-.292.557-.464a.488.488,0,0,0-.373-.508,3,3,0,0,1-.441-.219c-.084-.049-.162-.125,0-.183.507-.037,1.013-.086,1.521-.107a5.376,5.376,0,0,1,.69.056l.053-.084a3.286,3.286,0,0,0-.276-.333c-.255-.24-.522-.469-.784-.7.121.039.24.084.362.118.2.054.322.01.3-.235a1.6,1.6,0,0,1,.03-.307,2.752,2.752,0,0,0,.4.1c.21.02.4-.012.472-.263.051-.169.151-.238.327-.1a.3.3,0,0,0,.276.007c.36-.231.362-.474.018-.712-.746-.516-1.5-1.022-2.237-1.547a4.26,4.26,0,0,1-.562-.521c-.113-.117-.212-.133-.326-.017-.57.578-.588.468.094.8.185.091.222.171.135.352a2.041,2.041,0,0,0-.093.418c-.275-.286-.52-.554-.78-.808s-.552-.485-.8-.752a.725.725,0,0,0-1.008-.185,1.151,1.151,0,0,1,.69-1.316l-.494-.185a.4.4,0,0,1,.493-.255,1.226,1.226,0,0,1,.476.242,2.269,2.269,0,0,1,.255.286c.338.342.578.809,1.126.886a.485.485,0,0,1,.169.09c.389.245.39.248.721-.1.148-.156.287-.321.494-.553a3.484,3.484,0,0,0-.734-.137c-.2.008-.267-.027-.207-.213.075-.235-.053-.3-.245-.359a4.279,4.279,0,0,1-.643-.23.39.39,0,0,1-.02-.714c.1-.067.2-.123.324-.2l-.3-.4.038-.053a1.812,1.812,0,0,1,.188.058c.326.14.491.061.575-.276.066-.265.088-.259.3-.1.312.238.645.448.968.671a1.149,1.149,0,0,1,.334.315c-.117-.017-.234-.031-.35-.051-.223-.037-.444-.09-.669-.11a.315.315,0,0,0-.235.108.786.786,0,0,0,.083.8c.235.267.454.546.687.815a2.378,2.378,0,0,0,.362.369c.354.262.363.252.667-.077.036-.039.116-.04.176-.053.224-.049.468-.054.61-.311-.058-.045-.1-.107-.154-.115-.3-.046-.264-.217-.166-.417l.176-.36c.227.158.464.32.7.488a.491.491,0,0,1,.235.595c-.4-.133-.621.194-.906.36a3.421,3.421,0,0,1-.373.208,1.1,1.1,0,0,0-.344.946.421.421,0,0,0,.308.235c.112,0,.24-.122.335-.217.045-.045.032-.149.056-.291a7.335,7.335,0,0,0,.465.781c.213.273.48.5.705.768a2.512,2.512,0,0,0,1.42.668.329.329,0,0,1,.175.184c.157.392.381.652.861.571.077-.013.233.11.26.2.059.189.158.257.34.226a.531.531,0,0,1,.621.318,5.482,5.482,0,0,0,.451.629c-.232.27-.706.456-.329,1l-.134.024-.5-.245-.249.2a.646.646,0,0,0-.1-.18.886.886,0,0,0-.236-.138c-.062-.026-.138-.02-.2-.046-.228-.091-.448-.2-.68-.281-.184-.064-.243-.174-.192-.392l1.328.4a1.909,1.909,0,0,0,0-.413,9.023,9.023,0,0,0-.273-.863.3.3,0,0,0-.2-.171.321.321,0,0,0-.222.137c-.086.114-.138.229-.279.051a.242.242,0,0,0-.218-.025.6.6,0,0,0-.212.171c-.194.221-.386.377-.7.167-.127-.086-.207.032-.2.162.02.268.056.535.088.819-.2.014-.443-.094-.52.2-.107.416.26.393.525.5a3.628,3.628,0,0,0-.4.263.261.261,0,0,0-.088.21c.012.048.124.09.2.1.36.046.586.262.681.74l-.594-.243-.656.795-.136-.234a2.607,2.607,0,0,1-.246.281.488.488,0,0,1-.25.126c-.034,0-.092-.132-.118-.211a2.2,2.2,0,0,0-.1-.368.36.36,0,0,0-.24-.174.335.335,0,0,0-.263.138c-.161.285-.3.584-.435.881-.066.142.2.424.43.421a3.611,3.611,0,0,0,.643-.107,1.771,1.771,0,0,1,.207-.068,1.393,1.393,0,0,1,.264.031c-.049.1-.074.23-.153.283a1.548,1.548,0,0,1-.411.147,1.562,1.562,0,0,0-.212.053.387.387,0,0,1-.582-.151.346.346,0,0,0-.569-.038c-.144.141-.318.251-.453.4a.413.413,0,0,1-.544.087c-.372-.175-.539-.075-.572.341,0,.054,0,.108,0,.162l0,0-.556.155c.15-.426-.218-.63-.417-.941l.73-.176a1.424,1.424,0,0,1-.585-1.128c-.056-.305-.135-.375-.384-.316-.318.076-.406.211-.33.495a1.042,1.042,0,0,1,.04.343l-.555-.947c.312-.27.173-.683.173-1.061,0-.092-.147-.222-.255-.265a1.882,1.882,0,0,0-.49-.053l.124-.253c.05.012.071.011.083.021.1.085.273.263.3.245a1.483,1.483,0,0,0,.441-.45,1.765,1.765,0,0,0,.094-.56" transform="translate(-224.481 -90.507)" fill="#8a857d"/>
        <path id="Path_70" data-name="Path 70" d="M99.048,165.033c.312.362.726.281,1.088.376a1.018,1.018,0,0,1,.817.593.913.913,0,0,1,.018.315,1.073,1.073,0,0,0-.019.3c.029.1.1.242.182.261s.189-.091.273-.16a.344.344,0,0,0,.073-.13c.073.1.185.292.214.281a2.191,2.191,0,0,0,.6-.33c.1-.085.131-.257.192-.39a.875.875,0,0,1,.8-.517,1.074,1.074,0,0,1,.193.093,2.549,2.549,0,0,1-.412.287c-.655.275-.705.609-.169,1.19a.42.42,0,0,0,.358.091c.074-.021.121-.189.149-.3a2.153,2.153,0,0,0,.035-.361l.083-.017c.069.142.137.285.208.426.087.174.174.18.3.026a.519.519,0,0,1,.283-.155,2.807,2.807,0,0,1,.466-.018c.272,0,.573.06.673-.394.193.19.332.327.471.466.178.178.238.168.353-.061a.8.8,0,0,0-.283-.994c.2-.082.385-.151.563-.233.086-.039.155-.129.243-.148.184-.041.456-.137.546-.054a1.25,1.25,0,0,1,.231.6c.007.026-.151.1-.236.141-.187.09-.478.067-.474.37,0,.286.263.358.473.424a3.034,3.034,0,0,0,.647.1c.19.016.251-.085.172-.259a2.044,2.044,0,0,1-.135-.269c-.019-.069-.018-.188.023-.218a.286.286,0,0,1,.241-.022,2.15,2.15,0,0,1,.4.24c.245.178.432.122.521-.16.073-.231.252-.138.387-.1.352.095.392.074.362-.291-.01-.116-.071-.227-.082-.342a.69.69,0,0,1,.073-.389,6.83,6.83,0,0,1,.266,2.23l-.088.036a.853.853,0,0,1-.16-.18c-.186-.392-.388-.484-.727-.235a2.314,2.314,0,0,1-1.5.411,1.6,1.6,0,0,0-.62.16,1.738,1.738,0,0,1-1.119-.1c-.171-.132-.33-.3-.577-.112-.044.033-.187-.036-.267-.086-.2-.121-.353-.15-.517.07-.186.248-.408.469-.615.7l-.058-.058c-.015-.007-.039-.01-.043-.021-.2-.616-.332-.674-.938-.456-.292.105-.6.181-.887.289a3.376,3.376,0,0,1-.553.255,5.668,5.668,0,0,1-1.034.058.992.992,0,0,0-.834.282.615.615,0,0,1,.59-.59,2.456,2.456,0,0,0,.6-.172.347.347,0,0,0,.169-.25c0-.057-.116-.157-.2-.182-.28-.086-.249-.288-.2-.488.044-.167.129-.323.186-.487a.326.326,0,0,0-.282-.476,2.235,2.235,0,0,0-.46.022c-.318.029-.635.069-.953.092-.173.013-.234-.154-.154-.231.236-.224.036-.459.072-.747" transform="translate(-77.169 -128.717)" fill="#8a857d"/>
        <path id="Path_71" data-name="Path 71" d="M6.9,175.1c0-.206-.068-.439.02-.552s.346-.054.5-.134a1.549,1.549,0,0,0,.493-.4c.211-.273.191-.286.4-.021a.487.487,0,0,0,.087.075,78.193,78.193,0,0,1-7.833,6.458c-.157-.149-.307-.281-.446-.424a.32.32,0,0,1,.045-.535.241.241,0,0,1,.227.023c.085.075.137.189.243.268.084-.325.284-.38.529-.417.442-.068.5-.228.315-.637-.044-.1.007-.237.015-.356a1.026,1.026,0,0,1,.282.14c.259.253.247.254.473-.039a10.2,10.2,0,0,1,1.907-2.02,2.815,2.815,0,0,1,.733-.345.426.426,0,0,1,.332.047A.373.373,0,0,0,5.7,176.2c.165-.112.147-.255.113-.413a4,4,0,0,0-.094-.45c-.079-.231.047-.28.226-.277.307.006.613.025.962.04" transform="translate(0 -135.555)" fill="#8a857d"/>
        <path id="Path_72" data-name="Path 72" d="M32.232,295.791a1.106,1.106,0,0,1-.305.093.5.5,0,0,1-.328-.092.325.325,0,0,1,0-.313.4.4,0,0,1,.308-.136,10.849,10.849,0,0,0,1.274.137,11.563,11.563,0,0,0,1.494-.1,1.785,1.785,0,0,1,.23,0c-.157.161-.285.279-.4.412-.052.062-.118.173-.095.222a.264.264,0,0,0,.219.125,2.14,2.14,0,0,0,.5-.167,2.545,2.545,0,0,0,.337-.219l.6.67a1.637,1.637,0,0,1,.217-.322,1.362,1.362,0,0,1,.332-.157,1.584,1.584,0,0,1-.357,1.2.466.466,0,0,1-.727-.153.316.316,0,0,0-.224-.169c-.287,0-.617-.118-.813.242a1.829,1.829,0,0,0-1.726-.107,2.08,2.08,0,0,1-1.849-.419.828.828,0,0,1-.107-.16c.174.009.3.008.415.024.253.035.5.086.758.121s.32-.02.3-.289c-.01-.138-.036-.276-.058-.437" transform="translate(-24.036 -230.351)" fill="#8a857d"/>
        <path id="Path_73" data-name="Path 73" d="M76.213,173.525c-.039-.1-.07-.175-.092-.25-.088-.3-.2-.377-.477-.221a8.861,8.861,0,0,0-.765.571,3.046,3.046,0,0,1-.663.413.642.642,0,0,1-.492-.081.32.32,0,0,1-.111-.465c.083-.14.031-.242-.141-.311-.075-.029-.114-.178-.14-.281,0-.018.131-.089.208-.107s.186.007.273-.015.246-.06.269-.126a.329.329,0,0,0-.1-.285.477.477,0,0,0-.569-.027l-.061-.053a4.868,4.868,0,0,1,.2-.513.222.222,0,0,1,.209-.024c.373.365.887.289,1.327.441.3.1.6.216.9.295a.714.714,0,0,0,.4-.031c.2-.074.407-.288.585-.263a2.554,2.554,0,0,0,.866-.066.159.159,0,0,1,.1.034.768.768,0,0,1,.2.787,3.207,3.207,0,0,1-.476.616c-.125.12-.288.11-.409-.083-.424-.675-.352-.571-.9-.08-.034.03-.07.058-.148.122" transform="translate(-57.195 -133.945)" fill="#8a857d"/>
        <path id="Path_74" data-name="Path 74" d="M368.354,291.15a.354.354,0,0,1-.324.369,2.511,2.511,0,0,0-1.242.437.612.612,0,0,0-.231.71.734.734,0,0,0,.441.4c.123.037.307-.129.516-.229.07.269.166.586.224.909.011.061-.123.207-.2.215a3.264,3.264,0,0,1-.822,0c-.392-.062-.5-.279-.292-.562a.492.492,0,0,0-.063-.714,1.785,1.785,0,0,0-.532-.414,8.374,8.374,0,0,0-1.435-.417c-.2-.037-.442.111-.676.178,0-.058.012-.132.01-.206,0-.166.038-.226.227-.178a.547.547,0,0,0,.349-.1c.03-.017-.01-.157-.023-.3l.862.617.034-.515,3.177-.2" transform="translate(-283.681 -227.082)" fill="#8a857d"/>
        <path id="Path_75" data-name="Path 75" d="M139.717,186.549a.759.759,0,0,0-.99.286c-.182.217-.384.419-.558.642a.352.352,0,0,1-.5.105c-.214-.125-.354-.043-.5.111a.511.511,0,0,1-.312.152c.1-.13.189-.261.286-.389.221-.294.222-.293-.138-.438-.015-.006-.025-.026-.063-.067.254-.361.507-.734.778-1.092a.379.379,0,0,1,.277-.136,2.817,2.817,0,0,0,1.443-.269l.284,1.094" transform="translate(-106.737 -144.645)" fill="#8a857d"/>
        <path id="Path_76" data-name="Path 76" d="M317.728,130.163a3.583,3.583,0,0,1,.5.215c.217.133.377.1.484-.139.038-.085.063-.175.123-.344.128.355.38.371.619.414a.291.291,0,0,1,.275.337c-.005.253.036.506.048.759.006.122-.01.245-.019.423-.783-.5-1.635-.766-2.1-1.54l.071-.123" transform="translate(-247.756 -101.311)" fill="#8a857d"/>
        <path id="Path_77" data-name="Path 77" d="M255.21,162.6v1.17c-.049-.029-.107-.06-.162-.1s-.122-.125-.178-.121c-.571.04-.928-.494-1.466-.535-.231-.018-.461-.055-.753-.092l.357-.251c.325.238.647.086.977-.014a.961.961,0,0,1,.5-.065.7.7,0,0,0,.594,0c.043-.024.116,0,.131,0" transform="translate(-197.055 -126.801)" fill="#8a857d"/>
        <path id="Path_78" data-name="Path 78" d="M233.212,5.148c-.148.108-.281.2-.4.3a1.143,1.143,0,0,0-.232.232,2.92,2.92,0,0,1-1.747,1.013.927.927,0,0,1-.356-.042l-.026-.077a2.512,2.512,0,0,1,.281-.192,7.081,7.081,0,0,0,1.671-.95,1.161,1.161,0,0,0,.461-.718c.008-.067.139-.163.22-.169a3.925,3.925,0,0,1,.582.036c-.121.068-.224.131-.331.186-.291.148-.292.147-.119.385" transform="translate(-179.737 -3.54)" fill="#8a857d"/>
        <path id="Path_79" data-name="Path 79" d="M329.573,137.457l1,.808c.537-.195.664-.174.653.154a1.145,1.145,0,0,0-.9.3c-.517.368-.894.073-1.114-.361a.328.328,0,0,1,.026-.217c.352-.014.313-.266.314-.5,0-.053.011-.106.02-.187" transform="translate(-256.761 -107.209)" fill="#8a857d"/>
        <path id="Path_80" data-name="Path 80" d="M359.386,297.918c.32-.559.3-1.283.885-1.835.108.574.211,1.091.29,1.611.007.049-.137.15-.227.179-.167.055-.366-.077-.526.122-.04.05-.26-.044-.421-.076" transform="translate(-280.303 -230.929)" fill="#8a857d"/>
        <path id="Path_81" data-name="Path 81" d="M197.192,269.514c-.127.073-.182.1-.235.135s-.1.069-.2.135c.394.179.3.483.273.785-.042.491-.055.984-.083,1.511-.115,0-.211.006-.307,0-.241-.02-.3-.127-.2-.344s.106-.224.028-.336c.047-.2.1-.356.118-.514.06-.441.1-.884.166-1.324a.825.825,0,0,1,.137-.248l.295.2" transform="translate(-153.182 -210.049)" fill="#8a857d"/>
        <path id="Path_82" data-name="Path 82" d="M329.645,168.54h2.5c0,.083.007.2,0,.315s-.036.205-.055.308c-.119-.026-.239-.049-.358-.079a1.7,1.7,0,0,0-.353-.1c-.438-.011-.876,0-1.315,0-.374,0-.374,0-.421-.444" transform="translate(-257.106 -131.452)" fill="#8a857d"/>
        <path id="Path_83" data-name="Path 83" d="M40.911,194.574a7.659,7.659,0,0,1,2.141.146c.316.082.643.127.949.236.28.1.535.27.808.391a.278.278,0,0,0,.248-.018c.284-.314.293-.318.61.062l-.477.41c-.1-.075-.218-.147-.319-.236a2.465,2.465,0,0,0-1.427-.615c-.263-.025-.518-.127-.781-.144a2.649,2.649,0,0,0-.6.088c-.07.012-.145.064-.2.048-.324-.088-.643-.191-.964-.289l.016-.078" transform="translate(-31.896 -151.749)" fill="#8a857d"/>
        <path id="Path_84" data-name="Path 84" d="M158.448,185.639a.443.443,0,0,1-.092.636,1.623,1.623,0,0,1-1.345.487.6.6,0,0,1-.6-.42.591.591,0,0,1,.2.074.462.462,0,0,0,.738-.1c.164-.225.337-.5.708-.483.12.006.245-.117.387-.191" transform="translate(-121.994 -144.789)" fill="#8a857d"/>
        <path id="Path_85" data-name="Path 85" d="M49.675,159.205l.417.183a14.072,14.072,0,0,1-2.02,1.625L48,160.95A2.191,2.191,0,0,1,48,160.6c.012-.071.074-.191.112-.19.287.007.428-.148.467-.445a1.082,1.082,0,0,0,.171.123c.08.033.182.092.243.065a.272.272,0,0,0,.1-.224c-.017-.272.059-.43.364-.453.071-.005.131-.16.215-.27" transform="translate(-37.432 -124.172)" fill="#8a857d"/>
        <path id="Path_86" data-name="Path 86" d="M71.066,264.776a.858.858,0,0,1,.052.224q-.053,1.22-.121,2.44c0,.059-.063.166-.092.165a.7.7,0,0,1-.306-.086c-.025-.014-.01-.161.031-.212.085-.105.142-.189.023-.3a.132.132,0,0,1-.033-.1c.06-.4.121-.793.189-1.189.053-.31.117-.618.175-.927l.082-.01" transform="translate(-55.054 -206.512)" fill="#8a857d"/>
        <path id="Path_87" data-name="Path 87" d="M309.676,192.283c-.208-.734-.193-.781.432-1.441a1.442,1.442,0,0,0,.177.451,1.828,1.828,0,0,0,.483.276l-1.092.714" transform="translate(-241.438 -148.847)" fill="#8a857d"/>
        <path id="Path_88" data-name="Path 88" d="M59.21,299.592l1.082-.187c.154.591-.4.975-1.294,1.142.1-.315.5-.545.212-.955" transform="translate(-46.015 -233.52)" fill="#8a857d"/>
        <path id="Path_89" data-name="Path 89" d="M200.517,259.137c-.011-.288-.067-.529-.349-.556,0-.233,0-.428,0-.624,0-.035,0-.1.014-.1a2.061,2.061,0,0,1,.495-.066.3.3,0,0,1,.223.185,1.241,1.241,0,0,1-.383,1.162" transform="translate(-156.12 -201.061)" fill="#8a857d"/>
        <path id="Path_90" data-name="Path 90" d="M312.37,256.065c-.075-.136-.157-.268-.223-.409a1.892,1.892,0,0,1-.126-.357.329.329,0,0,1,.018-.2c.084-.179.183-.35.3-.575.267-.014.2.409.5.445-.181.227-.27.4-.16.658.042.1-.134.288-.21.436l-.1.005" transform="translate(-243.354 -198.513)" fill="#8a857d"/>
        <path id="Path_91" data-name="Path 91" d="M268.061,163.614c-.046-.062-.128-.141-.116-.161a.723.723,0,0,0-.056-.831c.345-.03.647-.06.948-.077.035,0,.109.067.106.1-.031.257-.076.512-.121.791a2.175,2.175,0,0,0-.5-.221c-.292-.044-.121.24-.261.4" transform="translate(-208.94 -126.777)" fill="#8a857d"/>
        <path id="Path_92" data-name="Path 92" d="M161.545,5.319c-.422.131-.468.221-.282.541a5.6,5.6,0,0,0,.361.479c.071.1.132.2.2.3l-.072.064a.892.892,0,0,1-.162-.132c-.179-.232-.364-.46-.52-.707a.667.667,0,0,0-.722-.38l.738-.559.461.4" transform="translate(-125.061 -3.84)" fill="#8a857d"/>
        <path id="Path_93" data-name="Path 93" d="M98.9,171.167l-.23,1.073a7.675,7.675,0,0,1-.908-.246,1.324,1.324,0,0,1-.4-.352c-.032-.034-.038-.15-.012-.169a.221.221,0,0,1,.192-.032,4.239,4.239,0,0,1,.625.389c.139.111.181.091.251-.056.105-.222.235-.433.353-.649l.131.042" transform="translate(-75.918 -133.469)" fill="#8a857d"/>
        <path id="Path_94" data-name="Path 94" d="M154.559,0a2.733,2.733,0,0,1,1.427.593c-.15.089-.29.16-.416.251A.241.241,0,0,1,155.192.8c-.2-.246-.391-.494-.633-.8" transform="translate(-120.548)" fill="#8a857d"/>
        <path id="Path_95" data-name="Path 95" d="M111.692,189.868a4.209,4.209,0,0,1,.611.036c.1.02.241.114.255.193a1.252,1.252,0,0,1-.029.533.394.394,0,0,1-.238.229c-.049.015-.169-.116-.216-.2-.134-.246-.246-.5-.383-.789" transform="translate(-87.114 -148.087)" fill="#8a857d"/>
        <path id="Path_96" data-name="Path 96" d="M254.393,167.653c.13.121.261.242.39.365a.449.449,0,0,0,.511.152c.158-.057.348-.059.409.244h-1.771c.15-.242.574-.325.388-.762h.073" transform="translate(-198.055 -130.76)" fill="#8a857d"/>
        <path id="Path_97" data-name="Path 97" d="M279.763,162.935a6.093,6.093,0,0,1,.085-.627.615.615,0,0,0-.125-.668c.169,0,.449-.059.486.011a1.025,1.025,0,0,1,.114.645.906.906,0,0,1-.56.638" transform="translate(-218.17 -126.053)" fill="#8a857d"/>
        <path id="Path_98" data-name="Path 98" d="M40.451,169.174c-.091.4-.242.553-.992.986l-.327-.394,1.32-.592" transform="translate(-30.52 -131.947)" fill="#8a857d"/>
        <path id="Path_99" data-name="Path 99" d="M70.814,256.385a2.175,2.175,0,0,0-.307.528,2.226,2.226,0,0,0,.029.616c-.134-.121-.242-.227-.359-.324s-.1-.194,0-.3c.287-.3.284-.317-.025-.6-.079-.074-.158-.148-.239-.225a.894.894,0,0,1,.9.3" transform="translate(-54.531 -199.712)" fill="#8a857d"/>
        <path id="Path_100" data-name="Path 100" d="M314.068,177.225c-.083-.1-.113-.158-.161-.182a.286.286,0,0,0-.193-.027,1.777,1.777,0,0,0-.28.145c-.033-.07-.107-.154-.09-.209.04-.129.1-.307.2-.351a1.378,1.378,0,0,1,.534-.051c.033,0,.1.087.094.129-.017.16-.057.317-.1.547" transform="translate(-244.391 -137.698)" fill="#8a857d"/>
        <path id="Path_101" data-name="Path 101" d="M338.147,157.721a3.207,3.207,0,0,1,.646.012.675.675,0,0,1,.328.266.278.278,0,0,1-.051.232.746.746,0,0,1-.43-.016,3.551,3.551,0,0,1-.523-.426l.03-.068" transform="translate(-263.714 -123.006)" fill="#8a857d"/>
        <path id="Path_102" data-name="Path 102" d="M126.926,165.529c.288-.028.461-.02.478.3a1.525,1.525,0,0,0,.219.49c-.369.2-.548.123-.617-.289-.027-.157-.051-.314-.08-.5" transform="translate(-98.996 -129.096)" fill="#8a857d"/>
        <path id="Path_103" data-name="Path 103" d="M124.46,192.164c.28-.317.957-.369,1.959-.156a3.165,3.165,0,0,1-.259.311c-.121.112-.23.086-.238-.088-.011-.215-.15-.237-.3-.218-.334.041-.665.1-1,.151a1.257,1.257,0,0,1-.163,0" transform="translate(-97.072 -149.656)" fill="#8a857d"/>
        <path id="Path_104" data-name="Path 104" d="M354.684,300.31l.379.982c-.455,0-.492-.039-.54-.405-.014-.1-.116-.2-.21-.343l.372-.233" transform="translate(-276.345 -234.226)" fill="#8a857d"/>
        <path id="Path_105" data-name="Path 105" d="M365.972,310.118c.037-.151.155-.2.268-.133a1.855,1.855,0,0,0,.952.155,3.489,3.489,0,0,1,.595.075.571.571,0,0,1,.242.159c-.507-.031-1.04-.456-1.461.128l-.58-.37-.016-.014" transform="translate(-285.439 -241.749)" fill="#8a857d"/>
        <path id="Path_106" data-name="Path 106" d="M224.957,15.626l1.078-.449c.144.31.108.418-.164.47-.288.055-.582.077-.874.113l-.04-.134" transform="translate(-175.455 -11.837)" fill="#8a857d"/>
        <path id="Path_107" data-name="Path 107" d="M308.381,124.253l-.672-.917.445-.393.226,1.31" transform="translate(-239.997 -95.889)" fill="#8a857d"/>
        <path id="Path_108" data-name="Path 108" d="M97.26,191.859a2.434,2.434,0,0,1-1.879,0Z" transform="translate(-74.392 -149.64)" fill="#8a857d"/>
        <path id="Path_109" data-name="Path 109" d="M313.52,267.055c.39.349.173.81.227,1.221a1.02,1.02,0,0,1-.227-1.221" transform="translate(-244.457 -208.289)" fill="#8a857d"/>
        <path id="Path_110" data-name="Path 110" d="M96.744,178.926c.016-.34.2-.506.448-.47a.247.247,0,0,1,.163.173c0,.253-.209.531-.374.489-.108-.028-.191-.152-.238-.192" transform="translate(-75.455 -139.183)" fill="#8a857d"/>
        <path id="Path_111" data-name="Path 111" d="M186.675,168.519c-.509.195-.6.032-.864-.408l.512-.321c-.158.356-.035.582.353.729" transform="translate(-144.923 -130.868)" fill="#8a857d"/>
        <path id="Path_112" data-name="Path 112" d="M65.276,150.811l-.982.816-.079-.094c.144-.485.63-.573.987-.81l.075.088" transform="translate(-50.084 -117.556)" fill="#8a857d"/>
        <path id="Path_113" data-name="Path 113" d="M21.707,300.525a1.525,1.525,0,0,1-1.076.031.172.172,0,0,1-.087-.145.263.263,0,0,1,.125-.149.236.236,0,0,1,.159,0c.27.076.539.158.879.259" transform="translate(-16.022 -234.179)" fill="#8a857d"/>
        <path id="Path_114" data-name="Path 114" d="M304.958,141.884c.165-.162.316-.157.439-.041.183.172.4.353.31.646-.026.089-.144.151-.27.275.021-.283.1-.5.028-.632s-.307-.158-.507-.247" transform="translate(-237.852 -110.564)" fill="#8a857d"/>
        <path id="Path_115" data-name="Path 115" d="M335.918,322.179c-.014-.273-.007-.421.244-.4.321.02.442.161.416.561-.151-.306-.371-.342-.66-.156" transform="translate(-261.996 -250.967)" fill="#8a857d"/>
        <path id="Path_116" data-name="Path 116" d="M79.639,158.159a.739.739,0,0,1-.109.225c-.189.182-.44.333-.117.68l-.116.026-.373-.138a1.621,1.621,0,0,1,.154-.321c.145-.187.311-.358.468-.535l.092.064" transform="translate(-61.557 -123.306)" fill="#8a857d"/>
        <path id="Path_117" data-name="Path 117" d="M367.084,305.158a1.789,1.789,0,0,0,.25-.594c0-.178-.152-.361-.211-.583.05.035.121.059.148.107.093.167.172.34.253.513.095.2.058.352-.171.43a2.7,2.7,0,0,0-.268.127" transform="translate(-286.307 -237.089)" fill="#8a857d"/>
        <path id="Path_118" data-name="Path 118" d="M314.335,324.466l-.383.278a2.8,2.8,0,0,1-.157-.373,1.345,1.345,0,0,1,0-.319l.544.414" transform="translate(-244.734 -252.744)" fill="#8a857d"/>
        <path id="Path_119" data-name="Path 119" d="M199.658,266.2l-.121.669c-.128-.194-.266-.393-.388-.6-.01-.017.083-.137.127-.136a2.163,2.163,0,0,1,.382.068" transform="translate(-155.326 -207.569)" fill="#8a857d"/>
        <path id="Path_120" data-name="Path 120" d="M196.662,253.724a1.589,1.589,0,0,0,.426-.006c.2-.068.376-.176.566-.262a.973.973,0,0,1,.336-.092c-.427.441-1.009.614-1.328.36" transform="translate(-153.386 -197.611)" fill="#8a857d"/>
        <path id="Path_121" data-name="Path 121" d="M306.91,180.891l-.321-.927c.232-.026.457.5.321.927" transform="translate(-239.124 -140.362)" fill="#8a857d"/>
        <path id="Path_122" data-name="Path 122" d="M59.8,294.827c.2-.023.336,0,.382.2a.327.327,0,0,1-.257.453l-.125-.648" transform="translate(-46.644 -229.944)" fill="#8a857d"/>
        <path id="Path_123" data-name="Path 123" d="M118.554,190.128c.114-.229.176-.445-.045-.645-.042-.039-.018-.151-.026-.245a.68.68,0,0,1,.382.729c-.024.089-.147.152-.225.226l-.086-.066" transform="translate(-92.411 -147.597)" fill="#8a857d"/>
        <path id="Path_124" data-name="Path 124" d="M315.05,198.176c.068.139.154.252.132.28-.186.235-.074.445.024.663.011.024-.013.063-.022.1-.282-.193-.294-.271-.134-1.044" transform="translate(-245.642 -154.567)" fill="#8a857d"/>
        <path id="Path_125" data-name="Path 125" d="M58.646,155.48a1.521,1.521,0,0,1-.58.85c-.1-.559.362-.614.584-.846Z" transform="translate(-45.278 -121.266)" fill="#8a857d"/>
        <path id="Path_126" data-name="Path 126" d="M200.924,270.633a2.349,2.349,0,0,1,.215.447c.011.044-.133.144-.221.191-.033.018-.153-.04-.156-.07-.016-.174-.008-.349-.008-.525l.171-.043" transform="translate(-156.576 -211.08)" fill="#8a857d"/>
        <path id="Path_127" data-name="Path 127" d="M105.755,192.007c.163-.159.3-.346.533-.184a.275.275,0,0,1,.035.257c-.057.121-.393.078-.568-.074" transform="translate(-82.483 -149.563)" fill="#8a857d"/>
        <path id="Path_128" data-name="Path 128" d="M122.78,315.786l-.212.206c-.067-.078-.193-.162-.187-.234a.978.978,0,0,1,.169-.331l.231.359" transform="translate(-95.451 -246.017)" fill="#8a857d"/>
        <path id="Path_129" data-name="Path 129" d="M370.386,300.692c-.071.416-.756.731-1.015.5.478.172.676-.232,1.015-.5" transform="translate(-288.09 -234.524)" fill="#8a857d"/>
        <path id="Path_130" data-name="Path 130" d="M189.572,197.649l-.6.581a.592.592,0,0,1,.6-.581" transform="translate(-147.385 -154.156)" fill="#8a857d"/>
        <path id="Path_131" data-name="Path 131" d="M152.3,188.1l.23-.658c.241.4.169.634-.23.658" transform="translate(-118.784 -146.192)" fill="#8a857d"/>
        <path id="Path_132" data-name="Path 132" d="M168.622,94.965a3.091,3.091,0,0,1-.066-.4c-.009-.27-.005-.541.006-.81a.571.571,0,0,1,.086-.19q-.013.7-.025,1.4" transform="translate(-131.46 -72.972)" fill="#8a857d"/>
        <path id="Path_133" data-name="Path 133" d="M246.244,162.568a1.547,1.547,0,0,1-.211.271c-.048.04-.144.024-.219.033,0-.074-.022-.187.017-.216a2.039,2.039,0,0,1,.355-.184l.058.1" transform="translate(-191.719 -126.719)" fill="#8a857d"/>
        <path id="Path_134" data-name="Path 134" d="M250.545,162.2l-.445-.315.024-.089a1.287,1.287,0,0,1,.424.044c.065.029.068.195.1.3l-.1.061" transform="translate(-195.065 -126.189)" fill="#8a857d"/>
        <path id="Path_135" data-name="Path 135" d="M189.354,162.611l.378.159-.145.224-.318-.235.084-.148" transform="translate(-147.621 -126.828)" fill="#8a857d"/>
        <path id="Path_136" data-name="Path 136" d="M265.952,171.428l-.532-.266c.071-.081.122-.187.2-.206.049-.012.138.093.194.159a2.918,2.918,0,0,1,.181.263l-.038.051" transform="translate(-207.014 -133.336)" fill="#8a857d"/>
        <path id="Path_137" data-name="Path 137" d="M249.295,321.859c-.3.365-.384.364-.717,0Z" transform="translate(-193.878 -251.033)" fill="#8a857d"/>
        <path id="Path_138" data-name="Path 138" d="M184.42,17.1c-.35.131-.468.075-.446-.21.193-.027.359-.007.446.21" transform="translate(-143.488 -13.17)" fill="#8a857d"/>
        <path id="Path_139" data-name="Path 139" d="M277.047,320.388a1.642,1.642,0,0,1-.006.318c-.01.05-.091.126-.128.119-.053-.008-.142-.1-.133-.125a2.691,2.691,0,0,1,.178-.352l.09.04" transform="translate(-215.873 -249.855)" fill="#8a857d"/>
        <path id="Path_140" data-name="Path 140" d="M90.27,168.733c.221.11.365.246.332.511-.281-.05-.364-.175-.332-.511" transform="translate(-70.401 -131.603)" fill="#8a857d"/>
        <path id="Path_141" data-name="Path 141" d="M229.634,153.869l.4-.053-.119.46-.278-.408" transform="translate(-179.103 -119.969)" fill="#8a857d"/>
        <path id="Path_142" data-name="Path 142" d="M168.713,109.032c-.025-.545-.051-1.09-.071-1.635,0-.033.043-.067.066-.1q0,.868,0,1.736" transform="translate(-131.532 -83.685)" fill="#8a857d"/>
        <path id="Path_143" data-name="Path 143" d="M215.872,183.739c-.137.008-.274.025-.411.02-.034,0-.09-.072-.09-.11a.14.14,0,0,1,.1-.092c.137.009.272.038.408.06l-.011.122" transform="translate(-167.978 -143.166)" fill="#8a857d"/>
        <path id="Path_144" data-name="Path 144" d="M258.345,175.319l-.08.4c-.062-.025-.18-.057-.178-.074a2.914,2.914,0,0,1,.085-.37l.174.042" transform="translate(-201.294 -136.707)" fill="#8a857d"/>
        <path id="Path_145" data-name="Path 145" d="M70.979,250.342l.9-.243a.741.741,0,0,1-.9.243" transform="translate(-55.36 -195.064)" fill="#8a857d"/>
        <path id="Path_146" data-name="Path 146" d="M159.215,193.775c.151-.009.3-.027.452-.021.057,0,.112.062.168.1-.061.036-.127.109-.183.1a3.418,3.418,0,0,1-.443-.114c0-.021,0-.042.007-.062" transform="translate(-124.174 -151.117)" fill="#8a857d"/>
        <path id="Path_147" data-name="Path 147" d="M60.888,317.206l.71-.255a.5.5,0,0,1-.71.255" transform="translate(-47.489 -247.205)" fill="#8a857d"/>
        <path id="Path_148" data-name="Path 148" d="M79.4,165.7l.556-.116c-.127.22-.127.22-.527.219l-.028-.1" transform="translate(-61.932 -129.15)" fill="#8a857d"/>
        <path id="Path_149" data-name="Path 149" d="M165.832,157.9l-.272.178c-.027-.057-.089-.13-.073-.167a1.084,1.084,0,0,1,.175-.223l.17.212" transform="translate(-129.069 -122.991)" fill="#8a857d"/>
        <path id="Path_150" data-name="Path 150" d="M313.1,182.923c-.066-.172-.073-.327.224-.388l-.123.419-.1-.031" transform="translate(-244.172 -142.368)" fill="#8a857d"/>
        <path id="Path_151" data-name="Path 151" d="M313.646,276.061c.061-.135.116-.273.188-.4.016-.029.089-.026.136-.039.009.049.042.111.023.143-.071.124-.159.239-.241.357l-.106-.06" transform="translate(-244.628 -214.969)" fill="#8a857d"/>
        <path id="Path_152" data-name="Path 152" d="M179.329,181.921v.565c-.236-.167-.236-.291,0-.565" transform="translate(-139.729 -141.889)" fill="#8a857d"/>
        <path id="Path_153" data-name="Path 153" d="M301.019,176.485l.472.174-.333.251-.135-.429,0,0" transform="translate(-234.779 -137.646)" fill="#8a857d"/>
        <path id="Path_154" data-name="Path 154" d="M188.2,158.115c-.127-.3-.118-.354.113-.469l-.037.477-.075-.008" transform="translate(-146.726 -122.956)" fill="#8a857d"/>
        <path id="Path_155" data-name="Path 155" d="M197.048,183.8l-.191.175a1.092,1.092,0,0,1-.157-.189c-.007-.013.086-.115.133-.115s.115.065.215.129" transform="translate(-153.415 -143.257)" fill="#8a857d"/>
        <path id="Path_156" data-name="Path 156" d="M293.025,183.293c.008.034.03.07.023.1-.023.107-.056.212-.085.318-.039-.028-.112-.059-.11-.083a3.434,3.434,0,0,1,.065-.36l.107.025" transform="translate(-228.41 -142.94)" fill="#8a857d"/>
        <path id="Path_157" data-name="Path 157" d="M245.651,173.551c-.006.122-.009.244-.022.366a.559.559,0,0,1-.116.009q-.01-.187-.02-.375h.159" transform="translate(-191.471 -135.361)" fill="#8a857d"/>
        <path id="Path_158" data-name="Path 158" d="M331.58,161.708q-.016.219-.031.438l-.092.006q-.016-.22-.033-.441l.156,0" transform="translate(-258.494 -126.124)" fill="#8a857d"/>
        <path id="Path_159" data-name="Path 159" d="M230.816,17.605c-.014-.02-.04-.04-.04-.06,0-.121,0-.243,0-.365.033,0,.1,0,.1.012.018.132.027.266.039.4l-.095.013" transform="translate(-179.992 -13.4)" fill="#8a857d"/>
        <path id="Path_160" data-name="Path 160" d="M307.631,175.54l-.207.366-.1-.068.237-.354.072.056" transform="translate(-239.695 -136.868)" fill="#8a857d"/>
        <path id="Path_161" data-name="Path 161" d="M293.279,179.933c-.145-.075-.232-.183-.089-.416l.182.365-.094.051" transform="translate(-228.617 -140.014)" fill="#8a857d"/>
        <path id="Path_162" data-name="Path 162" d="M294.66,188.621c.017-.216.029-.377.044-.568a.327.327,0,0,1-.044.568" transform="translate(-229.82 -146.672)" fill="#8a857d"/>
        <path id="Path_163" data-name="Path 163" d="M273.5,170.636c.07-.015.162-.059.187-.035a.515.515,0,0,1,.127.233c.009.035-.059.09-.092.136l-.223-.334" transform="translate(-213.314 -133.054)" fill="#8a857d"/>
        <path id="Path_164" data-name="Path 164" d="M127.841,186.473c.013.11.028.219.034.329a.778.778,0,0,1-.135.018c-.023-.107-.037-.217-.053-.326l.154-.02" transform="translate(-99.589 -145.439)" fill="#8a857d"/>
        <path id="Path_165" data-name="Path 165" d="M276.284,176.594l-.061.4c-.2-.166-.189-.3-.048-.418l.109.023" transform="translate(-215.32 -137.716)" fill="#8a857d"/>
        <path id="Path_166" data-name="Path 166" d="M171.426,109.525l-.2.188c-.035-.055-.106-.118-.1-.165.013-.066.085-.119.132-.178l.169.155" transform="translate(-133.468 -85.303)" fill="#8a857d"/>
        <path id="Path_167" data-name="Path 167" d="M76.49,252.748c.012.11.026.22.028.33a.711.711,0,0,1-.137.027l-.023-.346.131-.011" transform="translate(-59.556 -197.13)" fill="#8a857d"/>
        <path id="Path_168" data-name="Path 168" d="M154.17,162.566c.267.148.276.212.077.476l-.077-.476" transform="translate(-120.245 -126.793)" fill="#8a857d"/>
        <path id="Path_169" data-name="Path 169" d="M168.958,121q0-.592,0-1.183,0,.592,0,1.183" transform="translate(-131.779 -93.449)" fill="#8a857d"/>
        <path id="Path_170" data-name="Path 170" d="M168.678,87.85c-.077-.1-.147-.2,0-.305q0,.153,0,.305" transform="translate(-131.493 -68.281)" fill="#8a857d"/>
        <path id="Path_171" data-name="Path 171" d="M168.886,101.1q0-.255-.01-.51,0,.255.01.51" transform="translate(-131.715 -78.458)" fill="#8a857d"/>
        <path id="Path_172" data-name="Path 172" d="M168.923,105.817c0-.077.008-.154.011-.23,0,.077-.008.154-.011.23" transform="translate(-131.751 -82.352)" fill="#8a857d"/>
        <path id="Path_173" data-name="Path 173" d="M168.94,126.171l0-.134,0,.134" transform="translate(-131.764 -98.302)" fill="#8a857d"/>
        <path id="Path_174" data-name="Path 174" d="M168.976,82.885l0-.078,0,.078" transform="translate(-131.791 -64.585)" fill="#8a857d"/>
        <path id="Path_175" data-name="Path 175" d="M168.982,81.891c0-.026,0-.051,0-.077,0,.026,0,.051,0,.077" transform="translate(-131.797 -63.811)" fill="#8a857d"/>
        <path id="Path_176" data-name="Path 176" d="M168.927,83.83l-.018-.013.018-.012.009.012Z" transform="translate(-131.741 -65.364)" fill="#8a857d"/>
        <path id="Path_177" data-name="Path 177" d="M60.752,155.426l.012-.02-.015.016,0,0" transform="translate(-47.38 -121.209)" fill="#8a857d"/>
        <path id="Path_178" data-name="Path 178" d="M232.143,153.653h0" transform="translate(-181.056 -119.841)" fill="#8a857d"/>
        <path id="Path_179" data-name="Path 179" d="M168.928,85.082l-.018-.011.018-.011v.022" transform="translate(-131.741 -66.343)" fill="#8a857d"/>
        <path id="Path_180" data-name="Path 180" d="M168.854,103.591l-.017-.008.017-.008v.016" transform="translate(-131.684 -80.783)" fill="#8a857d"/>
        <path id="Path_181" data-name="Path 181" d="M168.91,104.589l-.017-.008.017-.009v.017" transform="translate(-131.728 -81.561)" fill="#8a857d"/>
        <path id="Path_182" data-name="Path 182" d="M168.846,130.587l-.018-.011.019-.01.01.011Z" transform="translate(-131.677 -101.835)" fill="#8a857d"/>
        <path id="Path_183" data-name="Path 183" d="M168.871,129.593l-.018-.009.019-.008v.018" transform="translate(-131.697 -101.062)" fill="#8a857d"/>
        <path id="Path_184" data-name="Path 184" d="M168.882,128.594l-.018-.009.018-.008v.017" transform="translate(-131.705 -100.283)" fill="#8a857d"/>
        <path id="Path_185" data-name="Path 185" d="M168.905,80.77l-.029-.038.029.038" transform="translate(-131.715 -62.967)" fill="#8a857d"/>
        <path id="Path_186" data-name="Path 186" d="M168.878,127.591l-.019-.01.019-.009v.02" transform="translate(-131.701 -99.499)" fill="#8a857d"/>
        <path id="Path_187" data-name="Path 187" d="M111.862,218.563q0,.247,0,.493c-.016.289-.045.579-.046.868q0,4.11,0,8.22a.018.018,0,0,0,0,.03q0,1.744,0,3.489l-.009.015.012.014.027.2q-.013.126-.026.252,0,.368,0,.736l-.008.016.01.015-.014.137-.043.028c-.064,0-.128.009-.192.009q-6.395,0-12.789.011a4.507,4.507,0,0,0-.659.1,2,2,0,0,0-.417-.1c-.651-.013-1.3-.02-1.953-.009-.27,0-.363-.072-.359-.358.015-1.274.007-2.548,0-3.823a1.622,1.622,0,0,0-.051-.282q0-.126,0-.253a.58.58,0,0,0,.054-.167c0-.351-.005-.7-.009-1.054q-.006-.144-.012-.288c.006-.209.018-.419.018-.629q0-2.578-.009-5.156-.006-.411-.012-.821a1.551,1.551,0,0,0,.024-.3c-.026-.243-.068-.484-.1-.726a.6.6,0,0,0,0-.718c.176-.2.112-.427.082-.652q-.024-.475-.047-.95c-.022-.176.085-.224.231-.228q.275-.008.55-.008l14.8,0c.211,0,.422.011.632,0,.18-.006.263.038.253.248-.02.448-.011.9-.006,1.347a1.674,1.674,0,0,0,.053.288" transform="translate(-74.336 -168.995)" fill="#ea5521"/>
        <path id="Path_188" data-name="Path 188" d="M238.68,219.464l-.011.511c-.021,1.763-.045,3.527-.06,5.29,0,.233.051.467.056.7.01.448,0,.9,0,1.346q.009.917.018,1.833c-.011.217-.032.435-.03.652.008.919.022,1.839.034,2.758-.021.178.128.426-.2.478-.7,0-1.39.055-2.087.039-1.208-.028-2.416-.02-3.624-.018-1.281,0-2.562.017-3.843.025l-.474-.008-.645,0-.446,0-.492.005h-.555l-2.082,0-.745,0-1.138-.046c-.017-.335-.04-.671-.05-1.006s-.006-.659-.009-.988.012-.671.006-1.007c0-.184-.033-.368-.051-.553q0-.122,0-.244a.781.781,0,0,0,.053-.2c0-.88-.008-1.76-.013-2.64v-.02c0-.066,0-.132,0-.2v-.023l0-.2.007-.013-.007-.013q0-.979,0-1.958v-.02l0-.2,0-.014a1.806,1.806,0,0,1-.044-.316c.008-.253.044-.505.048-.759.006-.442-.007-.884-.006-1.326,0-.751.008-1.5.006-2.253a1.8,1.8,0,0,0-.055-.314q0-.467.009-.933c.016-.2.044-.409.046-.614.005-.557,0-.558.548-.558l11.356,0c1.393,0,2.786-.006,4.179-.009l.274,0q.009,1.405.017,2.81" transform="translate(-173.345 -168.975)" fill="#0069af"/>
        <path id="Path_189" data-name="Path 189" d="M170.419,285.795l.066-.007c0,.037.007.074.011.11a.041.041,0,0,0,.009.047l.007.083-.119.018.026-.252" transform="translate(-132.898 -222.9)" fill="#f2e84b"/>
        <path id="Path_190" data-name="Path 190" d="M168.738,146.049q0,.124,0,.248,0-.124,0-.248" transform="translate(-131.607 -113.911)" fill="#8a857d"/>
        <path id="Path_191" data-name="Path 191" d="M221.2,85.51l-.19.181-.082-.018c.018-.078.013-.175.059-.231.137-.166.183-.312-.051-.46l.268-.2q0,.362,0,.724" transform="translate(-172.309 -66.129)" fill="#8a857d"/>
        <path id="Path_192" data-name="Path 192" d="M221.2,93.258c-.294-.315-.294-.4,0-.569q0,.285,0,.569" transform="translate(-172.35 -72.293)" fill="#8a857d"/>
        <path id="Path_193" data-name="Path 193" d="M94.558,233.757h-.331l.319-.821q.006.411.012.821" transform="translate(-73.492 -181.678)" fill="#8a857d"/>
        <path id="Path_194" data-name="Path 194" d="M94.763,225.746c-.221-.11-.142-.314-.133-.483,0-.081.089-.157.138-.235a.6.6,0,0,1,0,.718" transform="translate(-73.79 -175.51)" fill="#8a857d"/>
        <path id="Path_195" data-name="Path 195" d="M94.743,263.247l-.277.111c-.02-.216,0-.248.265-.4q.006.144.012.287" transform="translate(-73.674 -205.095)" fill="#8a857d"/>
        <path id="Path_196" data-name="Path 196" d="M170.172,291.066l-.044.028.044-.028" transform="translate(-132.691 -227.016)" fill="#f2e84b"/>
        <path id="Path_197" data-name="Path 197" d="M170.354,290.3l.017.015-.015.016-.01-.015Z" transform="translate(-132.861 -226.422)" fill="#f2e84b"/>
        <path id="Path_198" data-name="Path 198" d="M170.342,284.794l.016.014-.014.015-.012-.014Z" transform="translate(-132.851 -222.125)" fill="#f2e84b"/>
        <path id="Path_199" data-name="Path 199" d="M170.331,268.8l.017.024-.017.006a.018.018,0,0,1,0-.031" transform="translate(-132.843 -209.652)" fill="#f2e84b"/>
        <path id="Path_200" data-name="Path 200" d="M250.916,291.283l-.169.189.306.225c-.171.1-.329.193-.5.27-.018.009-.121-.084-.123-.133-.011-.186,0-.373.008-.56l.474.008" transform="translate(-195.323 -227.179)" fill="#8a857d"/>
        <path id="Path_201" data-name="Path 201" d="M245.972,291.282l.032.526c-.035.007-.17.075-.237.034a.652.652,0,0,1-.187-.3,1.277,1.277,0,0,1-.054-.262l.446,0" transform="translate(-191.498 -227.183)" fill="#8a857d"/>
        <path id="Path_202" data-name="Path 202" d="M241.325,291.3l-.031.472-.523-.473h.555" transform="translate(-187.788 -227.199)" fill="#8a857d"/>
        <path id="Path_203" data-name="Path 203" d="M222.434,248.862l-.013-.008.015-.006,0,.014" transform="translate(-173.477 -194.088)" fill="#8a857d"/>
        <path id="Path_204" data-name="Path 204" d="M222.409,249.845l-.015-.01.016-.01v.02" transform="translate(-173.456 -194.851)" fill="#8a857d"/>
        <path id="Path_205" data-name="Path 205" d="M222.39,258.838l-.016-.013.017-.013.007.013Z" transform="translate(-173.44 -201.86)" fill="#8a857d"/>
        <path id="Path_206" data-name="Path 206" d="M222.4,259.84l-.016-.011.016-.011v.023" transform="translate(-173.451 -202.644)" fill="#8a857d"/>
        <path id="Path_207" data-name="Path 207" d="M222.42,260.841l-.015-.01.015-.01v.021" transform="translate(-173.464 -203.427)" fill="#8a857d"/>
        <path id="Path_208" data-name="Path 208" d="M192.321,57.79l-.118-.747a3.541,3.541,0,0,1,1.662.629l-.9.4a1.838,1.838,0,0,0,.068-.446.41.41,0,0,0-.174-.255c-.029-.02-.152.084-.224.142-.093.074-.177.158-.31.278" transform="translate(-149.908 -44.491)" fill="#8a857d"/>
        <path id="Path_209" data-name="Path 209" d="M261.86,294.729c-.346.177-.523.6-.918.746l-.061-.077a2.548,2.548,0,0,1,.265-.194c.21-.116.234-.231.047-.357-.125-.084-.262-.172-.116-.309.114-.107.279-.222.455-.041a2.185,2.185,0,0,0,.328.232" transform="translate(-203.474 -229.619)" fill="#8a857d"/>
        <path id="Path_210" data-name="Path 210" d="M253.849,295.85a2.618,2.618,0,0,1,.2.568c.01.071-.166.167-.314.3v-.851l.11-.022" transform="translate(-197.903 -230.748)" fill="#8a857d"/>
        <path id="Path_211" data-name="Path 211" d="M257.338,298.354c-.091-.1-.26-.2-.256-.3a1.258,1.258,0,0,1,.2-.48c.009-.017.129,0,.165.03s.065.155.05.165c-.226.143-.143.338-.078.533l-.081.054" transform="translate(-200.51 -232.086)" fill="#8a857d"/>
        <path id="Path_212" data-name="Path 212" d="M267.312,305.3a.6.6,0,0,1,.086.8l-.086-.8" transform="translate(-208.49 -238.118)" fill="#8a857d"/>
        <path id="Path_213" data-name="Path 213" d="M135.187,294.667h-.476c.184-.245.329-.206.476,0" transform="translate(-105.068 -229.693)" fill="#8a857d"/>
        <path id="Path_214" data-name="Path 214" d="M93.138,254.552l.239-.546.093.04-.217.549-.115-.043" transform="translate(-72.643 -198.112)" fill="#8a857d"/>
      </g>
    </g>
    <path id="Path_666" data-name="Path 666" d="M11.188-4.263A4.528,4.528,0,0,1,9.664-1.011,5.355,5.355,0,0,1,6.038.176,4.816,4.816,0,0,1,2.167-1.481,6.793,6.793,0,0,1,.756-6.029v-.782a7.671,7.671,0,0,1,.65-3.252,4.874,4.874,0,0,1,1.859-2.158,5.207,5.207,0,0,1,2.808-.751,5.217,5.217,0,0,1,3.568,1.187,4.866,4.866,0,0,1,1.564,3.331H8.569a2.673,2.673,0,0,0-.69-1.8,2.555,2.555,0,0,0-1.806-.558A2.24,2.24,0,0,0,4.1-9.866a5.3,5.3,0,0,0-.672,2.931v.967a5.667,5.667,0,0,0,.628,3.032,2.2,2.2,0,0,0,1.982.958,2.6,2.6,0,0,0,1.824-.558,2.521,2.521,0,0,0,.69-1.727Zm9.431-1.3H15.557v3.445H21.5V0H12.92V-12.8H21.48v2.136H15.557v3.05h5.063ZM33.451,0H30.814L25.682-8.42V0H23.045V-12.8h2.637l5.142,8.438V-12.8h2.628ZM45.132-10.661h-3.92V0H38.575V-10.661H34.708V-12.8H45.132Zm6.24,5.977h-2.1V0H46.635V-12.8H51.39a5.375,5.375,0,0,1,3.5,1.011,3.488,3.488,0,0,1,1.23,2.856,3.937,3.937,0,0,1-.567,2.184,3.866,3.866,0,0,1-1.718,1.393L56.6-.123V0h-2.83Zm-2.1-2.136H51.4a2.178,2.178,0,0,0,1.538-.505,1.806,1.806,0,0,0,.545-1.393,1.933,1.933,0,0,0-.514-1.424,2.137,2.137,0,0,0-1.578-.519H49.271ZM67.808-12.8v8.429a4.315,4.315,0,0,1-1.314,3.322A5.066,5.066,0,0,1,62.9.176a5.123,5.123,0,0,1-3.56-1.187A4.242,4.242,0,0,1,58-4.271V-12.8h2.637v8.446a2.438,2.438,0,0,0,.6,1.833,2.311,2.311,0,0,0,1.666.576q2.224,0,2.259-2.338V-12.8Zm5.607,0L76.7-3.516l3.27-9.281h3.463V0H80.789V-3.5l.264-6.038L77.6,0H75.788L72.343-9.527,72.606-3.5V0H69.97V-12.8Zm23.44,9.439A1.353,1.353,0,0,0,96.328-4.5a6.917,6.917,0,0,0-1.9-.844,13.458,13.458,0,0,1-2.171-.875A3.547,3.547,0,0,1,90.079-9.4a3.09,3.09,0,0,1,.584-1.85,3.812,3.812,0,0,1,1.679-1.27,6.318,6.318,0,0,1,2.457-.457,5.751,5.751,0,0,1,2.443.5,3.891,3.891,0,0,1,1.666,1.4A3.668,3.668,0,0,1,99.5-9.018H96.864a1.726,1.726,0,0,0-.554-1.367,2.276,2.276,0,0,0-1.556-.488,2.432,2.432,0,0,0-1.5.409,1.289,1.289,0,0,0-.536,1.077,1.235,1.235,0,0,0,.628,1.046,7.1,7.1,0,0,0,1.85.791,7.994,7.994,0,0,1,3.278,1.679,3.343,3.343,0,0,1,1.028,2.5A3.08,3.08,0,0,1,98.244-.769,5.5,5.5,0,0,1,94.86.176a6.534,6.534,0,0,1-2.689-.541,4.256,4.256,0,0,1-1.85-1.481,3.793,3.793,0,0,1-.637-2.18h2.646q0,2.118,2.531,2.118a2.462,2.462,0,0,0,1.468-.382A1.244,1.244,0,0,0,96.855-3.357ZM111.8-6.108a7.725,7.725,0,0,1-.668,3.313,5.03,5.03,0,0,1-1.912,2.2,5.288,5.288,0,0,1-2.852.773,5.324,5.324,0,0,1-2.839-.765,5.08,5.08,0,0,1-1.934-2.184,7.5,7.5,0,0,1-.694-3.265v-.633A7.685,7.685,0,0,1,101.58-10,5.072,5.072,0,0,1,103.5-12.2a5.3,5.3,0,0,1,2.843-.769,5.3,5.3,0,0,1,2.843.769A5.072,5.072,0,0,1,111.116-10,7.663,7.663,0,0,1,111.8-6.68Zm-2.672-.58a5.385,5.385,0,0,0-.721-3.059,2.349,2.349,0,0,0-2.057-1.046A2.349,2.349,0,0,0,104.3-9.76a5.324,5.324,0,0,0-.729,3.028v.624a5.453,5.453,0,0,0,.721,3.041,2.342,2.342,0,0,0,2.074,1.081A2.321,2.321,0,0,0,108.4-3.028a5.421,5.421,0,0,0,.721-3.037Zm14.634,2.426a4.528,4.528,0,0,1-1.525,3.252A5.355,5.355,0,0,1,118.608.176a4.816,4.816,0,0,1-3.872-1.657,6.793,6.793,0,0,1-1.411-4.548v-.782a7.671,7.671,0,0,1,.65-3.252,4.874,4.874,0,0,1,1.859-2.158,5.207,5.207,0,0,1,2.808-.751,5.217,5.217,0,0,1,3.568,1.187,4.866,4.866,0,0,1,1.564,3.331H121.14a2.673,2.673,0,0,0-.69-1.8,2.555,2.555,0,0,0-1.806-.558,2.24,2.24,0,0,0-1.973.945A5.3,5.3,0,0,0,116-6.935v.967a5.667,5.667,0,0,0,.628,3.032,2.2,2.2,0,0,0,1.982.958,2.6,2.6,0,0,0,1.824-.558,2.521,2.521,0,0,0,.69-1.727ZM128.294,0h-2.637V-12.8h2.637Zm9.826-2.637H133.5L132.618,0h-2.8l4.764-12.8h2.443L141.812,0h-2.8Zm-3.911-2.136h3.2L135.8-9.562Zm2.136-11.452h2.769L136.679-13.5h-2.065Zm9.3,14.106h5.6V0h-8.235V-12.8h2.637ZM163.16,0h-2.637l-5.133-8.42V0h-2.637V-12.8h2.637l5.142,8.438V-12.8h2.628Zm5.106,0H165.63V-12.8h2.637Zm-.817-16.251h2.769l-2.435,2.725h-2.065ZM180.756-4.263a4.528,4.528,0,0,1-1.525,3.252A5.355,5.355,0,0,1,175.605.176a4.816,4.816,0,0,1-3.872-1.657,6.793,6.793,0,0,1-1.411-4.548v-.782a7.671,7.671,0,0,1,.65-3.252,4.874,4.874,0,0,1,1.859-2.158,5.207,5.207,0,0,1,2.808-.751,5.217,5.217,0,0,1,3.568,1.187,4.866,4.866,0,0,1,1.564,3.331h-2.637a2.673,2.673,0,0,0-.69-1.8,2.555,2.555,0,0,0-1.806-.558,2.24,2.24,0,0,0-1.973.945A5.3,5.3,0,0,0,173-6.935v.967a5.667,5.667,0,0,0,.628,3.032,2.2,2.2,0,0,0,1.982.958,2.6,2.6,0,0,0,1.824-.558,2.521,2.521,0,0,0,.69-1.727ZM192.9,0h-2.637V-5.484h-5.142V0h-2.637V-12.8h2.637v5.186h5.142V-12.8H192.9ZM7.778,16.643A1.353,1.353,0,0,0,7.251,15.5a6.917,6.917,0,0,0-1.9-.844,13.458,13.458,0,0,1-2.171-.875A3.547,3.547,0,0,1,1,10.6a3.09,3.09,0,0,1,.584-1.85,3.812,3.812,0,0,1,1.679-1.27,6.318,6.318,0,0,1,2.457-.457,5.751,5.751,0,0,1,2.443.5,3.891,3.891,0,0,1,1.666,1.4,3.668,3.668,0,0,1,.593,2.057H7.787a1.726,1.726,0,0,0-.554-1.367,2.276,2.276,0,0,0-1.556-.488,2.432,2.432,0,0,0-1.5.409,1.289,1.289,0,0,0-.536,1.077,1.235,1.235,0,0,0,.628,1.046,7.1,7.1,0,0,0,1.85.791A7.994,7.994,0,0,1,9.4,14.129a3.343,3.343,0,0,1,1.028,2.5,3.08,3.08,0,0,1-1.257,2.606,5.5,5.5,0,0,1-3.384.945,6.534,6.534,0,0,1-2.689-.541,4.256,4.256,0,0,1-1.85-1.481,3.793,3.793,0,0,1-.637-2.18H3.252q0,2.118,2.531,2.118a2.462,2.462,0,0,0,1.468-.382A1.244,1.244,0,0,0,7.778,16.643Zm7.066,1.239h5.6V20H12.208V7.2h2.637ZM31.43,7.2v8.429a4.315,4.315,0,0,1-1.314,3.322,5.066,5.066,0,0,1-3.59,1.222,5.123,5.123,0,0,1-3.56-1.187,4.242,4.242,0,0,1-1.345-3.261V7.2h2.637v8.446a2.438,2.438,0,0,0,.6,1.833,2.311,2.311,0,0,0,1.666.576q2.224,0,2.259-2.338V7.2Zm4.957,10.679h6.451V20H33.091V18.453l6.328-9.114H33.1V7.2h9.6V8.715ZM37.978,5.023l1.283-1.257h2.171v.1l-2.654,2.47H37.169L34.515,3.846V3.767h2.171ZM52.2,14.437H47.136v3.445h5.941V20H44.5V7.2H53.06V9.339H47.136v3.05H52.2ZM54.624,20V7.2h4.482A5.886,5.886,0,0,1,62.64,8.1a3.05,3.05,0,0,1,1.2,2.615,2.891,2.891,0,0,1-.483,1.657,2.792,2.792,0,0,1-1.345,1.05,2.7,2.7,0,0,1,1.551.993,2.936,2.936,0,0,1,.567,1.828,3.377,3.377,0,0,1-1.178,2.795A5.3,5.3,0,0,1,59.6,20Zm2.637-5.572v3.454H59.52a2.18,2.18,0,0,0,1.455-.444,1.522,1.522,0,0,0,.523-1.226,1.607,1.607,0,0,0-1.819-1.784Zm0-1.863h1.951q2-.035,2-1.591A1.47,1.47,0,0,0,60.7,9.721a2.658,2.658,0,0,0-1.6-.382H57.261Zm23.845,1.327a7.725,7.725,0,0,1-.668,3.313,5.03,5.03,0,0,1-1.912,2.2,5.649,5.649,0,0,1-5.691.009A5.08,5.08,0,0,1,70.9,17.227a7.5,7.5,0,0,1-.694-3.265v-.633A7.685,7.685,0,0,1,70.888,10,5.072,5.072,0,0,1,72.813,7.8a5.64,5.64,0,0,1,5.687,0A5.072,5.072,0,0,1,80.424,10a7.663,7.663,0,0,1,.681,3.318Zm-2.672-.58a5.385,5.385,0,0,0-.721-3.059,2.546,2.546,0,0,0-4.1-.013,5.324,5.324,0,0,0-.729,3.028v.624a5.453,5.453,0,0,0,.721,3.041,2.524,2.524,0,0,0,4.113.04,5.421,5.421,0,0,0,.721-3.037Zm11.224,3.331A1.353,1.353,0,0,0,89.13,15.5a6.917,6.917,0,0,0-1.9-.844,13.458,13.458,0,0,1-2.171-.875,3.547,3.547,0,0,1-2.18-3.173,3.09,3.09,0,0,1,.584-1.85,3.812,3.812,0,0,1,1.679-1.27A6.318,6.318,0,0,1,87.6,7.027a5.751,5.751,0,0,1,2.443.5,3.891,3.891,0,0,1,1.666,1.4,3.668,3.668,0,0,1,.593,2.057H89.666a1.726,1.726,0,0,0-.554-1.367,2.276,2.276,0,0,0-1.556-.488,2.432,2.432,0,0,0-1.5.409,1.289,1.289,0,0,0-.536,1.077,1.235,1.235,0,0,0,.628,1.046A7.1,7.1,0,0,0,88,12.45a7.994,7.994,0,0,1,3.278,1.679,3.343,3.343,0,0,1,1.028,2.5,3.08,3.08,0,0,1-1.257,2.606,5.5,5.5,0,0,1-3.384.945,6.534,6.534,0,0,1-2.689-.541,4.256,4.256,0,0,1-1.85-1.481,3.793,3.793,0,0,1-.637-2.18h2.646q0,2.118,2.531,2.118a2.462,2.462,0,0,0,1.468-.382A1.244,1.244,0,0,0,89.657,16.643Zm14.063-7.3H99.8V20H97.163V9.339H93.3V7.2H103.72Zm6.24,5.977h-2.1V20h-2.637V7.2h4.755a5.375,5.375,0,0,1,3.5,1.011,3.488,3.488,0,0,1,1.23,2.856,3.937,3.937,0,0,1-.567,2.184,3.866,3.866,0,0,1-1.718,1.393l2.769,5.229V20h-2.83Zm-2.1-2.136h2.127a2.178,2.178,0,0,0,1.538-.505,1.806,1.806,0,0,0,.545-1.393,1.933,1.933,0,0,0-.514-1.424,2.137,2.137,0,0,0-1.578-.519h-2.118Zm16.075,4.184h-4.623L118.433,20h-2.8l4.764-12.8h2.443l4.79,12.8h-2.8Zm-3.911-2.136h3.2l-1.608-4.79Zm12.85,1.6,2.9-9.624h2.936L134.253,20H131.5L127.063,7.2h2.927Zm13.605.536h-4.623L140.977,20h-2.8l4.764-12.8h2.443L150.17,20h-2.8Zm-3.911-2.136h3.2l-1.608-4.79Zm9.29,7.98-1.327-.694.316-.571a4.567,4.567,0,0,0,.606-2.136V17.838H153.6l-.009,1.758a4.566,4.566,0,0,1-.492,1.969A5.047,5.047,0,0,1,151.857,23.208Zm7.822-8.051a5.64,5.64,0,0,1,.545-2.522,3.989,3.989,0,0,1,1.569-1.714,4.577,4.577,0,0,1,2.377-.606,4.33,4.33,0,0,1,3.142,1.178,4.727,4.727,0,0,1,1.358,3.2l.018.65a4.97,4.97,0,0,1-1.222,3.511,4.735,4.735,0,0,1-6.561,0,5.058,5.058,0,0,1-1.226-3.586Zm2.54.18a3.555,3.555,0,0,0,.51,2.073,1.831,1.831,0,0,0,2.9.009,3.89,3.89,0,0,0,.519-2.267,3.519,3.519,0,0,0-.519-2.06,1.686,1.686,0,0,0-1.459-.731,1.658,1.658,0,0,0-1.441.726A3.955,3.955,0,0,0,162.22,15.338Zm8.165,3.414a1.279,1.279,0,0,1,.409-.984,1.588,1.588,0,0,1,2.057,0,1.279,1.279,0,0,1,.409.984,1.261,1.261,0,0,1-.4.971,1.614,1.614,0,0,1-2.065,0A1.261,1.261,0,0,1,170.385,18.752Zm13.658-3.419a5.7,5.7,0,0,1-1,3.52,3.2,3.2,0,0,1-2.694,1.323,2.963,2.963,0,0,1-2.329-1v4.482h-2.54V10.49h2.355l.088.932a2.985,2.985,0,0,1,2.408-1.107,3.22,3.22,0,0,1,2.733,1.3,5.858,5.858,0,0,1,.976,3.586Zm-2.54-.194a3.763,3.763,0,0,0-.47-2.054,1.53,1.53,0,0,0-1.367-.723,1.662,1.662,0,0,0-1.644.917v3.906a1.691,1.691,0,0,0,1.661.943Q181.5,18.128,181.5,15.139Zm4.245,3.613a1.279,1.279,0,0,1,.409-.984,1.588,1.588,0,0,1,2.057,0,1.279,1.279,0,0,1,.409.984,1.261,1.261,0,0,1-.4.971,1.614,1.614,0,0,1-2.065,0A1.261,1.261,0,0,1,185.748,18.752ZM196,17.372a.818.818,0,0,0-.461-.734,5.241,5.241,0,0,0-1.481-.479q-3.393-.712-3.393-2.883a2.613,2.613,0,0,1,1.05-2.114,4.237,4.237,0,0,1,2.747-.848,4.56,4.56,0,0,1,2.9.853,2.687,2.687,0,0,1,1.085,2.215H195.9a1.229,1.229,0,0,0-.352-.9,1.488,1.488,0,0,0-1.1-.356,1.52,1.52,0,0,0-.993.29.916.916,0,0,0-.352.738.783.783,0,0,0,.4.681,4.114,4.114,0,0,0,1.349.448,11.019,11.019,0,0,1,1.6.426,2.628,2.628,0,0,1,2.013,2.558,2.481,2.481,0,0,1-1.116,2.1,4.815,4.815,0,0,1-2.883.8,5.029,5.029,0,0,1-2.123-.426,3.561,3.561,0,0,1-1.455-1.169,2.716,2.716,0,0,1-.527-1.6h2.408a1.326,1.326,0,0,0,.5,1.037,1.987,1.987,0,0,0,1.248.36,1.839,1.839,0,0,0,1.1-.277A.861.861,0,0,0,196,17.372Zm4.236,1.38a1.279,1.279,0,0,1,.409-.984,1.588,1.588,0,0,1,2.057,0,1.279,1.279,0,0,1,.409.984,1.261,1.261,0,0,1-.4.971,1.614,1.614,0,0,1-2.065,0A1.261,1.261,0,0,1,200.232,18.752Z" transform="translate(357 59)" fill="#3c3c3c"/>
  </g>
</svg>
