<svg width="28" height="32" viewBox="0 0 28 32" fill="none" xmlns="http://www.w3.org/2000/svg">
<g id="Frame" clip-path="url(#clip0_12_249)">
<path id="Vector" d="M25 2H3C2.20435 2 1.44129 2.31607 0.87868 2.87868C0.31607 3.44129 0 4.20435 0 5L0 27C0 27.7956 0.31607 28.5587 0.87868 29.1213C1.44129 29.6839 2.20435 30 3 30H11.5781V20.4806H7.64062V16H11.5781V12.585C11.5781 8.70062 13.8906 6.555 17.4325 6.555C19.1288 6.555 20.9025 6.8575 20.9025 6.8575V10.67H18.9481C17.0225 10.67 16.4219 11.865 16.4219 13.0906V16H20.7206L20.0331 20.4806H16.4219V30H25C25.7956 30 26.5587 29.6839 27.1213 29.1213C27.6839 28.5587 28 27.7956 28 27V5C28 4.20435 27.6839 3.44129 27.1213 2.87868C26.5587 2.31607 25.7956 2 25 2Z" fill="#3C3C3C"/>
</g>
<defs>
<clipPath id="clip0_12_249">
<rect width="28" height="32" fill="white"/>
</clipPath>
</defs>
</svg>
