<svg width="36" height="36" viewBox="0 0 36 36" fill="none" xmlns="http://www.w3.org/2000/svg">
<g id="Social Media Icon Square/Instagram">
<rect id="Social Media Icon" y="-0.00012207" width="36" height="36" rx="8" fill="#F2F1FA"/>
<path id="Instagram" fill-rule="evenodd" clip-rule="evenodd" d="M9 17.9999C9 14.4047 9 12.6072 9.85669 11.3124C10.2392 10.7343 10.7344 10.2391 11.3126 9.85657C12.6073 8.99988 14.4049 8.99988 18 8.99988C21.5951 8.99988 23.3927 8.99988 24.6874 9.85657C25.2656 10.2391 25.7608 10.7343 26.1433 11.3124C27 12.6072 27 14.4047 27 17.9999C27 21.595 27 23.3926 26.1433 24.6873C25.7608 25.2655 25.2656 25.7606 24.6874 26.1432C23.3927 26.9999 21.5951 26.9999 18 26.9999C14.4049 26.9999 12.6073 26.9999 11.3126 26.1432C10.7344 25.7606 10.2392 25.2655 9.85669 24.6873C9 23.3926 9 21.595 9 17.9999ZM22.6593 18.0001C22.6593 20.5734 20.5732 22.6595 17.9998 22.6595C15.4265 22.6595 13.3404 20.5734 13.3404 18.0001C13.3404 15.4268 15.4265 13.3407 17.9998 13.3407C20.5732 13.3407 22.6593 15.4268 22.6593 18.0001ZM17.9998 21.0831C19.7025 21.0831 21.0828 19.7028 21.0828 18.0001C21.0828 16.2974 19.7025 14.9171 17.9998 14.9171C16.2971 14.9171 14.9168 16.2974 14.9168 18.0001C14.9168 19.7028 16.2971 21.0831 17.9998 21.0831ZM22.8433 14.2014C23.4479 14.2014 23.9381 13.7113 23.9381 13.1066C23.9381 12.5019 23.4479 12.0118 22.8433 12.0118C22.2386 12.0118 21.7485 12.5019 21.7485 13.1066C21.7485 13.7113 22.2386 14.2014 22.8433 14.2014Z" fill="#8D8BA7"/>
</g>
</svg>
