<svg class="logo" xmlns="http://www.w3.org/2000/svg" xml:space="preserve" viewBox="0 0 512 304">
                        <g class="logo-primary">
                            <path class="logo-primary__bubble" fill="#597722" d="M32.978 26.223c-9.922 9.685-22.974 29.803-26.14 43.88-3.166 14.079-8.461 40.601-6.357 73.356 2.103 32.754-4.584 92.444 16.422 114.387 21.006 21.942 30.118 26.668 77.732 32.27 47.615 5.603 150.642 2.446 173.05-.355a73.505 73.505 0 0 0 6.449-1.098c1.996-.37 3.908-.807 5.877-1.035.738-.271 8.814-.943 9.047-.967 7.18-.245 10.666 1.483 11.332 1.686 9.926 3.965 10.215 5.446 17.617 9.276 18.832 9.745 22.176 6.463 24.525 2.349 2.352-4.112-.604-6.349-9.051-14.488-4.014-4.672-8.221-8.406-8.547-19.802-.182-8.389.85-18.097 1.33-22.834.266-2.585.922-6.774 1.744-11.912 5.281-33.664 8.771-81.88 8.463-102.686-.477-32.2-17.834-110.93-46.561-118.604C261.184 1.974 77.791-13.929 32.978 26.223"></path>
                            <path class="logo-primary__text" fill="#fff" d="m273.18 33.197 2.178.928c.793.206 1.699.441 2.443-.088.285-.167.91-.247 1.393-.242 1.705-.039 3.324-.221 4.609-.973.686-.304 1.174-.781 1.547-1.287.172-.196.488-.477.803-.756.832-.869.9-2.058.6-3.222-.24-1.39-1.172-1.993-2.305-2.288-.791-.207-1.729-.33-2.467-.28l-1.705.04c-.85.02-1.875.235-2.816.595l-2.648.879c-1.168.299-1.689 1.371-2.068 2.358-.375.506-.385 1.468-.563 2.146-.122.933.01 1.812.999 2.19zM265 78.551c0 2.918.214 5.954.448 8.872.234 2.685.341 5.253.224 8.055 0 1.984-.063 3.968.054 5.953 0 2.802 1.551 4.086 4.008 4.787 1.404.466 3.056.592 4.812.592 1.99 0 3.645-.81 5.633-.81h3.512c1.521 0 2.693-.941 3.863-1.992.586-.468.82-1.405.938-2.222 0-.817.115-1.753.352-2.57.115-1.167-.352-2.219-1.289-2.92-.584-.7-1.287-1.167-2.107-1.402-.467-.35-1.053-.699-1.756-.699-1.639 0-3.512-.118-5.385.232-.586.117-1.287 0-1.639-.233-.117-5.254.117-10.39-.117-15.876 0 0 .117-.117.234-.117l3.863-.701c.938-.117 1.873-.467 2.693-.7 1.17-.467 2.105-1.051 3.395-1.518.467-.117.584-.467.818-1.05l.469-1.518c.117-.35.234-.817.234-1.284.234-1.284.117-2.782-.234-4.298-.234-1.518-2.225-3.132-3.98-3.132H281c-.82 0-1.882.33-2.585.33-.35 0-.413.329-1.413.329v-.583c0-1.635.241-3.269.36-5.021.232-2.218.767-4.669.53-6.77-.117-.234.031-.584.031-1.051.703-.117 1.305-.35 2.008-.35 1.287 0 2.699-.117 3.869-.584 1.289-.35 2.543-.934 3.713-1.984.82-.7 1.488-1.75 1.488-2.918v-1.751l-.432-1.517c-.35-.934-.8-1.635-1.737-2.335-.584-.234-1.396-.234-1.981-.467-1.871-.583-3.271-.934-5.026-.934-2.342-.117-4.563.233-6.905.466-1.055.234-1.989.467-2.925 1.167-1.172.701-1.875 1.635-2.342 2.685-.82 1.868-.937 3.853-1.052 5.604 0 1.868 0 3.735-.234 5.253 0 1.634-.234 3.269-.234 5.02-.234 1.751-.565 3.618-.683 5.37-.234 2.802-.448 5.487-.448 8.406-.002 2.1-.002 4.085-.002 6.186zM225.509 58.823c.234 1.984.469 3.852.936 5.72.703 2.452 1.406 4.903 1.757 7.237.585 2.452 1.054 4.787 1.874 7.238.584 2.685 1.403 5.37 2.341 8.055l3.16 8.756c.702 1.867 1.288 3.385 2.342 5.136 1.405 1.984 3.161 3.269 5.033 4.319.468.234 1.053.35 1.639.35 1.288.233 2.692-.116 3.746-.934 0 0 .117-.117.235-.117 1.286-.583 2.34-1.284 2.925-2.685l2.072-3.735c.118-.351.432-.701.432-1.051v-3.969l.036-5.72c0-.934.135-2.102.135-3.269.117-1.05-.049-2.101.068-2.918 0-2.218.327-4.669.679-6.887.233-2.101.571-4.203.923-6.07.585-2.801 1.165-5.37 1.983-8.289l.231-2.101c.469-1.518.819-3.151 1.169-4.786.586-2.568.937-5.253 1.405-7.822.35-1.634.116-3.268-.001-4.786-.117-.817-.469-1.284-.82-1.751a4.5 4.5 0 0 0-2.926-1.518c-1.288-.233-2.692-.233-3.512-.233-1.055 0-1.874.35-2.341.817-.469.466-.938.934-1.054 1.517-.585.817-.937 1.751-1.288 2.685l-1.872 6.654-.586 2.218-1.756 9.573-.703 4.862c-.233 1.985-.352 3.68-.702 5.68h-.117l-.233-1.477-.938-4.942c-.352-2.918-.701-5.855-1.756-8.774-.116-.817-.352-1.41-.352-2.227-.35-1.4-.468-3.274-.936-4.908l-.937-3.854c-.703-1.985-1.053-3.737-2.458-5.255-.703-.467-1.171-1.167-2.107-1.285-.938-.117-1.757-.233-2.224-.233-1.757 0-3.045.7-4.098 1.75-1.055 1.167-1.405 2.335-1.756 3.852-.586 2.451-.937 4.669-.586 7.237.235 2.57.588 5.372.938 7.94zM184.365 86.256c0 .584 0 1.634.235 2.334.701 3.27 2.105 6.071 3.628 8.873 1.171 1.751 2.575 3.502 4.331 5.02 1.99 1.518 4.332 2.218 7.025 2.685.35 0 .583-.116.936-.116a29.91 29.91 0 0 0 3.629-1.051c2.458-.584 4.683-1.985 7.023-3.503 1.404-1.283 2.576-2.568 3.513-4.202.819-1.401 1.286-2.802 2.106-3.969.937-2.217 1.521-4.436 1.873-6.537.118-3.385.703-6.304.703-9.456.116-2.568.233-5.02.233-7.121-.117-3.969-.352-7.237-.818-10.506-.234-1.518-.47-3.036-.703-4.67-.702-1.867-1.405-4.085-2.225-6.187-1.053-2.569-2.341-5.137-4.214-7.121-1.054-1.05-2.225-1.634-3.512-2.102-1.171-.583-2.459-.816-3.98-1.051-1.989-.233-3.629.117-5.619.234-.234 0-.352.233-.468.233-.703.35-1.405.7-2.226 1.05l-.584.701c-.118.35-.469.7-.703.934l-.937.934-3.629 5.253c-.585.817-.937 1.517-1.404 2.568-.937 2.335-1.756 4.436-2.224 6.771-.352 2.334-.703 4.553-1.055 7.004-.468 2.219-.701 4.903-.937 7.121l-.351 4.786c-.351 2.218-.351 4.553 0 6.537l.354 4.554zm11.238-19.027c.117-1.401.233-2.686.585-4.086.469-1.868.703-3.852 1.288-5.486.586-1.75 1.172-3.619 1.872-5.253l1.641-2.568c.116-.351.351-.583.585-.934.819.583 1.287 1.4 1.872 2.451 1.639 3.036 2.108 6.42 2.458 9.573.703 5.836.938 11.323.587 16.926 0 2.802-.352 5.137-.352 7.705-.235 1.284-.585 2.684-1.055 3.968-.35 1.051-.819 1.751-1.403 2.335-.82.701-2.342 1.05-3.514.117-1.52-1.167-2.457-2.685-2.925-4.553-.352-.583-.47-.934-.586-1.518-.82-2.334-.937-4.669-1.17-6.888-.234-3.852.001-7.938.117-11.789zM145.031 103.767l2.575.934c.117 0 .467.116.937.116 1.404-.116 3.395 0 5.267-.233.353-.117.703.033 1.171.15.938.117 1.757.267 2.81.267h2.226c.584 0 1.638-.15 2.575-.267.818 0 1.756.042 2.575-.075.585 0 1.404-.154 1.989-.154.468-.233.937-.252 1.405-.135.819 0 1.756-.369 2.459-.369h.585l2.81-.467c.702-.117 1.17-.409 1.872-.642 1.756-1.401 2.81-3.298 3.161-5.166.233-2.101-.352-3.983-1.522-5.385l-.936-.824c-.703-.234-1.639-.588-2.575-.938-1.874-.584-3.395-.585-5.386-.936-1.521-.117-3.043-.001-4.565-.001-.702 0-1.639 0-2.458-.117.116-.466.116-.935.468-1.051l1.404-3.152 2.811-6.304 4.332-8.989c.116-.467.233-.7.35-1.167.819-1.867 1.756-3.619 2.459-5.253.819-2.334 1.639-4.553 2.928-6.42.819-1.985 1.521-4.203 2.457-6.304.468-1.634.468-3.385.468-5.137.235-1.517-.116-2.801-.936-3.852-1.288-2.101-3.161-3.269-5.502-3.502-1.522-.234-2.811-.117-4.215 0-1.405.233-2.576.233-3.746.233l-1.287.233c-.234.351-.703.351-1.171.351-1.522-.117-2.927-.351-4.565.117l-2.224.233c-2.342.234-5.152.934-7.376 2.102-2.809 1.284-4.684 3.502-4.684 6.654 0 1.167.703 1.984 1.522 2.568 1.64 1.167 3.161 1.634 5.034 1.634 2.342 0 4.332.117 6.672.351 1.173.117 2.459 0 3.396-.351l2.342-.233c.468-.117.936 0 1.521 0l-.468.7a8.767 8.767 0 0 0-1.171 1.984c-.819 2.218-1.756 4.085-2.458 6.304-.587 2.101-1.522 4.086-2.459 6.07l-3.043 5.136-2.693 5.37c-.701 1.518-1.639 2.919-2.459 4.203l-3.861 7.004-1.991 3.852c-.585 1.167-.819 2.218-1.17 3.619-.352 1.635-.47 3.035.351 4.67.35 1.168.933 2.218 1.989 2.569zM123.314 102.131c.703 1.285 1.756 1.635 2.927 2.335 1.288.701 2.575.701 3.98.35.82-.116 1.521-.35 1.989-.816 2.107-1.518 3.566-3.853 4.268-6.188.703-1.867.521-3.852.521-5.603V75.75c0-1.4.297-2.801.297-4.319.235-1.517.175-3.151.411-4.903 0-1.634.292-3.385.292-5.253v-8.171c0-1.401-.261-3.152-.496-4.903-.116-1.517-.305-2.918-.656-4.436 0-.584-.152-1.401-.504-1.985-.586-1.634-2.008-2.568-3.764-2.685-1.404-.234-2.936-.234-3.989.584-1.639 1.167-3.084 2.568-2.85 4.902 0 3.386-.742 7.005-.742 10.39v7.354c0 1.05.152 2.101.036 3.035-.118 1.401-.277 2.451-.51 3.852-.585 2.218-.781 4.903-1.015 7.354-.353 4.319-.451 8.289-.684 12.374-.352 3.385-.693 6.42-.342 9.572.12 1.169.363 2.569.831 3.619zM84.657 105.051c1.522.816 2.812.933 4.332.467 1.522-.351 2.693-1.284 3.63-2.218.35-.7.702-1.284.702-1.868.467-1.051.457-2.334.808-3.502.117-1.285.871-2.802-.129-3.97v-.467c0-3.385-.223-6.771.246-10.039 0-.35.297-.584.297-1.167.234.233.385.351.385.583l1.185 2.335 1.648 2.918c.468.817 1.057 1.517 1.291 2.452l1.876 3.969 1.405 2.101c.468.817 1.288 1.518 1.639 2.102.352.817.818 1.634 1.521 2.334.936.935 2.225 1.051 3.278 1.051 2.459-.233 4.098-1.517 5.387-3.852.584-1.284.701-3.386.233-5.136-.468-2.452-1.639-5.02-3.161-7.122-.703-.7-1.053-1.517-1.286-2.101-1.289-2.334-2.693-4.202-4.45-6.303-1.053-1.168-1.873-2.452-2.692-3.502.233-1.05.819-1.167 1.405-1.285l.584-.466c1.639-.584 3.396-1.051 4.801-2.218.936-.817 2.225-1.868 3.161-2.918 1.171-1.284 2.106-2.686 2.927-3.97.819-1.634 1.755-3.385 2.106-5.136.233-1.751.468-3.735.468-5.253 0-2.569-.468-4.903-1.521-7.004-.47-1.634-1.171-2.918-2.459-4.086a10.521 10.521 0 0 0-5.503-3.152l-3.511-.583c-1.522-.351-3.045-.701-4.449-.701-1.171-.117-2.107-.467-3.394-.467-.82-.116-1.875-.116-2.811 0-.82 0-1.404.351-1.873.467-2.224.35-4.447 1.284-6.086 2.685-.587.701-1.59 1.518-1.826 2.335C83.771 45.048 83 47.617 83 50.301v2.569c0 .7.185 1.518.185 2.334.234.467.268.934.268 1.167-.234 2.102-.333 3.969-.685 6.07-.233 2.801-.576 5.72-.576 8.522l-.348 9.105-.231 6.537c-.118 2.685-.117 5.603-.117 8.055 0 1.751.119 3.386.119 4.786.233 2.452 1.052 4.321 3.042 5.605zM95 63.259c0-2.918.097-5.72.097-8.639l.223-5.253c0-.233-.005-.467.229-.583 1.875-.117 3.51 0 5.266.583 2.342.817 3.512 2.335 3.979 4.436.118.467-.001.935-.001 1.517 0 1.051-.116 2.219-.233 3.153-.233 1.75-1.288 3.152-2.926 3.969-.937.584-2.225.934-3.161 1.167-.819 0-1.268.117-2.087.117-.353.233-.386.233-1.386.233v-.7zM46.168 103.767c.82.816 2.107 1.284 3.162 1.4.468 0 .702 0 1.169-.116.235-.351.819-.468 1.173-.817 1.755-.467 2.925-1.868 3.628-3.736.116-1.05.291-2.217.408-3.035.235-2.569.292-5.137.292-7.822v-.583l1.347 2.334c.47 1.051 1.202 1.751 1.904 2.802l2.297 3.268c1.055 1.05 1.969 2.101 2.905 3.152.937.817 1.861 1.751 2.797 2.452 1.522.701 2.922.701 4.794.466.352-.116 1.052-.466 1.637-.933 1.054-.817 1.871-2.102 2.457-3.502.469-.817.468-1.401.468-2.452-.352-1.634-.937-3.152-1.873-4.319-.938-1.517-1.874-2.918-2.577-4.318l-4.331-6.421-.702-.817c-1.17-1.868-2.926-3.736-4.098-5.487a13.043 13.043 0 0 1-1.873-2.802c-.35-.701-.586-.701-.116-1.167l1.522-2.335 1.053-1.167c1.287-1.05 2.342-2.801 3.161-4.085.937-1.051 1.756-2.452 2.692-3.852l2.926-3.969c.469-.701.937-1.518 1.404-2.335l2.459-4.786c.352-.584.468-1.051.468-1.635.235-.933 0-1.868-.116-2.918-.352-.934-.937-1.751-1.873-2.101-1.873-.584-3.746-.934-5.619 0-1.055.35-1.874 1.167-2.575 1.75-.585.35-1.055.934-1.404 1.518a43.388 43.388 0 0 0-3.864 5.253l-1.288 1.868-1.521 2.452-1.874 3.035c0 .117-.118.117-.352.117l.352-4.319c.469-2.452.469-5.02.469-7.354 0-1.05-.117-2.101-.469-3.034-.585-1.401-1.639-2.335-3.277-2.335-.937-.116-1.873 0-2.811 0a3.52 3.52 0 0 0-1.639.7c-1.053.701-2.105 1.985-2.341 3.386a22.9 22.9 0 0 0-.701 3.735c-.353 1.868-.703 3.502-.47 5.37 0 1.984-.233 3.735-.233 5.604l-.234 10.039c0 1.634.027 3.501-.09 5.253-.352 2.331-.791 4.9-.791 7.235v7.237c0 2.919-.146 5.72-.146 8.522.236 2.217.676 4.203 2.314 5.604zM314.145 157.417l-.584-6.77-.352-7.471-.234-8.988c0-1.635.117-3.152 0-4.669-.234-2.102-.469-4.086-.82-5.954 0-.467-.117-.817-.35-1.284-.471-1.751-1.406-3.386-2.459-4.67-.82-1.167-2.225-1.867-3.863-1.634-.234 0-.469 0-.586.234-2.809.117-4.916 1.518-6.672 3.385l-2.811 3.619c-1.988 2.335-3.395 5.253-4.564 8.288l-1.289 3.502-.584 1.401-.586-.584-1.639-2.918c-.234-.35-.352-.817-.586-1.167-.818-2.218-2.34-4.319-3.16-6.654-.469-1.284-1.521-2.217-1.99-3.619-1.404-2.101-3.277-3.269-5.736-3.619-.352 0-.936-.116-1.404-.116-2.107-.117-3.98.35-5.502 1.518-1.756 1.634-2.459 3.619-2.926 5.486-.234 1.285-.234 2.569-.469 4.086-.469 2.568-.234 5.37-.234 8.055a191.259 191.259 0 0 0-.489 8.171c-.234 1.751-.255 3.502-.255 5.485v3.387c0 2.919-.352 5.254-.352 8.055 0 3.97.352 7.821.352 12.023v3.269c0 1.984 1.308 3.386 2.831 4.553.352.117.829.35 1.063.35.818 0 1.761 0 2.229-.232.703 0 1.289-.233 1.875-.35 1.873-.352 3.162-1.169 3.631-2.92.936-1.166 1.287-2.801 1.287-4.201.117-1.984.335-3.97.335-5.838L277 161.27v-17.627c0-.117.02-.233.02-.583.584 1.4 1.296 2.685 1.997 3.618l2.054 3.27.91 1.4c.701.933 1.391 1.516 1.977 2.217l1.983 1.751c.701.351 1.635.817 2.453 1.167 1.17.467 2.341.584 3.511-.115 1.873-1.402 3.278-3.152 4.448-5.02.701-1.985 1.169-4.441 2.106-6.309l.818-3.039h.234c0 1 0 .588.117.704 0 1.051.117 2.104.352 3.155.117 1.751.483 3.911.95 5.896.352 2.452.069 5.312 1.069 7.763v4.32c0 1.283.103 2.568.103 3.852.117 1.401-.007 2.802-.007 4.319 0 1.751.404 3.269.641 5.02.232.7.201 1.518.553 2.452.584 2.102 2.676 2.919 4.434 2.801 1.287 0 2.1-.467 3.152-.699.818-.352 1.4-.701 1.869-1.518l.818-1.519c.467-.934.817-1.985.817-2.918 0-.817-.001-1.868.116-2.919.117-2.451.117-4.67.117-7.12-.233-2.568-.233-5.486-.467-8.172zM230.678 182.633c.936 0 2.225.351 3.395.351.938.116 1.756 0 2.458 0 1.171-.234 2.459-.351 3.746-.701 2.107-.467 3.981-1.4 5.62-3.035 1.521-1.634 2.575-3.618 3.863-5.604.702-1.05 1.17-2.335 1.755-3.617.703-1.402 1.522-2.92 1.991-4.787l1.639-5.837.936-3.852.937-3.27.469-2.919c.467-1.867.586-3.501.936-5.369 0-.35.117-.817.117-1.167.352-2.685.469-5.486.469-8.171 0-3.152-.117-6.304-.82-9.572a29.478 29.478 0 0 0-1.053-3.619c-.585-2.101-1.99-3.815-3.747-4.982-.937-.817-1.989-1.48-3.278-1.48h-1.521c-1.991 0-3.512 1.48-4.331 3.114-.235.584-.544 1.266-.662 2.084-1.054 3.384-1.597 6.751-1.597 10.253v19.613c0 2.686-.274 5.37-.86 8.055-.586 1.518-1.192 3.501-1.895 5.251-.702.934-2.597 1.631-3.65 1.631h-.117c-1.171-1-2.46-1.465-3.212-2.789-.772-1.365-1.266-3.151-1.266-4.55v-.936c0-.816-.021-1.283-.021-1.867 0-3.62-.353-7.246-.279-10.748.043-2.1 0-3.99.55-6.071.502-1.891.813-3.387.918-5.486l.343-7.004c.053-1.049-.069-2.325-.238-3.619-.184-1.393-.252-2.92-1.316-4.077-.224-.243-.587-.583-.703-1.05-.469-.584-1.166-1.176-1.756-1.634-.463-.358-.822-.46-1.289-.584-1.289-.343-2.034-.284-3.437-.242-2.46.074-4.214 1.167-5.503 3.268-1.053 1.168-1.842 2.686-2.193 4.086-.937 2.452-1.076 5.136-2.076 7.821v2.919c0 2.217-.059 3.969-.059 6.07-.234 1.284.059 2.218.059 3.152V156.137c1 2.685 1.082 5.369 1.665 7.821l1.479 4.204c1.171 2.684 2.378 5.602 4.25 7.936 1.522 1.752 3.296 3.854 5.403 5.02a10.444 10.444 0 0 0 3.881 1.515zM192.75 173.761c.468.816 1.287 1.518 1.639 2.102.352.817.819 1.635 1.522 2.334.937.936 2.224 1.051 3.278 1.051 2.458-.233 4.097-1.518 5.384-3.853.586-1.282.702-3.385.234-5.136-.468-2.451-1.639-5.02-3.16-7.121-.703-.699-1.054-1.517-1.289-2.102-1.286-2.335-2.691-4.201-4.447-6.303-1.054-1.168-1.874-2.453-2.693-3.503.234-1.05.819-1.167 1.404-1.282l.586-.469c1.64-.583 3.396-1.05 4.801-2.218.936-.817 2.223-1.868 3.16-2.918 1.171-1.284 2.106-2.685 2.926-3.969.82-1.634 1.756-3.385 2.107-5.136.234-1.751.468-3.736.468-5.253 0-2.568-.468-4.903-1.521-7.004-.467-1.634-1.17-2.918-2.458-4.086a10.519 10.519 0 0 0-5.501-3.151l-3.513-.584c-1.521-.35-3.044-.7-4.449-.7-1.17-.116-2.105-.467-3.395-.467-.819-.116-1.872-.116-2.809 0-.819 0-1.405.351-1.874.467-2.224.351-4.448 1.285-6.088 2.685-.585.7-1.296 1.518-1.532 2.334-1.053 2.685-2.531 5.253-1.531 7.938v2.568c0 .7-.107 1.517-.107 2.334.234.467.122.934.122 1.167-.234 2.102-.406 3.969-.758 6.07-.233 2.801-.613 5.72-.613 8.522l-.365 9.104-.242 6.537c-.117 2.687-.121 5.604-.121 8.056 0 1.751.116 3.386.116 4.785.234 2.452 1.053 4.32 3.043 5.604 1.522.816 2.808.935 4.331.468 1.522-.351 2.692-1.284 3.629-2.219.351-.7.701-1.282.701-1.867.47-1.05.75-2.335 1.101-3.501.117-1.285.164-2.803.164-3.971v-.466c0-3.387-.515-6.771-.047-10.039 0-.351.154-.583.154-1.168.233.233.309.351.309.585l1.152 2.334 1.627 2.918c.468.816 1.049 1.518 1.282 2.451l1.871 3.97 1.402 2.102zm-3.863-33.037c-.819 0-1.474.117-2.293.117-.352.233-.594.233-1.594.233v-.7c0-2.918.305-5.72.305-8.638l.329-5.253c0-.233.047-.466.281-.584 1.872-.116 3.534 0 5.29.584 2.342.817 3.524 2.335 3.992 4.436.117.467.006.935.006 1.519 0 1.05-.113 2.217-.23 3.152-.234 1.75-1.287 3.151-2.926 3.969-.937.582-2.223.932-3.16 1.165zM156.317 183.1c.469-.467.937-.935 1.171-1.517.819-2.102 1.404-4.438 1.287-6.654-.116-1.518.352-5.954.352-7.471 0-2.219 0-4.086-.118-6.305l-1.053-10.273c0-1.518.235-3.152.235-4.436 0-2.802-.213-5.37-.213-8.172-.116-2.918.022-5.836.022-8.638v-1.868c0-.117.447-.35.681-.35 2.342-.117 4.437-1.167 6.429-1.984 1.053-.351 1.866-.817 2.334-1.751.585-1.284 1.052-2.802 1.052-4.203.35-.933-.001-2.101-.821-2.801-.586-.701-1.29-1.167-1.993-1.751-1.286-.583-2.575-.934-3.979-1.284l-1.288-.467c-1.873-.117-3.629-.263-5.736-.146-1.287.116-2.341-.029-3.629-.029h-.586c-1.639 0-3.277.146-5.15.146-1.287 0-2.575.015-3.628.365-1.757.233-3.161.94-4.332 2.225-.352.233-.585.704-.819 1.054-.469 1.401-.819 2.686-1.288 4.087-.233 1.401-.233 2.803.469 3.97.351.584.585 1.518 1.287 1.985.819.467 1.522.642 2.342.875l3.863.292h1.054c-.234 0-.234.408-.234.525 0 .934-.118 1.488-.234 2.188-.234 2.335-.351 4.655-.585 6.873 0 1.167-.235 2.328-.352 3.261-.117 2.335-.117 5.016-.117 7.234l-.586 5.601c0 2.452.042 4.786.042 7.238-.117 2.918-.193 8.87-.193 12.14v3.15c0 1.635.544 3.27.896 4.67.469 1.867 1.677 3.619 3.549 4.203 1.289.584 2.89.934 4.528.934 1.404 0 2.905-.35 3.725-1.168l1.616-1.748zM119.09 181.349c1.64-.117 3.044-.467 3.746-1.635.469-.467.586-.816.937-1.283 1.756-2.103 2.575-4.086 3.045-6.421.233-1.283.467-2.335.585-3.386l.351-3.852.469-4.67.468-4.786.819-9.339.586-7.588c.351-3.151.703-6.303.467-9.221 0-2.102 0-4.086-.116-5.837l-.585-2.568c-.116-1.167-.468-1.984-.819-2.801-.469-1.051-1.171-1.518-2.107-1.985-1.405-.7-3.044-.7-4.331-.466-.819.233-1.405.7-2.108 1.167-1.404 1.05-2.224 2.45-2.458 4.202-.117.935-.233 1.985-.233 2.802l-.342 5.487-.461 5.02v.7c0 2.568-.359 5.253-.711 7.704l-.471 7.997a.8.8 0 0 1-.122.411h-.116c-.235 0-.235-.294-.352-.527l-3.98-10.652c-.468-1.518-.937-2.758-1.521-3.925-1.054-2.102-1.99-4.181-3.278-6.283a13.847 13.847 0 0 0-1.639-3.607l-2.575-4.548c-.234-.466-.468-.932-.938-1.398-.937-.7-1.639-.933-2.691-1.166-1.054-.117-2.342-.116-3.396.118-2.225.467-3.98 1.751-4.683 4.203l-.468 1.868c0 .701-.234 1.401-.351 1.984-.585 1.751-.585 3.386-.585 5.02-.236 2.218-.236 3.969-.236 6.187 0 3.036-.233 6.071-.233 8.989-.116 3.386 0 6.655 0 10.04 0 3.27.233 6.538.586 9.922.117 1.752.469 3.27.819 5.021.117 1.168.117 2.219.468 3.035.235 1.867 1.172 3.385 2.692 4.787.469.583 1.288.816 2.107.816s1.522-.233 2.342-.468c1.872-1.167 2.691-2.567 3.278-4.319.35-.816.468-1.518.468-2.334l-.234-5.721c0-1.518-.351-3.033-.467-4.436l-.354-4.553-.679-8.639-.683-9.574v-.583l.681 1.051 1.568 5.37c.703 2.218 1.313 4.67 2.366 6.771l.482 1.517c.936 2.918 1.878 5.721 2.814 8.755.233.469.471 1.401.938 1.985 1.522 3.619 3.164 6.771 4.802 9.923 1.053 1.634 2.108 3.034 3.512 4.437.82.815 1.64 1.516 2.927 1.282zM83.419 178.897c0-.818.118-1.752.353-2.569.117-1.166-.353-2.216-1.289-2.917-.584-.701-1.286-1.168-2.106-1.401-.469-.35-1.054-.701-1.756-.701-1.639 0-3.513-.116-5.385.233-.585.118-1.288 0-1.64-.233-.116-5.253.117-10.388-.116-15.876 0 0 .116-.116.233-.116l3.864-.7c.936-.117 1.872-.466 2.691-.7 1.171-.467 2.107-1.052 3.395-1.519.47-.116.586-.467.819-1.049l.47-1.519c.116-.351.233-.817.233-1.284.233-1.284.117-2.338-.233-3.856-.234-1.519-2.225-3.689-3.98-2.689h-3.045c-.819 0-1.847-.112-2.549-.112-.351 0-.378-.112-1.378-.112v-.584c0-1.634.208-3.269.324-5.019.235-2.218.749-4.67.516-6.771-.118-.233.022-.583.022-1.051.701-.117 1.298-.35 2.001-.35 1.287 0 2.697-.116 3.868-.583 1.288-.351 2.578-.934 3.747-1.984.82-.701 1.522-1.751 1.522-2.918v-1.751l-.465-1.517c-.352-.934-.818-1.635-1.756-2.335-.584-.233-1.403-.233-1.988-.467-1.874-.584-3.278-.934-5.034-.934-2.342-.117-4.565.233-6.907.466-1.054.234-1.99.467-2.926 1.167-1.17.7-1.873 1.634-2.342 2.685-.818 1.868-.937 3.852-1.054 5.604 0 1.868 0 3.736-.233 5.253 0 1.634-.234 3.269-.234 5.02-.234 1.751-.532 3.619-.648 5.37-.233 2.798-.413 5.483-.413 8.401v6.188c0 2.918.18 5.954.413 8.871.233 2.685.324 5.254.207 8.056 0 1.983-.071 3.968.045 5.953 0 2.802 1.545 4.086 4.003 4.786 1.404.467 3.055.534 4.811.534 1.99 0 3.64-.867 5.629-.867h3.513c1.521 0 2.693-.885 3.862-1.936.586-.465.82-1.35.936-2.167zM47.357 178.897c1.054-1.051 2.342-2.102 3.161-3.269.585-.7.937-1.517 1.64-2.452l.701-1.517.352-.585c.585-.583.819-1.283.937-1.634l.116-1.867a17.43 17.43 0 0 0 .47-4.086c-.234-2.335-.703-4.437-2.342-6.305-.469-.583-1.171-1.282-1.99-1.633-1.404-.118-2.693-.234-4.097 0-.586.116-1.522.116-1.991.466-1.053 1.051-2.106 1.867-2.224 3.153l-.235 1.282c0 .934 0 1.986.235 3.036.351 2.685-.937 5.02-2.927 6.653-.585.351-1.053.468-1.64-.115-.116-.352-.468-.585-.819-1.052-.702-1.052-1.053-2.334-1.639-3.385-.351-.468-.351-.935-.467-1.4l-.82-1.868c-.352-1.168-.702-2.334-.937-3.62l-.937-8.054c-.118-1.518-.118-2.918-.118-4.086.469-1.284.351-2.685.351-4.202.118-1.518.118-3.035.703-4.436l1.404-4.552c.353-1.284.937-2.218 1.639-2.918.234-.351.703-.817 1.171-.7.819-.117 1.639.35 2.107 1.284.233.466.233.7.233.933l1.172 2.802c.937 1.168 1.872 2.102 3.395 2.335.937.351 2.224.467 3.278.467 1.756 0 3.277-.934 4.098-2.568.936-1.518 1.286-3.152.936-4.903l-.586-4.085c-.233-1.519-.936-3.036-1.989-4.319-.469-.7-.819-1.168-1.288-1.635-2.575-2.101-5.619-3.152-8.779-2.452l-2.576.233c-1.99.234-3.746.934-5.385 1.634-1.521.934-2.927 1.868-3.981 3.386l-2.34 3.385c-1.756 1.984-2.575 4.203-3.395 6.537-.468.934-.819 2.102-1.171 3.035-.468 2.918-.625 5.837-.977 8.755-.468 3.504.194 6.888.194 10.158v2.802c1 1.867.392 3.734.509 5.603.585 2.218.898 4.553 1.602 6.654.585 1.75 1.208 3.385 2.263 5.02a12.605 12.605 0 0 0 2.83 3.735l1.414 1.167a29.646 29.646 0 0 0 4.92 2.102c1.172.467 2.696.585 3.983.817 1.171 0 2.343-.232 3.631-.468 2.107-.934 4.215-1.633 6.205-3.268zM294.775 248.097c-.117-1.984-.469-3.852-.584-5.721-.352-3.734-.938-7.236-1.289-10.855-.115-3.969-.936-7.822-1.521-11.674-.232-1.635-.352-3.27-.701-5.136-.586-3.27-.936-6.771-1.523-10.507-.115-.934-.467-1.984-.701-3.268-.352-1.402-.82-2.452-1.17-3.504-.703-2.101-2.225-3.969-4.332-5.02-1.17-.7-2.576-.7-4.098-.584-1.053.235-2.107.235-2.809.817-1.172.817-2.459 2.219-3.162 3.619-.232.351-.467.935-.467 1.519-.469.7-.586 1.75-.82 2.684-.117 1.284-.234 2.686-.352 3.97-.584 2.102-.818 4.202-1.287 6.187a39.842 39.842 0 0 1-1.053 5.604c-.119.701-.352 1.752-.469 2.568-.117 1.867-.586 3.735-.938 5.72-.352 2.567-.936 5.37-1.404 8.055-.117 1.401-.117 3.036-.584 4.319-.586 3.27-.822 6.887-1.172 10.273-.117 1.518-.469 3.035-.586 4.67-.117 1.4-.35 2.684-.35 4.318 0 1.4.467 3.035 1.285 4.086.703 1.167 2.811 2.451 4.684 1.518 1.756-.467 3.16-1.868 4.215-3.385.133-.178.154-.281.234-.469.586-1.4 1.053-2.918 1.287-3.968.703-3.152.938-5.953 1.172-9.222.232-.351.4-.351.4-.467 1.521.467 3.318.816 5.318 1.168v3.733c0 3.854.184 7.589 1.705 11.091.469 1.051.971 2.101 2.025 3.035 1.52 1.284 4.405 1.051 5.692-.117 2.225-1.867 3.257-4.318 3.493-6.887.115-1.868.104-3.385-.011-5.37.003-.933-.007-2.101-.127-2.8zm-17.091-16.461c-.232-1.049 1.172-14.007 1.758-15.291.469 3.852 1.598 11.13 1.713 14.865-.587.233-2.649.311-3.471.426zM261.037 194.515a4.5 4.5 0 0 0-2.928-1.517c-1.287-.233-2.691-.233-3.511-.233-1.054 0-1.873.35-2.34.816-.47.467-.938.934-1.055 1.518-.585.816-.938 1.752-1.287 2.686l-1.873 6.653-.586 2.218-1.756 9.572-.701 4.979c-.233 1.984-.352 3.793-.703 5.793h-.116l-.234-1.592-.937-4.999c-.352-2.918-.702-5.885-1.756-8.804-.117-.816-.352-1.424-.352-2.24-.352-1.401-.468-3.282-.937-4.916l-.936-3.858c-.703-1.984-1.055-3.737-2.459-5.256-.703-.467-1.171-1.168-2.107-1.285-.937-.116-1.757-.233-2.224-.233-1.757 0-3.044.698-4.098 1.749-1.054 1.167-1.405 2.334-1.755 3.853-.586 2.452-.938 4.669-.586 7.237.233 2.568.586 5.369.936 7.938.234 1.984.47 3.854.937 5.721.702 2.451 1.405 4.902 1.756 7.238.586 2.45 1.054 4.785 1.875 7.237.583 2.685 1.402 5.37 2.34 8.054l3.16 8.756c.703 1.867 1.289 3.385 2.342 5.137 1.404 1.984 3.161 3.268 5.034 4.318.468.234 1.053.351 1.639.351 1.287.233 2.691-.116 3.746-.933 0 0 .116-.118.234-.118 1.287-.583 2.341-1.284 2.926-2.685l1.957-3.735c.118-.351.318-.7.318-1.052v-3.969l.15-5.72c0-.933.192-2.101.192-3.269.117-1.051-.021-2.102.097-2.918 0-2.218.34-4.67.691-6.887.233-2.102.58-4.203.931-6.071.586-2.802 1.17-5.37 1.988-8.288l.232-2.102c.467-1.517.818-3.15 1.17-4.785.586-2.569.937-5.254 1.403-7.822.352-1.634.119-3.268 0-4.786-.114-.818-.465-1.285-.817-1.751zM222.578 248.097c-.116-1.984-.468-3.852-.585-5.721-.353-3.734-.936-7.236-1.289-10.855-.116-3.969-.936-7.822-1.521-11.674-.234-1.635-.352-3.27-.703-5.136-.585-3.27-.936-6.771-1.521-10.507-.118-.934-.47-1.984-.703-3.268-.352-1.402-.819-2.452-1.171-3.504-.701-2.101-2.224-3.969-4.332-5.02-1.17-.7-2.575-.7-4.097-.584-1.054.235-2.106.235-2.81.817-1.17.817-2.458 2.219-3.161 3.619-.233.351-.467.935-.467 1.519-.47.7-.586 1.75-.819 2.684-.117 1.284-.235 2.686-.353 3.97-.585 2.102-.818 4.202-1.287 6.187a39.697 39.697 0 0 1-1.054 5.604c-.117.701-.352 1.752-.468 2.568-.117 1.867-.585 3.735-.937 5.72-.352 2.567-.937 5.37-1.405 8.055-.117 1.401-.117 3.036-.585 4.319-.585 3.27-.819 6.887-1.171 10.273-.117 1.518-.467 3.035-.586 4.67-.117 1.4-.351 2.684-.351 4.318 0 1.4.47 3.035 1.288 4.086.702 1.167 2.81 2.451 4.682 1.518 1.756-.467 3.161-1.868 4.215-3.385.234-.117.234-.234.234-.469.585-1.4 1.054-2.918 1.287-3.968.703-3.152.937-5.953 1.171-9.222.233-.351 0-.351 0-.467 1.522.467 3.919.816 4.919 1.168v3.733c0 3.854.583 7.589 2.105 11.091a8.797 8.797 0 0 0 2.226 3.035c1.52 1.284 4.505 1.051 5.793-.117 2.224-1.867 3.308-4.318 3.542-6.887.116-1.868.131-3.385.015-5.37.002-.933.017-2.101-.101-2.8zm-17.092-16.461c-.233-1.049 1.171-14.007 1.756-15.291.47 3.852 1.966 11.164 2.083 14.899-.586.234-3.019.277-3.839.392zM184.179 197.55a10.506 10.506 0 0 0-5.503-3.151l-3.511-.583c-1.522-.352-3.045-.701-4.448-.701-1.172-.116-2.108-.467-3.396-.467-.818-.117-1.874-.117-2.81 0-.82 0-1.404.351-1.873.467-2.224.35-4.447 1.284-6.087 2.685-.586.701-1.542 1.519-1.777 2.335-1.053 2.685-1.775 5.252-1.775 7.938v2.568c0 .701.138 1.518.138 2.336.233.466.244.934.244 1.167-.233 2.101-.347 3.969-.697 6.069-.233 2.803-.583 5.721-.583 8.521l-.351 9.106-.232 6.536c-.117 2.686-.117 5.604-.117 8.055 0 1.752.118 3.387.118 4.787.233 2.451 1.053 4.318 3.042 5.604 1.522.816 2.81.934 4.332.467 1.522-.351 2.693-1.285 3.63-2.219.35-.701.702-1.284.702-1.867.467-1.051.504-2.335.856-3.502.116-1.285.919-2.802-.081-3.969v-.467c0-3.386-.271-6.771.197-10.039 0-.352.274-.584.274-1.168.234.232.373.35.373.584l1.179 2.334 1.645 2.918c.468.818 1.055 1.52 1.29 2.452l1.875 3.968 1.405 2.102c.468.818 1.287 1.519 1.638 2.102.353.816.821 1.635 1.523 2.336.938.933 2.225 1.049 3.277 1.049 2.459-.232 4.098-1.517 5.387-3.852.584-1.284.701-3.385.233-5.137-.468-2.451-1.639-5.02-3.161-7.119-.703-.701-1.053-1.52-1.287-2.102-1.288-2.336-2.692-4.203-4.449-6.305-1.054-1.166-1.873-2.451-2.692-3.502.233-1.051.819-1.168 1.405-1.283l.585-.468c1.64-.583 3.395-1.052 4.8-2.218.936-.816 2.225-1.868 3.161-2.918 1.171-1.285 2.106-2.686 2.926-3.97.82-1.634 1.756-3.386 2.107-5.136.233-1.751.47-3.736.47-5.254 0-2.568-.47-4.902-1.522-7.004-.471-1.634-1.172-2.917-2.46-4.085zm-9.482 13.541c0 1.052-.118 2.219-.234 3.152-.233 1.752-1.286 3.152-2.926 3.969-.938.584-2.225.934-3.161 1.168-.819 0-1.22.116-2.039.116-.352.234-1.337.234-1.337.234v-.701c0-2.918.049-5.72.049-8.639l.199-5.253c0-.233-.017-.467.217-.584 1.874-.116 3.504 0 5.261.584 2.341.818 3.508 2.334 3.976 4.436.117.467-.005.936-.005 1.518zM147.16 195.332c-.585-.7-1.286-1.167-1.989-1.751-1.288-.583-2.575-.934-3.98-1.283l-1.287-.469c-1.874-.116-3.63-.089-5.735.027a37.997 37.997 0 0 1-3.631.144h-.584c-1.639 0-3.277-.027-5.151-.027-1.287 0-2.576-.072-3.629.279-1.756.232-3.161.898-4.331 2.183-.352.233-.586.682-.819 1.031-.469 1.402-.819 2.677-1.288 4.077-.234 1.402-.234 2.799.469 3.966.351.583.586 1.514 1.287 1.982.819.467 1.521.812 2.342 1.045l3.863.464h1.053c-.233 0-.233.235-.233.354 0 .934-.117 1.401-.233 2.103-.235 2.334-.353 4.611-.586 6.829 0 1.168-.235 2.307-.352 3.24-.118 2.334-.118 5.005-.118 7.223l-.584 5.596c0 2.452-.204 4.784-.204 7.234-.117 2.919-.438 8.868-.438 12.136v3.153c0 1.634.788 3.269 1.139 4.669.47 1.868 1.8 3.619 3.674 4.203 1.286.584 2.946.934 4.586.934 1.405 0 2.938-.35 3.758-1.168l1.643-1.75c.468-.467.94-.934 1.174-1.518.819-2.102 1.406-4.437 1.29-6.654-.118-1.518.351-5.953.351-7.471 0-2.219 0-4.086-.116-6.304l-1.054-10.273c0-1.517.234-3.151.234-4.435 0-2.803-.457-5.37-.457-8.172-.116-2.919-.222-5.838-.222-8.639v-1.868c1-.117.69-.351.925-.351 2.341-.115 4.56-1.167 6.549-1.984 1.054-.35 1.929-.816 2.397-1.75.586-1.285 1.082-2.803 1.082-4.203.35-.934.025-2.102-.795-2.802zM110.376 240.159c0-.117 0-.117-.117-.234-.116-1.051-.469-1.867-.938-2.684-1.053-2.102-2.691-4.32-4.682-5.955-1.17-1.284-2.459-2.568-3.863-4.084l-1.054-1.285c-.937-.816-1.639-1.868-2.341-2.918-.468-.701-.938-1.168-1.287-1.868 0-.351-.117-.468-.47-.817-.937-1.4-1.404-3.152-1.521-4.785-.117-1.052-.117-1.985-.117-3.152.117-1.985 1.757-3.619 3.747-3.736 2.458-.35 4.799-.583 6.789-1.517 2.224-1.167 4.098-2.569 4.448-4.903.702-2.686-.117-5.487-2.809-7.121-.352-.117-.587-.467-.937-.467-1.405-.233-2.575-.584-3.747-.7-2.341-.116-4.448.116-6.555 1.167-.352.233-.703.233-.82.467-.351.817-.936 1.051-1.873 1.285 0 0-.233.115-.351.35-.702.35-1.405.699-2.225.934-.937.584-1.756 1.4-2.575 1.984-2.692 3.035-4.448 6.304-5.385 10.039-.585 2.452-.702 4.904-.937 7.354 0 2.803.234 5.488 1.171 7.939.702 1.867 1.522 3.969 3.161 5.604l3.628 4.201c.703.701 1.17 1.168 1.873 1.4 1.521.818 3.044 1.519 4.449 2.687 1.403 1.284 1.638 2.801 1.638 4.319 0 .35-.234.7-.701 1.051-.703.35-1.289.701-1.874.934-.819.233-1.755.583-2.224.233l-2.458-.817c-1.289-.468-2.342-.7-3.395-.35-2.108.582-3.981 1.634-4.917 3.734 0 0-.117 0-.117.35-.586 1.985-.586 4.204.117 6.071.936 1.634 2.224 2.802 3.746 3.735.936.584 1.755.934 2.692.934.937.351 1.873.701 2.575.701 1.521.116 2.575.234 3.862.234.938 0 1.757 0 2.576-.118.937-.116 1.521-.467 2.458-.817.702 0 1.288 0 1.991-.232.936-.467 1.521-1.051 2.34-1.402 1.756-.583 3.278-1.633 4.332-3.15l1.404-2.336c.702-1.167 1.64-2.451 1.756-3.969.234-1.166.234-2.334.352-3.734-.117-.701 0-1.519-.117-2.219-.112-.702-.346-1.403-.698-2.337zM74.086 209.808c-.701-1.868-1.404-4.086-2.224-6.188-1.055-2.568-2.342-5.136-4.214-7.12-1.055-1.052-2.226-1.635-3.513-2.102-1.171-.583-2.459-.817-3.979-1.052-1.991-.232-3.63.117-5.62.234-.233 0-.351.234-.468.234-.702.35-1.404.699-2.225 1.05l-.586.7c-.116.35-.467.7-.702.935l-.937.933-3.628 5.254c-.586.817-.937 1.518-1.405 2.568-.937 2.335-1.756 4.437-2.225 6.77-.352 2.336-.701 4.553-1.054 7.005-.467 2.218-.702 4.903-.937 7.121l-.35 4.786c-.353 2.218-.353 4.553 0 6.537l.35 4.553c0 .584 0 1.635.234 2.335.702 3.269 2.107 6.069 3.63 8.872 1.17 1.75 2.575 3.502 4.331 5.02 1.989 1.518 4.331 2.219 7.022 2.685.353 0 .586-.116.938-.116a29.974 29.974 0 0 0 3.63-1.051c2.458-.584 4.682-1.985 7.022-3.502 1.405-1.285 2.576-2.568 3.513-4.203.819-1.4 1.287-2.801 2.107-3.969a29.143 29.143 0 0 0 1.872-6.537c.116-3.386.703-6.305.703-9.457.116-2.567.234-5.02.234-7.12-.118-3.968-.352-7.237-.821-10.506-.23-1.518-.463-3.036-.698-4.669zm-11.589 23.814c0 2.801-.352 5.135-.352 7.704-.233 1.284-.584 2.685-1.053 3.968-.352 1.052-.819 1.752-1.405 2.336-.819.699-2.341 1.051-3.512.116-1.522-1.167-2.458-2.685-2.927-4.553-.351-.583-.468-.933-.584-1.519-.82-2.333-.937-4.668-1.171-6.886-.235-3.853 0-7.938.116-11.79.118-1.402.234-2.686.586-4.086.469-1.869.702-3.852 1.288-5.488.585-1.75 1.169-3.617 1.872-5.252l1.639-2.568c.117-.35.352-.584.586-.934.82.584 1.287 1.4 1.873 2.452 1.639 3.034 2.107 6.42 2.458 9.571.704 5.839.937 11.326.586 16.929zM125.928 29.843c-.058 1.903.66 3.075 2.007 4.156.892.716 3.852 1.155 5.123 1.13 1.57-.031 2.818-.659 3.544-1.902.285-.488.423-1.12.573-1.57.917-2.732.354-2.357.326-5.162-.019-1.977-.344-1.855-2.047-3.283-.433-.363-1.399-.677-2.106-.872-1.236-.341-2.368-.475-3.568-.001-1.097.482-2.061.69-2.787 1.678-.5.815-.855 1.926-1.016 2.866-.435 2.54.034.147-.049 2.96z"></path>
                        </g>
                        <g class="logo-secondary">
                            <path class="logo-secondary__bubble" fill="#af7d55" d="M495.1 155.475c5.705 6.108 14.52 15.45 16.029 27.109s1.002 14.948-1.104 30.346c-2.104 15.397-5.465 32.868-17.154 44.309-11.688 11.44-32.674 20.69-56.023 23.269-4.346.48-8.504.818-12.467 1.031-.508.101 4.91-.165-1.98.223s-22.443 5.678-28.486 11.301c-5.381 6.299-20.043 17.643-20.201 5.134-.031-2.607 1.879-6.878 3.049-10.468.203-.83.438-1.801.424-2.883-.072-5.586-4.326-10.387-7.156-13.225-.752-.688-1.537-1.504-2.205-2.083-3.129-3.17-5.588-6.634-7.215-9.691-5.043-8.907-5.793-31.132-2.355-70.468s18.859-58.849 26.412-61.196c17.08-6.422 89.574 4.895 110.432 27.292"></path>
                            <g class="logo-secondary__text" fill="#fff">
                                <path d="M378.41 226.757c7.369 3.438 23.154.541 30.932-.082 3.215-.877 3.275-2.382 3.586-5.4.162-2.986 1.639-7.049-2.754-8.276-3.031-.849-14.301-.036-17.754-.712 1.238-1.291 1.375-1.969 2.43-3.187 7.934-9.159 20.967-35.868 20.277-48.669-.232-4.29-1.895-7.775-5.719-10.27-4.203-2.741-9.068-3.309-13.836-2.78-2.551.283-8.031 3.094-10.082 4.733-2.955 2.365-3.068 6.512-.861 8.848 1.691 1.791 7.939 1.641 10.367-.641 1.99-1.873 3.971-1.302 5.785-.369 1.934.996 1.377 3.791.682 5.693-.346.946-.533 1.994-.854 2.951-2.982 8.887-3.666 11.918-19.621 37.246-3.281 4.236-5.344 9.002-6.088 14.203-.461 3.226.555 5.333 3.51 6.712z"></path>
                                <path d="M420.41 198.951c1.119.354 2.383.224 3.563.421 4.688.781 9.813.43 14.002 1.152.117 4.175-.068 8.124.422 11.987.443 3.485 2.77 4.772 6.244 4.622 2.482-.107 4.137-1.945 4.43-5.078.357-3.826.633-7.662.92-11.177 2.348-.831 4.654-1.208 6.381-2.415 1.184-.827 1.893-2.738 2.211-4.287.385-1.882-.98-3.066-2.75-3.536-1.662-.44-3.369-.712-5.205-1.089.115-1.417.248-2.763.33-4.112.176-2.923.553-5.856.43-8.767-.156-3.711-2.131-5.189-6.301-5.267-2.746-.049-4.584 1.853-4.889 5.187-.365 4-.955 8.008-1.293 12.154-3.877.015-6.701-.117-11.127-.101 2.352-5.297 4.1-9.882 6.115-14.687 1.982-4.723 3.896-9.48 5.607-14.305.621-1.754.436-4.229-1.707-5.299-2.156-1.074-4.561-1.66-6.418.072-1.318 1.232-2.451 2.755-3.344 4.331-5.361 9.464-9.963 21.317-12.893 31.777-1.327 4.746.126 6.785 5.272 8.417zM491.992 190.915a30.416 30.416 0 0 0-3.76-.537c-4.332-.362-8.887-.549-13.229-.642-4.125-.089-5.695 2.31-6.461 6.088-.445 2.199 1.496 3.994 5.27 4.467 3.928.49 6.748.259 10.879.433-3.229 12.31-7.098 22.881-10.281 35.19-.506 1.958-.855 5.147-.557 6.747.346 2.883 4.629 4.42 7.158 2.465 1.93-1.488 3.334-3.505 4.027-5.713 1.82-5.799 3.42-10.131 4.965-16.025 2.107-8.032 4.508-15.987 6.629-24.016 1.276-4.828.108-7.443-4.64-8.457zM453.014 226.048c-2.715 5.444-12.895 16.022-26.059 20.84-13.168 4.817-23.123 4.4-30.494 2.562-5.766-1.437-10.061-5.336-11.744-6.976-.568-.554-1.447-.955-2.074-.998-.867-.06-2.463-.141-4.428 1.639-3.215 2.912-2.121 6.302 3.785 11.146 5.906 4.843 14.342 7.725 24.205 8.387 17.426.933 36.635-6.912 46.531-16.271 9.895-9.359 9.818-14.255 10.652-16.52.123-.335.391-1.322.414-1.788.294-6.164-8.478-6.656-10.788-2.021z"></path>
                            </g>
                        </g>
                    </svg>