<svg id="Layer_1" xmlns="http://www.w3.org/2000/svg" xmlns:xlink="http://www.w3.org/1999/xlink" viewBox="0 0 212.598 75.186"><style>.st0{clip-path:url(#SVGID_2_);fill:#006732}</style><defs><path id="SVGID_1_" d="M0 0h212.598v75.186H0z"/></defs><clipPath id="SVGID_2_"><use xlink:href="#SVGID_1_" overflow="visible"/></clipPath><path class="st0" d="M212.598 44.532c0-.816-.445-1.334-1.224-1.334h-.147c-.205 0-.521.037-.93.092a1.686 1.686 0 0 0-.073.5c0 .186.019.334.073.519h.167c.576 0 .763.204.763.891v7.168c.185.037.426.056.704.056.24 0 .482-.019.667-.056v-7.836zm-1.947-3.769c0 .223.055.538.13.686.184.111.538.204.834.204.259 0 .685-.093.835-.204.074-.148.129-.463.129-.686 0-.222-.055-.537-.129-.686-.167-.111-.576-.185-.835-.185-.296 0-.65.074-.834.185-.075.149-.13.464-.13.686m-3.509 5.718c.222.038.389.057.593.057.612 0 .722-.391.722-.854 0-.985-.852-2.654-3.211-2.654-1.914 0-3.731 1.502-3.731 4.864 0 2.34.964 4.697 3.62 4.697 1.301 0 2.359-.538 3.212-1.336-.074-.334-.371-.705-.649-.873-.687.502-1.466 1.022-2.376 1.022-1.489 0-2.379-1.152-2.379-3.51 0-2.47.91-3.752 2.266-3.752 1.562 0 2.006 1.263 1.933 2.339m-14.022 1.338c0-1.82.576-3.715 2.435-3.715 1.839 0 2.433 1.895 2.433 3.715 0 1.839-.594 3.697-2.433 3.697-1.859 0-2.435-1.858-2.435-3.697m6.277 0c0-1.485-.334-2.804-1.298-3.788-.65-.667-1.505-1.001-2.563-1.001-1.041 0-1.896.334-2.546 1.001-.963.984-1.297 2.303-1.297 3.788 0 1.486.334 2.805 1.297 3.79.65.648 1.505.982 2.546.982 1.058 0 1.913-.334 2.563-.982.964-.985 1.298-2.304 1.298-3.79m-16.654-1.393v5.942c.186.037.426.056.686.056.26 0 .5-.019.686-.056v-6.611c.723-.909 1.691-1.411 2.453-1.411.91 0 1.262.593 1.262 2.061v5.163c0 .612.187.909.706.909.333 0 .667-.111.871-.297-.167-.409-.223-.966-.223-1.579v-4.641c0-1.579-.704-2.858-2.319-2.858-1.077 0-2.1.557-3.01 1.391-.333-.834-1.02-1.391-2.078-1.391-.966 0-1.989.483-2.732 1.334v-.277c0-.612-.11-.964-.74-.964h-.519l-.112.13v9.041c.186.037.427.056.704.056.242 0 .483-.019.667-.056v-6.573c.669-.91 1.655-1.449 2.435-1.449.929 0 1.263.613 1.263 2.08m-13.947 1.393c0-1.82.576-3.715 2.434-3.715 1.839 0 2.433 1.895 2.433 3.715 0 1.839-.594 3.697-2.433 3.697-1.858 0-2.434-1.858-2.434-3.697m6.276 0c0-1.485-.334-2.804-1.297-3.788-.651-.667-1.505-1.001-2.565-1.001-1.04 0-1.893.334-2.544 1.001-.963.984-1.297 2.303-1.297 3.788 0 1.486.334 2.805 1.297 3.79.651.648 1.504.982 2.544.982 1.06 0 1.914-.334 2.565-.982.963-.985 1.297-2.304 1.297-3.79m-12.996-3.584c1.022 0 1.988.984 1.988 3.473 0 2.563-1.096 3.622-2.211 3.622-.855 0-1.616-.409-2.23-.836v-4.773c.614-.948 1.58-1.486 2.453-1.486m3.378 3.473c0-2.768-1.076-4.678-3.119-4.678-1.132 0-2.08.538-2.712 1.241v-.092c0-.629-.129-.981-.759-.981h-.483l-.11.111v12.939l.11.112h.502c.63 0 .74-.316.74-.929v-3.674c.706.463 1.487.76 2.36.76 1.616 0 3.471-1.429 3.471-4.809m-18.528-5.887c.111.259.371.52.649.594l3.025-2.413c-.186-.445-.63-.89-1.131-1.039l-2.543 2.858zm1.15 2.265c1.579 0 2.193 1.301 2.193 2.843v.242h-4.46c.093-1.84.873-3.085 2.267-3.085m3.49 4.141c.074-.445.093-.76.093-1.223 0-2.193-1.205-3.974-3.583-3.974s-3.713 2.023-3.713 4.771c0 2.544.889 4.79 3.657 4.79 1.264 0 2.526-.446 3.379-1.038-.037-.298-.241-.725-.5-.949-.817.447-1.69.781-2.694.781-1.727 0-2.34-1.3-2.396-3.158h5.757zm-10.101.817c-.465-1.022-.967-1.54-1.839-1.707.167-.129.298-.296.446-.519l2.358-3.437-.111-.147c-.26-.018-.427-.036-.687-.036-.557 0-.761.257-1.04.684l-1.987 2.936c-.112.167-.242.26-.427.26l-.8.037V39.65c0-.612-.11-.928-.74-.928h-.5l-.112.111v13.535c.185.037.408.056.685.056.242 0 .483-.019.667-.056v-4.086c.41-.055.763-.074 1.004-.074 1.041 0 1.393.315 1.858 1.374l.854 1.932c.26.593.464.965 1.075.965.354 0 .744-.185.91-.408-.333-.241-.612-.762-.89-1.394l-.724-1.633zm-9.096-2.563c.222.038.389.057.592.057.613 0 .724-.391.724-.854 0-.985-.854-2.654-3.211-2.654-1.914 0-3.732 1.502-3.732 4.864 0 2.34.963 4.697 3.621 4.697 1.3 0 2.358-.538 3.211-1.336-.076-.334-.371-.705-.649-.873-.686.502-1.467 1.022-2.377 1.022-1.487 0-2.378-1.152-2.378-3.51 0-2.47.909-3.752 2.267-3.752 1.559 0 2.006 1.263 1.932 2.339m-8.098-1.949c0-.816-.445-1.334-1.224-1.334h-.148c-.204 0-.52.037-.928.092a1.599 1.599 0 0 0-.075.5c0 .186.018.334.075.519h.167c.575 0 .761.204.761.891v7.168c.184.037.426.056.704.056.241 0 .481-.019.668-.056v-7.836zm-1.947-3.769c0 .223.055.538.129.686.186.111.538.204.835.204.259 0 .686-.093.833-.204.075-.148.13-.463.13-.686 0-.222-.055-.537-.13-.686-.167-.111-.574-.185-.833-.185-.297 0-.649.074-.835.185-.074.149-.129.464-.129.686m-2.659 5.254c0-1.579-.611-2.913-2.375-2.913-1.169 0-2.377.557-3.195 1.334V39.65c0-.612-.111-.928-.741-.928h-.5l-.112.111v13.535c.185.037.408.056.685.056.242 0 .483-.019.668-.056v-6.573c.725-.836 1.895-1.43 2.843-1.43 1.077 0 1.374.613 1.374 2.079v5.126c0 .612.185.909.705.909.314 0 .667-.111.871-.297-.167-.409-.223-.966-.223-1.579v-4.586zm-10.581.464c.222.038.389.057.592.057.613 0 .724-.391.724-.854 0-.985-.853-2.654-3.211-2.654-1.913 0-3.732 1.502-3.732 4.864 0 2.34.965 4.697 3.622 4.697 1.298 0 2.357-.538 3.21-1.336-.074-.334-.371-.705-.649-.873-.686.502-1.466 1.022-2.377 1.022-1.486 0-2.377-1.152-2.377-3.51 0-2.47.91-3.752 2.266-3.752 1.559 0 2.007 1.263 1.932 2.339m-6.798-3.137l-.038-.055a1.928 1.928 0 0 0-.686-.11c-.205 0-.445.018-.63.073l-2.266 8.208c-.093 0-.148-.02-.185-.13-.223-.762-.539-1.913-.854-2.898l-1.467-4.66c-.148-.501-.408-.649-.723-.649-.223 0-.465.093-.817.242l2.598 8.17c.223.685.52.87 1.151.906l-.056.187c-.501 1.672-1.039 2.75-2.45 2.75-.426 0-.965-.111-1.225-.204-.167.222-.334.667-.298 1.001.317.111 1.004.24 1.505.24 2.227 0 3.025-1.371 3.899-4.362l2.542-8.709zm-15.372 8.32a5.894 5.894 0 0 0 3.155.927c1.989 0 3.415-.964 3.415-2.617 0-1.356-.926-2.155-2.3-2.693l-1.096-.427c-.929-.353-1.394-.725-1.394-1.356 0-.817.688-1.356 1.655-1.356.946 0 1.838.316 2.431.576.259-.26.426-.706.426-1.076-.741-.334-1.892-.612-2.82-.612-1.692 0-3.101.964-3.101 2.561 0 1.355 1.094 2.097 2.375 2.581l1.042.409c.873.315 1.356.873 1.356 1.486-.02.854-.8 1.449-1.97 1.449-.948 0-1.876-.428-2.636-.855-.278.223-.519.669-.538 1.003m-4.921-7.429c1.022 0 1.987.984 1.987 3.473 0 2.563-1.095 3.622-2.211 3.622-.854 0-1.616-.409-2.229-.836v-4.773c.613-.948 1.58-1.486 2.453-1.486m3.378 3.473c0-2.768-1.076-4.678-3.119-4.678-1.132 0-2.08.538-2.712 1.241v-.092c0-.629-.13-.981-.76-.981h-.482l-.111.111v12.939l.111.112h.501c.63 0 .741-.316.741-.929v-3.674c.706.463 1.486.76 2.359.76 1.617 0 3.472-1.429 3.472-4.809M164.507 24.534c0-.815-.445-1.334-1.223-1.334h-.149c-.204 0-.519.037-.927.092a1.607 1.607 0 0 0-.076.501c0 .185.019.333.076.518h.166c.576 0 .761.205.761.892v7.167c.186.037.426.055.704.055.242 0 .483-.018.668-.055v-7.836zm-2.225-2.71c.11.26.37.519.648.594l3.026-2.413c-.187-.446-.631-.891-1.132-1.039l-2.542 2.858zm-2.824 4.177c0-1.579-.631-2.894-2.396-2.894-1.17 0-2.377.537-3.194 1.315v-.257c0-.612-.112-.965-.742-.965h-.519l-.11.111v9.062c.184.037.425.054.704.054.24 0 .481-.017.667-.054v-6.592c.724-.836 1.894-1.43 2.86-1.43 1.061 0 1.357.612 1.357 2.08v5.143c0 .613.185.91.705.91.334 0 .685-.111.872-.297-.167-.409-.204-.967-.204-1.578v-4.608zm-12.552 5.183c-.112 0-.131-.018-.167-.148a66.857 66.857 0 0 0-.872-2.953l-1.486-4.419c-.112-.39-.352-.538-.686-.538-.224 0-.465.055-.835.241l2.764 8.207c.28.796.483.889 1.041.889.314 0 .668-.018.964-.093.706-1.967 2.098-6.09 3.045-9.024l-.037-.055c-.222-.055-.427-.11-.686-.11a2.28 2.28 0 0 0-.558.073l-2.487 7.93zm-10.602-7.28c.334.314.668.964.668 1.893v6.573c.187.037.427.055.705.055.241 0 .483-.018.667-.055v-6.182c.371-.818 1.06-1.691 2.267-1.691.203 0 .427 0 .649.019.223-.353.317-.871.317-1.298a5.767 5.767 0 0 0-.856-.074c-1.262 0-2.06.723-2.487 1.632-.187-.798-.631-1.391-1.336-1.65-.26.166-.52.519-.594.778m-5.088.333c1.023 0 1.989.985 1.989 3.473 0 2.564-1.096 3.623-2.211 3.623-.855 0-1.618-.41-2.231-.837v-4.773c.613-.947 1.58-1.486 2.453-1.486m3.378 3.473c0-2.767-1.075-4.677-3.118-4.677-1.133 0-2.081.537-2.713 1.241v-.092c0-.629-.13-.982-.76-.982h-.482l-.11.111v12.94l.11.111h.501c.631 0 .741-.316.741-.927v-3.677c.706.463 1.487.761 2.361.761 1.616 0 3.47-1.429 3.47-4.809m-18.641 3.084c-.668 0-1.04-.483-1.04-1.097 0-.855.483-1.394 1.448-1.394.373 0 .875.019 1.338.056v1.618c-.538.539-1.189.817-1.746.817m4.678.463c-.39-.296-.52-.761-.52-1.374v-3.806c0-2.228-1.465-3.137-3.174-3.137-1.226 0-2.914.352-4.064.834.054.611.277 1.336.629 1.727.965-.335 1.967-.651 2.822-.651.912 0 1.375.446 1.375 1.413v.502c-.557-.056-1.133-.056-1.561-.056-1.949 0-3.619.964-3.619 3.137 0 1.338.909 2.784 2.783 2.784 1.208 0 2.1-.539 2.75-1.168.333.556.891.963 1.762 1.057.334-.241.706-.816.817-1.262m-10.621-2.471c-.335-.872-.873-1.39-1.615-1.632.315-.222.576-.52.779-.91l1.727-2.972-.111-.147c-.446-.018-.835-.037-1.336-.037-.725 0-1.115.314-1.45.927l-1.281 2.212c-.13.222-.26.297-.481.297l-.465.018V20.21c0-1.077-.334-1.504-1.299-1.504h-.946l-.111.131V32.37a7.601 7.601 0 0 0 2.356 0v-3.806a7.92 7.92 0 0 1 .706-.038c.686 0 1.002.205 1.336 1.078l.632 1.708c.297.835.593 1.188 1.354 1.188.633 0 1.265-.315 1.636-.743-.466-.335-.669-.873-.893-1.523l-.538-1.448zm-9.265-2.616c0-1.839-.816-3.174-2.523-3.174-1.077 0-2.007.5-2.787 1.168-.148-.704-.557-1.113-1.299-1.113h-.927l-.112.13v9.192a8 8 0 0 0 2.412 0V26.06c.576-.596 1.301-.892 1.84-.892.761 0 .965.463.965 1.504v4.327c0 .984.334 1.504 1.3 1.504.593 0 1.168-.223 1.521-.52-.297-.446-.39-1.077-.39-1.765V26.17zm-10.361-1.132c0-1.208-.686-1.95-1.781-1.95h-.315c-.352 0-.891.037-1.411.093a3.516 3.516 0 0 0-.111.872c0 .296.037.556.111.833h.242c.63 0 .836.391.836 1.022v6.462c.352.055.796.093 1.224.093.425 0 .872-.038 1.205-.093v-7.332zm-2.987-4.495c0 .316.056.667.185.965.242.148.779.26 1.207.26.425 0 .963-.112 1.206-.26a2.48 2.48 0 0 0 .185-.965c0-.297-.055-.668-.185-.965-.243-.148-.781-.24-1.206-.24-.428 0-.929.092-1.207.24a2.495 2.495 0 0 0-.185.965m-5.127 9.712c-.52 0-1.095.02-1.69.074v-9.154c0-1.114-.463-1.597-1.447-1.597h-.927l-.13.13v11.215c0 .928.574 1.484 1.446 1.484h4.512c.891 0 1.486-.408 1.615-1.205.057-.297.075-.669.075-.947H82.27zM68.684 43.439a6.016 6.016 0 0 0-.6-1.055l-.172-.234a2.406 2.406 0 0 0-.177-.217l-.039-.043-.01-.012c-.002 0-.023-.033-.017-.023l-.01-.018-.044-.068-.089-.144a7.834 7.834 0 0 1-.607-1.42c-.343-1.051-.594-2.211-.798-3.387-.401-2.364-.651-4.813-.924-7.276-.142-1.232-.28-2.472-.464-3.72a42.803 42.803 0 0 0-.318-1.883 12.665 12.665 0 0 0-.52-1.932c-.898-2.556-2.68-4.647-4.726-6.178a18.447 18.447 0 0 0-3.285-1.945c-1.151-.521-2.34-.964-3.596-1.174a.186.186 0 0 0-.206.126c-.03.097.024.2.121.23l.005.002c1.155.362 2.248.93 3.285 1.553a18.15 18.15 0 0 1 2.884 2.162c1.763 1.605 3.105 3.613 3.69 5.802.149.554.238 1.083.305 1.683.066.583.118 1.191.159 1.796.085 1.212.145 2.438.199 3.672.117 2.469.21 4.961.509 7.499.155 1.269.343 2.552.714 3.872.187.658.414 1.33.766 2.021.046.086.09.174.14.26l.075.129.018.033c.012.02-.003-.006 0 0l.005.016.02.055c.034.082.043.13.06.181l.053.174c.063.231.121.445.145.641.052.4.052.67.029.892-.028.217-.055.487-.252.83-.19.334-.515.707-.93 1.012-.41.317-.889.596-1.393.856-1.021.509-2.126.951-3.294 1.378l-.45.17a5.519 5.519 0 0 0-.543.233l-.437.224c-.15.081-.297.164-.443.254-.579.36-1.191.803-1.618 1.498-1.227 1.727.115 4.065.301 4.332.745 1.061 1.612 1.963 2.547 2.811a.187.187 0 0 0 .239.006.182.182 0 0 0 .028-.258l-.004-.006a18.83 18.83 0 0 1-2-3.039c-.122-.246-.729-2.039.071-3.049.798-.947 2.799-1.273 2.799-1.273 1.229-.18 2.52-.385 3.8-.795a13.282 13.282 0 0 0 1.94-.768c.645-.328 1.325-.703 1.958-1.293.63-.572 1.228-1.427 1.419-2.431.206-1 .032-1.996-.318-2.762"/><g><defs><path id="SVGID_3_" d="M39.148 0s-3.177.081-3.704.118c-.568.036-2.275.23-2.566.27C15.125 2.763.531 17.195 0 38.068v.197c.035 13.652 7.49 26.139 19.141 32.793.255.145 6.367 3.394 10.134 4.039 2.67.455 7.939-.91 9.302-2.402.867-.95 1.061-2.125.696-4.101l-.016-.085-.002-.012c-1.269-7.035-1.355-9.586-4.708-10.379-.001 0-.241-.046-.375-.068-.94-.166-2.22-.033-3.512.1-.238-.018-1.702.203-2.178.292-.326.053-1.822.359-2.172.432-2.391.52-4.15 1.205-6.048.279-1.789-.871-1.986-2.724-1.704-3.796.281-1.073.473-1.692-.329-2.261-.388-.28-1.441-.893-1.512-1.614-.088-.887.495-1.222.6-1.447.109-.225.165-.172-.496-.346-.66-.174-.759-.661-.88-1.102-.121-.443.795-1.742.849-2.322.028-.298-.073-.783-.631-.881-.557-.098-1.861-.652-2.461-1.545-.722-1.07.096-2.289.432-2.709.335-.418 1.798-2.172 2.204-2.916.406-.744 2.062-3.693 2.145-4.017.189-.735-.033-.711-.465-1.85-.618-1.63 1.357-5.877 1.357-5.877-3.497.578-.553-7.613 5.683-10.462 1.64-.748 4.758-1.713 6.352-1.793 1.151-.155 3.207.007 3.207.007 1.211.294 2.237.722 4.566 2.765.469.448 2.121 1.017 2.563 1.082l.574.085c3.406.519 4.441-1.811 8.254-7.859l.006-.01.045-.074c1.079-1.693 1.395-2.88.891-4.063-.478-1.141-1.744-2.281-3.825-3.85C45.12.375 41.794.01 39.148 0z"/></defs><clipPath id="SVGID_4_"><use xlink:href="#SVGID_3_" overflow="visible"/></clipPath><linearGradient id="SVGID_5_" gradientUnits="userSpaceOnUse" y1="75.187" x2="1" y2="75.187" gradientTransform="matrix(0 75.1856 75.1856 0 -5627 0)"><stop offset="0" stop-color="#7ac14a"/><stop offset=".315" stop-color="#2e9947"/><stop offset=".618" stop-color="#007c41"/><stop offset=".856" stop-color="#006c3b"/><stop offset="1" stop-color="#006739"/></linearGradient><path clip-path="url(#SVGID_4_)" fill="url(#SVGID_5_)" d="M0 0h52.016v75.552H0z"/></g></svg>