<?xml version="1.0" encoding="utf-8"?>
<!-- Generator: Adobe Illustrator 24.1.1, SVG Export Plug-In . SVG Version: 6.00 Build 0)  -->
<svg version="1.1" id="Vrstva_1" xmlns="http://www.w3.org/2000/svg" xmlns:xlink="http://www.w3.org/1999/xlink" x="0px" y="0px"
	 viewBox="0 0 2005 440" style="enable-background:new 0 0 2005 440;" xml:space="preserve">
<style type="text/css">
	.st0{fill:#FF00FF;}
	.st1{fill:#FFFFFF;}
	.st2{fill:#E13D58;}
	.st3{fill:none;stroke:#000000;stroke-width:6.0464;stroke-miterlimit:10;}
</style>
<path class="st0" d="M403.9,224.6c0,21.5-39.5,156.8-88.3,156.8S227.3,246,227.3,224.6c0-21.5,39.5-39,88.3-39
	S403.9,203.1,403.9,224.6z"/>
<path class="st1" d="M312,185.6c51.6,0,93.4,18.9,93.4,40.5S363.6,381.4,312,381.4"/>
<path class="st1" d="M319,381.4c-51.5,0-93.2-133.9-93.2-155.3c0-21.5,41.7-40.5,93.2-40.5"/>
<circle class="st1" cx="315.6" cy="108.1" r="88.3"/>
<path d="M376.8,233.7c0,31.8-27.7,57.5-61.7,57.3c-34-0.3-61.6-27.1-60.7-58.9c0-0.2,0-0.3,0-0.5c0.1-1.9,2.9-2.3,3.6-0.5
	c8.5,22,31.1,37.8,57.6,37.8c25.8,0,47.9-14.9,56.9-36.1c0.9-2.1,4.3-1.6,4.3,0.7C376.8,233.6,376.8,233.7,376.8,233.7z"/>
<g>
	<g>
		<ellipse transform="matrix(0.9871 -0.1602 0.1602 0.9871 -13.8293 44.7537)" cx="270.7" cy="108.2" rx="17.5" ry="17.5"/>
		<ellipse transform="matrix(0.1602 -0.9871 0.9871 0.1602 192.8982 443.0353)" cx="356.8" cy="108.2" rx="17.5" ry="17.5"/>
		<g>
			<path class="st2" d="M411.8,108.2h-12.5c0-21.3-17.4-38.7-38.7-38.7s-38.7,17.4-38.7,38.7h-12.5c0-8.9,2.3-17.2,6.3-24.5
				c8.7-15.9,25.6-26.7,44.9-26.7c5.4,0,10.6,0.8,15.4,2.4c0.5,0.2,1.1,0.4,1.6,0.5c2.7,0.9,5.3,2.1,7.7,3.5c0.5,0.3,1,0.5,1.4,0.8
				l0,0h0c14.6,8.7,24.5,24.5,25,42.6C411.8,107.2,411.8,107.7,411.8,108.2z"/>
		</g>
		<g>
			<path class="st2" d="M321.9,108.2h-12.5c0-21.3-17.3-38.7-38.7-38.7c-21.3,0-38.7,17.4-38.7,38.7h-12.5v-0.7c0-0.1,0-0.1,0-0.2
				v-0.5c0-0.4,0-0.9,0.1-1.4c0-0.1,0-0.2,0-0.3c1-17.4,10.8-32.5,24.9-40.9c7.7-4.6,16.6-7.2,26.2-7.2c19.4,0,36.3,10.8,45,26.7
				C319.6,90.9,321.9,99.3,321.9,108.2z"/>
		</g>
		<g>
			<path class="st2" d="M315.6,12c-52,0-94.4,41.5-96,93.1c0,0.1,0,0.2,0,0.3c0,0.4,0,0.9,0,1.4c0,0.1,0,0.2,0,0.3v0.2
				c0,0.1,0,0.1,0,0.2c0,0.2,0,0.4,0,0.7c0,18.8,5.4,36.3,14.8,51.2c7.6,12.1,17.8,22.3,29.8,29.9c6.4,4.1,13.4,7.5,20.7,10
				c9.7,3.3,20,5.1,30.8,5.1c10.8,0,21.1-1.8,30.8-5.1c7.3-2.5,14.3-5.8,20.7-9.9c12-7.6,22.2-17.9,29.9-30
				c9.4-14.8,14.8-32.4,14.8-51.2v-1.4C411,54.4,368.2,12,315.6,12z M381.7,159.3c-9.1,11.8-21.4,21.1-35.5,26.7c0,0,0,0,0,0
				c-0.5,0.2-1.1,0.4-1.6,0.6c-9,3.3-18.8,5.2-29,5.2c-10.2,0-20-1.9-29.1-5.2c-0.5-0.2-1-0.4-1.6-0.6
				c-14.1-5.6-26.3-14.9-35.5-26.7c-11-14.1-17.6-31.9-17.6-51.2c0-0.7,0-1.4,0-2c0.3-15.4,4.9-29.7,12.5-41.9
				c0.6-0.9,1.2-1.9,1.8-2.7c0.6-0.9,1.2-1.7,1.8-2.5c0.8-1.1,1.7-2.2,2.5-3.3c1.2-1.5,2.4-2.9,3.7-4.2c0.9-0.9,1.7-1.8,2.6-2.7
				c0.7-0.7,1.3-1.3,2-1.9c0.1-0.1,0.2-0.1,0.2-0.2c0.8-0.7,1.6-1.4,2.4-2.1c0.7-0.6,1.3-1.1,2-1.7c0.5-0.4,1.1-0.9,1.6-1.3
				c0.4-0.3,0.8-0.6,1.2-0.9c0.4-0.3,0.8-0.6,1.2-0.9c1-0.7,2.1-1.4,3.1-2.1c0.6-0.4,1.3-0.9,2-1.2c0.4-0.3,0.8-0.5,1.3-0.7
				c0.4-0.2,0.7-0.4,1-0.6c0.6-0.3,1.1-0.6,1.7-0.9c0.8-0.4,1.6-0.8,2.4-1.2c0.8-0.4,1.5-0.7,2.3-1.1c0.1,0,0.1,0,0.2-0.1
				c0.8-0.4,1.6-0.7,2.4-1c0.8-0.4,1.7-0.7,2.5-1c3.3-1.2,6.7-2.3,10.2-3.1c0.9-0.2,1.7-0.4,2.6-0.6c0.9-0.2,1.8-0.4,2.7-0.5
				c0.9-0.2,1.8-0.3,2.7-0.4c0.9-0.1,1.8-0.2,2.7-0.3c0.9-0.1,1.8-0.2,2.8-0.2c0.9-0.1,1.9-0.1,2.8-0.1c0.9,0,1.9-0.1,2.8-0.1
				s1.9,0,2.8,0.1c1.9,0.1,3.7,0.2,5.5,0.4c0.9,0.1,1.8,0.2,2.7,0.3c0.9,0.1,1.8,0.2,2.7,0.4c0.9,0.1,1.8,0.3,2.7,0.5
				c0.9,0.2,1.8,0.4,2.6,0.6c3.5,0.8,6.9,1.8,10.2,3.1c0,0,0,0,0,0c1.7,0.6,3.3,1.3,4.9,2c1.6,0.7,3.2,1.5,4.8,2.3
				c0.8,0.4,1.5,0.8,2.3,1.3c0.7,0.4,1.4,0.8,2.1,1.2c2.4,1.4,4.7,3,6.9,4.7c0.6,0.5,1.2,1,1.9,1.5c1,0.8,2,1.6,3,2.5
				c0.5,0.4,0.9,0.8,1.4,1.2c2.2,2,4.3,4.2,6.3,6.4c0.4,0.4,0.7,0.8,1.1,1.2c0.4,0.5,0.9,1,1.3,1.5c2.2,2.7,4.2,5.5,6,8.5l0,0
				c7.6,12.2,12.1,26.6,12.5,41.9c0,0.6,0,1.3,0,2C399.3,127.4,392.7,145.2,381.7,159.3z M344.6,199.2l0-12.5
				c-9,3.3-18.8,5.2-29,5.2c-10.2,0-20-1.9-29.1-5.2v12.5c0,0-0.7,0-1.7,0.1c9.7,3.3,20,5.1,30.8,5.1c10.8,0,21.1-1.8,30.8-5.1
				C345.3,199.2,344.6,199.2,344.6,199.2z"/>
		</g>
		<polygon class="st2" points="321.9,87 321.9,136.9 320.9,138.5 310.3,138.5 309.4,136.9 309.4,87 		"/>
		<polygon class="st2" points="321.9,136.9 320.9,138.5 315.6,147.8 310.3,138.5 309.4,136.9 		"/>
	</g>
	<path class="st2" d="M396.6,74c-8.7-6.2-18.9-9.8-29.8-9.8c-22,0-41.2,14.6-51.1,36c-9.9-21.4-29.1-36-51.1-36
		c-10.9,0-21.1,3.6-29.8,9.8c16.8-32.1,46.8-53.6,80.9-53.6S379.8,41.9,396.6,74z"/>
</g>
<g>
	<path class="st2" d="M320.9,394.1l-2,2.1h-6.8l-2-2.1c-75.2-80.5-104.4-139.6-86.9-175.6c8.6-17.7,26.3-25.7,40.8-29.4
		c9.5-2.4,17.6-2.9,20.9-3c0.5,0.2,1,0.4,1.6,0.6v11.7c0,0-0.7,0-1.7,0.1c-7.7,0.4-39,3.4-49.6,25.2c-10.2,21.1-4.3,65.5,80.3,157.4
		c84.6-92,90.5-136.3,80.3-157.4c-10.5-21.8-41.6-24.8-49.5-25.2c-1.1-0.1-1.8-0.1-1.8-0.1l0-11.7c0.6-0.2,1.1-0.4,1.6-0.6
		c0,0,0,0,0,0c3.4,0.1,11.5,0.7,20.9,3.1c14.5,3.7,32.2,11.8,40.7,29.4C425.3,254.5,396.1,313.5,320.9,394.1z"/>
</g>
<path class="st2" d="M355.7,415.8c1.9,4.3-3.5,8.1-7.4,5.4c-9.2-6.3-20.7-10.1-33-10.1s-23.8,3.7-33,10.1c-4,2.7-9.3-1.2-7.4-5.4
	c6.6-14.8,22.2-25.2,40.4-25.2S349.1,401,355.7,415.8z"/>
<path class="st2" d="M196.9,256.5c-16,0-174.7-69.2-174.7-85.2s13-28.9,28.9-28.9"/>
<path class="st2" d="M194.5,278.9c-11.2,5.9-148,15.5-153.8,4.3s-1.5-25,9.7-30.9"/>
<path class="st2" d="M194.5,302.7c-6.1,6.9-97,49.1-103.9,42.9c-6.9-6.1-7.6-16.7-1.4-23.6"/>
<path class="st2" d="M434.3,256.5c16,0,174.7-69.2,174.7-85.2s-13-28.9-28.9-28.9"/>
<path class="st2" d="M436.7,278.9c11.2,5.9,148,15.5,153.8,4.3s1.5-25-9.7-30.9"/>
<path class="st2" d="M436.7,302.7c6.1,6.9,97,49.1,103.9,42.9c6.9-6.1,7.6-16.7,1.4-23.6"/>
<path d="M308.8,230h13.6c0.6,0,1.1,0.5,1.1,1.1v124.5c0,0.6-0.5,1.1-1.1,1.1h-13.6c-0.6,0-1.1-0.5-1.1-1.1V231.1
	C307.7,230.5,308.2,230,308.8,230z"/>
<g>
	<line class="st3" x1="1988" y1="359.9" x2="686" y2="359.9"/>
	<g>
		<path d="M733.5,295.3V84.6h62.2c14,0,26.6,1.9,37.7,5.7c11.1,3.8,19.9,10.1,26.3,18.9c6.4,8.8,9.6,20.5,9.6,35.4
			c0,11.2-2.4,21.7-7.2,31.3c-4.8,9.6-13,17.3-24.5,23.1c-11.5,5.8-27.3,8.7-47.4,8.7h-27.5v87.6H733.5z M762.7,182.4h14.2
			c7.6,0,15-0.2,22.3-0.7c7.3-0.4,14-1.8,19.9-4c6-2.2,10.7-5.9,14.3-11.1c3.5-5.2,5.3-12.5,5.3-21.9c0-9.9-2.1-17.2-6.3-22.2
			c-4.2-4.9-9.7-8.2-16.3-9.9c-6.7-1.7-13.8-2.5-21.3-2.5h-31.9V182.4z"/>
		<path d="M1032.4,299.2c-9.1,0-18.8-1.4-29.1-4.2c-10.4-2.8-21.2-7.3-32.7-13.6l9.6-23.3c18.9,10,35.7,14.9,50.5,14.9
			c16.3,0,28.2-3.4,35.7-10.1c7.5-6.7,11.3-15,11.3-24.9c0-10-3.5-17.8-10.5-23.2c-7-5.4-18.6-11-34.9-16.8
			c-21.1-7.6-35.8-16.2-44.2-25.9c-8.4-9.7-12.5-21.9-12.5-36.6c0-12.1,2.9-22.3,8.7-30.5c5.8-8.2,13.7-14.4,23.7-18.7
			c9.9-4.2,21.1-6.3,33.4-6.3c9.7,0,19.7,1.6,30,4.9c10.3,3.2,20.9,8.4,31.8,15.6l-11.5,21.8c-9.1-5.8-17.7-9.9-26-12.5
			c-8.3-2.5-16.2-3.8-23.7-3.8c-12.3,0-21.7,2.6-28.2,7.7c-6.5,5.1-9.7,12.2-9.7,21.3c0,6.7,1.3,12.2,3.8,16.6
			c2.5,4.4,6.8,8.2,12.7,11.4c5.9,3.2,13.9,6.5,24,9.8c17.7,6,30.9,12,39.7,18.2c8.8,6.2,14.6,12.9,17.5,20.1
			c2.9,7.2,4.3,15.4,4.3,24.4c0,19.7-6.5,35.3-19.4,46.6C1073.6,293.5,1055.5,299.2,1032.4,299.2z"/>
		<path d="M1311.3,299.2c-17.3,0-32-2.9-44-8.8c-12-5.9-21.7-13.9-29-24.1c-7.4-10.2-12.7-21.8-16-34.9c-3.3-13-5-26.7-5-41
			c0-14.6,1.8-28.6,5.3-41.8c3.5-13.2,9.1-25,16.6-35.3c7.5-10.3,17.2-18.4,29.2-24.3c11.9-5.9,26.3-8.9,43-8.9
			c16.8,0,31.2,3,43.1,8.9c11.9,5.9,21.6,14,29.1,24.3c7.5,10.3,13,22.1,16.5,35.3c3.5,13.2,5.2,27.2,5.2,41.8c0,14.3-1.7,28-5,41
			c-3.3,13-8.7,24.7-16,34.9c-7.3,10.2-17,18.2-29,24.1C1343.2,296.3,1328.6,299.2,1311.3,299.2z M1311.3,273.1
			c12.3,0,22.6-2.2,30.7-6.6c8.2-4.4,14.6-10.5,19.3-18.3c4.7-7.8,8-16.7,10-26.7c2-10,3-20.6,3-31.8c0-15.5-1.9-29.6-5.7-42.2
			c-3.8-12.6-10.2-22.7-19.4-30.2c-9.2-7.5-21.8-11.2-37.9-11.2c-16,0-28.6,3.7-37.8,11.2c-9.2,7.5-15.7,17.5-19.6,30.2
			c-3.8,12.6-5.7,26.7-5.7,42.2c0,11.1,1,21.7,3,31.8c2,10.1,5.3,19,10,26.7c4.7,7.8,11.1,13.9,19.3,18.3
			C1288.6,270.9,1298.9,273.1,1311.3,273.1z"/>
		<path d="M1576,295.3l-72.4-210.8h31.9l35.5,115.5l20,66.3h1.6l21.6-66.7l36.3-115.1h30.6l-74.5,210.8H1576z"/>
		<path d="M1753.4,295.3v-9.6l79.7-201.2h28.8l78.7,202v8.8h-28.2l-22.7-59.1h-87l-23,59.1H1753.4z M1812.3,210.6h67.9l-19.4-53.7
			l-14.2-40.3l-14.5,40.3L1812.3,210.6z"/>
	</g>
</g>
</svg>
