<svg width="2197" height="411" viewBox="0 0 2197 411" fill="none" xmlns="http://www.w3.org/2000/svg">
<path d="M381.7 212.6C381.7 234.1 342.2 369.4 293.4 369.4C244.6 369.4 205.1 234 205.1 212.6C205.1 191.1 244.6 173.6 293.4 173.6C342.2 173.6 381.7 191.1 381.7 212.6Z" fill="#FF00FF"/>
<path d="M289.8 173.6C341.4 173.6 383.2 192.5 383.2 214.1C383.2 235.7 341.4 369.4 289.8 369.4" fill="white"/>
<path d="M296.8 369.4C245.3 369.4 203.6 235.5 203.6 214.1C203.6 192.6 245.3 173.6 296.8 173.6" fill="white"/>
<path d="M293.4 184.4C342.167 184.4 381.7 144.867 381.7 96.1001C381.7 47.3333 342.167 7.80005 293.4 7.80005C244.633 7.80005 205.1 47.3333 205.1 96.1001C205.1 144.867 244.633 184.4 293.4 184.4Z" fill="white"/>
<path d="M354.6 221.7C354.6 253.5 326.9 279.2 292.9 279C258.9 278.7 231.3 251.9 232.2 220.1C232.2 219.9 232.2 219.8 232.2 219.6C232.3 217.7 235.1 217.3 235.8 219.1C244.3 241.1 266.9 256.9 293.4 256.9C319.2 256.9 341.3 242 350.3 220.8C351.2 218.7 354.6 219.2 354.6 221.5C354.6 221.6 354.6 221.7 354.6 221.7Z" fill="#3C3C3C"/>
<path d="M251.316 113.466C260.856 111.918 267.335 102.929 265.787 93.3883C264.238 83.848 255.249 77.3692 245.709 78.9176C236.169 80.4659 229.69 89.455 231.238 98.9953C232.786 108.536 241.776 115.014 251.316 113.466Z" fill="#3C3C3C"/>
<path d="M351.936 98.9752C353.484 89.4349 347.006 80.4458 337.465 78.8975C327.925 77.3491 318.936 83.8279 317.387 93.3682C315.839 102.909 322.318 111.898 331.858 113.446C341.399 114.994 350.388 108.516 351.936 98.9752Z" fill="#3C3C3C"/>
<path d="M389.6 96.2H377.1C377.1 74.9 359.7 57.5 338.4 57.5C317.1 57.5 299.7 74.9 299.7 96.2H287.2C287.2 87.3 289.5 79 293.5 71.7C302.2 55.8 319.1 45 338.4 45C343.8 45 349 45.8 353.8 47.4C354.3 47.6 354.9 47.8 355.4 47.9C358.1 48.8 360.7 50 363.1 51.4C363.6 51.7 364.1 51.9 364.5 52.2C379.1 60.9 389 76.7 389.5 94.8C389.6 95.2 389.6 95.7 389.6 96.2Z" fill="#E13D58"/>
<path d="M299.7 96.2H287.2C287.2 74.9 269.9 57.5 248.5 57.5C227.2 57.5 209.8 74.9 209.8 96.2H197.3V95.5C197.3 95.4 197.3 95.4 197.3 95.3V94.8C197.3 94.4 197.3 93.9 197.4 93.4C197.4 93.3 197.4 93.2 197.4 93.1C198.4 75.7 208.2 60.6 222.3 52.2C230 47.6 238.9 45 248.5 45C267.9 45 284.8 55.8 293.5 71.7C297.4 78.9 299.7 87.3 299.7 96.2Z" fill="#E13D58"/>
<path d="M293.4 0C241.4 0 199 41.5 197.4 93.1C197.4 93.2 197.4 93.3 197.4 93.4C197.4 93.8 197.4 94.3 197.4 94.8C197.4 94.9 197.4 95 197.4 95.1V95.3C197.4 95.4 197.4 95.4 197.4 95.5C197.4 95.7 197.4 95.9 197.4 96.2C197.4 115 202.8 132.5 212.2 147.4C219.8 159.5 230 169.7 242 177.3C248.4 181.4 255.4 184.8 262.7 187.3C272.4 190.6 282.7 192.4 293.5 192.4C304.3 192.4 314.6 190.6 324.3 187.3C331.6 184.8 338.6 181.5 345 177.4C357 169.8 367.2 159.5 374.9 147.4C384.3 132.6 389.7 115 389.7 96.2V94.8C388.8 42.4 346 0 293.4 0ZM359.5 147.3C350.4 159.1 338.1 168.4 324 174C323.5 174.2 322.9 174.4 322.4 174.6C313.4 177.9 303.6 179.8 293.4 179.8C283.2 179.8 273.4 177.9 264.3 174.6C263.8 174.4 263.3 174.2 262.7 174C248.6 168.4 236.4 159.1 227.2 147.3C216.2 133.2 209.6 115.4 209.6 96.1C209.6 95.4 209.6 94.7 209.6 94.1C209.9 78.7 214.5 64.4 222.1 52.2C222.7 51.3 223.3 50.3 223.9 49.5C224.5 48.6 225.1 47.8 225.7 47C226.5 45.9 227.4 44.8 228.2 43.7C229.4 42.2 230.6 40.8 231.9 39.5C232.8 38.6 233.6 37.7 234.5 36.8C235.2 36.1 235.8 35.5 236.5 34.9C236.6 34.8 236.7 34.8 236.7 34.7C237.5 34 238.3 33.3 239.1 32.6C239.8 32 240.4 31.5 241.1 30.9C241.6 30.5 242.2 30 242.7 29.6C243.1 29.3 243.5 29 243.9 28.7C244.3 28.4 244.7 28.1 245.1 27.8C246.1 27.1 247.2 26.4 248.2 25.7C248.8 25.3 249.5 24.8 250.2 24.5C250.6 24.2 251 24 251.5 23.8C251.9 23.6 252.2 23.4 252.5 23.2C253.1 22.9 253.6 22.6 254.2 22.3C255 21.9 255.8 21.5 256.6 21.1C257.4 20.7 258.1 20.4 258.9 20C259 20 259 20 259.1 19.9C259.9 19.5 260.7 19.2 261.5 18.9C262.3 18.5 263.2 18.2 264 17.9C267.3 16.7 270.7 15.6 274.2 14.8C275.1 14.6 275.9 14.4 276.8 14.2C277.7 14 278.6 13.8 279.5 13.7C280.4 13.5 281.3 13.4 282.2 13.3C283.1 13.2 284 13.1 284.9 13C285.8 12.9 286.7 12.8 287.7 12.8C288.6 12.7 289.6 12.7 290.5 12.7C291.4 12.7 292.4 12.6 293.3 12.6C294.2 12.6 295.2 12.6 296.1 12.7C298 12.8 299.8 12.9 301.6 13.1C302.5 13.2 303.4 13.3 304.3 13.4C305.2 13.5 306.1 13.6 307 13.8C307.9 13.9 308.8 14.1 309.7 14.3C310.6 14.5 311.5 14.7 312.3 14.9C315.8 15.7 319.2 16.7 322.5 18C324.2 18.6 325.8 19.3 327.4 20C329 20.7 330.6 21.5 332.2 22.3C333 22.7 333.7 23.1 334.5 23.6C335.2 24 335.9 24.4 336.6 24.8C339 26.2 341.3 27.8 343.5 29.5C344.1 30 344.7 30.5 345.4 31C346.4 31.8 347.4 32.6 348.4 33.5C348.9 33.9 349.3 34.3 349.8 34.7C352 36.7 354.1 38.9 356.1 41.1C356.5 41.5 356.8 41.9 357.2 42.3C357.6 42.8 358.1 43.3 358.5 43.8C360.7 46.5 362.7 49.3 364.5 52.3C372.1 64.5 376.6 78.9 377 94.2C377 94.8 377 95.5 377 96.2C377.1 115.4 370.5 133.2 359.5 147.3ZM322.4 187.2V174.7C313.4 178 303.6 179.9 293.4 179.9C283.2 179.9 273.4 178 264.3 174.7V187.2C264.3 187.2 263.6 187.2 262.6 187.3C272.3 190.6 282.6 192.4 293.4 192.4C304.2 192.4 314.5 190.6 324.2 187.3C323.1 187.2 322.4 187.2 322.4 187.2Z" fill="#E13D58"/>
<path d="M299.7 75V124.9L298.7 126.5H288.1L287.2 124.9V75H299.7Z" fill="#E13D58"/>
<path d="M299.7 124.9L298.7 126.5L293.4 135.8L288.1 126.5L287.2 124.9H299.7Z" fill="#E13D58"/>
<path d="M374.4 62C365.7 55.8 355.5 52.2 344.6 52.2C322.6 52.2 303.4 66.8 293.5 88.2C283.6 66.8 264.4 52.2 242.4 52.2C231.5 52.2 221.3 55.8 212.6 62C229.4 29.9 259.4 8.40002 293.5 8.40002C327.6 8.40002 357.6 29.9 374.4 62Z" fill="#E13D58"/>
<path d="M298.7 382.1L296.7 384.2H289.9L287.9 382.1C212.7 301.6 183.5 242.5 201 206.5C209.6 188.8 227.3 180.8 241.8 177.1C251.3 174.7 259.4 174.2 262.7 174.1C263.2 174.3 263.7 174.5 264.3 174.7V186.4C264.3 186.4 263.6 186.4 262.6 186.5C254.9 186.9 223.6 189.9 213 211.7C202.8 232.8 208.7 277.2 293.3 369.1C377.9 277.1 383.8 232.8 373.6 211.7C363.1 189.9 332 186.9 324.1 186.5C323 186.4 322.3 186.4 322.3 186.4V174.7C322.9 174.5 323.4 174.3 323.9 174.1C327.3 174.2 335.4 174.8 344.8 177.2C359.3 180.9 377 189 385.5 206.6C403.1 242.5 373.9 301.5 298.7 382.1Z" fill="#E13D58"/>
<path d="M333.5 403.8C335.4 408.1 330 411.9 326.1 409.2C316.9 402.9 305.4 399.1 293.1 399.1C280.8 399.1 269.3 402.8 260.1 409.2C256.1 411.9 250.8 408 252.7 403.8C259.3 389 274.9 378.6 293.1 378.6C311.3 378.6 326.9 389 333.5 403.8Z" fill="#E13D58"/>
<path d="M174.7 244.5C158.7 244.5 0 175.3 0 159.3C0 143.3 13 130.4 28.9 130.4" fill="#E13D58"/>
<path d="M172.3 266.9C161.1 272.8 24.3001 282.4 18.5001 271.2C12.7001 260 17.0001 246.2 28.2001 240.3" fill="#E13D58"/>
<path d="M172.3 290.7C166.2 297.6 75.3001 339.8 68.4001 333.6C61.5001 327.5 60.8001 316.9 67.0001 310" fill="#E13D58"/>
<path d="M412.1 244.5C428.1 244.5 586.8 175.3 586.8 159.3C586.8 143.3 573.8 130.4 557.9 130.4" fill="#E13D58"/>
<path d="M414.5 266.9C425.7 272.8 562.5 282.4 568.3 271.2C574.1 260 569.8 246.2 558.6 240.3" fill="#E13D58"/>
<path d="M414.5 290.7C420.6 297.6 511.5 339.8 518.4 333.6C525.3 327.5 526 316.9 519.8 310" fill="#E13D58"/>
<path d="M286.6 218H300.2C300.8 218 301.3 218.5 301.3 219.1V343.6C301.3 344.2 300.8 344.7 300.2 344.7H286.6C286 344.7 285.5 344.2 285.5 343.6V219.1C285.5 218.5 286 218 286.6 218Z" fill="#3C3C3C"/>
<path d="M834.438 201.457V258.983C834.438 267.856 835.325 274.215 837.248 278.356C839.17 282.496 842.424 285.158 847.156 286.489C851.888 287.82 859.43 288.56 869.782 288.855V296.102C842.571 295.51 822.46 295.066 809.15 295.066C798.059 295.066 784.158 295.214 767.448 295.658L756.8 295.954V289.299C764.046 288.855 769.37 287.968 772.919 286.637C776.32 285.306 778.687 282.792 779.87 279.095C781.053 275.398 781.644 269.335 781.644 260.906V96.7571C781.644 88.3278 781.053 82.2647 779.87 78.5676C778.687 74.8706 776.32 72.2087 772.919 71.0257C769.518 69.6947 764.194 68.8074 756.8 68.3638V61.7091C768.039 62.3006 784.75 62.7443 807.08 62.7443L843.755 62.4485C848.191 62.3006 853.219 62.1528 858.986 62.1528C888.711 62.1528 911.484 68.068 927.16 79.8986C942.835 91.7291 950.673 107.552 950.673 127.369C950.673 139.495 947.568 151.178 941.357 162.269C935.146 173.36 924.794 182.676 910.153 190.218C895.513 197.76 875.993 201.457 851.74 201.457H834.438ZM841.832 70.7299C839.022 72.2087 837.1 75.0185 836.065 79.0113C835.03 83.0041 834.438 88.9193 834.438 96.9049V194.803H848.635C866.528 194.803 878.803 189.035 885.753 177.648C892.556 166.114 895.957 150.586 895.957 130.918C895.957 109.475 892.851 93.7994 886.492 83.5956C880.133 73.3918 869.634 68.3638 854.846 68.3638C848.93 68.3638 844.642 69.1032 841.832 70.7299Z" fill="black"/>
<path d="M1162 60.8206C1168.8 63.0388 1175.75 66.2922 1182.85 70.4329C1185.22 71.7638 1187.43 72.799 1189.36 73.6863C1191.28 74.5736 1192.91 75.0172 1194.09 75.0172C1196.01 75.0172 1197.64 73.8341 1198.67 71.6159C1199.71 69.2498 1200.6 65.5528 1201.33 60.5248H1208.88C1207.84 75.313 1207.25 100.453 1207.25 135.944H1199.71C1198.82 123.966 1196.16 112.727 1191.57 101.932C1186.99 91.1363 1180.63 82.4113 1172.35 75.6087C1164.07 68.8062 1154.46 65.5528 1143.37 65.5528C1132.57 65.5528 1123.84 68.6583 1117.04 74.7214C1110.24 80.7846 1106.99 89.0659 1106.99 99.4177C1106.99 107.107 1108.61 113.91 1112.01 119.677C1115.27 125.445 1120 130.621 1125.92 135.353C1131.83 140.085 1141 146.592 1153.42 154.725L1164.07 161.972C1177.08 170.549 1187.29 178.091 1194.83 184.45C1202.37 190.808 1208.43 198.35 1213.17 206.78C1217.9 215.209 1220.26 225.117 1220.26 236.356C1220.26 250.405 1216.57 262.383 1209.32 271.995C1202.07 281.608 1192.17 288.854 1179.74 293.734C1167.32 298.614 1153.42 300.98 1138.19 300.98C1125.77 300.98 1115.56 299.945 1107.43 297.727C1099.3 295.509 1091.75 292.551 1084.95 288.854C1080.07 285.748 1076.37 284.27 1073.71 284.27C1071.79 284.27 1070.16 285.453 1069.13 287.819C1068.09 290.185 1067.21 293.882 1066.47 298.91H1058.92C1059.81 285.009 1060.26 255.285 1060.26 209.589H1067.8C1069.28 234.286 1074.9 254.25 1084.36 269.629C1093.82 285.009 1108.46 292.551 1127.99 292.551C1139.96 292.551 1149.72 289.298 1157.41 282.939C1165.1 276.58 1168.95 267.411 1168.95 255.433C1168.95 243.011 1164.96 232.511 1156.97 223.638C1148.98 214.765 1136.41 204.857 1119.26 193.914C1105.95 185.337 1095.45 177.795 1087.47 171.436C1079.48 165.077 1072.97 157.535 1067.95 148.81C1062.92 140.085 1060.4 130.029 1060.4 118.494C1060.4 105.185 1063.8 94.0939 1070.46 84.9253C1077.11 75.7566 1086.13 68.9541 1097.37 64.5176C1108.61 60.0812 1121.03 57.8629 1134.49 57.8629C1146.03 57.4193 1155.2 58.6023 1162 60.8206Z" fill="black"/>
<path d="M1509.36 71.3208C1526.96 80.7853 1540.57 94.5383 1550.18 112.58C1559.94 130.622 1564.67 152.064 1564.67 176.909C1564.67 201.161 1559.64 222.752 1549.73 241.385C1539.83 260.166 1525.93 274.659 1508.18 285.01C1490.43 295.362 1470.17 300.538 1447.4 300.538C1424.04 300.538 1403.48 295.806 1386.03 286.341C1368.43 276.877 1354.83 263.124 1345.21 245.082C1335.45 227.041 1330.72 205.598 1330.72 180.754C1330.72 156.501 1335.75 134.91 1345.66 116.277C1355.57 97.4959 1369.47 83.0035 1387.21 72.6518C1404.96 62.3 1425.22 57.1241 1447.99 57.1241C1471.36 57.1241 1491.77 61.8564 1509.36 71.3208ZM1414.57 77.8276C1405.25 87.5878 1398.16 101.341 1393.28 119.087C1388.25 136.685 1385.88 156.945 1385.88 179.718C1385.88 202.64 1388.69 222.9 1394.31 240.35C1399.93 257.8 1407.62 271.257 1417.09 280.722C1426.7 290.186 1437.34 294.918 1449.03 294.918C1461.15 294.918 1471.8 290.038 1481.12 280.13C1490.43 270.37 1497.53 256.617 1502.41 238.871C1507.44 221.273 1509.81 201.013 1509.81 178.24C1509.81 155.318 1507 135.058 1501.38 117.608C1495.76 100.158 1488.07 86.7005 1478.6 77.2361C1468.99 67.7717 1458.34 63.0394 1446.66 63.0394C1434.54 63.0394 1423.74 68.0674 1414.57 77.8276Z" fill="black"/>
<path d="M1878.77 61.7032V68.3579C1873.3 70.2803 1867.83 74.5689 1862.5 80.9278C1857.18 87.2867 1852.45 96.3075 1848.31 107.694L1778.51 296.687C1776.14 296.539 1772.15 296.392 1766.97 296.392C1761.94 296.392 1758.1 296.539 1755.73 296.687L1671.29 89.505C1668.48 82.2587 1665.08 76.935 1661.38 73.6816C1657.69 70.4282 1653.99 68.6536 1650.44 68.3579V61.7032C1663.75 62.2947 1680.46 62.7384 1700.72 62.7384C1723.49 62.7384 1740.21 62.4426 1751 61.7032V68.3579C1742.57 68.8015 1736.66 69.8367 1733.11 71.3155C1729.56 72.7943 1727.78 75.8998 1727.78 80.632C1727.78 84.3291 1729.11 89.505 1731.78 96.1596L1790.04 244.337L1830.71 134.461C1836.92 117.455 1840.03 103.997 1840.03 94.0893C1840.03 85.2164 1837.66 78.8575 1832.93 74.8647C1828.19 70.8718 1821.24 68.6536 1812.22 68.21V61.5553C1827.16 62.1468 1841.06 62.5905 1853.63 62.5905C1863.83 62.7384 1872.12 62.4426 1878.77 61.7032Z" fill="black"/>
<path d="M2145.86 284.117C2149.55 287.371 2153.25 289.145 2156.8 289.441V296.096C2143.49 295.504 2126.78 295.06 2106.52 295.06C2084.04 295.06 2067.18 295.356 2056.24 296.096V289.441C2064.67 288.997 2070.59 287.962 2074.13 286.335C2077.68 284.709 2079.46 281.751 2079.46 277.61C2079.46 273.618 2078.13 268.294 2075.47 261.787L2055.65 207.514H1983.33L1974.76 230.288C1968.55 246.111 1965.44 258.386 1965.44 266.963C1965.44 275.096 1967.96 280.864 1972.84 283.969C1977.86 287.223 1985.11 288.997 1994.87 289.441V296.096C1979.93 295.504 1966.18 295.06 1953.91 295.06C1943.7 295.06 1935.42 295.356 1928.77 296.096V289.441C1939.56 287.518 1949.03 275.836 1957.16 254.689L2032.58 61.111C2034.95 61.4067 2038.94 61.4067 2044.11 61.4067C2049.44 61.4067 2053.14 61.2588 2055.35 61.111L2135.8 268.294C2138.76 275.54 2142.16 280.864 2145.86 284.117ZM2053.14 200.712L2020.31 111.391L1985.85 200.712H2053.14Z" fill="black"/>
<path d="M2196.8 352.98H716.8" stroke="black" stroke-width="4.7352" stroke-miterlimit="10"/>
</svg>
