<?xml version="1.0" encoding="utf-8"?>
<!-- Generator: Adobe Illustrator 24.1.1, SVG Export Plug-In . SVG Version: 6.00 Build 0)  -->
<svg version="1.1" id="Vrstva_1" xmlns="http://www.w3.org/2000/svg" xmlns:xlink="http://www.w3.org/1999/xlink" x="0px" y="0px"
	 viewBox="0 0 1739 440" style="enable-background:new 0 0 1739 440;" xml:space="preserve">
<style type="text/css">
	.st0{fill:#3C3C3C;}
	.st1{fill:none;stroke:#3C3C3C;stroke-width:4.7352;stroke-miterlimit:10;}
	.st2{fill:#FF00FF;}
	.st3{fill:#FFFFFF;}
	.st4{fill:#E13D58;}
</style>
<g>
	<path class="st0" d="M786.1,138.9v38.9c0,6,0.6,10.3,1.9,13.1c1.3,2.8,3.5,4.6,6.7,5.5c3.2,0.9,8.3,1.4,15.3,1.6v4.9
		c-18.4-0.4-32-0.7-41-0.7c-7.5,0-16.9,0.1-28.2,0.4l-7.2,0.2v-4.5c4.9-0.3,8.5-0.9,10.9-1.8c2.3-0.9,3.9-2.6,4.7-5.1
		c0.8-2.5,1.2-6.6,1.2-12.3v-111c0-5.7-0.4-9.8-1.2-12.3c-0.8-2.5-2.4-4.3-4.7-5.1c-2.3-0.9-5.9-1.5-10.9-1.8v-4.5
		c7.6,0.4,18.9,0.7,34,0.7l24.8-0.2c3-0.1,6.4-0.2,10.3-0.2c20.1,0,35.5,4,46.1,12c10.6,8,15.9,18.7,15.9,32.1
		c0,8.2-2.1,16.1-6.3,23.6c-4.2,7.5-11.2,13.8-21.1,18.9c-9.9,5.1-23.1,7.6-39.5,7.6H786.1z M791.1,50.5c-1.9,1-3.2,2.9-3.9,5.6
		c-0.7,2.7-1.1,6.7-1.1,12.1v66.2h9.6c12.1,0,20.4-3.9,25.1-11.6c4.6-7.8,6.9-18.3,6.9-31.6c0-14.5-2.1-25.1-6.4-32
		C817.1,52.4,809.9,49,800,49C795.9,49,793,49.5,791.1,50.5z"/>
	<path class="st0" d="M1007.6,43.8c4.6,1.5,9.3,3.7,14.1,6.5c1.6,0.9,3.1,1.6,4.4,2.2c1.3,0.6,2.4,0.9,3.2,0.9
		c1.3,0,2.4-0.8,3.1-2.3c0.7-1.6,1.3-4.1,1.8-7.5h5.1c-0.7,10-1.1,27-1.1,51h-5.1c-0.6-8.1-2.4-15.7-5.5-23
		c-3.1-7.3-7.4-13.2-13-17.8c-5.6-4.6-12.1-6.8-19.6-6.8c-7.3,0-13.2,2.1-17.8,6.2c-4.6,4.1-6.8,9.7-6.8,16.7
		c0,5.2,1.1,9.8,3.4,13.7c2.2,3.9,5.4,7.4,9.4,10.6c4,3.2,10.2,7.6,18.6,13.1l7.2,4.9c8.8,5.8,15.7,10.9,20.8,15.2
		c5.1,4.3,9.2,9.4,12.4,15.1c3.2,5.7,4.8,12.4,4.8,20c0,9.5-2.5,17.6-7.4,24.1c-4.9,6.5-11.6,11.4-20,14.7
		c-8.4,3.3-17.8,4.9-28.1,4.9c-8.4,0-15.3-0.7-20.8-2.2c-5.5-1.5-10.6-3.5-15.2-6c-3.3-2.1-5.8-3.1-7.6-3.1c-1.3,0-2.4,0.8-3.1,2.4
		c-0.7,1.6-1.3,4.1-1.8,7.5h-5.1c0.6-9.4,0.9-29.5,0.9-60.4h5.1c1,16.7,4.8,30.2,11.2,40.6s16.3,15.5,29.5,15.5
		c8.1,0,14.7-2.2,19.9-6.5c5.2-4.3,7.8-10.5,7.8-18.6c0-8.4-2.7-15.5-8.1-21.5c-5.4-6-13.9-12.7-25.5-20.1
		c-9-5.8-16.1-10.9-21.5-15.2c-5.4-4.3-9.8-9.4-13.2-15.3c-3.4-5.9-5.1-12.7-5.1-20.5c0-9,2.3-16.5,6.8-22.7
		c4.5-6.2,10.6-10.8,18.2-13.8c7.6-3,16-4.5,25.1-4.5C996.8,41.6,1003,42.3,1007.6,43.8z"/>
	<path class="st0" d="M1242.5,51c11.9,6.4,21.1,15.7,27.6,27.9c6.6,12.2,9.8,26.7,9.8,43.5c0,16.4-3.4,31-10.1,43.6
		c-6.7,12.7-16.1,22.5-28.1,29.5c-12,7-25.7,10.5-41.1,10.5c-15.8,0-29.7-3.2-41.5-9.6c-11.9-6.4-21.1-15.7-27.6-27.9
		c-6.6-12.2-9.8-26.7-9.8-43.5c0-16.4,3.4-31,10.1-43.6c6.7-12.7,16.1-22.5,28.1-29.5c12-7,25.7-10.5,41.1-10.5
		C1216.8,41.4,1230.6,44.6,1242.5,51z M1178.4,55.3c-6.3,6.6-11.1,15.9-14.4,27.9c-3.4,11.9-5,25.6-5,41c0,15.5,1.9,29.2,5.7,41
		c3.8,11.8,9,20.9,15.4,27.3c6.5,6.4,13.7,9.6,21.6,9.6c8.2,0,15.4-3.3,21.7-10c6.3-6.6,11.1-15.9,14.4-27.9c3.4-11.9,5-25.6,5-41
		c0-15.5-1.9-29.2-5.7-41c-3.8-11.8-9-20.9-15.4-27.3c-6.5-6.4-13.7-9.6-21.6-9.6C1191.9,45.4,1184.6,48.7,1178.4,55.3z"/>
	<path class="st0" d="M1492.3,44.5V49c-3.7,1.3-7.4,4.2-11,8.5c-3.6,4.3-6.8,10.4-9.6,18.1l-47.2,127.8c-1.6-0.1-4.3-0.2-7.8-0.2
		c-3.4,0-6,0.1-7.6,0.2L1352,63.3c-1.9-4.9-4.2-8.5-6.7-10.7c-2.5-2.2-5-3.4-7.4-3.6v-4.5c9,0.4,20.3,0.7,34,0.7
		c15.4,0,26.7-0.2,34-0.7V49c-5.7,0.3-9.7,1-12.1,2c-2.4,1-3.6,3.1-3.6,6.3c0,2.5,0.9,6,2.7,10.5l39.4,100.2l27.5-74.3
		c4.2-11.5,6.3-20.6,6.3-27.3c0-6-1.6-10.3-4.8-13c-3.2-2.7-7.9-4.2-14-4.5v-4.5c10.1,0.4,19.5,0.7,28,0.7
		C1482.2,45.2,1487.8,44.9,1492.3,44.5z"/>
	<path class="st0" d="M1672.9,194.9c2.5,2.2,5,3.4,7.4,3.6v4.5c-9-0.4-20.3-0.7-34-0.7c-15.2,0-26.6,0.2-34,0.7v-4.5
		c5.7-0.3,9.7-1,12.1-2.1c2.4-1.1,3.6-3.1,3.6-5.9c0-2.7-0.9-6.3-2.7-10.7l-13.4-36.7H1563l-5.8,15.4c-4.2,10.7-6.3,19-6.3,24.8
		c0,5.5,1.7,9.4,5,11.5c3.4,2.2,8.3,3.4,14.9,3.7v4.5c-10.1-0.4-19.4-0.7-27.7-0.7c-6.9,0-12.5,0.2-17,0.7v-4.5
		c7.3-1.3,13.7-9.2,19.2-23.5l51-130.9c1.6,0.2,4.3,0.2,7.8,0.2c3.6,0,6.1-0.1,7.6-0.2l54.4,140.1
		C1668.1,189,1670.4,192.6,1672.9,194.9z M1610.2,138.5l-22.2-60.4l-23.3,60.4H1610.2z"/>
</g>
<g>
	<g>
		<path class="st0" d="M709.8,319.5c-0.4,0-0.8-0.1-1.1-0.1c-0.3-0.1-0.5-0.3-0.5-0.6c0-0.5,0.6-0.9,1.7-1.1
			c1.5-0.3,2.6-0.7,3.3-1.3c0.7-0.6,1-1.6,1-3v-26c0-1.7-0.2-3-0.7-3.8c-0.5-0.8-1.4-1.4-2.9-1.7c-0.6-0.1-1.1-0.3-1.4-0.5
			c-0.3-0.2-0.4-0.4-0.4-0.7c0-0.2,0.1-0.4,0.5-0.6c0.3-0.1,0.7-0.2,1.1-0.2c1,0,1.9,0,2.6,0c0.7,0,1.3,0.1,2,0.1
			c0.6,0,1.4,0.1,2.2,0.1c0.8,0,1.7,0,2.5-0.1c0.8-0.1,1.6-0.2,2.4-0.2c0.8-0.1,1.6-0.1,2.4-0.1c4.7,0,8.5,1,11.3,3
			c2.8,2,4.2,4.7,4.2,8.1c0,2.5-0.5,4.7-1.5,6.8c-1,2.1-2.5,3.8-4.6,5c-2,1.3-4.7,1.9-7.8,1.9c-0.9,0-1.6-0.1-2.1-0.4
			c-0.5-0.3-0.8-0.6-0.8-0.8c0-0.2,0.1-0.5,0.4-0.6c0.2-0.2,0.5-0.3,0.7-0.3c0.3,0,0.6,0,1,0.1c0.4,0.1,0.9,0.1,1.7,0.1
			c2.2,0,3.8-1,4.9-3c1.1-2,1.7-4.6,1.7-8s-0.8-5.9-2.5-7.4c-1.7-1.6-3.8-2.4-6.5-2.4c-1.1,0-2,0.2-2.7,0.6c-0.7,0.4-1,1.1-1,2.1
			l-0.1,28.5c0,1.4,0.3,2.4,1,3.2c0.6,0.8,1.7,1.3,3.3,1.6c0.6,0.1,1,0.3,1.3,0.4c0.3,0.2,0.5,0.4,0.5,0.7c0,0.2-0.1,0.4-0.4,0.5
			c-0.3,0.1-0.7,0.2-1.1,0.2c-1,0-1.9,0-2.7-0.1c-0.8-0.1-1.5-0.1-2.2-0.2c-0.7-0.1-1.4-0.1-2.2-0.1c-1,0-1.9,0-2.7,0.1
			c-0.9,0.1-1.7,0.1-2.6,0.2C711.8,319.4,710.9,319.5,709.8,319.5z"/>
		<path class="st0" d="M760.1,320.1c-1.7,0-3.3-0.2-4.8-0.7c-1.5-0.5-2.9-1.2-4.1-2.1c-0.2-0.2-0.3-0.4-0.5-0.6
			c-0.2-0.2-0.3-0.5-0.4-0.7c-0.3-0.9-0.5-2.1-0.6-3.5s-0.2-2.6-0.2-3.7c0-0.3,0.1-0.5,0.4-0.6c0.2-0.1,0.5-0.2,0.8-0.2
			c0.3,0,0.5,0,0.7,0.1c0.2,0.1,0.3,0.3,0.4,0.6c0.8,3.1,2.1,5.3,3.7,6.8c1.6,1.5,3.4,2.3,5.4,2.3c1.4,0,2.5-0.3,3.5-0.9
			c1-0.6,1.8-1.4,2.3-2.4c0.6-1,0.8-2.2,0.8-3.5c0-1.5-0.3-2.8-0.8-3.7c-0.5-1-1.3-1.8-2.3-2.6c-1-0.8-2.3-1.6-3.7-2.5
			c-1.6-1-3.2-2-4.7-3c-1.6-1-2.8-2.3-3.8-3.7c-1-1.4-1.5-3.1-1.5-5.2c0-2.2,0.5-4.1,1.5-5.8c1-1.7,2.5-3,4.5-4c2-1,4.3-1.5,7.1-1.5
			c1.4,0,2.8,0.2,3.9,0.5c1.2,0.3,2.1,0.6,2.9,0.9c0.4,0.1,0.7,0.3,0.9,0.6c0.2,0.3,0.4,0.6,0.5,1c0.2,0.8,0.4,1.8,0.7,3
			c0.2,1.1,0.4,2.3,0.4,3.4c0,0.4-0.3,0.7-1,0.7c-0.4,0-0.7-0.1-1-0.2c-0.3-0.2-0.5-0.4-0.6-0.6c-0.8-2.3-1.8-4-3-5.1
			c-1.2-1.2-2.7-1.7-4.5-1.7c-1.2,0-2.3,0.2-3.3,0.6c-1,0.4-1.8,1.1-2.4,2.1c-0.6,0.9-0.9,2.2-0.9,3.7c0,1.1,0.4,2.1,1.1,3
			c0.7,0.9,1.7,1.8,3,2.7c1.3,0.9,2.7,1.8,4.3,2.7c1.6,1,3.1,2,4.5,3.1c1.3,1.1,2.4,2.3,3.1,3.7c0.8,1.4,1.1,3,1.1,5
			c0,2.5-0.6,4.7-1.7,6.5s-2.7,3.1-4.7,4.1C765.2,319.6,762.8,320.1,760.1,320.1z"/>
		<path class="st0" d="M793.3,319.5c-0.5,0-0.9-0.1-1.3-0.2c-0.3-0.1-0.5-0.3-0.5-0.5c0-0.3,0.2-0.6,0.5-0.8
			c0.3-0.2,0.8-0.3,1.4-0.5c1.5-0.3,2.7-0.8,3.4-1.6c0.7-0.8,1.1-1.9,1.1-3.3V304c0-1-0.2-2-0.6-2.9c-0.4-0.9-0.7-1.7-1-2.1
			l-7.3-11.7c-0.3-0.5-0.8-1.2-1.3-1.9c-0.5-0.8-1.1-1.5-1.8-2.1c-0.6-0.6-1.3-1.1-2.1-1.3c-0.6-0.2-1-0.4-1.3-0.6
			c-0.3-0.2-0.5-0.4-0.5-0.8c0-0.3,0.1-0.5,0.5-0.6c0.3-0.1,0.7-0.1,1.1-0.1c1.2,0,2.5,0,3.8,0.1c1.3,0.1,2.7,0.1,4.2,0.1
			c1.1,0,2.1,0,3-0.1c0.9-0.1,1.9-0.1,2.7-0.1c0.5,0,0.9,0.1,1.2,0.2c0.3,0.1,0.5,0.3,0.5,0.5c0,0.3-0.2,0.6-0.5,0.8
			c-0.3,0.2-0.8,0.3-1.4,0.5c-0.8,0.2-1.3,0.4-1.7,0.6c-0.4,0.2-0.6,0.6-0.6,1.1c0,0.6,0.2,1.3,0.7,2.2l5.8,10.4
			c0.6,1.2,1.1,1.8,1.5,1.8c0.2,0,0.4-0.1,0.7-0.4c0.2-0.3,0.6-0.7,1-1.4c1-1.5,1.8-3,2.6-4.4s1.6-3,2.6-4.8
			c0.3-0.6,0.6-1.1,0.7-1.6c0.2-0.5,0.2-0.9,0.2-1.2c0-0.8-0.3-1.4-0.9-1.7c-0.6-0.3-1.2-0.5-1.9-0.5c-0.4-0.1-0.8-0.2-1.3-0.5
			c-0.4-0.2-0.7-0.5-0.7-0.8c0-0.2,0.2-0.4,0.5-0.5c0.3-0.1,0.8-0.2,1.2-0.2c1,0,1.9,0,2.6,0.1c0.7,0,1.5,0.1,2.5,0.1
			c1.2,0,2.3,0,3.4-0.1c1.1-0.1,2-0.1,2.8-0.1c0.5,0,1,0.1,1.3,0.1c0.3,0.1,0.5,0.3,0.5,0.6c0,0.3-0.3,0.5-0.8,0.8
			c-0.6,0.2-1.2,0.4-1.9,0.6c-1.1,0.3-2.1,0.8-2.8,1.7c-0.7,0.8-1.6,1.9-2.5,3.3c-0.7,1.2-1.4,2.2-2,3.1c-0.6,0.9-1.1,1.8-1.6,2.6
			c-0.5,0.8-1,1.6-1.5,2.5c-0.5,0.8-1.1,1.8-1.8,3c-0.4,0.7-0.8,1.4-1,1.9c-0.2,0.5-0.4,1.1-0.4,1.6c-0.1,0.5-0.1,1.2-0.1,2v9
			c0,1.4,0.4,2.5,1.1,3.3s1.9,1.3,3.4,1.7c0.6,0.1,1.1,0.3,1.4,0.4c0.3,0.2,0.5,0.4,0.5,0.7c0,0.3-0.2,0.5-0.5,0.6
			c-0.3,0.1-0.7,0.2-1.3,0.2c-1,0-1.9,0-2.7-0.1c-0.8-0.1-1.6-0.1-2.4-0.2c-0.8-0.1-1.6-0.1-2.5-0.1c-0.9,0-1.8,0-2.7,0.1
			c-0.8,0.1-1.7,0.1-2.6,0.2C795.3,319.5,794.3,319.5,793.3,319.5z"/>
		<path class="st0" d="M847.7,320.1c-2.9,0-5.7-0.5-8.3-1.4c-2.7-1-5-2.3-7.1-4.1c-2-1.8-3.7-3.9-4.9-6.4c-1.2-2.5-1.8-5.3-1.8-8.3
			c0-2.9,0.6-5.5,1.8-8.1c1.2-2.5,2.9-4.7,5-6.6c2.1-1.9,4.7-3.3,7.5-4.4c2.9-1.1,5.9-1.6,9.3-1.6c1.5,0,2.8,0.1,4,0.2
			c1.2,0.1,2.3,0.3,3.4,0.6c1.1,0.2,2.3,0.6,3.5,1c0.5,0.2,0.9,0.4,1.2,0.7c0.3,0.3,0.4,0.7,0.5,1.3c0.1,1,0.2,2.1,0.3,3.3
			c0.1,1.1,0.2,2.4,0.2,3.7c0,0.4-0.1,0.6-0.5,0.8c-0.3,0.2-0.6,0.2-1,0.1c-0.4-0.1-0.6-0.4-0.7-0.8c-0.4-1.3-0.8-2.5-1.3-3.6
			c-0.5-1-1.2-1.9-2.1-2.6c-0.9-0.7-2.1-1.3-3.5-1.7c-1.4-0.4-3-0.6-4.8-0.6c-2.3,0-4.3,0.5-6.2,1.4c-1.9,0.9-3.5,2.2-4.8,3.8
			c-1.3,1.6-2.4,3.4-3.1,5.4c-0.7,2-1.1,4.1-1.1,6.3c0,2.5,0.4,5,1.1,7.3c0.7,2.3,1.7,4.4,3.1,6.2c1.3,1.8,3,3.2,4.9,4.3
			c1.9,1.1,4.1,1.6,6.5,1.6c2.9,0,5.3-0.7,7.2-2c1.9-1.3,3.5-3.2,4.8-5.6c0.3-0.6,0.7-0.8,1.3-0.8c0.6,0,0.8,0.3,0.8,1
			c0,0.4-0.1,1-0.2,1.7c-0.1,0.7-0.3,1.5-0.6,2.3c-0.2,0.8-0.5,1.6-0.7,2.3c-0.2,0.5-0.5,0.9-0.7,1.1c-0.2,0.2-0.6,0.4-1.1,0.6
			c-1.5,0.6-3.3,1.1-5.4,1.4C852,320,849.8,320.1,847.7,320.1z"/>
		<path class="st0" d="M875.4,319.5c-0.4,0-0.8-0.1-1.1-0.2s-0.4-0.3-0.4-0.6c0-0.5,0.6-0.8,1.7-1.1c1.5-0.3,2.5-0.7,3-1.3
			c0.5-0.6,0.7-1.6,0.7-3V286c0-1.4-0.2-2.3-0.5-2.9c-0.4-0.6-1.3-1-2.8-1.3c-1.2-0.2-1.7-0.6-1.7-1.1c0-0.2,0.1-0.4,0.4-0.6
			c0.3-0.2,0.6-0.2,1.1-0.2c1,0,1.9,0,2.7,0.1c0.7,0,1.4,0.1,2.1,0.1s1.4,0.1,2.2,0.1c0.8,0,1.6,0,2.3,0c0.7,0,1.4,0,2.2-0.1
			c0.8,0,1.7-0.1,2.7-0.1c1,0,1.6,0.3,1.6,0.8c0,0.3-0.1,0.6-0.5,0.7c-0.3,0.2-0.7,0.3-1.3,0.4c-1.5,0.4-2.6,0.9-3.2,1.5
			c-0.6,0.6-0.9,1.6-0.9,2.7v11.5c0,0.3,0.1,0.5,0.3,0.5c0.2,0.1,0.4,0.1,0.6,0.1h20.1c0.4,0,0.5-0.3,0.5-0.8V286
			c0-1.1-0.3-2-0.8-2.7c-0.5-0.7-1.6-1.2-3.2-1.5c-0.6-0.1-1-0.3-1.3-0.4c-0.3-0.2-0.4-0.4-0.4-0.7c0-0.5,0.5-0.8,1.5-0.8
			s1.9,0,2.8,0.1c0.8,0,1.7,0.1,2.4,0.1c0.8,0,1.6,0,2.4,0c0.8,0,1.4,0,2-0.1s1.2-0.1,1.9-0.1s1.5-0.1,2.6-0.1
			c0.5,0,0.9,0.1,1.1,0.2c0.3,0.2,0.4,0.4,0.4,0.6c0,0.5-0.6,0.9-1.7,1.1c-1.5,0.3-2.4,0.8-2.8,1.4c-0.4,0.6-0.5,1.5-0.5,2.7v27.3
			c0,1.4,0.2,2.4,0.6,3c0.4,0.6,1.4,1,2.8,1.3c1.1,0.2,1.7,0.6,1.7,1.1c0,0.2-0.1,0.4-0.4,0.6c-0.3,0.1-0.7,0.2-1.1,0.2
			c-1,0-1.8,0-2.6-0.1c-0.7-0.1-1.5-0.1-2.1-0.1c-0.7,0-1.4-0.1-2.2-0.1c-0.8,0-1.6,0-2.3,0.1c-0.7,0-1.5,0.1-2.3,0.1
			c-0.8,0.1-1.7,0.1-2.7,0.1c-0.5,0-0.9-0.1-1.1-0.2c-0.3-0.1-0.4-0.3-0.4-0.6c0-0.3,0.1-0.6,0.4-0.7c0.3-0.1,0.7-0.3,1.3-0.4
			c1.4-0.3,2.4-0.7,3.1-1.4c0.7-0.6,1-1.6,1-2.8v-11.6c0-0.2,0-0.4-0.1-0.6c0-0.2-0.2-0.3-0.4-0.3h-20.6c-0.3,0-0.5,0.2-0.5,0.7
			v11.4c0,1.2,0.4,2.2,1.2,3c0.8,0.8,1.9,1.3,3.3,1.6c0.6,0.1,1,0.3,1.3,0.4c0.3,0.1,0.4,0.4,0.4,0.7c0,0.2-0.1,0.4-0.4,0.6
			c-0.3,0.1-0.7,0.2-1.1,0.2c-1,0-1.9,0-2.8-0.1c-0.8-0.1-1.7-0.1-2.4-0.1c-0.8,0-1.6-0.1-2.5-0.1c-0.8,0-1.6,0-2.3,0.1
			c-0.7,0-1.5,0.1-2.3,0.1C877.3,319.4,876.4,319.5,875.4,319.5z"/>
		<path class="st0" d="M949.4,320.1c-2.7,0-5.3-0.5-7.7-1.4c-2.4-0.9-4.6-2.3-6.5-4c-1.9-1.7-3.4-3.8-4.5-6.3
			c-1.1-2.4-1.7-5.1-1.7-8.1c0-2.7,0.4-5.4,1.4-7.9c0.9-2.5,2.2-4.8,4-6.7c1.7-2,3.9-3.5,6.5-4.7c2.6-1.2,5.6-1.7,9-1.7
			c2.7,0,5.3,0.5,7.7,1.4c2.4,0.9,4.6,2.3,6.5,4c1.9,1.7,3.4,3.8,4.5,6.3c1.1,2.4,1.7,5.1,1.7,8.1c0,2.7-0.5,5.3-1.4,7.8
			c-0.9,2.5-2.2,4.8-4,6.8c-1.7,2-3.9,3.5-6.5,4.7C955.8,319.5,952.8,320.1,949.4,320.1z M950.3,317.5c2.8,0,5.2-0.7,7-2
			c1.9-1.3,3.3-3.1,4.2-5.5c0.9-2.3,1.4-5,1.4-8.1c0-2.7-0.3-5.2-0.9-7.7c-0.6-2.4-1.5-4.6-2.6-6.5c-1.2-1.9-2.6-3.4-4.4-4.5
			c-1.8-1.1-3.8-1.6-6.2-1.6c-2.7,0-5,0.6-6.9,1.9c-1.9,1.3-3.3,3.1-4.2,5.4c-0.9,2.3-1.4,5-1.4,8c0,2.7,0.3,5.3,0.8,7.7
			c0.6,2.4,1.4,4.6,2.6,6.5c1.2,1.9,2.6,3.4,4.4,4.5C945.9,317,948,317.5,950.3,317.5z"/>
		<path class="st0" d="M981.7,319.5c-0.4,0-0.8-0.1-1.1-0.2c-0.3-0.2-0.4-0.3-0.4-0.5c0-0.3,0.2-0.6,0.5-0.8
			c0.3-0.2,0.6-0.3,0.8-0.3c1.5-0.4,2.7-0.8,3.4-1.4c0.7-0.6,1.1-1.5,1.1-2.8v-27.8c0-1-0.1-1.7-0.3-2.1c-0.2-0.5-0.6-0.8-1.1-1.1
			c-0.5-0.2-1.3-0.5-2.3-0.7c-1.2-0.2-1.7-0.6-1.7-1.2c0-0.3,0.2-0.5,0.5-0.6c0.3-0.1,0.7-0.2,1.1-0.2c1,0,1.9,0,2.7,0.1
			c0.8,0,1.6,0.1,2.3,0.1c0.7,0,1.5,0.1,2.4,0.1c0.9,0,1.8,0,2.7,0c0.8,0,1.7,0,2.6-0.1c0.9,0,1.8-0.1,2.8-0.1c0.5,0,0.9,0,1.1,0.1
			c0.3,0.1,0.4,0.3,0.4,0.6c0,0.3-0.1,0.6-0.4,0.8c-0.3,0.2-0.7,0.3-1.3,0.4c-1.5,0.4-2.7,0.8-3.6,1.2c-0.9,0.4-1.3,1.2-1.3,2.4
			v27.9c0,1.2,0.3,2.1,0.8,2.7c0.5,0.5,1.7,0.8,3.3,0.8h7c1,0,2-0.2,2.7-0.5c0.8-0.3,1.4-0.7,1.8-1.1c0.8-0.7,1.4-1.3,1.8-2
			c0.4-0.6,0.9-1.5,1.4-2.5c0.2-0.4,0.4-0.9,0.7-1.3s0.5-0.6,0.8-0.6c0.3,0,0.5,0.1,0.6,0.4c0.1,0.3,0.2,0.5,0.2,0.8
			c0,0.1,0,0.2-0.1,0.3s-0.1,0.2-0.1,0.4c-0.3,1.1-0.5,2-0.8,2.9c-0.2,0.8-0.4,1.6-0.6,2.4s-0.3,1.6-0.3,2.5c0,0.3-0.1,0.5-0.2,0.8
			c-0.1,0.2-0.3,0.3-0.7,0.3c-1.6,0-3.2,0-5-0.1c-1.8,0-3.6-0.1-5.4-0.1c-1.8,0-3.6,0-5.3-0.1c-1.7,0-3.4-0.1-5-0.1
			c-1,0-2,0-3.2,0.1c-1.2,0-2.3,0.1-3.3,0.2C982.5,319.5,981.9,319.5,981.7,319.5z"/>
		<path class="st0" d="M1042.6,320.1c-2.7,0-5.3-0.5-7.7-1.4c-2.4-0.9-4.6-2.3-6.5-4c-1.9-1.7-3.4-3.8-4.5-6.3
			c-1.1-2.4-1.7-5.1-1.7-8.1c0-2.7,0.4-5.4,1.4-7.9c0.9-2.5,2.2-4.8,4-6.7c1.7-2,3.9-3.5,6.5-4.7c2.6-1.2,5.6-1.7,9-1.7
			c2.7,0,5.3,0.5,7.7,1.4c2.4,0.9,4.6,2.3,6.5,4c1.9,1.7,3.4,3.8,4.5,6.3c1.1,2.4,1.7,5.1,1.7,8.1c0,2.7-0.5,5.3-1.4,7.8
			c-0.9,2.5-2.2,4.8-4,6.8c-1.7,2-3.9,3.5-6.5,4.7C1049.1,319.5,1046,320.1,1042.6,320.1z M1043.6,317.5c2.8,0,5.2-0.7,7-2
			c1.9-1.3,3.3-3.1,4.2-5.5c0.9-2.3,1.4-5,1.4-8.1c0-2.7-0.3-5.2-0.9-7.7c-0.6-2.4-1.5-4.6-2.6-6.5c-1.2-1.9-2.6-3.4-4.4-4.5
			c-1.8-1.1-3.8-1.6-6.2-1.6c-2.7,0-5,0.6-6.9,1.9c-1.9,1.3-3.3,3.1-4.2,5.4c-0.9,2.3-1.4,5-1.4,8c0,2.7,0.3,5.3,0.8,7.7
			c0.6,2.4,1.4,4.6,2.6,6.5c1.2,1.9,2.6,3.4,4.4,4.5C1039.2,317,1041.2,317.5,1043.6,317.5z"/>
		<path class="st0" d="M1095.7,320.1c-2.8,0-5.5-0.5-8-1.4c-2.5-1-4.7-2.3-6.7-4.1c-2-1.8-3.5-3.9-4.6-6.3c-1.1-2.4-1.7-5-1.7-7.8
			c0-2.9,0.6-5.6,1.7-8.2c1.1-2.6,2.7-4.8,4.8-6.8c2.1-1.9,4.4-3.4,7.1-4.6c2.7-1.1,5.7-1.7,8.8-1.7c0.7,0,1.7,0.1,2.8,0.2
			s2.3,0.3,3.6,0.5c1.2,0.2,2.4,0.4,3.4,0.7c1,0.2,1.8,0.5,2.3,0.7c0.2,0.1,0.4,0.2,0.5,0.3c0.1,0.1,0.2,0.4,0.2,0.6
			c0.2,1.2,0.3,2.5,0.4,3.6c0.1,1.2,0.2,2.2,0.2,3c0,0.3-0.1,0.6-0.3,0.8s-0.4,0.4-0.6,0.4c-0.4,0-0.8-0.2-1-0.5
			c-0.2-0.3-0.4-0.7-0.5-1c-0.3-0.7-0.6-1.3-0.9-1.9c-0.3-0.6-0.8-1.2-1.3-1.8c-0.3-0.4-0.9-0.8-1.6-1.3c-0.7-0.5-1.7-0.9-2.9-1.2
			c-1.2-0.4-2.6-0.5-4.4-0.5c-2.3,0-4.4,0.5-6.2,1.4c-1.8,0.9-3.4,2.2-4.7,3.9c-1.3,1.6-2.3,3.5-3,5.6c-0.7,2.1-1,4.3-1,6.6
			c0,2.8,0.4,5.3,1.1,7.6c0.7,2.3,1.8,4.2,3.1,5.7c1.3,1.6,2.8,2.8,4.6,3.6c1.8,0.8,3.6,1.2,5.6,1.2c1.9,0,3.3-0.2,4.3-0.7
			c0.9-0.5,1.6-0.9,2-1.2c0.4-0.4,0.8-1,1.2-1.8c0.3-0.8,0.5-1.7,0.5-2.6c0-0.4,0-0.8,0-1.3c0-0.5,0-1,0.1-1.5c0-0.5,0-0.9,0-1.3
			c0-0.4,0-0.8-0.1-1.1c-0.1-0.3-0.3-0.6-0.5-0.8c-0.4-0.4-0.9-0.7-1.6-0.9c-0.7-0.2-1.4-0.4-2-0.5c-0.7-0.1-1.2-0.2-1.6-0.2
			c-0.2,0-0.5-0.1-0.8-0.3c-0.3-0.2-0.5-0.5-0.5-0.8c0-0.3,0.2-0.5,0.5-0.7c0.3-0.2,0.6-0.3,0.8-0.3c1,0,1.9,0,2.7,0.1
			c0.9,0,1.7,0.1,2.6,0.1c0.9,0,1.8,0.1,2.8,0.1c1,0,2,0,3-0.1c0.9-0.1,2-0.1,3.1-0.1c0.2,0,0.4,0.1,0.7,0.2s0.4,0.4,0.4,0.8
			c0,0.3-0.2,0.6-0.5,0.8c-0.3,0.2-0.6,0.3-0.8,0.4c-1,0.3-1.6,0.6-2,1.1c-0.4,0.4-0.6,1.1-0.8,1.9c-0.1,0.9-0.2,1.7-0.2,2.4
			c0,0.7-0.1,1.4-0.1,2.2v1.7c0,0.2,0.1,0.4,0.2,0.5c0.1,0.1,0.2,0.3,0.3,0.5c0.1,0.2,0.3,0.4,0.5,0.6c0.2,0.2,0.3,0.4,0.3,0.6
			c0,0.2-0.1,0.4-0.1,0.6c-0.1,0.3-0.4,0.4-0.8,0.5c-0.3,0-0.8,0.3-1.7,0.7c-0.8,0.4-1.8,0.9-3.1,1.4c-1.2,0.5-2.7,0.9-4.3,1.3
			S1097.7,320.1,1095.7,320.1z"/>
		<path class="st0" d="M1124.8,319.5c-0.4,0-0.8-0.1-1.1-0.1c-0.3-0.1-0.4-0.3-0.4-0.6c0-0.5,0.6-0.9,1.7-1.1
			c1.5-0.3,2.7-0.7,3.4-1.3c0.7-0.6,1.1-1.6,1.1-3v-27.3c0-1.4-0.3-2.3-0.8-2.9c-0.6-0.6-1.6-1-3.1-1.4c-1.2-0.2-1.7-0.6-1.7-1.2
			c0-0.3,0.1-0.5,0.4-0.6s0.6-0.2,1.1-0.2c1,0,2,0,2.8,0.1c0.8,0,1.6,0.1,2.4,0.1s1.6,0.1,2.5,0.1c0.8,0,1.6,0,2.4,0
			c0.7,0,1.5,0,2.3-0.1c0.8,0,1.7-0.1,2.7-0.1c0.5,0,0.9,0,1.1,0.1c0.3,0.1,0.4,0.3,0.4,0.6c0,0.3-0.1,0.6-0.5,0.8
			c-0.3,0.2-0.7,0.3-1.3,0.4c-1.6,0.4-2.7,0.8-3.3,1.4c-0.6,0.6-0.9,1.5-0.9,2.9v27.3c0,1.3,0.4,2.3,1.1,2.9s1.9,1.1,3.4,1.4
			c0.6,0.1,1,0.3,1.3,0.4c0.3,0.2,0.4,0.4,0.4,0.7c0,0.2-0.1,0.4-0.4,0.5c-0.3,0.1-0.6,0.2-1.1,0.2c-1,0-1.9,0-2.8-0.1
			c-0.8-0.1-1.7-0.1-2.4-0.1c-0.8,0-1.6-0.1-2.5-0.1c-1,0-1.9,0-2.7,0.1c-0.8,0-1.7,0.1-2.6,0.1
			C1126.7,319.4,1125.8,319.5,1124.8,319.5z"/>
		<path class="st0" d="M1173.6,320.1c-2.9,0-5.7-0.5-8.3-1.4c-2.7-1-5-2.3-7.1-4.1c-2-1.8-3.7-3.9-4.9-6.4c-1.2-2.5-1.8-5.3-1.8-8.3
			c0-2.9,0.6-5.5,1.8-8.1c1.2-2.5,2.9-4.7,5-6.6c2.1-1.9,4.7-3.3,7.5-4.4c2.9-1.1,5.9-1.6,9.3-1.6c1.5,0,2.8,0.1,4,0.2
			c1.2,0.1,2.3,0.3,3.4,0.6c1.1,0.2,2.3,0.6,3.5,1c0.5,0.2,0.9,0.4,1.2,0.7c0.3,0.3,0.4,0.7,0.5,1.3c0.1,1,0.2,2.1,0.3,3.3
			c0.1,1.1,0.2,2.4,0.2,3.7c0,0.4-0.1,0.6-0.5,0.8c-0.3,0.2-0.6,0.2-1,0.1c-0.4-0.1-0.6-0.4-0.7-0.8c-0.4-1.3-0.8-2.5-1.3-3.6
			c-0.5-1-1.2-1.9-2.1-2.6c-0.9-0.7-2.1-1.3-3.5-1.7c-1.4-0.4-3-0.6-4.8-0.6c-2.3,0-4.3,0.5-6.2,1.4c-1.9,0.9-3.5,2.2-4.8,3.8
			c-1.3,1.6-2.4,3.4-3.1,5.4c-0.7,2-1.1,4.1-1.1,6.3c0,2.5,0.4,5,1.1,7.3c0.7,2.3,1.7,4.4,3.1,6.2c1.3,1.8,3,3.2,4.9,4.3
			c1.9,1.1,4.1,1.6,6.5,1.6c2.9,0,5.3-0.7,7.2-2c1.9-1.3,3.5-3.2,4.8-5.6c0.3-0.6,0.7-0.8,1.3-0.8c0.6,0,0.8,0.3,0.8,1
			c0,0.4-0.1,1-0.2,1.7c-0.1,0.7-0.3,1.5-0.6,2.3c-0.2,0.8-0.5,1.6-0.7,2.3c-0.2,0.5-0.5,0.9-0.7,1.1c-0.2,0.2-0.6,0.4-1.1,0.6
			c-1.5,0.6-3.3,1.1-5.4,1.4C1177.9,320,1175.8,320.1,1173.6,320.1z"/>
		<path class="st0" d="M1201.3,319.5c-0.5,0-0.9-0.1-1.2-0.2c-0.3-0.1-0.5-0.3-0.5-0.6c0-0.5,0.6-0.9,1.9-1.1
			c1.5-0.3,2.6-0.7,3.1-1.4c0.5-0.6,0.8-1.6,0.8-3V286c0-1.4-0.3-2.3-0.8-2.9c-0.6-0.6-1.6-1-3.2-1.3c-1.2-0.2-1.7-0.6-1.7-1.2
			c0-0.3,0.1-0.5,0.4-0.6c0.3-0.1,0.7-0.2,1.1-0.2c1,0,2,0,2.7,0.1c0.8,0,1.5,0.1,2.3,0.1c0.7,0,1.5,0,2.4,0c0.8,0,1.5,0,2.1,0
			c0.7,0,1.4,0,2.1-0.1c0.7,0,1.6,0,2.6,0c0.5,0,0.9,0,1.1,0.1c0.3,0.1,0.4,0.3,0.4,0.6c0,0.3-0.1,0.6-0.4,0.8
			c-0.3,0.2-0.7,0.3-1.3,0.4c-1.5,0.4-2.5,0.9-2.9,1.5s-0.6,1.6-0.6,2.7v11.6c0,0.2,0,0.4,0.1,0.7c0.1,0.3,0.2,0.4,0.3,0.4
			c0.2,0,0.5-0.1,0.8-0.3c0.3-0.2,0.6-0.5,0.8-0.7l11.9-12.4c0.3-0.4,0.6-0.7,0.8-1c0.2-0.3,0.3-0.6,0.3-0.9c0-0.8-0.5-1.3-1.6-1.5
			c-0.6-0.2-1-0.3-1.3-0.5c-0.3-0.2-0.4-0.4-0.4-0.8c0-0.2,0.1-0.4,0.5-0.5c0.3-0.1,0.7-0.2,1.1-0.2h3.6c1.2,0,2.6,0,3.9-0.1
			c1.4,0,2.7-0.1,3.9-0.1c1.2,0,2.1-0.1,2.8-0.1c0.4,0,0.7,0.1,1,0.2c0.3,0.1,0.4,0.3,0.4,0.5c0,0.3-0.2,0.6-0.5,0.8
			c-0.3,0.2-0.8,0.4-1.4,0.5c-1.6,0.3-3.3,0.7-4.8,1.4c-1.6,0.6-3,1.5-4.3,2.5c-1.4,1.1-2.7,2.3-3.9,3.4c-1.2,1.1-2.4,2.3-3.6,3.5
			c-1.2,1.2-2.4,2.5-3.8,4c-0.4,0.3-0.3,0.8,0.2,1.3l14.5,15.7c0.8,0.8,1.4,1.5,2,2c0.5,0.5,1.2,0.9,1.8,1.3
			c0.7,0.3,1.6,0.6,2.7,0.9c0.6,0.2,1.1,0.3,1.4,0.5c0.4,0.1,0.5,0.4,0.5,0.7c0,0.2-0.2,0.4-0.5,0.6c-0.4,0.1-0.8,0.2-1.4,0.2
			c-1.2,0-2.2,0-3.2-0.1c-1-0.1-1.9-0.1-2.8-0.2c-0.9-0.1-2-0.1-3.2-0.1c-1,0-1.8,0-2.6,0.1c-0.8,0.1-1.8,0.1-3.2,0.1
			c-0.4,0-0.8-0.1-1.1-0.2c-0.3-0.1-0.5-0.3-0.5-0.6c0-0.5,0.5-0.8,1.5-1.1c1.3-0.3,1.9-0.7,1.9-1.4c0-0.2-0.1-0.5-0.3-0.8
			c-0.2-0.3-0.4-0.6-0.6-0.9l-11.8-13.2c-0.2-0.2-0.5-0.5-0.8-0.7c-0.3-0.2-0.5-0.3-0.6-0.3c-0.2,0-0.3,0.1-0.3,0.4
			c0,0.3-0.1,0.5-0.1,0.8c0,1.9,0,3.7,0.1,5.4c0,1.7,0.1,3.7,0.2,5.9c0,0.8,0.2,1.6,0.4,2.2c0.2,0.6,0.6,1.2,1.1,1.6
			c0.5,0.4,1.3,0.8,2.3,1c0.6,0.1,1.1,0.3,1.4,0.4c0.3,0.2,0.5,0.4,0.5,0.7c0,0.2-0.2,0.4-0.5,0.6c-0.3,0.1-0.8,0.2-1.2,0.2
			c-1.1,0-2,0-2.7-0.1c-0.7-0.1-1.3-0.2-1.9-0.2c-0.6-0.1-1.3-0.1-2-0.1c-0.9,0-1.8,0-2.5,0.1c-0.7,0.1-1.5,0.2-2.4,0.2
			C1203.5,319.5,1202.5,319.5,1201.3,319.5z"/>
		<path class="st0" d="M1248.3,319.5c-0.5,0-0.9-0.1-1.2-0.2c-0.3-0.1-0.5-0.4-0.5-0.6c0-0.3,0.2-0.6,0.5-0.8
			c0.3-0.2,0.8-0.4,1.3-0.6c1.1-0.3,2.1-0.8,3-1.4c0.9-0.6,1.6-1.6,2.2-3c1.1-2.4,2.1-4.8,3-7c0.9-2.2,1.8-4.4,2.7-6.6
			c0.8-2.2,1.7-4.4,2.6-6.7c0.9-2.3,1.8-4.8,2.7-7.4c0.4-0.9,0.6-1.7,0.8-2.3c0.2-0.6,0.3-1.2,0.3-1.7c0.5-0.1,1-0.3,1.4-0.4
			c0.4-0.1,0.9-0.4,1.4-0.6c0.5-0.2,0.9-0.6,1.1-1.1c0.3-0.5,0.5-0.8,0.6-1c0.1,0,0.2-0.1,0.3-0.1c0.1,0,0.2,0.1,0.3,0.2
			c0.1,0.2,0.2,0.4,0.3,0.7c0.1,0.2,0.1,0.5,0.2,0.8c0.9,2.9,1.9,5.9,2.9,9s2,6,2.9,8.9c1,2.9,1.9,5.6,2.7,8
			c0.8,2.5,1.6,4.6,2.2,6.5c0.4,1.3,1,2.3,1.6,3c0.6,0.7,1.2,1.2,1.9,1.6c0.7,0.3,1.4,0.6,2.2,0.8c0.6,0.1,1.1,0.3,1.4,0.5
			c0.3,0.2,0.5,0.5,0.5,0.8c0,0.2-0.1,0.4-0.5,0.5c-0.3,0.1-0.7,0.1-1.1,0.1c-0.6,0-1.5,0-2.5-0.1c-1-0.1-2.1-0.1-3.3-0.1
			c-1.1,0-2.1-0.1-3.1-0.1c-0.8,0-1.6,0-2.5,0c-0.9,0-1.8,0-2.6,0.1c-0.8,0-1.5,0.1-2.1,0.1c-0.5,0-0.9-0.1-1.2-0.2
			c-0.3-0.1-0.5-0.3-0.5-0.6c0-0.3,0.2-0.6,0.5-0.8c0.4-0.2,0.8-0.3,1.3-0.4c1.4-0.2,2.4-0.6,3-1.1c0.6-0.5,0.9-1.1,0.8-1.9
			c0-0.7-0.2-1.5-0.4-2.6c-0.2-1-0.5-2.1-0.8-3.3c-0.3-1.1-0.6-2.2-0.9-3.2c-0.1-0.3-0.2-0.5-0.4-0.6c-0.2-0.1-0.5-0.1-1-0.1h-11.2
			c-0.2,0-0.4,0.1-0.5,0.2s-0.3,0.4-0.5,0.8c-0.1,0.5-0.3,1.1-0.6,1.8s-0.5,1.5-0.8,2.4c-0.2,0.8-0.5,1.6-0.6,2.3
			c-0.2,0.7-0.3,1.2-0.3,1.5c-0.1,1,0.1,1.8,0.8,2.4c0.6,0.6,1.6,1,2.8,1.4c1.2,0.3,1.8,0.7,1.8,1.2c0,0.3-0.1,0.5-0.5,0.6
			c-0.3,0.1-0.7,0.1-1.2,0.1c-0.8,0-1.6,0-2.7-0.1c-1,0-2.1-0.1-3.2-0.1c-1.3,0-2.5,0.1-3.7,0.2
			C1250.6,319.5,1249.4,319.5,1248.3,319.5z M1262.6,302.1h8.8c0.6,0,0.8-0.1,0.8-0.3c0-0.1,0-0.2,0-0.3c0-0.1-0.1-0.2-0.1-0.4
			l-4.5-14.3c-0.2-0.6-0.4-1-0.5-1c-0.1,0-0.2,0.3-0.4,0.9l-5.2,14.4c-0.1,0.2-0.1,0.4-0.1,0.5c0,0.2,0.1,0.3,0.3,0.4
			C1262,302.1,1262.3,302.1,1262.6,302.1z M1266.7,278c-0.3,0-0.5-0.2-0.5-0.4c0-0.3,0.1-0.6,0.4-1c0.8-1.2,1.7-2.5,2.6-3.7
			c0.9-1.2,1.8-2.4,2.7-3.6c0.4-0.6,1-0.8,1.7-0.8c0.3,0,0.7,0.1,1.4,0.3c0.6,0.2,1.2,0.4,1.7,0.6c0.5,0.2,0.8,0.5,0.8,0.8
			c0,0.4-0.3,0.8-0.9,1.2c-1.3,1-2.8,2.1-4.3,3.1c-1.6,1-3,2-4.3,3c-0.3,0.2-0.6,0.3-0.8,0.4C1266.9,277.9,1266.8,278,1266.7,278z"
			/>
		<path class="st0" d="M1315.5,319.5c-0.5,0-0.9-0.1-1.2-0.1c-0.3-0.1-0.5-0.3-0.5-0.6s0.2-0.5,0.5-0.6c0.3-0.1,0.8-0.3,1.4-0.5
			c1-0.2,1.8-0.7,2.4-1.5c0.7-0.8,1.1-1.8,1.3-3.2c0.4-3,0.8-6.1,1.1-9.1s0.6-6,0.8-8.8c0.2-2.8,0.4-5.3,0.5-7.4c0-0.3,0-0.6,0-1
			s0-0.7-0.1-1c0-0.4-0.1-0.9-0.2-1.2c-0.1-0.4-0.4-0.7-0.9-1c-0.6-0.5-1.3-0.9-1.9-1.1c-0.6-0.2-1.4-0.4-2.2-0.6
			c-0.4-0.1-0.8-0.2-1.1-0.4c-0.3-0.2-0.4-0.5-0.4-0.8c0-0.4,0.2-0.6,0.5-0.7c0.4-0.1,0.8-0.1,1.4-0.1c0.5,0,1.1,0,2,0.1
			c0.8,0,1.8,0.1,2.8,0.1c1,0.1,2,0.1,2.9,0.1c0.9,0,1.7,0.1,2.3,0.1c0.3,0,0.5,0.1,0.8,0.3c0.2,0.2,0.4,0.4,0.5,0.8
			c0.2,0.7,0.4,1.5,0.6,2.2c0.2,0.8,0.5,1.5,0.8,2.3l9.3,23.1c0.1,0.2,0.3,0.4,0.6,0.4s0.5-0.1,0.6-0.3l10.7-23.1
			c0.2-0.9,0.4-1.8,0.6-2.7c0.2-0.9,0.3-1.6,0.5-2.2c0.1-0.5,0.4-0.8,0.7-0.8h2.3c1.4,0,2.8-0.1,4.3-0.3c1.5-0.2,2.7-0.3,3.5-0.3
			c0.3,0,0.6,0,0.9,0.1c0.3,0.1,0.5,0.3,0.5,0.6c0,0.3-0.1,0.6-0.4,0.7c-0.2,0.2-0.6,0.3-1.1,0.5c-0.4,0.2-0.9,0.3-1.4,0.5
			c-0.5,0.2-1,0.4-1.4,0.6c-0.6,0.3-1.1,0.7-1.5,1.1c-0.4,0.5-0.5,1.1-0.5,1.8c0,2.9,0.1,5.5,0.2,7.8c0.1,2.4,0.2,4.6,0.3,6.7
			c0.1,2.1,0.2,4.3,0.4,6.4c0.2,2.1,0.3,4.4,0.4,6.8c0.1,1.2,0.5,2.1,1.3,2.7c0.8,0.7,1.8,1.1,3.3,1.4c0.6,0.1,1,0.3,1.3,0.4
			c0.3,0.2,0.5,0.4,0.5,0.7c0,0.2-0.1,0.4-0.4,0.5c-0.3,0.1-0.7,0.2-1.1,0.2c-1,0-1.9,0-2.8-0.1c-0.8-0.1-1.7-0.1-2.5-0.1
			c-0.8,0-1.7-0.1-2.6-0.1c-0.8,0-1.5,0-2.2,0.1c-0.7,0-1.4,0.1-2.2,0.1c-0.8,0.1-1.7,0.1-2.7,0.1c-0.4,0-0.8-0.1-1.1-0.1
			c-0.3-0.1-0.4-0.3-0.4-0.6s0.1-0.5,0.4-0.7c0.3-0.2,0.7-0.3,1.3-0.4c1.3-0.2,2.2-0.6,2.7-1.2s0.7-1.6,0.7-2.9
			c0-2.8-0.1-5.3-0.2-7.7c-0.1-2.4-0.1-4.7-0.3-7c-0.1-2.3-0.2-4.8-0.4-7.3c0-0.4-0.1-0.5-0.3-0.5c-0.2,0-0.4,0.2-0.6,0.6l-13,28
			c-0.1,0.3-0.3,0.5-0.7,0.5c-0.3,0-0.5-0.2-0.6-0.5c-1.7-4.7-3.6-9.3-5.5-13.9c-1.9-4.6-3.9-9.3-6-14.3c-0.1-0.2-0.3-0.3-0.5-0.3
			s-0.4,0.2-0.4,0.5c-0.3,2.5-0.5,5-0.8,7.4c-0.2,2.4-0.4,4.7-0.5,7.1c-0.1,2.3-0.1,4.7-0.1,7.2c0,1.1,0.4,2.1,1.1,2.9
			c0.7,0.8,1.7,1.4,3,1.7c0.6,0.1,1.1,0.3,1.4,0.4c0.3,0.2,0.5,0.4,0.5,0.7c0,0.2-0.2,0.4-0.5,0.5c-0.3,0.1-0.7,0.2-1.2,0.2
			c-1.1,0-1.9,0-2.5-0.1c-0.6-0.1-1.1-0.1-1.5-0.1c-0.4,0-1.1,0-1.9,0c-0.8,0-1.4,0-2,0.1c-0.6,0-1.2,0.1-1.7,0.1
			C1316.9,319.4,1316.3,319.5,1315.5,319.5z"/>
		<path class="st0" d="M1396,320.1c-2.7,0-5.3-0.5-7.7-1.4c-2.4-0.9-4.6-2.3-6.5-4c-1.9-1.7-3.4-3.8-4.5-6.3
			c-1.1-2.4-1.7-5.1-1.7-8.1c0-2.7,0.4-5.4,1.4-7.9c0.9-2.5,2.2-4.8,4-6.7c1.7-2,3.9-3.5,6.5-4.7c2.6-1.2,5.6-1.7,9-1.7
			c2.7,0,5.3,0.5,7.7,1.4c2.4,0.9,4.6,2.3,6.5,4c1.9,1.7,3.4,3.8,4.5,6.3c1.1,2.4,1.7,5.1,1.7,8.1c0,2.7-0.5,5.3-1.4,7.8
			c-0.9,2.5-2.2,4.8-4,6.8c-1.7,2-3.9,3.5-6.5,4.7C1402.5,319.5,1399.4,320.1,1396,320.1z M1397,317.5c2.8,0,5.2-0.7,7-2
			c1.9-1.3,3.3-3.1,4.2-5.5c0.9-2.3,1.4-5,1.4-8.1c0-2.7-0.3-5.2-0.9-7.7c-0.6-2.4-1.5-4.6-2.6-6.5c-1.2-1.9-2.6-3.4-4.4-4.5
			c-1.8-1.1-3.8-1.6-6.2-1.6c-2.7,0-5,0.6-6.9,1.9c-1.9,1.3-3.3,3.1-4.2,5.4c-0.9,2.3-1.4,5-1.4,8c0,2.7,0.3,5.3,0.8,7.7
			c0.6,2.4,1.4,4.6,2.6,6.5c1.2,1.9,2.6,3.4,4.4,4.5C1392.6,317,1394.6,317.5,1397,317.5z"/>
		<path class="st0" d="M1448.8,320.1c-3.6,0-6.7-0.6-9.1-1.9c-2.4-1.3-4.3-3.1-5.5-5.5c-1.2-2.4-1.9-5.1-1.9-8.2v-18
			c0-1.3-0.3-2.4-0.8-3.1c-0.5-0.8-1.2-1.2-2-1.4c-1.3-0.4-1.9-0.8-1.9-1.3c0-0.3,0.2-0.5,0.5-0.6c0.3-0.1,0.7-0.2,1.2-0.2
			c1,0,2.1,0,3.2,0.1c1.1,0.1,2.2,0.1,3.3,0.1c1,0,2,0,3.1-0.1c1.1-0.1,2-0.1,2.9-0.1c0.5,0,0.9,0.1,1.2,0.2
			c0.3,0.1,0.4,0.3,0.4,0.6c0,0.3-0.2,0.6-0.6,0.8c-0.4,0.2-1,0.4-1.7,0.6c-0.5,0.2-1.1,0.7-1.6,1.4c-0.5,0.7-0.8,1.8-0.8,3V303
			c0,3.1,0.5,5.6,1.5,7.5c1,2,2.4,3.4,4.2,4.3c1.8,0.9,3.8,1.4,6,1.4c4,0,6.9-1.3,8.8-3.9c1.9-2.6,2.8-6.3,2.8-10.9
			c0-0.9,0-2.1,0-3.5s0-2.9,0-4.5c0-1.6-0.1-3.1-0.1-4.5c0-1.3-0.1-2.5-0.3-3.4c-0.2-0.9-0.5-1.7-0.9-2.4s-0.9-1.1-1.6-1.3
			c-0.4-0.2-0.9-0.3-1.4-0.5c-0.5-0.2-0.8-0.5-0.8-0.8c0-0.2,0.2-0.4,0.5-0.5c0.3-0.1,0.7-0.2,1.3-0.2c1.1,0,2,0,2.7,0.1
			c0.6,0,1.4,0.1,2.4,0.1c0.7,0,1.3,0,1.8-0.1c0.5,0,1.1-0.1,1.6-0.1c0.5,0,1.1-0.1,1.6-0.1c0.5,0,0.9,0.1,1.2,0.2
			c0.3,0.1,0.5,0.3,0.5,0.6c0,0.5-0.6,0.9-1.9,1.2c-1.2,0.3-2,0.8-2.4,1.6c-0.5,0.8-0.7,1.9-0.8,3.2c-0.2,3.3-0.3,6.3-0.4,9.1
			c0,2.8-0.1,5.5-0.2,8.2c0,3.1-0.8,5.9-2.2,8.4c-1.4,2.4-3.3,4.4-5.7,5.7C1454.5,319.4,1451.8,320.1,1448.8,320.1z"/>
		<path class="st0" d="M1499.6,319.6c-0.8,0-1.9,0-3.3-0.1c-1.5-0.1-3-0.1-4.7-0.2c-1.6-0.1-3.1-0.1-4.4-0.1c-0.8,0-1.6,0-2.3,0.1
			c-0.7,0-1.4,0.1-2.2,0.1c-0.8,0-1.7,0.1-2.7,0.1c-0.4,0-0.8-0.1-1.1-0.2c-0.3-0.1-0.5-0.3-0.5-0.6c0-0.3,0.1-0.6,0.4-0.7
			c0.3-0.1,0.7-0.3,1.3-0.4c1.5-0.3,2.6-0.7,3.2-1.3c0.6-0.6,0.9-1.6,0.9-3v-27.3c0-1.4-0.3-2.3-0.9-2.9c-0.6-0.6-1.6-1-3.2-1.4
			c-0.6-0.1-1-0.3-1.3-0.4c-0.3-0.2-0.4-0.4-0.4-0.7c0-0.3,0.1-0.5,0.5-0.6c0.3-0.1,0.7-0.2,1.1-0.2c1,0,1.9,0,2.7,0.1
			c0.8,0,1.5,0.1,2.2,0.1c0.7,0,1.5,0,2.5,0c0.6,0,1.5,0,2.5-0.1c1,0,2.1-0.1,3.2-0.2c1.1-0.1,2.2-0.1,3.1-0.2c1,0,1.7-0.1,2.2-0.1
			c3.7,0,6.9,0.5,9.7,1.4c2.8,1,5.1,2.3,7,4.1c1.8,1.7,3.2,3.8,4.2,6.1c0.9,2.3,1.4,4.9,1.4,7.6c0,2.8-0.5,5.5-1.5,8
			c-1,2.5-2.5,4.7-4.4,6.7c-1.9,1.9-4.1,3.5-6.7,4.6C1505.5,319.1,1502.7,319.6,1499.6,319.6z M1498.8,317.2c3,0,5.6-0.7,7.8-2.2
			c2.2-1.4,3.9-3.5,5.1-6.1c1.2-2.6,1.8-5.6,1.8-9c0-2.8-0.4-5.4-1.3-7.6c-0.8-2.2-2-4.1-3.4-5.7c-1.4-1.6-3.1-2.8-4.9-3.6
			c-1.9-0.8-3.8-1.2-5.9-1.2c-1.6,0-2.9,0-4,0.1c-1.1,0.1-1.9,0.4-2.5,0.8c-0.6,0.4-0.8,1.2-0.8,2.2v26.6c0,1.5,0.4,2.7,1.1,3.5
			c0.7,0.8,1.7,1.3,3,1.6C1496,317,1497.4,317.2,1498.8,317.2z"/>
		<path class="st0" d="M1567.3,320.5c-1.4,0-2.7-0.1-3.9-0.5c-1.1-0.3-2.2-0.8-3.1-1.4c-0.9-0.6-1.7-1.3-2.4-2.2
			c-0.9-1.2-1.8-2.4-2.7-3.5c-0.9-1.1-1.8-2.4-2.7-3.8c-0.9-1.4-2-3.2-3.3-5.2c-0.5-1-1.3-1.7-2.2-2.2c-0.7-0.4-1.4-0.6-2.1-0.8
			c-0.7-0.1-1.3-0.2-1.7-0.3c-0.3,0-0.5,0.1-0.6,0.3c-0.1,0.2-0.2,0.5-0.2,0.9v10.9c0,1.3,0.3,2.3,1,3.2c0.6,0.8,1.7,1.4,3.3,1.7
			c0.6,0.1,1,0.3,1.3,0.4c0.3,0.2,0.4,0.4,0.4,0.7c0,0.2-0.1,0.4-0.4,0.5c-0.3,0.1-0.7,0.2-1.1,0.2c-1,0-1.9,0-2.7-0.1
			c-0.8-0.1-1.5-0.1-2.2-0.2c-0.7-0.1-1.4-0.1-2.2-0.1c-1,0-1.9,0-2.7,0.1c-0.9,0.1-1.7,0.1-2.6,0.2c-0.9,0.1-1.8,0.1-2.9,0.1
			c-0.4,0-0.8-0.1-1.1-0.1c-0.3-0.1-0.5-0.3-0.5-0.6c0-0.5,0.6-0.9,1.7-1.1c1.5-0.3,2.6-0.7,3.3-1.3c0.7-0.6,1-1.6,1-3v-26.2
			c0-1.4-0.1-2.4-0.2-3.1c-0.2-0.7-0.5-1.2-1-1.5c-0.5-0.3-1.3-0.5-2.4-0.7c-0.6-0.1-1.1-0.2-1.4-0.4c-0.3-0.2-0.4-0.5-0.4-0.8
			c0-0.2,0.1-0.4,0.5-0.6c0.3-0.1,0.7-0.2,1.1-0.2c1.2,0,2.1,0,2.7,0.1c0.6,0,1.3,0.1,1.8,0.1c0.6,0,1.3,0,2.2,0
			c0.8,0,1.5,0,2.2-0.1c0.6-0.1,1.4-0.1,2.2-0.2c0.8-0.1,1.8-0.1,3.1-0.1c4.5,0,7.9,0.8,10.3,2.4c2.4,1.6,3.6,4.1,3.6,7.4
			c0,1.8-0.4,3.4-1.1,4.6c-0.7,1.3-1.7,2.4-2.8,3.2c-1.1,0.8-2.3,1.5-3.4,2c-0.2,0-0.2,0.1-0.2,0.3c0,0.1,0.1,0.3,0.1,0.5
			c1.2,1.8,2.4,3.6,3.6,5.3c1.1,1.7,2.4,3.3,3.7,4.8c1.3,1.5,2.8,3.1,4.5,4.7c1.1,1,2.3,1.7,3.5,1.9c1.2,0.2,2.5,0.3,4,0.3
			c0.6,0,0.9,0.3,0.9,0.8c0,0.7-0.3,1.2-0.9,1.6c-0.6,0.4-1.4,0.7-2.3,0.8C1569,320.4,1568.1,320.5,1567.3,320.5z M1545.3,299.1
			c1.7,0,3.2-0.4,4.4-1.2c1.2-0.8,2.2-1.8,2.8-3.1c0.7-1.3,1-2.7,1-4.3c0-1.7-0.2-3.3-0.7-4.6c-0.4-1.3-1.2-2.4-2.4-3.1
			c-1.2-0.7-2.8-1.1-5-1.1c-1.1,0-1.9,0.4-2.3,1.2c-0.4,0.8-0.6,2.3-0.7,4.4c0,1-0.1,2.3-0.1,3.9c0,1.6,0,3.5,0,5.7
			c0,1,0.3,1.6,0.8,1.8C1543.7,299,1544.4,299.1,1545.3,299.1z"/>
		<path class="st0" d="M1600.8,320.1c-2.7,0-5.3-0.5-7.7-1.4c-2.4-0.9-4.6-2.3-6.5-4c-1.9-1.7-3.4-3.8-4.5-6.3
			c-1.1-2.4-1.7-5.1-1.7-8.1c0-2.7,0.4-5.4,1.4-7.9c0.9-2.5,2.2-4.8,4-6.7c1.7-2,3.9-3.5,6.5-4.7c2.6-1.2,5.6-1.7,9-1.7
			c2.7,0,5.3,0.5,7.7,1.4c2.4,0.9,4.6,2.3,6.5,4c1.9,1.7,3.4,3.8,4.5,6.3c1.1,2.4,1.7,5.1,1.7,8.1c0,2.7-0.5,5.3-1.4,7.8
			c-0.9,2.5-2.2,4.8-4,6.8c-1.7,2-3.9,3.5-6.5,4.7C1607.3,319.5,1604.2,320.1,1600.8,320.1z M1601.8,317.5c2.8,0,5.2-0.7,7-2
			c1.9-1.3,3.3-3.1,4.2-5.5c0.9-2.3,1.4-5,1.4-8.1c0-2.7-0.3-5.2-0.9-7.7c-0.6-2.4-1.5-4.6-2.6-6.5c-1.2-1.9-2.6-3.4-4.4-4.5
			c-1.8-1.1-3.8-1.6-6.2-1.6c-2.7,0-5,0.6-6.9,1.9c-1.9,1.3-3.3,3.1-4.2,5.4c-0.9,2.3-1.4,5-1.4,8c0,2.7,0.3,5.3,0.8,7.7
			c0.6,2.4,1.4,4.6,2.6,6.5c1.2,1.9,2.6,3.4,4.4,4.5C1597.4,317,1599.4,317.5,1601.8,317.5z"/>
		<path class="st0" d="M1642.7,320.1c-1.7,0-3.3-0.2-4.8-0.7c-1.5-0.5-2.9-1.2-4.1-2.1c-0.2-0.2-0.3-0.4-0.5-0.6
			c-0.2-0.2-0.3-0.5-0.4-0.7c-0.3-0.9-0.5-2.1-0.6-3.5s-0.2-2.6-0.2-3.7c0-0.3,0.1-0.5,0.4-0.6c0.2-0.1,0.5-0.2,0.8-0.2
			c0.3,0,0.5,0,0.7,0.1c0.2,0.1,0.3,0.3,0.4,0.6c0.8,3.1,2.1,5.3,3.7,6.8c1.7,1.5,3.4,2.3,5.4,2.3c1.4,0,2.5-0.3,3.5-0.9
			s1.8-1.4,2.3-2.4c0.6-1,0.8-2.2,0.8-3.5c0-1.5-0.3-2.8-0.8-3.7c-0.5-1-1.3-1.8-2.3-2.6c-1-0.8-2.3-1.6-3.7-2.5c-1.6-1-3.2-2-4.7-3
			c-1.6-1-2.8-2.3-3.8-3.7c-1-1.4-1.5-3.1-1.5-5.2c0-2.2,0.5-4.1,1.5-5.8s2.5-3,4.5-4c2-1,4.3-1.5,7.1-1.5c1.4,0,2.8,0.2,3.9,0.5
			c1.2,0.3,2.1,0.6,2.9,0.9c0.4,0.1,0.7,0.3,0.9,0.6c0.2,0.3,0.4,0.6,0.5,1c0.2,0.8,0.4,1.8,0.7,3c0.2,1.1,0.4,2.3,0.4,3.4
			c0,0.4-0.3,0.7-1,0.7c-0.4,0-0.7-0.1-1-0.2c-0.3-0.2-0.5-0.4-0.6-0.6c-0.8-2.3-1.8-4-3-5.1c-1.2-1.2-2.7-1.7-4.5-1.7
			c-1.2,0-2.3,0.2-3.3,0.6c-1,0.4-1.8,1.1-2.4,2.1c-0.6,0.9-0.9,2.2-0.9,3.7c0,1.1,0.4,2.1,1.1,3c0.7,0.9,1.7,1.8,3,2.7
			s2.7,1.8,4.3,2.7c1.6,1,3.1,2,4.5,3.1c1.3,1.1,2.4,2.3,3.1,3.7c0.8,1.4,1.1,3,1.1,5c0,2.5-0.6,4.7-1.7,6.5s-2.7,3.1-4.7,4.1
			C1647.8,319.6,1645.5,320.1,1642.7,320.1z"/>
		<path class="st0" d="M1677.5,319.5c-0.4,0-0.8-0.1-1.1-0.1c-0.3-0.1-0.5-0.3-0.5-0.6s0.2-0.5,0.5-0.7c0.3-0.2,0.8-0.3,1.3-0.5
			c1.5-0.3,2.7-0.7,3.4-1.4s1.1-1.7,1.1-3.1v-23.9c0-1.8,0-3.1-0.1-4c-0.1-0.9-0.2-1.5-0.4-1.9c-0.2-0.3-0.4-0.6-0.7-0.6
			c-0.5-0.1-1-0.2-1.6-0.2c-0.6,0-1.3,0-2.1,0h-2.4c-1,0-2.1,0.2-3.1,0.7c-1,0.5-1.8,1.1-2.3,2c-0.2,0.2-0.4,0.6-0.7,1
			s-0.6,0.8-1,1.1c-0.4,0.3-0.7,0.4-1.1,0.4c-0.2,0-0.4-0.1-0.4-0.2c-0.1-0.2-0.1-0.4-0.1-0.6c0-0.4,0.1-0.9,0.4-1.3
			c0.6-1.3,1.1-2.4,1.4-3.4c0.3-1,0.5-2.1,0.7-3.4c0.1-0.6,0.2-1,0.5-1.2c0.2-0.2,0.5-0.2,0.7-0.2c0.2,0,0.5,0.3,0.8,0.8
			s0.6,0.9,0.8,1.2c0.3,0.4,0.9,0.6,1.8,0.8c0.9,0.2,1.7,0.3,2.5,0.3l21.8-0.1c1.2,0,2.3-0.1,3.1-0.2s1.5-0.4,2-0.6
			c0.6-0.3,1-0.6,1.3-0.9c0.3-0.3,0.7-0.5,1.3-0.5c0.2,0,0.3,0.1,0.4,0.4c0.1,0.3,0.1,0.6,0.1,0.9c0,0.2,0,0.4-0.1,0.7
			c0,0.3-0.1,0.6-0.1,0.8c-0.2,0.8-0.3,1.4-0.4,1.8c-0.1,0.4-0.2,0.9-0.3,1.2c-0.1,0.4-0.1,0.9-0.1,1.5v0.8c0,0.5-0.1,0.9-0.2,1.4
			c-0.2,0.4-0.4,0.7-0.7,0.7c-0.3,0-0.6-0.2-0.8-0.6c-0.2-0.4-0.4-1-0.6-1.8c-0.2-1-0.8-1.8-1.6-2.4c-0.8-0.6-2.2-0.8-4.1-0.8h-5.1
			c-0.8,0-1.4,0.1-1.9,0.4c-0.4,0.3-0.7,0.9-0.9,1.8c-0.1,0.9-0.2,2.5-0.2,4.6v23.9c0,1.4,0.4,2.4,1.2,3c0.8,0.6,1.9,1.1,3.5,1.4
			c0.6,0.1,1,0.3,1.3,0.4c0.3,0.2,0.5,0.4,0.5,0.7c0,0.2-0.1,0.4-0.4,0.5c-0.3,0.1-0.7,0.2-1.1,0.2c-1,0-1.9,0-2.8-0.1
			c-0.8-0.1-1.7-0.1-2.5-0.1c-0.8,0-1.6-0.1-2.5-0.1c-1,0-1.9,0-2.7,0.1c-0.8,0-1.7,0.1-2.6,0.1
			C1679.5,319.4,1678.6,319.5,1677.5,319.5z"/>
		<path class="st0" d="M1058.4,392.6c-0.4,0-1.2-0.3-2.3-0.9c-1.1-0.6-2.2-1.6-3.2-3c-0.4-0.5-1.1-1.3-2-2.3c-0.9-1.1-2-2.3-3.2-3.7
			c-1.2-1.4-2.5-2.9-3.9-4.5c-1.4-1.6-2.8-3.2-4.2-4.8c-1.4-1.6-2.7-3.1-3.9-4.5c-1.2-1.4-2.3-2.7-3.3-3.7c-0.9-1.1-1.7-1.9-2.1-2.4
			c-0.2-0.3-0.4-0.5-0.6-0.7c-0.2-0.2-0.4-0.2-0.5-0.2c-0.2,0-0.3,0.1-0.4,0.4c-0.1,0.3-0.1,0.6-0.1,0.8c0,1.9-0.1,4.2-0.1,6.7
			c0,2.5,0,5.1,0,7.8c0,2.7,0,5.2,0,7.5c0,1.2,0.3,2.2,1,3c0.6,0.9,1.7,1.5,3.3,1.8c0.6,0.1,1,0.3,1.4,0.4c0.3,0.2,0.5,0.4,0.5,0.7
			c0,0.2-0.2,0.4-0.5,0.5c-0.3,0.1-0.7,0.2-1.2,0.2c-1.1,0-1.9,0-2.5-0.1c-0.6-0.1-1.1-0.1-1.6-0.1s-1.1,0-1.9,0c-0.8,0-1.4,0-2,0.1
			c-0.5,0-1.1,0.1-1.6,0.1c-0.5,0-1.2,0.1-1.9,0.1c-0.4,0-0.8-0.1-1.2-0.1c-0.3-0.1-0.5-0.3-0.5-0.6s0.2-0.5,0.5-0.7
			c0.3-0.2,0.8-0.4,1.4-0.5c1.1-0.3,1.9-0.9,2.4-1.8c0.5-0.9,0.8-1.9,0.9-3.1c0.2-1.5,0.3-3.5,0.5-6c0.2-2.5,0.3-5.3,0.4-8.4
			c0.1-3.1,0.2-6.3,0.2-9.6c0-2.1-0.5-3.7-1.6-4.6c-1.1-0.9-2.5-1.7-4.2-2.2c-0.2-0.1-0.6-0.2-1.1-0.5c-0.5-0.2-0.8-0.5-0.8-0.9
			c0-0.4,0.2-0.6,0.5-0.7c0.4-0.1,0.7-0.2,0.9-0.2c1,0,2,0.1,2.7,0.1c0.8,0,1.5,0.1,2.3,0.1s1.5,0.1,2.3,0.1c0.8,0,1.7,0,2.8,0
			c0.4,0,0.6,0.1,0.8,0.3c0.2,0.2,0.4,0.4,0.5,0.6c0.4,0.5,1.1,1.3,2.1,2.5c0.9,1.1,2.1,2.4,3.3,4c1.3,1.5,2.6,3.1,4.1,4.9
			c1.4,1.7,2.9,3.4,4.3,5.2c1.4,1.7,2.8,3.4,4.1,4.9c1.3,1.5,2.4,2.8,3.3,4c0.9,1.1,1.6,1.9,2,2.4c0.2,0.2,0.4,0.4,0.6,0.7
			c0.3,0.3,0.5,0.4,0.7,0.4c0.4,0,0.6-0.4,0.6-1.1c0-0.8,0-2,0-3.6c0-1.6,0-3.5,0-5.6c0-2.1,0-4.4,0-6.7s0-4.7-0.1-7
			c0-0.9-0.5-1.6-1.3-2.3c-0.8-0.6-1.7-1-2.6-1.2c-0.6-0.1-1.1-0.2-1.6-0.4c-0.5-0.2-0.7-0.5-0.7-0.8c0-0.2,0.2-0.4,0.7-0.5
			c0.5-0.1,0.9-0.2,1.4-0.2c0.6,0,1.1,0,1.6,0c0.5,0,0.9,0,1.4,0c0.4,0,0.9,0,1.3,0c0.9,0,1.7,0,2.2,0c0.6,0,1.2,0,1.8-0.1
			c0.7,0,1.6-0.1,2.7-0.1c0.5,0,0.9,0.1,1.2,0.2c0.3,0.1,0.4,0.3,0.4,0.6c0,0.6-0.6,1-1.9,1.2c-1.4,0.3-2.4,0.7-3,1.1
			c-0.5,0.5-0.8,1.2-0.8,2.3c0,0.6,0,1.7-0.1,3.2c0,1.5-0.1,3.2-0.1,5.2c0,2-0.1,4-0.1,6.2c0,2.2-0.1,4.3-0.1,6.4c0,2.1,0,4,0,5.7
			c0,1,0,1.9,0.1,2.8c0.1,0.9,0.1,1.7,0.2,2.3c0.1,0.7,0.1,1.2,0.1,1.5c0,0.8-0.1,1.3-0.4,1.5
			C1059.2,392.5,1058.8,392.6,1058.4,392.6z"/>
		<path class="st0" d="M1073.3,391.9c-0.5,0-0.9-0.1-1.2-0.2c-0.3-0.1-0.5-0.4-0.5-0.6c0-0.3,0.2-0.6,0.5-0.8
			c0.3-0.2,0.8-0.4,1.3-0.6c1.1-0.3,2.1-0.8,3-1.4c0.9-0.6,1.6-1.6,2.2-3c1.1-2.4,2.1-4.8,3-7c0.9-2.2,1.8-4.4,2.7-6.6
			c0.8-2.2,1.7-4.4,2.6-6.7c0.9-2.3,1.8-4.8,2.7-7.4c0.4-0.9,0.6-1.7,0.8-2.3c0.2-0.6,0.3-1.2,0.3-1.7c0.5-0.1,1-0.3,1.4-0.4
			c0.4-0.1,0.9-0.4,1.4-0.6c0.5-0.2,0.9-0.6,1.1-1.1c0.3-0.5,0.5-0.8,0.6-1c0.1,0,0.2-0.1,0.3-0.1c0.1,0,0.2,0.1,0.3,0.2
			c0.1,0.2,0.2,0.4,0.3,0.7c0.1,0.2,0.1,0.5,0.2,0.8c0.9,2.9,1.9,5.9,2.9,9c1,3,2,6,2.9,8.9c1,2.9,1.9,5.6,2.7,8
			c0.8,2.5,1.6,4.6,2.2,6.5c0.4,1.3,1,2.3,1.6,3c0.6,0.7,1.2,1.2,1.9,1.6c0.7,0.3,1.4,0.6,2.2,0.8c0.6,0.1,1.1,0.3,1.4,0.5
			c0.3,0.2,0.5,0.5,0.5,0.8c0,0.2-0.1,0.4-0.5,0.5c-0.3,0.1-0.7,0.1-1.1,0.1c-0.6,0-1.5,0-2.5-0.1c-1-0.1-2.1-0.1-3.3-0.1
			c-1.1,0-2.1-0.1-3.1-0.1c-0.8,0-1.6,0-2.5,0c-0.9,0-1.8,0-2.6,0.1c-0.8,0-1.5,0.1-2.1,0.1c-0.5,0-0.9-0.1-1.2-0.2
			c-0.3-0.1-0.5-0.3-0.5-0.6c0-0.3,0.2-0.6,0.5-0.8c0.4-0.2,0.8-0.3,1.3-0.4c1.4-0.2,2.4-0.6,3-1.1c0.6-0.5,0.9-1.1,0.8-1.9
			c0-0.7-0.2-1.5-0.4-2.6c-0.2-1-0.5-2.1-0.8-3.3c-0.3-1.1-0.6-2.2-0.9-3.2c-0.1-0.3-0.2-0.5-0.4-0.6c-0.2-0.1-0.5-0.1-1-0.1h-11.2
			c-0.2,0-0.4,0.1-0.5,0.2c-0.2,0.1-0.3,0.4-0.5,0.8c-0.1,0.5-0.3,1.1-0.6,1.8c-0.3,0.7-0.5,1.5-0.8,2.4c-0.2,0.8-0.5,1.6-0.6,2.3
			c-0.2,0.7-0.3,1.2-0.3,1.5c-0.1,1,0.1,1.8,0.8,2.4c0.6,0.6,1.6,1,2.8,1.4c1.2,0.3,1.8,0.7,1.8,1.2c0,0.3-0.1,0.5-0.5,0.6
			c-0.3,0.1-0.7,0.1-1.2,0.1c-0.8,0-1.6,0-2.7-0.1c-1,0-2.1-0.1-3.2-0.1c-1.3,0-2.5,0.1-3.7,0.2
			C1075.5,391.8,1074.4,391.9,1073.3,391.9z M1087.6,374.4h8.8c0.6,0,0.8-0.1,0.8-0.3c0-0.1,0-0.2,0-0.3c0-0.1-0.1-0.2-0.1-0.4
			l-4.5-14.3c-0.2-0.6-0.4-1-0.5-1c-0.1,0-0.2,0.3-0.4,0.9l-5.2,14.4c-0.1,0.2-0.1,0.4-0.1,0.5c0,0.2,0.1,0.3,0.3,0.4
			C1087,374.4,1087.2,374.4,1087.6,374.4z"/>
		<path class="st0" d="M1160.3,392c-0.8,0-1.9,0-3.3-0.1c-1.5-0.1-3-0.1-4.7-0.2c-1.6-0.1-3.1-0.1-4.4-0.1c-0.8,0-1.6,0-2.3,0.1
			c-0.7,0-1.4,0.1-2.2,0.1c-0.8,0-1.7,0.1-2.7,0.1c-0.4,0-0.8-0.1-1.1-0.2c-0.3-0.1-0.5-0.3-0.5-0.6c0-0.3,0.1-0.6,0.4-0.7
			c0.3-0.1,0.7-0.3,1.3-0.4c1.5-0.3,2.6-0.7,3.2-1.3c0.6-0.6,0.9-1.6,0.9-3v-27.3c0-1.4-0.3-2.3-0.9-2.9c-0.6-0.6-1.6-1-3.2-1.4
			c-0.6-0.1-1-0.3-1.3-0.4c-0.3-0.2-0.4-0.4-0.4-0.7c0-0.3,0.1-0.5,0.5-0.6c0.3-0.1,0.7-0.2,1.1-0.2c1,0,1.9,0,2.7,0.1
			s1.5,0.1,2.2,0.1c0.7,0,1.5,0,2.5,0c0.6,0,1.5,0,2.5-0.1c1,0,2.1-0.1,3.2-0.2s2.2-0.1,3.1-0.2c1,0,1.7-0.1,2.2-0.1
			c3.7,0,6.9,0.5,9.7,1.4c2.8,1,5.1,2.3,7,4.1c1.8,1.7,3.2,3.8,4.2,6.1c0.9,2.3,1.4,4.9,1.4,7.6c0,2.8-0.5,5.5-1.5,8
			c-1,2.5-2.5,4.7-4.4,6.7c-1.9,1.9-4.1,3.5-6.7,4.6C1166.2,391.4,1163.3,392,1160.3,392z M1159.5,389.5c3,0,5.6-0.7,7.8-2.2
			c2.2-1.4,3.9-3.5,5.1-6.1c1.2-2.6,1.8-5.6,1.8-9c0-2.8-0.4-5.4-1.3-7.6c-0.8-2.2-2-4.1-3.4-5.7c-1.4-1.6-3.1-2.8-4.9-3.6
			c-1.9-0.8-3.8-1.2-5.9-1.2c-1.6,0-2.9,0-4,0.1c-1.1,0.1-1.9,0.4-2.5,0.8c-0.6,0.4-0.8,1.2-0.8,2.2V384c0,1.5,0.4,2.7,1.1,3.5
			c0.7,0.8,1.7,1.3,3,1.6C1156.7,389.4,1158,389.5,1159.5,389.5z"/>
		<path class="st0" d="M1212.5,392.4c-2.7,0-5.3-0.5-7.7-1.4c-2.4-0.9-4.6-2.3-6.5-4c-1.9-1.7-3.4-3.8-4.5-6.3
			c-1.1-2.4-1.7-5.1-1.7-8.1c0-2.7,0.4-5.4,1.4-7.9c0.9-2.5,2.2-4.8,4-6.7c1.7-2,3.9-3.5,6.5-4.7c2.6-1.2,5.6-1.7,9-1.7
			c2.7,0,5.3,0.5,7.7,1.4c2.4,0.9,4.6,2.3,6.5,4c1.9,1.7,3.4,3.8,4.5,6.3c1.1,2.4,1.7,5.1,1.7,8.1c0,2.7-0.5,5.3-1.4,7.8
			c-0.9,2.5-2.2,4.8-4,6.8c-1.7,2-3.9,3.5-6.5,4.7C1218.9,391.8,1215.9,392.4,1212.5,392.4z M1213.4,389.9c2.8,0,5.2-0.7,7-2
			s3.3-3.1,4.2-5.5c0.9-2.3,1.4-5,1.4-8.1c0-2.7-0.3-5.2-0.9-7.7c-0.6-2.4-1.5-4.6-2.6-6.5c-1.2-1.9-2.6-3.4-4.4-4.5
			c-1.8-1.1-3.8-1.6-6.2-1.6c-2.7,0-5,0.6-6.9,1.9c-1.9,1.3-3.3,3.1-4.2,5.4c-0.9,2.3-1.4,5-1.4,8c0,2.7,0.3,5.3,0.8,7.7
			c0.6,2.4,1.4,4.6,2.6,6.5c1.2,1.9,2.6,3.4,4.4,4.5C1209,389.3,1211.1,389.9,1213.4,389.9z"/>
		<path class="st0" d="M1254.4,392.5c-1.7,0-3.3-0.2-4.8-0.7c-1.5-0.5-2.9-1.2-4.1-2.1c-0.2-0.2-0.3-0.4-0.5-0.6
			c-0.2-0.2-0.3-0.5-0.4-0.7c-0.3-0.9-0.5-2.1-0.6-3.5s-0.2-2.6-0.2-3.7c0-0.3,0.1-0.5,0.4-0.6c0.2-0.1,0.5-0.2,0.8-0.2
			c0.3,0,0.5,0,0.7,0.1c0.2,0.1,0.3,0.3,0.4,0.6c0.8,3.1,2.1,5.3,3.7,6.8c1.7,1.5,3.4,2.3,5.4,2.3c1.4,0,2.5-0.3,3.5-0.9
			c1-0.6,1.8-1.4,2.3-2.4c0.6-1,0.8-2.2,0.8-3.5c0-1.5-0.3-2.8-0.8-3.7c-0.5-1-1.3-1.8-2.3-2.6c-1-0.8-2.3-1.6-3.7-2.5
			c-1.6-1-3.2-2-4.7-3c-1.6-1-2.8-2.3-3.8-3.7c-1-1.4-1.5-3.1-1.5-5.2c0-2.2,0.5-4.1,1.5-5.8c1-1.7,2.5-3,4.5-4c2-1,4.3-1.5,7.1-1.5
			c1.4,0,2.8,0.2,3.9,0.5c1.2,0.3,2.1,0.6,2.9,0.9c0.4,0.1,0.7,0.3,0.9,0.6c0.2,0.3,0.4,0.6,0.5,1c0.2,0.8,0.4,1.8,0.7,3
			c0.2,1.1,0.4,2.3,0.4,3.4c0,0.4-0.3,0.7-1,0.7c-0.4,0-0.7-0.1-1-0.2c-0.3-0.2-0.5-0.4-0.6-0.6c-0.8-2.3-1.8-4-3-5.1
			c-1.2-1.2-2.7-1.7-4.5-1.7c-1.2,0-2.3,0.2-3.3,0.6c-1,0.4-1.8,1.1-2.4,2.1c-0.6,0.9-0.9,2.2-0.9,3.7c0,1.1,0.4,2.1,1.1,3
			c0.7,0.9,1.7,1.8,3,2.7s2.7,1.8,4.3,2.7c1.6,1,3.1,2,4.5,3.1c1.3,1.1,2.4,2.3,3.1,3.7c0.8,1.4,1.1,3,1.1,5c0,2.5-0.6,4.7-1.7,6.5
			c-1.1,1.8-2.7,3.1-4.7,4.1C1259.5,392,1257.1,392.5,1254.4,392.5z"/>
		<path class="st0" d="M1277.9,391.9c-0.5,0-0.9-0.1-1.2-0.2c-0.3-0.1-0.5-0.4-0.5-0.6c0-0.3,0.2-0.6,0.5-0.8
			c0.3-0.2,0.8-0.4,1.3-0.6c1.1-0.3,2.1-0.8,3-1.4c0.9-0.6,1.6-1.6,2.2-3c1.1-2.4,2.1-4.8,3-7c0.9-2.2,1.8-4.4,2.7-6.6
			c0.8-2.2,1.7-4.4,2.6-6.7c0.9-2.3,1.8-4.8,2.7-7.4c0.4-0.9,0.6-1.7,0.8-2.3c0.2-0.6,0.3-1.2,0.3-1.7c0.5-0.1,1-0.3,1.4-0.4
			c0.4-0.1,0.9-0.4,1.4-0.6c0.5-0.2,0.9-0.6,1.1-1.1c0.3-0.5,0.5-0.8,0.6-1c0.1,0,0.2-0.1,0.3-0.1c0.1,0,0.2,0.1,0.3,0.2
			c0.1,0.2,0.2,0.4,0.3,0.7c0.1,0.2,0.1,0.5,0.2,0.8c0.9,2.9,1.9,5.9,2.9,9s2,6,2.9,8.9c1,2.9,1.9,5.6,2.7,8
			c0.8,2.5,1.6,4.6,2.2,6.5c0.4,1.3,1,2.3,1.6,3c0.6,0.7,1.2,1.2,1.9,1.6c0.7,0.3,1.4,0.6,2.2,0.8c0.6,0.1,1.1,0.3,1.4,0.5
			c0.3,0.2,0.5,0.5,0.5,0.8c0,0.2-0.1,0.4-0.5,0.5c-0.3,0.1-0.7,0.1-1.1,0.1c-0.6,0-1.5,0-2.5-0.1c-1-0.1-2.1-0.1-3.3-0.1
			c-1.1,0-2.1-0.1-3.1-0.1c-0.8,0-1.6,0-2.5,0c-0.9,0-1.8,0-2.6,0.1c-0.8,0-1.5,0.1-2.1,0.1c-0.5,0-0.9-0.1-1.2-0.2
			c-0.3-0.1-0.5-0.3-0.5-0.6c0-0.3,0.2-0.6,0.5-0.8c0.4-0.2,0.8-0.3,1.3-0.4c1.4-0.2,2.4-0.6,3-1.1c0.6-0.5,0.9-1.1,0.8-1.9
			c0-0.7-0.2-1.5-0.4-2.6c-0.2-1-0.5-2.1-0.8-3.3c-0.3-1.1-0.6-2.2-0.9-3.2c-0.1-0.3-0.2-0.5-0.4-0.6c-0.2-0.1-0.5-0.1-1-0.1h-11.2
			c-0.2,0-0.4,0.1-0.5,0.2s-0.3,0.4-0.5,0.8c-0.1,0.5-0.3,1.1-0.6,1.8s-0.5,1.5-0.8,2.4c-0.2,0.8-0.5,1.6-0.6,2.3
			c-0.2,0.7-0.3,1.2-0.3,1.5c-0.1,1,0.1,1.8,0.8,2.4c0.6,0.6,1.6,1,2.8,1.4c1.2,0.3,1.8,0.7,1.8,1.2c0,0.3-0.1,0.5-0.5,0.6
			c-0.3,0.1-0.7,0.1-1.2,0.1c-0.8,0-1.6,0-2.7-0.1c-1,0-2.1-0.1-3.2-0.1c-1.3,0-2.5,0.1-3.7,0.2
			C1280.2,391.8,1279,391.9,1277.9,391.9z M1292.2,374.4h8.8c0.6,0,0.8-0.1,0.8-0.3c0-0.1,0-0.2,0-0.3c0-0.1-0.1-0.2-0.1-0.4
			l-4.5-14.3c-0.2-0.6-0.4-1-0.5-1c-0.1,0-0.2,0.3-0.4,0.9l-5.2,14.4c-0.1,0.2-0.1,0.4-0.1,0.5c0,0.2,0.1,0.3,0.3,0.4
			C1291.6,374.4,1291.9,374.4,1292.2,374.4z"/>
		<path class="st0" d="M1327.9,391.8c-0.4,0-0.8-0.1-1.1-0.2s-0.4-0.3-0.4-0.6c0-0.5,0.6-0.8,1.7-1.1c1.5-0.3,2.5-0.7,3-1.3
			c0.5-0.6,0.7-1.6,0.7-3v-27.3c0-1.4-0.2-2.3-0.5-2.9c-0.4-0.6-1.3-1-2.8-1.3c-1.2-0.2-1.7-0.6-1.7-1.1c0-0.2,0.1-0.4,0.4-0.6
			c0.3-0.2,0.6-0.2,1.1-0.2c1,0,1.9,0,2.7,0.1c0.7,0,1.4,0.1,2.1,0.1s1.4,0.1,2.2,0.1c0.8,0,1.6,0,2.3,0c0.7,0,1.4,0,2.2-0.1
			c0.8,0,1.7-0.1,2.7-0.1c1,0,1.6,0.3,1.6,0.8c0,0.3-0.1,0.6-0.5,0.7c-0.3,0.2-0.7,0.3-1.3,0.4c-1.5,0.4-2.6,0.9-3.2,1.5
			c-0.6,0.6-0.9,1.6-0.9,2.7v11.5c0,0.3,0.1,0.5,0.3,0.5c0.2,0.1,0.4,0.1,0.6,0.1h20.1c0.4,0,0.5-0.3,0.5-0.8v-11.4
			c0-1.1-0.3-2-0.8-2.7c-0.5-0.7-1.6-1.2-3.2-1.5c-0.6-0.1-1-0.3-1.3-0.4c-0.3-0.2-0.4-0.4-0.4-0.7c0-0.5,0.5-0.8,1.5-0.8
			c1,0,1.9,0,2.8,0.1c0.8,0,1.7,0.1,2.4,0.1c0.8,0,1.6,0,2.4,0c0.8,0,1.4,0,2-0.1s1.2-0.1,1.9-0.1s1.5-0.1,2.6-0.1
			c0.5,0,0.9,0.1,1.1,0.2c0.3,0.2,0.4,0.4,0.4,0.6c0,0.5-0.6,0.9-1.7,1.1c-1.5,0.3-2.4,0.8-2.8,1.4c-0.4,0.6-0.5,1.5-0.5,2.7v27.3
			c0,1.4,0.2,2.4,0.6,3c0.4,0.6,1.4,1,2.8,1.3c1.1,0.2,1.7,0.6,1.7,1.1c0,0.2-0.1,0.4-0.4,0.6c-0.3,0.1-0.7,0.2-1.1,0.2
			c-1,0-1.8,0-2.6-0.1c-0.7-0.1-1.5-0.1-2.1-0.1c-0.7,0-1.4-0.1-2.2-0.1c-0.8,0-1.6,0-2.3,0.1c-0.7,0-1.5,0.1-2.3,0.1
			c-0.8,0.1-1.7,0.1-2.7,0.1c-0.5,0-0.9-0.1-1.1-0.2c-0.3-0.1-0.4-0.3-0.4-0.6c0-0.3,0.1-0.6,0.4-0.7c0.3-0.1,0.7-0.3,1.3-0.4
			c1.4-0.3,2.4-0.7,3.1-1.4c0.7-0.6,1-1.6,1-2.8v-11.6c0-0.2,0-0.4-0.1-0.6c0-0.2-0.2-0.3-0.4-0.3h-20.6c-0.3,0-0.5,0.2-0.5,0.7
			v11.4c0,1.2,0.4,2.2,1.2,3c0.8,0.8,1.9,1.3,3.3,1.6c0.6,0.1,1,0.3,1.3,0.4c0.3,0.1,0.4,0.4,0.4,0.7c0,0.2-0.1,0.4-0.4,0.6
			c-0.3,0.1-0.7,0.2-1.1,0.2c-1,0-1.9,0-2.8-0.1c-0.8-0.1-1.7-0.1-2.4-0.1c-0.8,0-1.6-0.1-2.5-0.1c-0.8,0-1.6,0-2.3,0.1
			c-0.7,0-1.5,0.1-2.3,0.1C1329.8,391.8,1328.9,391.8,1327.9,391.8z"/>
	</g>
</g>
<line class="st1" x1="658.8" y1="25.3" x2="658.8" y2="414.7"/>
<path class="st2" d="M403.9,223c0,21.5-39.5,156.8-88.3,156.8S227.3,244.3,227.3,223c0-21.5,39.5-39,88.3-39S403.9,201.4,403.9,223z
	"/>
<path class="st3" d="M312,184c51.6,0,93.4,18.9,93.4,40.5S363.6,379.7,312,379.7"/>
<path class="st3" d="M319,379.7c-51.5,0-93.2-133.9-93.2-155.3c0-21.5,41.7-40.5,93.2-40.5"/>
<circle class="st3" cx="315.6" cy="106.5" r="88.3"/>
<path class="st0" d="M376.8,232c0,31.8-27.7,57.5-61.7,57.3c-34-0.3-61.6-27.1-60.7-58.9c0-0.2,0-0.3,0-0.5c0.1-1.9,2.9-2.3,3.6-0.5
	c8.5,22,31.1,37.8,57.6,37.8c25.8,0,47.9-14.9,56.9-36.1c0.9-2.1,4.3-1.6,4.3,0.7C376.8,232,376.8,232,376.8,232z"/>
<g>
	<g>
		
			<ellipse transform="matrix(0.9871 -0.1602 0.1602 0.9871 -13.566 44.7325)" class="st0" cx="270.7" cy="106.5" rx="17.5" ry="17.5"/>
		
			<ellipse transform="matrix(0.1602 -0.9871 0.9871 0.1602 194.5211 441.6545)" class="st0" cx="356.8" cy="106.5" rx="17.5" ry="17.5"/>
		<g>
			<path class="st4" d="M411.8,106.5h-12.5c0-21.3-17.4-38.7-38.7-38.7s-38.7,17.4-38.7,38.7h-12.5c0-8.9,2.3-17.2,6.3-24.5
				c8.7-15.9,25.6-26.7,44.9-26.7c5.4,0,10.6,0.8,15.4,2.4c0.5,0.2,1.1,0.4,1.6,0.5c2.7,0.9,5.3,2.1,7.7,3.5c0.5,0.3,1,0.5,1.4,0.8
				l0,0h0c14.6,8.7,24.5,24.5,25,42.6C411.8,105.6,411.8,106,411.8,106.5z"/>
		</g>
		<g>
			<path class="st4" d="M321.9,106.5h-12.5c0-21.3-17.3-38.7-38.7-38.7c-21.3,0-38.7,17.4-38.7,38.7h-12.5v-0.7c0-0.1,0-0.1,0-0.2
				v-0.5c0-0.4,0-0.9,0.1-1.4c0-0.1,0-0.2,0-0.3c1-17.4,10.8-32.5,24.9-40.9c7.7-4.6,16.6-7.2,26.2-7.2c19.4,0,36.3,10.8,45,26.7
				C319.6,89.3,321.9,97.6,321.9,106.5z"/>
		</g>
		<g>
			<path class="st4" d="M315.6,10.4c-52,0-94.4,41.5-96,93.1c0,0.1,0,0.2,0,0.3c0,0.4,0,0.9,0,1.4c0,0.1,0,0.2,0,0.3v0.2
				c0,0.1,0,0.1,0,0.2c0,0.2,0,0.4,0,0.7c0,18.8,5.4,36.3,14.8,51.2c7.6,12.1,17.8,22.3,29.8,29.9c6.4,4.1,13.4,7.5,20.7,10
				c9.7,3.3,20,5.1,30.8,5.1c10.8,0,21.1-1.8,30.8-5.1c7.3-2.5,14.3-5.8,20.7-9.9c12-7.6,22.2-17.9,29.9-30
				c9.4-14.8,14.8-32.4,14.8-51.2v-1.4C411,52.7,368.2,10.4,315.6,10.4z M381.7,157.7c-9.1,11.8-21.4,21.1-35.5,26.7c0,0,0,0,0,0
				c-0.5,0.2-1.1,0.4-1.6,0.6c-9,3.3-18.8,5.2-29,5.2c-10.2,0-20-1.9-29.1-5.2c-0.5-0.2-1-0.4-1.6-0.6
				c-14.1-5.6-26.3-14.9-35.5-26.7c-11-14.1-17.6-31.9-17.6-51.2c0-0.7,0-1.4,0-2c0.3-15.4,4.9-29.7,12.5-41.9
				c0.6-0.9,1.2-1.9,1.8-2.7c0.6-0.9,1.2-1.7,1.8-2.5c0.8-1.1,1.7-2.2,2.5-3.3c1.2-1.5,2.4-2.9,3.7-4.2c0.9-0.9,1.7-1.8,2.6-2.7
				c0.7-0.7,1.3-1.3,2-1.9c0.1-0.1,0.2-0.1,0.2-0.2c0.8-0.7,1.6-1.4,2.4-2.1c0.7-0.6,1.3-1.1,2-1.7c0.5-0.4,1.1-0.9,1.6-1.3
				c0.4-0.3,0.8-0.6,1.2-0.9c0.4-0.3,0.8-0.6,1.2-0.9c1-0.7,2.1-1.4,3.1-2.1c0.6-0.4,1.3-0.9,2-1.2c0.4-0.3,0.8-0.5,1.3-0.7
				c0.4-0.2,0.7-0.4,1-0.6c0.6-0.3,1.1-0.6,1.7-0.9c0.8-0.4,1.6-0.8,2.4-1.2c0.8-0.4,1.5-0.7,2.3-1.1c0.1,0,0.1,0,0.2-0.1
				c0.8-0.4,1.6-0.7,2.4-1c0.8-0.4,1.7-0.7,2.5-1c3.3-1.2,6.7-2.3,10.2-3.1c0.9-0.2,1.7-0.4,2.6-0.6c0.9-0.2,1.8-0.4,2.7-0.5
				c0.9-0.2,1.8-0.3,2.7-0.4c0.9-0.1,1.8-0.2,2.7-0.3c0.9-0.1,1.8-0.2,2.8-0.2c0.9-0.1,1.9-0.1,2.8-0.1c0.9,0,1.9-0.1,2.8-0.1
				s1.9,0,2.8,0.1c1.9,0.1,3.7,0.2,5.5,0.4c0.9,0.1,1.8,0.2,2.7,0.3c0.9,0.1,1.8,0.2,2.7,0.4c0.9,0.1,1.8,0.3,2.7,0.5
				c0.9,0.2,1.8,0.4,2.6,0.6c3.5,0.8,6.9,1.8,10.2,3.1c0,0,0,0,0,0c1.7,0.6,3.3,1.3,4.9,2c1.6,0.7,3.2,1.5,4.8,2.3
				c0.8,0.4,1.5,0.8,2.3,1.3c0.7,0.4,1.4,0.8,2.1,1.2c2.4,1.4,4.7,3,6.9,4.7c0.6,0.5,1.2,1,1.9,1.5c1,0.8,2,1.6,3,2.5
				c0.5,0.4,0.9,0.8,1.4,1.2c2.2,2,4.3,4.2,6.3,6.4c0.4,0.4,0.7,0.8,1.1,1.2c0.4,0.5,0.9,1,1.3,1.5c2.2,2.7,4.2,5.5,6,8.5l0,0
				c7.6,12.2,12.1,26.6,12.5,41.9c0,0.6,0,1.3,0,2C399.3,125.8,392.7,143.5,381.7,157.7z M344.6,197.5l0-12.5
				c-9,3.3-18.8,5.2-29,5.2c-10.2,0-20-1.9-29.1-5.2v12.5c0,0-0.7,0-1.7,0.1c9.7,3.3,20,5.1,30.8,5.1c10.8,0,21.1-1.8,30.8-5.1
				C345.3,197.5,344.6,197.5,344.6,197.5z"/>
		</g>
		<polygon class="st4" points="321.9,85.4 321.9,135.2 320.9,136.9 310.3,136.9 309.4,135.2 309.4,85.4 		"/>
		<polygon class="st4" points="321.9,135.2 320.9,136.9 315.6,146.1 310.3,136.9 309.4,135.2 		"/>
	</g>
	<path class="st4" d="M396.6,72.3c-8.7-6.2-18.9-9.8-29.8-9.8c-22,0-41.2,14.6-51.1,36c-9.9-21.4-29.1-36-51.1-36
		c-10.9,0-21.1,3.6-29.8,9.8c16.8-32.1,46.8-53.6,80.9-53.6S379.8,40.2,396.6,72.3z"/>
</g>
<g>
	<path class="st4" d="M320.9,392.4l-2,2.1h-6.8l-2-2.1c-75.2-80.5-104.4-139.6-86.9-175.6c8.6-17.7,26.3-25.7,40.8-29.4
		c9.5-2.4,17.6-2.9,20.9-3c0.5,0.2,1,0.4,1.6,0.6v11.7c0,0-0.7,0-1.7,0.1c-7.7,0.4-39,3.4-49.6,25.2c-10.2,21.1-4.3,65.5,80.3,157.4
		c84.6-92,90.5-136.3,80.3-157.4c-10.5-21.8-41.6-24.8-49.5-25.2c-1.1-0.1-1.8-0.1-1.8-0.1l0-11.7c0.6-0.2,1.1-0.4,1.6-0.6
		c0,0,0,0,0,0c3.4,0.1,11.5,0.7,20.9,3.1c14.5,3.7,32.2,11.8,40.7,29.4C425.3,252.8,396.1,311.9,320.9,392.4z"/>
</g>
<path class="st4" d="M355.7,414.1c1.9,4.3-3.5,8.1-7.4,5.4c-9.2-6.3-20.7-10.1-33-10.1s-23.8,3.7-33,10.1c-4,2.7-9.3-1.2-7.4-5.4
	c6.6-14.8,22.2-25.2,40.4-25.2S349.1,399.3,355.7,414.1z"/>
<path class="st4" d="M196.9,254.8c-16,0-174.7-69.2-174.7-85.2s13-28.9,28.9-28.9"/>
<path class="st4" d="M194.5,277.2c-11.2,5.9-148,15.5-153.8,4.3s-1.5-25,9.7-30.9"/>
<path class="st4" d="M194.5,301c-6.1,6.9-97,49.1-103.9,42.9c-6.9-6.1-7.6-16.7-1.4-23.6"/>
<path class="st4" d="M434.3,254.8c16,0,174.7-69.2,174.7-85.2s-13-28.9-28.9-28.9"/>
<path class="st4" d="M436.7,277.2c11.2,5.9,148,15.5,153.8,4.3s1.5-25-9.7-30.9"/>
<path class="st4" d="M436.7,301c6.1,6.9,97,49.1,103.9,42.9c6.9-6.1,7.6-16.7,1.4-23.6"/>
<path class="st0" d="M308.8,228.3h13.6c0.6,0,1.1,0.5,1.1,1.1v124.5c0,0.6-0.5,1.1-1.1,1.1h-13.6c-0.6,0-1.1-0.5-1.1-1.1V229.4
	C307.7,228.8,308.2,228.3,308.8,228.3z"/>
</svg>
