<?xml version="1.0" encoding="utf-8"?>
<!-- Generator: Adobe Illustrator 24.1.1, SVG Export Plug-In . SVG Version: 6.00 Build 0)  -->
<svg version="1.1" id="Vrstva_1" xmlns="http://www.w3.org/2000/svg" xmlns:xlink="http://www.w3.org/1999/xlink" x="0px" y="0px"
	 viewBox="0 0 1032 835" style="enable-background:new 0 0 1032 835;" xml:space="preserve">
<style type="text/css">
	.st0{fill:#FF00FF;}
	.st1{fill:#FFFFFF;}
	.st2{fill:#3C3C3C;}
	.st3{fill:none;stroke:#3C3C3C;stroke-width:4.7352;stroke-miterlimit:10;}
	.st4{fill:#E13D58;}
</style>
<path class="st0" d="M576,149.5c0,14.6-26.9,106.5-60,106.5s-60-92-60-106.5c0-14.6,26.9-26.5,60-26.5S576,134.9,576,149.5z"/>
<path class="st1" d="M514,123c35.9,0,65,12.9,65,27.5S549.9,256,514,256"/>
<path class="st1" d="M517,256c-34.8,0-63-91-63-105.5c0-14.6,28.2-27.5,63-27.5"/>
<circle class="st1" cx="516" cy="70.4" r="60"/>
<g>
	<path class="st2" d="M95.1,509.2v38.9c0,6,0.6,10.3,1.9,13.1c1.3,2.8,3.5,4.6,6.7,5.5c3.2,0.9,8.3,1.4,15.3,1.6v4.9
		c-18.4-0.4-32-0.7-41-0.7c-7.5,0-16.9,0.1-28.2,0.4l-7.2,0.2v-4.5c4.9-0.3,8.5-0.9,10.9-1.8c2.3-0.9,3.9-2.6,4.7-5.1
		c0.8-2.5,1.2-6.6,1.2-12.3v-111c0-5.7-0.4-9.8-1.2-12.3c-0.8-2.5-2.4-4.3-4.7-5.1c-2.3-0.9-5.9-1.5-10.9-1.8v-4.5
		c7.6,0.4,18.9,0.7,34,0.7l24.8-0.2c3-0.1,6.4-0.2,10.3-0.2c20.1,0,35.5,4,46.1,12c10.6,8,15.9,18.7,15.9,32.1
		c0,8.2-2.1,16.1-6.3,23.6c-4.2,7.5-11.2,13.8-21.1,18.9c-9.9,5.1-23.1,7.6-39.5,7.6H95.1z M100.1,420.8c-1.9,1-3.2,2.9-3.9,5.6
		c-0.7,2.7-1.1,6.7-1.1,12.1v66.2h9.6c12.1,0,20.4-3.9,25.1-11.6c4.6-7.8,6.9-18.3,6.9-31.6c0-14.5-2.1-25.1-6.4-32
		c-4.3-6.9-11.4-10.3-21.4-10.3C104.9,419.3,102,419.8,100.1,420.8z"/>
	<path class="st2" d="M316.6,414.1c4.6,1.5,9.3,3.7,14.1,6.5c1.6,0.9,3.1,1.6,4.4,2.2c1.3,0.6,2.4,0.9,3.2,0.9
		c1.3,0,2.4-0.8,3.1-2.3c0.7-1.6,1.3-4.1,1.8-7.5h5.1c-0.7,10-1.1,27-1.1,51h-5.1c-0.6-8.1-2.4-15.7-5.5-23
		c-3.1-7.3-7.4-13.2-13-17.8c-5.6-4.6-12.1-6.8-19.6-6.8c-7.3,0-13.2,2.1-17.8,6.2c-4.6,4.1-6.8,9.7-6.8,16.7
		c0,5.2,1.1,9.8,3.4,13.7c2.2,3.9,5.4,7.4,9.4,10.6c4,3.2,10.2,7.6,18.6,13.1l7.2,4.9c8.8,5.8,15.7,10.9,20.8,15.2
		c5.1,4.3,9.2,9.4,12.4,15.1c3.2,5.7,4.8,12.4,4.8,20c0,9.5-2.5,17.6-7.4,24.1c-4.9,6.5-11.6,11.4-20,14.7
		c-8.4,3.3-17.8,4.9-28.1,4.9c-8.4,0-15.3-0.7-20.8-2.2c-5.5-1.5-10.6-3.5-15.2-6c-3.3-2.1-5.8-3.1-7.6-3.1c-1.3,0-2.4,0.8-3.1,2.4
		c-0.7,1.6-1.3,4.1-1.8,7.5h-5.1c0.6-9.4,0.9-29.5,0.9-60.4h5.1c1,16.7,4.8,30.2,11.2,40.6s16.3,15.5,29.5,15.5
		c8.1,0,14.7-2.2,19.9-6.5c5.2-4.3,7.8-10.5,7.8-18.6c0-8.4-2.7-15.5-8.1-21.5c-5.4-6-13.9-12.7-25.5-20.1
		c-9-5.8-16.1-10.9-21.5-15.2c-5.4-4.3-9.8-9.4-13.2-15.3c-3.4-5.9-5.1-12.7-5.1-20.5c0-9,2.3-16.5,6.8-22.7
		c4.5-6.2,10.6-10.8,18.2-13.8c7.6-3,16-4.5,25.1-4.5C305.8,411.9,312,412.6,316.6,414.1z"/>
	<path class="st2" d="M551.5,421.3c11.9,6.4,21.1,15.7,27.6,27.9c6.6,12.2,9.8,26.7,9.8,43.5c0,16.4-3.4,31-10.1,43.6
		c-6.7,12.7-16.1,22.5-28.1,29.5c-12,7-25.7,10.5-41.1,10.5c-15.8,0-29.7-3.2-41.5-9.6c-11.9-6.4-21.1-15.7-27.6-27.9
		c-6.6-12.2-9.8-26.7-9.8-43.5c0-16.4,3.4-31,10.1-43.6c6.7-12.7,16.1-22.5,28.1-29.5c12-7,25.7-10.5,41.1-10.5
		C525.8,411.7,539.6,414.9,551.5,421.3z M487.4,425.7c-6.3,6.6-11.1,15.9-14.4,27.9c-3.4,11.9-5,25.6-5,41c0,15.5,1.9,29.2,5.7,41
		c3.8,11.8,9,20.9,15.4,27.3c6.5,6.4,13.7,9.6,21.6,9.6c8.2,0,15.4-3.3,21.7-10c6.3-6.6,11.1-15.9,14.4-27.9c3.4-11.9,5-25.6,5-41
		c0-15.5-1.9-29.2-5.7-41c-3.8-11.8-9-20.9-15.4-27.3c-6.5-6.4-13.7-9.6-21.6-9.6C500.9,415.7,493.6,419,487.4,425.7z"/>
	<path class="st2" d="M801.3,414.8v4.5c-3.7,1.3-7.4,4.2-11,8.5c-3.6,4.3-6.8,10.4-9.6,18.1l-47.2,127.8c-1.6-0.1-4.3-0.2-7.8-0.2
		c-3.4,0-6,0.1-7.6,0.2L661,433.6c-1.9-4.9-4.2-8.5-6.7-10.7c-2.5-2.2-5-3.4-7.4-3.6v-4.5c9,0.4,20.3,0.7,34,0.7
		c15.4,0,26.7-0.2,34-0.7v4.5c-5.7,0.3-9.7,1-12.1,2c-2.4,1-3.6,3.1-3.6,6.3c0,2.5,0.9,6,2.7,10.5l39.4,100.2l27.5-74.3
		c4.2-11.5,6.3-20.6,6.3-27.3c0-6-1.6-10.3-4.8-13c-3.2-2.7-7.9-4.2-14-4.5v-4.5c10.1,0.4,19.5,0.7,28,0.7
		C791.2,415.5,796.8,415.2,801.3,414.8z"/>
	<path class="st2" d="M981.9,565.2c2.5,2.2,5,3.4,7.4,3.6v4.5c-9-0.4-20.3-0.7-34-0.7c-15.2,0-26.6,0.2-34,0.7v-4.5
		c5.7-0.3,9.7-1,12.1-2.1c2.4-1.1,3.6-3.1,3.6-5.9c0-2.7-0.9-6.3-2.7-10.7l-13.4-36.7H872l-5.8,15.4c-4.2,10.7-6.3,19-6.3,24.8
		c0,5.5,1.7,9.4,5,11.5c3.4,2.2,8.3,3.4,14.9,3.7v4.5c-10.1-0.4-19.4-0.7-27.7-0.7c-6.9,0-12.5,0.2-17,0.7v-4.5
		c7.3-1.3,13.7-9.2,19.2-23.5l51-130.9c1.6,0.2,4.3,0.2,7.8,0.2c3.6,0,6.1-0.1,7.6-0.2l54.4,140.1
		C977.1,559.4,979.4,562.9,981.9,565.2z M919.2,508.8l-22.2-60.4l-23.3,60.4H919.2z"/>
</g>
<g>
	<g>
		<path class="st2" d="M18.8,757.8c-0.4,0-0.8-0.1-1.1-0.1c-0.3-0.1-0.5-0.3-0.5-0.6c0-0.5,0.6-0.9,1.7-1.1c1.5-0.3,2.6-0.7,3.3-1.3
			c0.7-0.6,1-1.6,1-3v-26c0-1.7-0.2-3-0.7-3.8c-0.5-0.8-1.4-1.4-2.9-1.7c-0.6-0.1-1.1-0.3-1.4-0.5c-0.3-0.2-0.4-0.4-0.4-0.7
			c0-0.2,0.1-0.4,0.5-0.6c0.3-0.1,0.7-0.2,1.1-0.2c1,0,1.9,0,2.6,0c0.7,0,1.3,0.1,2,0.1c0.6,0,1.4,0.1,2.2,0.1c0.8,0,1.7,0,2.5-0.1
			c0.8-0.1,1.6-0.2,2.4-0.2c0.8-0.1,1.6-0.1,2.4-0.1c4.7,0,8.5,1,11.3,3c2.8,2,4.2,4.7,4.2,8.1c0,2.5-0.5,4.7-1.5,6.8
			c-1,2.1-2.5,3.8-4.6,5c-2,1.3-4.7,1.9-7.8,1.9c-0.9,0-1.6-0.1-2.1-0.4s-0.8-0.6-0.8-0.8c0-0.2,0.1-0.5,0.4-0.6
			c0.2-0.2,0.5-0.3,0.7-0.3c0.3,0,0.6,0,1,0.1c0.4,0.1,0.9,0.1,1.7,0.1c2.2,0,3.8-1,4.9-3c1.1-2,1.7-4.6,1.7-8s-0.8-5.9-2.5-7.4
			c-1.7-1.6-3.8-2.4-6.5-2.4c-1.1,0-2,0.2-2.7,0.6c-0.7,0.4-1,1.1-1,2.1l-0.1,28.5c0,1.4,0.3,2.4,1,3.2c0.6,0.8,1.7,1.3,3.3,1.6
			c0.6,0.1,1,0.3,1.3,0.4c0.3,0.2,0.5,0.4,0.5,0.7c0,0.2-0.1,0.4-0.4,0.5c-0.3,0.1-0.7,0.2-1.1,0.2c-1,0-1.9,0-2.7-0.1
			c-0.8-0.1-1.5-0.1-2.2-0.2c-0.7-0.1-1.4-0.1-2.2-0.1c-1,0-1.9,0-2.7,0.1c-0.9,0.1-1.7,0.1-2.6,0.2
			C20.8,757.7,19.9,757.8,18.8,757.8z"/>
		<path class="st2" d="M69.1,758.4c-1.7,0-3.3-0.2-4.8-0.7c-1.5-0.5-2.9-1.2-4.1-2.1c-0.2-0.2-0.3-0.4-0.5-0.6
			c-0.2-0.2-0.3-0.5-0.4-0.7c-0.3-0.9-0.5-2.1-0.6-3.5s-0.2-2.6-0.2-3.7c0-0.3,0.1-0.5,0.4-0.6c0.2-0.1,0.5-0.2,0.8-0.2
			c0.3,0,0.5,0,0.7,0.1c0.2,0.1,0.3,0.3,0.4,0.6c0.8,3.1,2.1,5.3,3.7,6.8c1.6,1.5,3.4,2.3,5.4,2.3c1.4,0,2.5-0.3,3.5-0.9
			c1-0.6,1.8-1.4,2.3-2.4c0.6-1,0.8-2.2,0.8-3.5c0-1.5-0.3-2.8-0.8-3.7c-0.5-1-1.3-1.8-2.3-2.6c-1-0.8-2.3-1.6-3.7-2.5
			c-1.6-1-3.2-2-4.7-3c-1.6-1-2.8-2.3-3.8-3.7c-1-1.4-1.5-3.1-1.5-5.2c0-2.2,0.5-4.1,1.5-5.8c1-1.7,2.5-3,4.5-4c2-1,4.3-1.5,7.1-1.5
			c1.4,0,2.8,0.2,3.9,0.5c1.2,0.3,2.1,0.6,2.9,0.9c0.4,0.1,0.7,0.3,0.9,0.6c0.2,0.3,0.4,0.6,0.5,1c0.2,0.8,0.4,1.8,0.7,3
			c0.2,1.1,0.4,2.3,0.4,3.4c0,0.4-0.3,0.7-1,0.7c-0.4,0-0.7-0.1-1-0.2c-0.3-0.2-0.5-0.4-0.6-0.6c-0.8-2.3-1.8-4-3-5.1
			c-1.2-1.2-2.7-1.7-4.5-1.7c-1.2,0-2.3,0.2-3.3,0.6c-1,0.4-1.8,1.1-2.4,2.1c-0.6,0.9-0.9,2.2-0.9,3.7c0,1.1,0.4,2.1,1.1,3
			c0.7,0.9,1.7,1.8,3,2.7c1.3,0.9,2.7,1.8,4.3,2.7c1.6,1,3.1,2,4.5,3.1c1.3,1.1,2.4,2.3,3.1,3.7c0.8,1.4,1.1,3,1.1,5
			c0,2.5-0.6,4.7-1.7,6.5c-1.1,1.8-2.7,3.1-4.7,4.1C74.2,758,71.8,758.4,69.1,758.4z"/>
		<path class="st2" d="M102.3,757.8c-0.5,0-0.9-0.1-1.3-0.2c-0.3-0.1-0.5-0.3-0.5-0.5c0-0.3,0.2-0.6,0.5-0.8
			c0.3-0.2,0.8-0.3,1.4-0.5c1.5-0.3,2.7-0.8,3.4-1.6c0.7-0.8,1.1-1.9,1.1-3.3v-8.7c0-1-0.2-2-0.6-2.9c-0.4-0.9-0.7-1.7-1-2.1
			l-7.3-11.7c-0.3-0.5-0.8-1.2-1.3-1.9c-0.5-0.8-1.1-1.5-1.8-2.1c-0.6-0.6-1.3-1.1-2.1-1.3c-0.6-0.2-1-0.4-1.3-0.6
			c-0.3-0.2-0.5-0.4-0.5-0.8c0-0.3,0.1-0.5,0.5-0.6c0.3-0.1,0.7-0.1,1.1-0.1c1.2,0,2.5,0,3.8,0.1c1.3,0.1,2.7,0.1,4.2,0.1
			c1.1,0,2.1,0,3-0.1c0.9-0.1,1.9-0.1,2.7-0.1c0.5,0,0.9,0.1,1.2,0.2c0.3,0.1,0.5,0.3,0.5,0.5c0,0.3-0.2,0.6-0.5,0.8
			c-0.3,0.2-0.8,0.3-1.4,0.5c-0.8,0.2-1.3,0.4-1.7,0.6c-0.4,0.2-0.6,0.6-0.6,1.1c0,0.6,0.2,1.3,0.7,2.2l5.8,10.4
			c0.6,1.2,1.1,1.8,1.5,1.8c0.2,0,0.4-0.1,0.7-0.4c0.2-0.3,0.6-0.7,1-1.4c1-1.5,1.8-3,2.6-4.4c0.8-1.4,1.6-3,2.6-4.8
			c0.3-0.6,0.6-1.1,0.7-1.6c0.2-0.5,0.2-0.9,0.2-1.2c0-0.8-0.3-1.4-0.9-1.7c-0.6-0.3-1.2-0.5-1.9-0.5c-0.4-0.1-0.8-0.2-1.3-0.5
			c-0.4-0.2-0.7-0.5-0.7-0.8c0-0.2,0.2-0.4,0.5-0.5c0.3-0.1,0.8-0.2,1.2-0.2c1,0,1.9,0,2.6,0.1c0.7,0,1.5,0.1,2.5,0.1
			c1.2,0,2.3,0,3.4-0.1c1.1-0.1,2-0.1,2.8-0.1c0.5,0,1,0.1,1.3,0.1c0.3,0.1,0.5,0.3,0.5,0.6c0,0.3-0.3,0.5-0.8,0.8
			c-0.6,0.2-1.2,0.4-1.9,0.6c-1.1,0.3-2.1,0.8-2.8,1.7c-0.7,0.8-1.6,1.9-2.5,3.3c-0.7,1.2-1.4,2.2-2,3.1c-0.6,0.9-1.1,1.8-1.6,2.6
			c-0.5,0.8-1,1.6-1.5,2.5c-0.5,0.8-1.1,1.8-1.8,3c-0.4,0.7-0.8,1.4-1,1.9c-0.2,0.5-0.4,1.1-0.4,1.6c-0.1,0.5-0.1,1.2-0.1,2v9
			c0,1.4,0.4,2.5,1.1,3.3c0.7,0.8,1.9,1.3,3.4,1.7c0.6,0.1,1.1,0.3,1.4,0.4c0.3,0.2,0.5,0.4,0.5,0.7c0,0.3-0.2,0.5-0.5,0.6
			c-0.3,0.1-0.7,0.2-1.3,0.2c-1,0-1.9,0-2.7-0.1c-0.8-0.1-1.6-0.1-2.4-0.2c-0.8-0.1-1.6-0.1-2.5-0.1c-0.9,0-1.8,0-2.7,0.1
			c-0.8,0.1-1.7,0.1-2.6,0.2C104.3,757.8,103.3,757.8,102.3,757.8z"/>
		<path class="st2" d="M156.7,758.4c-2.9,0-5.7-0.5-8.3-1.4c-2.7-1-5-2.3-7.1-4.1c-2-1.8-3.7-3.9-4.9-6.4c-1.2-2.5-1.8-5.3-1.8-8.3
			c0-2.9,0.6-5.5,1.8-8.1c1.2-2.5,2.9-4.7,5-6.6c2.1-1.9,4.7-3.3,7.5-4.4c2.9-1.1,5.9-1.6,9.3-1.6c1.5,0,2.8,0.1,4,0.2
			c1.2,0.1,2.3,0.3,3.4,0.6c1.1,0.2,2.3,0.6,3.5,1c0.5,0.2,0.9,0.4,1.2,0.7s0.4,0.7,0.5,1.3c0.1,1,0.2,2.1,0.3,3.3s0.2,2.4,0.2,3.7
			c0,0.4-0.1,0.6-0.5,0.8c-0.3,0.2-0.6,0.2-1,0.1c-0.4-0.1-0.6-0.4-0.7-0.8c-0.4-1.3-0.8-2.5-1.3-3.6c-0.5-1-1.2-1.9-2.1-2.6
			c-0.9-0.7-2.1-1.3-3.5-1.7c-1.4-0.4-3-0.6-4.8-0.6c-2.3,0-4.3,0.5-6.2,1.4c-1.9,0.9-3.5,2.2-4.8,3.8c-1.3,1.6-2.4,3.4-3.1,5.4
			c-0.7,2-1.1,4.1-1.1,6.3c0,2.5,0.4,5,1.1,7.3c0.7,2.3,1.7,4.4,3.1,6.2c1.3,1.8,3,3.2,4.9,4.3c1.9,1.1,4.1,1.6,6.5,1.6
			c2.9,0,5.3-0.7,7.2-2c1.9-1.3,3.5-3.2,4.8-5.6c0.3-0.6,0.7-0.8,1.3-0.8c0.6,0,0.8,0.3,0.8,1c0,0.4-0.1,1-0.2,1.7
			c-0.1,0.7-0.3,1.5-0.6,2.3c-0.2,0.8-0.5,1.6-0.7,2.3c-0.2,0.5-0.5,0.9-0.7,1.1c-0.2,0.2-0.6,0.4-1.1,0.6c-1.5,0.6-3.3,1.1-5.4,1.4
			C161,758.3,158.8,758.4,156.7,758.4z"/>
		<path class="st2" d="M184.4,757.8c-0.4,0-0.8-0.1-1.1-0.2s-0.4-0.3-0.4-0.6c0-0.5,0.6-0.8,1.7-1.1c1.5-0.3,2.5-0.7,3-1.3
			c0.5-0.6,0.7-1.6,0.7-3v-27.3c0-1.4-0.2-2.3-0.5-2.9c-0.4-0.6-1.3-1-2.8-1.3c-1.2-0.2-1.7-0.6-1.7-1.1c0-0.2,0.1-0.4,0.4-0.6
			c0.3-0.2,0.6-0.2,1.1-0.2c1,0,1.9,0,2.7,0.1c0.7,0,1.4,0.1,2.1,0.1s1.4,0.1,2.2,0.1c0.8,0,1.6,0,2.3,0c0.7,0,1.4,0,2.2-0.1
			c0.8,0,1.7-0.1,2.7-0.1c1,0,1.6,0.3,1.6,0.8c0,0.3-0.1,0.6-0.5,0.7c-0.3,0.2-0.7,0.3-1.3,0.4c-1.5,0.4-2.6,0.9-3.2,1.5
			c-0.6,0.6-0.9,1.6-0.9,2.7v11.5c0,0.3,0.1,0.5,0.3,0.5c0.2,0.1,0.4,0.1,0.6,0.1h20.1c0.4,0,0.5-0.3,0.5-0.8v-11.4
			c0-1.1-0.3-2-0.8-2.7c-0.5-0.7-1.6-1.2-3.2-1.5c-0.6-0.1-1-0.3-1.3-0.4c-0.3-0.2-0.4-0.4-0.4-0.7c0-0.5,0.5-0.8,1.5-0.8
			c1,0,1.9,0,2.8,0.1c0.8,0,1.7,0.1,2.4,0.1c0.8,0,1.6,0,2.4,0c0.8,0,1.4,0,2-0.1s1.2-0.1,1.9-0.1s1.5-0.1,2.6-0.1
			c0.5,0,0.9,0.1,1.1,0.2c0.3,0.2,0.4,0.4,0.4,0.6c0,0.5-0.6,0.9-1.7,1.1c-1.5,0.3-2.4,0.8-2.8,1.4c-0.4,0.6-0.5,1.5-0.5,2.7v27.3
			c0,1.4,0.2,2.4,0.6,3c0.4,0.6,1.4,1,2.8,1.3c1.1,0.2,1.7,0.6,1.7,1.1c0,0.2-0.1,0.4-0.4,0.6c-0.3,0.1-0.7,0.2-1.1,0.2
			c-1,0-1.8,0-2.6-0.1c-0.7-0.1-1.5-0.1-2.1-0.1c-0.7,0-1.4-0.1-2.2-0.1c-0.8,0-1.6,0-2.3,0.1c-0.7,0-1.5,0.1-2.3,0.1
			c-0.8,0.1-1.7,0.1-2.7,0.1c-0.5,0-0.9-0.1-1.1-0.2c-0.3-0.1-0.4-0.3-0.4-0.6c0-0.3,0.1-0.6,0.4-0.7c0.3-0.1,0.7-0.3,1.3-0.4
			c1.4-0.3,2.4-0.7,3.1-1.4c0.7-0.6,1-1.6,1-2.8V740c0-0.2,0-0.4-0.1-0.6c0-0.2-0.2-0.3-0.4-0.3h-20.6c-0.3,0-0.5,0.2-0.5,0.7v11.4
			c0,1.2,0.4,2.2,1.2,3c0.8,0.8,1.9,1.3,3.3,1.6c0.6,0.1,1,0.3,1.3,0.4c0.3,0.1,0.4,0.4,0.4,0.7c0,0.2-0.1,0.4-0.4,0.6
			c-0.3,0.1-0.7,0.2-1.1,0.2c-1,0-1.9,0-2.8-0.1c-0.8-0.1-1.7-0.1-2.4-0.1c-0.8,0-1.6-0.1-2.5-0.1c-0.8,0-1.6,0-2.3,0.1
			c-0.7,0-1.5,0.1-2.3,0.1C186.3,757.7,185.4,757.8,184.4,757.8z"/>
		<path class="st2" d="M258.4,758.4c-2.7,0-5.3-0.5-7.7-1.4c-2.4-0.9-4.6-2.3-6.5-4c-1.9-1.7-3.4-3.8-4.5-6.3
			c-1.1-2.4-1.7-5.1-1.7-8.1c0-2.7,0.4-5.4,1.4-7.9c0.9-2.5,2.2-4.8,4-6.7c1.7-2,3.9-3.5,6.5-4.7c2.6-1.2,5.6-1.7,9-1.7
			c2.7,0,5.3,0.5,7.7,1.4c2.4,0.9,4.6,2.3,6.5,4c1.9,1.7,3.4,3.8,4.5,6.3c1.1,2.4,1.7,5.1,1.7,8.1c0,2.7-0.5,5.3-1.4,7.8
			c-0.9,2.5-2.2,4.8-4,6.8c-1.7,2-3.9,3.5-6.5,4.7C264.8,757.8,261.8,758.4,258.4,758.4z M259.3,755.8c2.8,0,5.2-0.7,7-2
			c1.9-1.3,3.3-3.1,4.2-5.5c0.9-2.3,1.4-5,1.4-8.1c0-2.7-0.3-5.2-0.9-7.7c-0.6-2.4-1.5-4.6-2.6-6.5c-1.2-1.9-2.6-3.4-4.4-4.5
			c-1.8-1.1-3.8-1.6-6.2-1.6c-2.7,0-5,0.6-6.9,1.9s-3.3,3.1-4.2,5.4c-0.9,2.3-1.4,5-1.4,8c0,2.7,0.3,5.3,0.8,7.7
			c0.6,2.4,1.4,4.6,2.6,6.5c1.2,1.9,2.6,3.4,4.4,4.5C254.9,755.3,257,755.8,259.3,755.8z"/>
		<path class="st2" d="M290.7,757.8c-0.4,0-0.8-0.1-1.1-0.2c-0.3-0.2-0.4-0.3-0.4-0.5c0-0.3,0.2-0.6,0.5-0.8
			c0.3-0.2,0.6-0.3,0.8-0.3c1.5-0.4,2.7-0.8,3.4-1.4c0.7-0.6,1.1-1.5,1.1-2.8v-27.8c0-1-0.1-1.7-0.3-2.1c-0.2-0.5-0.6-0.8-1.1-1.1
			c-0.5-0.2-1.3-0.5-2.3-0.7c-1.2-0.2-1.7-0.6-1.7-1.2c0-0.3,0.2-0.5,0.5-0.6c0.3-0.1,0.7-0.2,1.1-0.2c1,0,1.9,0,2.7,0.1
			c0.8,0,1.6,0.1,2.3,0.1s1.5,0.1,2.4,0.1c0.9,0,1.8,0,2.7,0c0.8,0,1.7,0,2.6-0.1c0.9,0,1.8-0.1,2.8-0.1c0.5,0,0.9,0,1.1,0.1
			c0.3,0.1,0.4,0.3,0.4,0.6c0,0.3-0.1,0.6-0.4,0.8c-0.3,0.2-0.7,0.3-1.3,0.4c-1.5,0.4-2.7,0.8-3.6,1.2c-0.9,0.4-1.3,1.2-1.3,2.4
			v27.9c0,1.2,0.3,2.1,0.8,2.7c0.5,0.5,1.7,0.8,3.3,0.8h7c1,0,2-0.2,2.7-0.5c0.8-0.3,1.4-0.7,1.8-1.1c0.8-0.7,1.4-1.3,1.8-2
			c0.4-0.6,0.9-1.5,1.4-2.5c0.2-0.4,0.4-0.9,0.7-1.3c0.2-0.4,0.5-0.6,0.8-0.6c0.3,0,0.5,0.1,0.6,0.4c0.1,0.3,0.2,0.5,0.2,0.8
			c0,0.1,0,0.2-0.1,0.3c0,0.1-0.1,0.2-0.1,0.4c-0.3,1.1-0.5,2-0.8,2.9c-0.2,0.8-0.4,1.6-0.6,2.4s-0.3,1.6-0.3,2.5
			c0,0.3-0.1,0.5-0.2,0.8c-0.1,0.2-0.3,0.3-0.7,0.3c-1.6,0-3.2,0-5-0.1c-1.8,0-3.6-0.1-5.4-0.1c-1.8,0-3.6,0-5.3-0.1
			c-1.7,0-3.4-0.1-5-0.1c-1,0-2,0-3.2,0.1c-1.2,0-2.3,0.1-3.3,0.2C291.5,757.8,290.9,757.8,290.7,757.8z"/>
		<path class="st2" d="M351.6,758.4c-2.7,0-5.3-0.5-7.7-1.4c-2.4-0.9-4.6-2.3-6.5-4c-1.9-1.7-3.4-3.8-4.5-6.3
			c-1.1-2.4-1.7-5.1-1.7-8.1c0-2.7,0.4-5.4,1.4-7.9c0.9-2.5,2.2-4.8,4-6.7c1.7-2,3.9-3.5,6.5-4.7c2.6-1.2,5.6-1.7,9-1.7
			c2.7,0,5.3,0.5,7.7,1.4c2.4,0.9,4.6,2.3,6.5,4c1.9,1.7,3.4,3.8,4.5,6.3c1.1,2.4,1.7,5.1,1.7,8.1c0,2.7-0.5,5.3-1.4,7.8
			c-0.9,2.5-2.2,4.8-4,6.8c-1.7,2-3.9,3.5-6.5,4.7C358.1,757.8,355,758.4,351.6,758.4z M352.6,755.8c2.8,0,5.2-0.7,7-2
			c1.9-1.3,3.3-3.1,4.2-5.5c0.9-2.3,1.4-5,1.4-8.1c0-2.7-0.3-5.2-0.9-7.7c-0.6-2.4-1.5-4.6-2.6-6.5c-1.2-1.9-2.6-3.4-4.4-4.5
			c-1.8-1.1-3.8-1.6-6.2-1.6c-2.7,0-5,0.6-6.9,1.9c-1.9,1.3-3.3,3.1-4.2,5.4c-0.9,2.3-1.4,5-1.4,8c0,2.7,0.3,5.3,0.8,7.7
			c0.6,2.4,1.4,4.6,2.6,6.5c1.2,1.9,2.6,3.4,4.4,4.5C348.2,755.3,350.2,755.8,352.6,755.8z"/>
		<path class="st2" d="M404.7,758.4c-2.8,0-5.5-0.5-8-1.4c-2.5-1-4.7-2.3-6.7-4.1c-2-1.8-3.5-3.9-4.6-6.3c-1.1-2.4-1.7-5-1.7-7.8
			c0-2.9,0.6-5.6,1.7-8.2c1.1-2.6,2.7-4.8,4.8-6.8c2.1-1.9,4.4-3.4,7.1-4.6c2.7-1.1,5.7-1.7,8.8-1.7c0.7,0,1.7,0.1,2.8,0.2
			c1.1,0.1,2.3,0.3,3.6,0.5c1.2,0.2,2.4,0.4,3.4,0.7c1,0.2,1.8,0.5,2.3,0.7c0.2,0.1,0.4,0.2,0.5,0.3s0.2,0.4,0.2,0.6
			c0.2,1.2,0.3,2.5,0.4,3.6c0.1,1.2,0.2,2.2,0.2,3c0,0.3-0.1,0.6-0.3,0.8c-0.2,0.2-0.4,0.4-0.6,0.4c-0.4,0-0.8-0.2-1-0.5
			c-0.2-0.3-0.4-0.7-0.5-1c-0.3-0.7-0.6-1.3-0.9-1.9c-0.3-0.6-0.8-1.2-1.3-1.8c-0.3-0.4-0.9-0.8-1.6-1.3c-0.7-0.5-1.7-0.9-2.9-1.2
			c-1.2-0.4-2.6-0.5-4.4-0.5c-2.3,0-4.4,0.5-6.2,1.4c-1.8,0.9-3.4,2.2-4.7,3.9c-1.3,1.6-2.3,3.5-3,5.6c-0.7,2.1-1,4.3-1,6.6
			c0,2.8,0.4,5.3,1.1,7.6s1.8,4.2,3.1,5.7c1.3,1.6,2.8,2.8,4.6,3.6c1.8,0.8,3.6,1.2,5.6,1.2c1.9,0,3.3-0.2,4.3-0.7
			c0.9-0.5,1.6-0.9,2-1.2c0.4-0.4,0.8-1,1.2-1.8c0.3-0.8,0.5-1.7,0.5-2.6c0-0.4,0-0.8,0-1.3c0-0.5,0-1,0.1-1.5c0-0.5,0-0.9,0-1.3
			c0-0.4,0-0.8-0.1-1.1c-0.1-0.3-0.3-0.6-0.5-0.8c-0.4-0.4-0.9-0.7-1.6-0.9c-0.7-0.2-1.4-0.4-2-0.5c-0.7-0.1-1.2-0.2-1.6-0.2
			c-0.2,0-0.5-0.1-0.8-0.3c-0.3-0.2-0.5-0.5-0.5-0.8c0-0.3,0.2-0.5,0.5-0.7c0.3-0.2,0.6-0.3,0.8-0.3c1,0,1.9,0,2.7,0.1
			c0.9,0,1.7,0.1,2.6,0.1c0.9,0,1.8,0.1,2.8,0.1c1,0,2,0,3-0.1c0.9-0.1,2-0.1,3.1-0.1c0.2,0,0.4,0.1,0.7,0.2s0.4,0.4,0.4,0.8
			c0,0.3-0.2,0.6-0.5,0.8c-0.3,0.2-0.6,0.3-0.8,0.4c-1,0.3-1.6,0.6-2,1.1c-0.4,0.4-0.6,1.1-0.8,1.9c-0.1,0.9-0.2,1.7-0.2,2.4
			c0,0.7-0.1,1.4-0.1,2.2v1.7c0,0.2,0.1,0.4,0.2,0.5c0.1,0.1,0.2,0.3,0.3,0.5c0.1,0.2,0.3,0.4,0.5,0.6c0.2,0.2,0.3,0.4,0.3,0.6
			c0,0.2-0.1,0.4-0.1,0.6c-0.1,0.3-0.4,0.4-0.8,0.5c-0.3,0-0.8,0.3-1.7,0.7c-0.8,0.4-1.8,0.9-3.1,1.4c-1.2,0.5-2.7,0.9-4.3,1.3
			S406.7,758.4,404.7,758.4z"/>
		<path class="st2" d="M433.8,757.8c-0.4,0-0.8-0.1-1.1-0.1c-0.3-0.1-0.4-0.3-0.4-0.6c0-0.5,0.6-0.9,1.7-1.1
			c1.5-0.3,2.7-0.7,3.4-1.3c0.7-0.6,1.1-1.6,1.1-3v-27.3c0-1.4-0.3-2.3-0.8-2.9c-0.6-0.6-1.6-1-3.1-1.4c-1.2-0.2-1.7-0.6-1.7-1.2
			c0-0.3,0.1-0.5,0.4-0.6c0.3-0.1,0.6-0.2,1.1-0.2c1,0,2,0,2.8,0.1c0.8,0,1.6,0.1,2.4,0.1s1.6,0.1,2.5,0.1c0.8,0,1.6,0,2.4,0
			c0.7,0,1.5,0,2.3-0.1c0.8,0,1.7-0.1,2.7-0.1c0.5,0,0.9,0,1.1,0.1c0.3,0.1,0.4,0.3,0.4,0.6c0,0.3-0.1,0.6-0.5,0.8
			c-0.3,0.2-0.7,0.3-1.3,0.4c-1.6,0.4-2.7,0.8-3.3,1.4c-0.6,0.6-0.9,1.5-0.9,2.9v27.3c0,1.3,0.4,2.3,1.1,2.9s1.9,1.1,3.4,1.4
			c0.6,0.1,1,0.3,1.3,0.4c0.3,0.2,0.4,0.4,0.4,0.7c0,0.2-0.1,0.4-0.4,0.5c-0.3,0.1-0.6,0.2-1.1,0.2c-1,0-1.9,0-2.8-0.1
			c-0.8-0.1-1.7-0.1-2.4-0.1c-0.8,0-1.6-0.1-2.5-0.1c-1,0-1.9,0-2.7,0.1c-0.8,0-1.7,0.1-2.6,0.1
			C435.7,757.7,434.8,757.8,433.8,757.8z"/>
		<path class="st2" d="M482.6,758.4c-2.9,0-5.7-0.5-8.3-1.4c-2.7-1-5-2.3-7.1-4.1c-2-1.8-3.7-3.9-4.9-6.4c-1.2-2.5-1.8-5.3-1.8-8.3
			c0-2.9,0.6-5.5,1.8-8.1c1.2-2.5,2.9-4.7,5-6.6c2.1-1.9,4.7-3.3,7.5-4.4c2.9-1.1,5.9-1.6,9.3-1.6c1.5,0,2.8,0.1,4,0.2
			c1.2,0.1,2.3,0.3,3.4,0.6c1.1,0.2,2.3,0.6,3.5,1c0.5,0.2,0.9,0.4,1.2,0.7s0.4,0.7,0.5,1.3c0.1,1,0.2,2.1,0.3,3.3
			c0.1,1.1,0.2,2.4,0.2,3.7c0,0.4-0.1,0.6-0.5,0.8c-0.3,0.2-0.6,0.2-1,0.1c-0.4-0.1-0.6-0.4-0.7-0.8c-0.4-1.3-0.8-2.5-1.3-3.6
			c-0.5-1-1.2-1.9-2.1-2.6c-0.9-0.7-2.1-1.3-3.5-1.7c-1.4-0.4-3-0.6-4.8-0.6c-2.3,0-4.3,0.5-6.2,1.4c-1.9,0.9-3.5,2.2-4.8,3.8
			c-1.3,1.6-2.4,3.4-3.1,5.4c-0.7,2-1.1,4.1-1.1,6.3c0,2.5,0.4,5,1.1,7.3c0.7,2.3,1.7,4.4,3.1,6.2c1.3,1.8,3,3.2,4.9,4.3
			c1.9,1.1,4.1,1.6,6.5,1.6c2.9,0,5.3-0.7,7.2-2c1.9-1.3,3.5-3.2,4.8-5.6c0.3-0.6,0.7-0.8,1.3-0.8c0.6,0,0.8,0.3,0.8,1
			c0,0.4-0.1,1-0.2,1.7c-0.1,0.7-0.3,1.5-0.6,2.3c-0.2,0.8-0.5,1.6-0.7,2.3c-0.2,0.5-0.5,0.9-0.7,1.1c-0.2,0.2-0.6,0.4-1.1,0.6
			c-1.5,0.6-3.3,1.1-5.4,1.4C486.9,758.3,484.8,758.4,482.6,758.4z"/>
		<path class="st2" d="M510.3,757.8c-0.5,0-0.9-0.1-1.2-0.2c-0.3-0.1-0.5-0.3-0.5-0.6c0-0.5,0.6-0.9,1.9-1.1
			c1.5-0.3,2.6-0.7,3.1-1.4c0.5-0.6,0.8-1.6,0.8-3v-27.2c0-1.4-0.3-2.3-0.8-2.9c-0.6-0.6-1.6-1-3.2-1.3c-1.2-0.2-1.7-0.6-1.7-1.2
			c0-0.3,0.1-0.5,0.4-0.6c0.3-0.1,0.7-0.2,1.1-0.2c1,0,2,0,2.7,0.1c0.8,0,1.5,0.1,2.3,0.1c0.7,0,1.5,0,2.4,0c0.8,0,1.5,0,2.1,0
			c0.7,0,1.4,0,2.1-0.1c0.7,0,1.6,0,2.6,0c0.5,0,0.9,0,1.1,0.1c0.3,0.1,0.4,0.3,0.4,0.6c0,0.3-0.1,0.6-0.4,0.8
			c-0.3,0.2-0.7,0.3-1.3,0.4c-1.5,0.4-2.5,0.9-2.9,1.5s-0.6,1.6-0.6,2.7v11.6c0,0.2,0,0.4,0.1,0.7c0.1,0.3,0.2,0.4,0.3,0.4
			c0.2,0,0.5-0.1,0.8-0.3c0.3-0.2,0.6-0.5,0.8-0.7l11.9-12.4c0.3-0.4,0.6-0.7,0.8-1c0.2-0.3,0.3-0.6,0.3-0.9c0-0.8-0.5-1.3-1.6-1.5
			c-0.6-0.2-1-0.3-1.3-0.5c-0.3-0.2-0.4-0.4-0.4-0.8c0-0.2,0.1-0.4,0.5-0.5c0.3-0.1,0.7-0.2,1.1-0.2h3.6c1.2,0,2.6,0,3.9-0.1
			c1.4,0,2.7-0.1,3.9-0.1c1.2,0,2.1-0.1,2.8-0.1c0.4,0,0.7,0.1,1,0.2c0.3,0.1,0.4,0.3,0.4,0.5c0,0.3-0.2,0.6-0.5,0.8
			c-0.3,0.2-0.8,0.4-1.4,0.5c-1.6,0.3-3.3,0.7-4.8,1.4c-1.6,0.6-3,1.5-4.3,2.5c-1.4,1.1-2.7,2.3-3.9,3.4c-1.2,1.1-2.4,2.3-3.6,3.5
			c-1.2,1.2-2.4,2.5-3.8,4c-0.4,0.3-0.3,0.8,0.2,1.3l14.5,15.7c0.8,0.8,1.4,1.5,2,2c0.5,0.5,1.2,0.9,1.8,1.3
			c0.7,0.3,1.6,0.6,2.7,0.9c0.6,0.2,1.1,0.3,1.4,0.5c0.4,0.1,0.5,0.4,0.5,0.7c0,0.2-0.2,0.4-0.5,0.6c-0.4,0.1-0.8,0.2-1.4,0.2
			c-1.2,0-2.2,0-3.2-0.1c-1-0.1-1.9-0.1-2.8-0.2c-0.9-0.1-2-0.1-3.2-0.1c-1,0-1.8,0-2.6,0.1c-0.8,0.1-1.8,0.1-3.2,0.1
			c-0.4,0-0.8-0.1-1.1-0.2c-0.3-0.1-0.5-0.3-0.5-0.6c0-0.5,0.5-0.8,1.5-1.1c1.3-0.3,1.9-0.7,1.9-1.4c0-0.2-0.1-0.5-0.3-0.8
			c-0.2-0.3-0.4-0.6-0.6-0.9l-11.8-13.2c-0.2-0.2-0.5-0.5-0.8-0.7c-0.3-0.2-0.5-0.3-0.6-0.3c-0.2,0-0.3,0.1-0.3,0.4
			c0,0.3-0.1,0.5-0.1,0.8c0,1.9,0,3.7,0.1,5.4c0,1.7,0.1,3.7,0.2,5.9c0,0.8,0.2,1.6,0.4,2.2c0.2,0.6,0.6,1.2,1.1,1.6s1.3,0.8,2.3,1
			c0.6,0.1,1.1,0.3,1.4,0.4c0.3,0.2,0.5,0.4,0.5,0.7c0,0.2-0.2,0.4-0.5,0.6c-0.3,0.1-0.8,0.2-1.2,0.2c-1.1,0-2,0-2.7-0.1
			c-0.7-0.1-1.3-0.2-1.9-0.2c-0.6-0.1-1.3-0.1-2-0.1c-0.9,0-1.8,0-2.5,0.1c-0.7,0.1-1.5,0.2-2.4,0.2
			C512.5,757.8,511.5,757.8,510.3,757.8z"/>
		<path class="st2" d="M557.3,757.8c-0.5,0-0.9-0.1-1.2-0.2c-0.3-0.1-0.5-0.4-0.5-0.6c0-0.3,0.2-0.6,0.5-0.8
			c0.3-0.2,0.8-0.4,1.3-0.6c1.1-0.3,2.1-0.8,3-1.4c0.9-0.6,1.6-1.6,2.2-3c1.1-2.4,2.1-4.8,3-7c0.9-2.2,1.8-4.4,2.7-6.6
			c0.8-2.2,1.7-4.4,2.6-6.7c0.9-2.3,1.8-4.8,2.7-7.4c0.4-0.9,0.6-1.7,0.8-2.3c0.2-0.6,0.3-1.2,0.3-1.7c0.5-0.1,1-0.3,1.4-0.4
			c0.4-0.1,0.9-0.4,1.4-0.6c0.5-0.2,0.9-0.6,1.1-1.1c0.3-0.5,0.5-0.8,0.6-1c0.1,0,0.2-0.1,0.3-0.1c0.1,0,0.2,0.1,0.3,0.2
			c0.1,0.2,0.2,0.4,0.3,0.7c0.1,0.2,0.1,0.5,0.2,0.8c0.9,2.9,1.9,5.9,2.9,9c1,3,2,6,2.9,8.9c1,2.9,1.9,5.6,2.7,8
			c0.8,2.5,1.6,4.6,2.2,6.5c0.4,1.3,1,2.3,1.6,3c0.6,0.7,1.2,1.2,1.9,1.6c0.7,0.3,1.4,0.6,2.2,0.8c0.6,0.1,1.1,0.3,1.4,0.5
			c0.3,0.2,0.5,0.5,0.5,0.8c0,0.2-0.1,0.4-0.5,0.5c-0.3,0.1-0.7,0.1-1.1,0.1c-0.6,0-1.5,0-2.5-0.1c-1-0.1-2.1-0.1-3.3-0.1
			c-1.1,0-2.1-0.1-3.1-0.1c-0.8,0-1.6,0-2.5,0c-0.9,0-1.8,0-2.6,0.1c-0.8,0-1.5,0.1-2.1,0.1c-0.5,0-0.9-0.1-1.2-0.2
			c-0.3-0.1-0.5-0.3-0.5-0.6c0-0.3,0.2-0.6,0.5-0.8c0.4-0.2,0.8-0.3,1.3-0.4c1.4-0.2,2.4-0.6,3-1.1c0.6-0.5,0.9-1.1,0.8-1.9
			c0-0.7-0.2-1.5-0.4-2.6c-0.2-1-0.5-2.1-0.8-3.3c-0.3-1.1-0.6-2.2-0.9-3.2c-0.1-0.3-0.2-0.5-0.4-0.6c-0.2-0.1-0.5-0.1-1-0.1h-11.2
			c-0.2,0-0.4,0.1-0.5,0.2c-0.2,0.1-0.3,0.4-0.5,0.8c-0.1,0.5-0.3,1.1-0.6,1.8c-0.3,0.7-0.5,1.5-0.8,2.4c-0.2,0.8-0.5,1.6-0.6,2.3
			c-0.2,0.7-0.3,1.2-0.3,1.5c-0.1,1,0.1,1.8,0.8,2.4c0.6,0.6,1.6,1,2.8,1.4c1.2,0.3,1.8,0.7,1.8,1.2c0,0.3-0.1,0.5-0.5,0.6
			c-0.3,0.1-0.7,0.1-1.2,0.1c-0.8,0-1.6,0-2.7-0.1c-1,0-2.1-0.1-3.2-0.1c-1.3,0-2.5,0.1-3.7,0.2
			C559.6,757.8,558.4,757.8,557.3,757.8z M571.6,740.4h8.8c0.6,0,0.8-0.1,0.8-0.3c0-0.1,0-0.2,0-0.3c0-0.1-0.1-0.2-0.1-0.4
			l-4.5-14.3c-0.2-0.6-0.4-1-0.5-1c-0.1,0-0.2,0.3-0.4,0.9l-5.2,14.4c-0.1,0.2-0.1,0.4-0.1,0.5c0,0.2,0.1,0.3,0.3,0.4
			C571,740.4,571.3,740.4,571.6,740.4z M575.7,716.3c-0.3,0-0.5-0.2-0.5-0.4c0-0.3,0.1-0.6,0.4-1c0.8-1.2,1.7-2.5,2.6-3.7
			c0.9-1.2,1.8-2.4,2.7-3.6c0.4-0.6,1-0.8,1.7-0.8c0.3,0,0.7,0.1,1.4,0.3c0.6,0.2,1.2,0.4,1.7,0.6c0.5,0.2,0.8,0.5,0.8,0.8
			c0,0.4-0.3,0.8-0.9,1.2c-1.3,1-2.8,2.1-4.3,3.1c-1.6,1-3,2-4.3,3c-0.3,0.2-0.6,0.3-0.8,0.4C575.9,716.2,575.8,716.3,575.7,716.3z"
			/>
		<path class="st2" d="M624.5,757.8c-0.5,0-0.9-0.1-1.2-0.1c-0.3-0.1-0.5-0.3-0.5-0.6s0.2-0.5,0.5-0.6c0.3-0.1,0.8-0.3,1.4-0.5
			c1-0.2,1.8-0.7,2.4-1.5c0.7-0.8,1.1-1.8,1.3-3.2c0.4-3,0.8-6.1,1.1-9.1c0.3-3.1,0.6-6,0.8-8.8c0.2-2.8,0.4-5.3,0.5-7.4
			c0-0.3,0-0.6,0-1c0-0.4,0-0.7-0.1-1c0-0.4-0.1-0.9-0.2-1.2c-0.1-0.4-0.4-0.7-0.9-1c-0.6-0.5-1.3-0.9-1.9-1.1
			c-0.6-0.2-1.4-0.4-2.2-0.6c-0.4-0.1-0.8-0.2-1.1-0.4c-0.3-0.2-0.4-0.5-0.4-0.8c0-0.4,0.2-0.6,0.5-0.7c0.4-0.1,0.8-0.1,1.4-0.1
			c0.5,0,1.1,0,2,0.1c0.8,0,1.8,0.1,2.8,0.1c1,0.1,2,0.1,2.9,0.1c0.9,0,1.7,0.1,2.3,0.1c0.3,0,0.5,0.1,0.8,0.3
			c0.2,0.2,0.4,0.4,0.5,0.8c0.2,0.7,0.4,1.5,0.6,2.2c0.2,0.8,0.5,1.5,0.8,2.3l9.3,23.1c0.1,0.2,0.3,0.4,0.6,0.4
			c0.3,0,0.5-0.1,0.6-0.3l10.7-23.1c0.2-0.9,0.4-1.8,0.6-2.7c0.2-0.9,0.3-1.6,0.5-2.2c0.1-0.5,0.4-0.8,0.7-0.8h2.3
			c1.4,0,2.8-0.1,4.3-0.3c1.5-0.2,2.7-0.3,3.5-0.3c0.3,0,0.6,0,0.9,0.1c0.3,0.1,0.5,0.3,0.5,0.6c0,0.3-0.1,0.6-0.4,0.7
			c-0.2,0.2-0.6,0.3-1.1,0.5c-0.4,0.2-0.9,0.3-1.4,0.5c-0.5,0.2-1,0.4-1.4,0.6c-0.6,0.3-1.1,0.7-1.5,1.1c-0.4,0.5-0.5,1.1-0.5,1.8
			c0,2.9,0.1,5.5,0.2,7.8c0.1,2.4,0.2,4.6,0.3,6.7c0.1,2.1,0.2,4.3,0.4,6.4c0.2,2.1,0.3,4.4,0.4,6.8c0.1,1.2,0.5,2.1,1.3,2.7
			c0.8,0.7,1.8,1.1,3.3,1.4c0.6,0.1,1,0.3,1.3,0.4c0.3,0.2,0.5,0.4,0.5,0.7c0,0.2-0.1,0.4-0.4,0.5c-0.3,0.1-0.7,0.2-1.1,0.2
			c-1,0-1.9,0-2.8-0.1c-0.8-0.1-1.7-0.1-2.5-0.1c-0.8,0-1.7-0.1-2.6-0.1c-0.8,0-1.5,0-2.2,0.1c-0.7,0-1.4,0.1-2.2,0.1
			c-0.8,0.1-1.7,0.1-2.7,0.1c-0.4,0-0.8-0.1-1.1-0.1c-0.3-0.1-0.4-0.3-0.4-0.6s0.1-0.5,0.4-0.7c0.3-0.2,0.7-0.3,1.3-0.4
			c1.3-0.2,2.2-0.6,2.7-1.2s0.7-1.6,0.7-2.9c0-2.8-0.1-5.3-0.2-7.7c-0.1-2.4-0.1-4.7-0.3-7c-0.1-2.3-0.2-4.8-0.4-7.3
			c0-0.4-0.1-0.5-0.3-0.5c-0.2,0-0.4,0.2-0.6,0.6l-13,28c-0.1,0.3-0.3,0.5-0.7,0.5c-0.3,0-0.5-0.2-0.6-0.5
			c-1.7-4.7-3.6-9.3-5.5-13.9c-1.9-4.6-3.9-9.3-6-14.3c-0.1-0.2-0.3-0.3-0.5-0.3c-0.2,0-0.4,0.2-0.4,0.5c-0.3,2.5-0.5,5-0.8,7.4
			c-0.2,2.4-0.4,4.7-0.5,7.1c-0.1,2.3-0.1,4.7-0.1,7.2c0,1.1,0.4,2.1,1.1,2.9c0.7,0.8,1.7,1.4,3,1.7c0.6,0.1,1.1,0.3,1.4,0.4
			c0.3,0.2,0.5,0.4,0.5,0.7c0,0.2-0.2,0.4-0.5,0.5c-0.3,0.1-0.7,0.2-1.2,0.2c-1.1,0-1.9,0-2.5-0.1c-0.6-0.1-1.1-0.1-1.5-0.1
			c-0.4,0-1.1,0-1.9,0c-0.8,0-1.4,0-2,0.1c-0.6,0-1.2,0.1-1.7,0.1C625.9,757.7,625.3,757.8,624.5,757.8z"/>
		<path class="st2" d="M705,758.4c-2.7,0-5.3-0.5-7.7-1.4c-2.4-0.9-4.6-2.3-6.5-4c-1.9-1.7-3.4-3.8-4.5-6.3
			c-1.1-2.4-1.7-5.1-1.7-8.1c0-2.7,0.4-5.4,1.4-7.9c0.9-2.5,2.2-4.8,4-6.7c1.7-2,3.9-3.5,6.5-4.7c2.6-1.2,5.6-1.7,9-1.7
			c2.7,0,5.3,0.5,7.7,1.4c2.4,0.9,4.6,2.3,6.5,4s3.4,3.8,4.5,6.3c1.1,2.4,1.7,5.1,1.7,8.1c0,2.7-0.5,5.3-1.4,7.8
			c-0.9,2.5-2.2,4.8-4,6.8c-1.7,2-3.9,3.5-6.5,4.7C711.5,757.8,708.4,758.4,705,758.4z M706,755.8c2.8,0,5.2-0.7,7-2
			c1.9-1.3,3.3-3.1,4.2-5.5c0.9-2.3,1.4-5,1.4-8.1c0-2.7-0.3-5.2-0.9-7.7c-0.6-2.4-1.5-4.6-2.6-6.5c-1.2-1.9-2.6-3.4-4.4-4.5
			c-1.8-1.1-3.8-1.6-6.2-1.6c-2.7,0-5,0.6-6.9,1.9c-1.9,1.3-3.3,3.1-4.2,5.4c-0.9,2.3-1.4,5-1.4,8c0,2.7,0.3,5.3,0.8,7.7
			c0.6,2.4,1.4,4.6,2.6,6.5c1.2,1.9,2.6,3.4,4.4,4.5C701.6,755.3,703.6,755.8,706,755.8z"/>
		<path class="st2" d="M757.8,758.4c-3.6,0-6.7-0.6-9.1-1.9c-2.4-1.3-4.3-3.1-5.5-5.5c-1.2-2.4-1.9-5.1-1.9-8.2v-18
			c0-1.3-0.3-2.4-0.8-3.1c-0.5-0.8-1.2-1.2-2-1.4c-1.3-0.4-1.9-0.8-1.9-1.3c0-0.3,0.2-0.5,0.5-0.6c0.3-0.1,0.7-0.2,1.2-0.2
			c1,0,2.1,0,3.2,0.1c1.1,0.1,2.2,0.1,3.3,0.1c1,0,2,0,3.1-0.1c1.1-0.1,2-0.1,2.9-0.1c0.5,0,0.9,0.1,1.2,0.2
			c0.3,0.1,0.4,0.3,0.4,0.6c0,0.3-0.2,0.6-0.6,0.8c-0.4,0.2-1,0.4-1.7,0.6c-0.5,0.2-1.1,0.7-1.6,1.4c-0.5,0.7-0.8,1.8-0.8,3v16.5
			c0,3.1,0.5,5.6,1.5,7.5c1,2,2.4,3.4,4.2,4.3c1.8,0.9,3.8,1.4,6,1.4c4,0,6.9-1.3,8.8-3.9c1.9-2.6,2.8-6.3,2.8-10.9
			c0-0.9,0-2.1,0-3.5s0-2.9,0-4.5c0-1.6-0.1-3.1-0.1-4.5c0-1.3-0.1-2.5-0.3-3.4c-0.2-0.9-0.5-1.7-0.9-2.4c-0.4-0.6-0.9-1.1-1.6-1.3
			c-0.4-0.2-0.9-0.3-1.4-0.5c-0.5-0.2-0.8-0.5-0.8-0.8c0-0.2,0.2-0.4,0.5-0.5c0.3-0.1,0.7-0.2,1.3-0.2c1.1,0,2,0,2.7,0.1
			c0.6,0,1.4,0.1,2.4,0.1c0.7,0,1.3,0,1.8-0.1c0.5,0,1.1-0.1,1.6-0.1s1.1-0.1,1.6-0.1c0.5,0,0.9,0.1,1.2,0.2
			c0.3,0.1,0.5,0.3,0.5,0.6c0,0.5-0.6,0.9-1.9,1.2c-1.2,0.3-2,0.8-2.4,1.6c-0.5,0.8-0.7,1.9-0.8,3.2c-0.2,3.3-0.3,6.3-0.4,9.1
			s-0.1,5.5-0.2,8.2c0,3.1-0.8,5.9-2.2,8.4c-1.4,2.4-3.3,4.4-5.7,5.7C763.5,757.7,760.8,758.4,757.8,758.4z"/>
		<path class="st2" d="M808.6,757.9c-0.8,0-1.9,0-3.3-0.1c-1.5-0.1-3-0.1-4.7-0.2c-1.6-0.1-3.1-0.1-4.4-0.1c-0.8,0-1.6,0-2.3,0.1
			c-0.7,0-1.4,0.1-2.2,0.1c-0.8,0-1.7,0.1-2.7,0.1c-0.4,0-0.8-0.1-1.1-0.2c-0.3-0.1-0.5-0.3-0.5-0.6c0-0.3,0.1-0.6,0.4-0.7
			c0.3-0.1,0.7-0.3,1.3-0.4c1.5-0.3,2.6-0.7,3.2-1.3c0.6-0.6,0.9-1.6,0.9-3v-27.3c0-1.4-0.3-2.3-0.9-2.9c-0.6-0.6-1.6-1-3.2-1.4
			c-0.6-0.1-1-0.3-1.3-0.4c-0.3-0.2-0.4-0.4-0.4-0.7c0-0.3,0.1-0.5,0.5-0.6c0.3-0.1,0.7-0.2,1.1-0.2c1,0,1.9,0,2.7,0.1
			s1.5,0.1,2.2,0.1c0.7,0,1.5,0,2.5,0c0.6,0,1.5,0,2.5-0.1c1,0,2.1-0.1,3.2-0.2c1.1-0.1,2.2-0.1,3.1-0.2c1,0,1.7-0.1,2.2-0.1
			c3.7,0,6.9,0.5,9.7,1.4c2.8,1,5.1,2.3,7,4.1c1.8,1.7,3.2,3.8,4.2,6.1c0.9,2.3,1.4,4.9,1.4,7.6c0,2.8-0.5,5.5-1.5,8
			c-1,2.5-2.5,4.7-4.4,6.7c-1.9,1.9-4.1,3.5-6.7,4.6C814.5,757.4,811.7,757.9,808.6,757.9z M807.8,755.5c3,0,5.6-0.7,7.8-2.2
			c2.2-1.4,3.9-3.5,5.1-6.1c1.2-2.6,1.8-5.6,1.8-9c0-2.8-0.4-5.4-1.3-7.6c-0.8-2.2-2-4.1-3.4-5.7c-1.4-1.6-3.1-2.8-4.9-3.6
			c-1.9-0.8-3.8-1.2-5.9-1.2c-1.6,0-2.9,0-4,0.1s-1.9,0.4-2.5,0.8c-0.6,0.4-0.8,1.2-0.8,2.2V750c0,1.5,0.4,2.7,1.1,3.5
			c0.7,0.8,1.7,1.3,3,1.6C805,755.3,806.4,755.5,807.8,755.5z"/>
		<path class="st2" d="M876.3,758.8c-1.4,0-2.7-0.1-3.9-0.5c-1.1-0.3-2.2-0.8-3.1-1.4c-0.9-0.6-1.7-1.3-2.4-2.2
			c-0.9-1.2-1.8-2.4-2.7-3.5c-0.9-1.1-1.8-2.4-2.7-3.8c-0.9-1.4-2-3.2-3.3-5.2c-0.5-1-1.3-1.7-2.2-2.2c-0.7-0.4-1.4-0.6-2.1-0.8
			c-0.7-0.1-1.3-0.2-1.7-0.3c-0.3,0-0.5,0.1-0.6,0.3c-0.1,0.2-0.2,0.5-0.2,0.9v10.9c0,1.3,0.3,2.3,1,3.2c0.6,0.8,1.7,1.4,3.3,1.7
			c0.6,0.1,1,0.3,1.3,0.4c0.3,0.2,0.4,0.4,0.4,0.7c0,0.2-0.1,0.4-0.4,0.5c-0.3,0.1-0.7,0.2-1.1,0.2c-1,0-1.9,0-2.7-0.1
			c-0.8-0.1-1.5-0.1-2.2-0.2c-0.7-0.1-1.4-0.1-2.2-0.1c-1,0-1.9,0-2.7,0.1c-0.9,0.1-1.7,0.1-2.6,0.2c-0.9,0.1-1.8,0.1-2.9,0.1
			c-0.4,0-0.8-0.1-1.1-0.1c-0.3-0.1-0.5-0.3-0.5-0.6c0-0.5,0.6-0.9,1.7-1.1c1.5-0.3,2.6-0.7,3.3-1.3c0.7-0.6,1-1.6,1-3v-26.2
			c0-1.4-0.1-2.4-0.2-3.1c-0.2-0.7-0.5-1.2-1-1.5c-0.5-0.3-1.3-0.5-2.4-0.7c-0.6-0.1-1.1-0.2-1.4-0.4c-0.3-0.2-0.4-0.5-0.4-0.8
			c0-0.2,0.1-0.4,0.5-0.6c0.3-0.1,0.7-0.2,1.1-0.2c1.2,0,2.1,0,2.7,0.1c0.6,0,1.3,0.1,1.8,0.1c0.6,0,1.3,0,2.2,0
			c0.8,0,1.5,0,2.2-0.1c0.6-0.1,1.4-0.1,2.2-0.2c0.8-0.1,1.8-0.1,3.1-0.1c4.5,0,7.9,0.8,10.3,2.4c2.4,1.6,3.6,4.1,3.6,7.4
			c0,1.8-0.4,3.4-1.1,4.6c-0.7,1.3-1.7,2.4-2.8,3.2c-1.1,0.8-2.3,1.5-3.4,2c-0.2,0-0.2,0.1-0.2,0.3c0,0.1,0.1,0.3,0.1,0.5
			c1.2,1.8,2.4,3.6,3.6,5.3c1.1,1.7,2.4,3.3,3.7,4.8c1.3,1.5,2.8,3.1,4.5,4.7c1.1,1,2.3,1.7,3.5,1.9c1.2,0.2,2.5,0.3,4,0.3
			c0.6,0,0.9,0.3,0.9,0.8c0,0.7-0.3,1.2-0.9,1.6s-1.4,0.7-2.3,0.8C878,758.7,877.1,758.8,876.3,758.8z M854.3,737.4
			c1.7,0,3.2-0.4,4.4-1.2c1.2-0.8,2.2-1.8,2.8-3.1c0.7-1.3,1-2.7,1-4.3c0-1.7-0.2-3.3-0.7-4.6c-0.4-1.3-1.2-2.4-2.4-3.1
			c-1.2-0.7-2.8-1.1-5-1.1c-1.1,0-1.9,0.4-2.3,1.2c-0.4,0.8-0.6,2.3-0.7,4.4c0,1-0.1,2.3-0.1,3.9c0,1.6,0,3.5,0,5.7
			c0,1,0.3,1.6,0.8,1.8C852.7,737.3,853.4,737.4,854.3,737.4z"/>
		<path class="st2" d="M909.8,758.4c-2.7,0-5.3-0.5-7.7-1.4c-2.4-0.9-4.6-2.3-6.5-4s-3.4-3.8-4.5-6.3c-1.1-2.4-1.7-5.1-1.7-8.1
			c0-2.7,0.4-5.4,1.4-7.9c0.9-2.5,2.2-4.8,4-6.7c1.7-2,3.9-3.5,6.5-4.7c2.6-1.2,5.6-1.7,9-1.7c2.7,0,5.3,0.5,7.7,1.4
			c2.4,0.9,4.6,2.3,6.5,4c1.9,1.7,3.4,3.8,4.5,6.3c1.1,2.4,1.7,5.1,1.7,8.1c0,2.7-0.5,5.3-1.4,7.8c-0.9,2.5-2.2,4.8-4,6.8
			c-1.7,2-3.9,3.5-6.5,4.7C916.3,757.8,913.2,758.4,909.8,758.4z M910.8,755.8c2.8,0,5.2-0.7,7-2c1.9-1.3,3.3-3.1,4.2-5.5
			c0.9-2.3,1.4-5,1.4-8.1c0-2.7-0.3-5.2-0.9-7.7c-0.6-2.4-1.5-4.6-2.6-6.5c-1.2-1.9-2.6-3.4-4.4-4.5c-1.8-1.1-3.8-1.6-6.2-1.6
			c-2.7,0-5,0.6-6.9,1.9c-1.9,1.3-3.3,3.1-4.2,5.4c-0.9,2.3-1.4,5-1.4,8c0,2.7,0.3,5.3,0.8,7.7c0.6,2.4,1.4,4.6,2.6,6.5
			c1.2,1.9,2.6,3.4,4.4,4.5C906.4,755.3,908.4,755.8,910.8,755.8z"/>
		<path class="st2" d="M951.7,758.4c-1.7,0-3.3-0.2-4.8-0.7c-1.5-0.5-2.9-1.2-4.1-2.1c-0.2-0.2-0.3-0.4-0.5-0.6
			c-0.2-0.2-0.3-0.5-0.4-0.7c-0.3-0.9-0.5-2.1-0.6-3.5s-0.2-2.6-0.2-3.7c0-0.3,0.1-0.5,0.4-0.6s0.5-0.2,0.8-0.2c0.3,0,0.5,0,0.7,0.1
			c0.2,0.1,0.3,0.3,0.4,0.6c0.8,3.1,2.1,5.3,3.7,6.8c1.7,1.5,3.4,2.3,5.4,2.3c1.4,0,2.5-0.3,3.5-0.9c1-0.6,1.8-1.4,2.3-2.4
			c0.6-1,0.8-2.2,0.8-3.5c0-1.5-0.3-2.8-0.8-3.7c-0.5-1-1.3-1.8-2.3-2.6c-1-0.8-2.3-1.6-3.7-2.5c-1.6-1-3.2-2-4.7-3
			c-1.6-1-2.8-2.3-3.8-3.7c-1-1.4-1.5-3.1-1.5-5.2c0-2.2,0.5-4.1,1.5-5.8c1-1.7,2.5-3,4.5-4c2-1,4.3-1.5,7.1-1.5
			c1.4,0,2.8,0.2,3.9,0.5c1.2,0.3,2.1,0.6,2.9,0.9c0.4,0.1,0.7,0.3,0.9,0.6c0.2,0.3,0.4,0.6,0.5,1c0.2,0.8,0.4,1.8,0.7,3
			c0.2,1.1,0.4,2.3,0.4,3.4c0,0.4-0.3,0.7-1,0.7c-0.4,0-0.7-0.1-1-0.2c-0.3-0.2-0.5-0.4-0.6-0.6c-0.8-2.3-1.8-4-3-5.1
			c-1.2-1.2-2.7-1.7-4.5-1.7c-1.2,0-2.3,0.2-3.3,0.6c-1,0.4-1.8,1.1-2.4,2.1c-0.6,0.9-0.9,2.2-0.9,3.7c0,1.1,0.4,2.1,1.1,3
			c0.7,0.9,1.7,1.8,3,2.7c1.3,0.9,2.7,1.8,4.3,2.7c1.6,1,3.1,2,4.5,3.1c1.3,1.1,2.4,2.3,3.1,3.7c0.8,1.4,1.1,3,1.1,5
			c0,2.5-0.6,4.7-1.7,6.5c-1.1,1.8-2.7,3.1-4.7,4.1C956.8,758,954.5,758.4,951.7,758.4z"/>
		<path class="st2" d="M986.5,757.8c-0.4,0-0.8-0.1-1.1-0.1c-0.3-0.1-0.5-0.3-0.5-0.6s0.2-0.5,0.5-0.7c0.3-0.2,0.8-0.3,1.3-0.5
			c1.5-0.3,2.7-0.7,3.4-1.4c0.8-0.6,1.1-1.7,1.1-3.1v-23.9c0-1.8,0-3.1-0.1-4c-0.1-0.9-0.2-1.5-0.4-1.9c-0.2-0.3-0.4-0.6-0.7-0.6
			c-0.5-0.1-1-0.2-1.6-0.2c-0.6,0-1.3,0-2.1,0H984c-1,0-2.1,0.2-3.1,0.7c-1,0.5-1.8,1.1-2.3,2c-0.2,0.2-0.4,0.6-0.7,1
			c-0.3,0.4-0.6,0.8-1,1.1c-0.4,0.3-0.7,0.4-1.1,0.4c-0.2,0-0.4-0.1-0.4-0.2c-0.1-0.2-0.1-0.4-0.1-0.6c0-0.4,0.1-0.9,0.4-1.3
			c0.6-1.3,1.1-2.4,1.4-3.4c0.3-1,0.5-2.1,0.7-3.4c0.1-0.6,0.2-1,0.5-1.2c0.2-0.2,0.5-0.2,0.7-0.2c0.2,0,0.5,0.3,0.8,0.8
			c0.3,0.5,0.6,0.9,0.8,1.2c0.3,0.4,0.9,0.6,1.8,0.8c0.9,0.2,1.7,0.3,2.5,0.3l21.8-0.1c1.2,0,2.3-0.1,3.1-0.2c0.8-0.2,1.5-0.4,2-0.6
			c0.6-0.3,1-0.6,1.3-0.9c0.3-0.3,0.7-0.5,1.3-0.5c0.2,0,0.3,0.1,0.4,0.4c0.1,0.3,0.1,0.6,0.1,0.9c0,0.2,0,0.4-0.1,0.7
			c0,0.3-0.1,0.6-0.1,0.8c-0.2,0.8-0.3,1.4-0.4,1.8c-0.1,0.4-0.2,0.9-0.3,1.2c-0.1,0.4-0.1,0.9-0.1,1.5v0.8c0,0.5-0.1,0.9-0.2,1.4
			c-0.2,0.4-0.4,0.7-0.7,0.7c-0.3,0-0.6-0.2-0.8-0.6c-0.2-0.4-0.4-1-0.6-1.8c-0.2-1-0.8-1.8-1.6-2.4c-0.8-0.6-2.2-0.8-4.1-0.8h-5.1
			c-0.8,0-1.4,0.1-1.9,0.4c-0.4,0.3-0.7,0.9-0.9,1.8c-0.1,0.9-0.2,2.5-0.2,4.6v23.9c0,1.4,0.4,2.4,1.2,3c0.8,0.6,1.9,1.1,3.5,1.4
			c0.6,0.1,1,0.3,1.3,0.4c0.3,0.2,0.5,0.4,0.5,0.7c0,0.2-0.1,0.4-0.4,0.5c-0.3,0.1-0.7,0.2-1.1,0.2c-1,0-1.9,0-2.8-0.1
			c-0.8-0.1-1.7-0.1-2.5-0.1c-0.8,0-1.6-0.1-2.5-0.1c-1,0-1.9,0-2.7,0.1c-0.8,0-1.7,0.1-2.6,0.1
			C988.5,757.7,987.6,757.8,986.5,757.8z"/>
		<path class="st2" d="M367.4,831c-0.4,0-1.2-0.3-2.3-0.9c-1.1-0.6-2.2-1.6-3.2-3c-0.4-0.5-1.1-1.3-2-2.3c-0.9-1.1-2-2.3-3.2-3.7
			c-1.2-1.4-2.5-2.9-3.9-4.5c-1.4-1.6-2.8-3.2-4.2-4.8c-1.4-1.6-2.7-3.1-3.9-4.5c-1.2-1.4-2.3-2.7-3.3-3.7c-0.9-1.1-1.7-1.9-2.1-2.4
			c-0.2-0.3-0.4-0.5-0.6-0.7c-0.2-0.2-0.4-0.2-0.5-0.2c-0.2,0-0.3,0.1-0.4,0.4c-0.1,0.3-0.1,0.6-0.1,0.8c0,1.9-0.1,4.2-0.1,6.7
			s0,5.1,0,7.8c0,2.7,0,5.2,0,7.5c0,1.2,0.3,2.2,1,3c0.6,0.9,1.7,1.5,3.3,1.8c0.6,0.1,1,0.3,1.4,0.4c0.3,0.2,0.5,0.4,0.5,0.7
			c0,0.2-0.2,0.4-0.5,0.5c-0.3,0.1-0.7,0.2-1.2,0.2c-1.1,0-1.9,0-2.5-0.1c-0.6-0.1-1.1-0.1-1.6-0.1c-0.5,0-1.1,0-1.9,0
			c-0.8,0-1.4,0-2,0.1c-0.5,0-1.1,0.1-1.6,0.1c-0.5,0-1.2,0.1-1.9,0.1c-0.4,0-0.8-0.1-1.2-0.1c-0.3-0.1-0.5-0.3-0.5-0.6
			s0.2-0.5,0.5-0.7c0.3-0.2,0.8-0.4,1.4-0.5c1.1-0.3,1.9-0.9,2.4-1.8c0.5-0.9,0.8-1.9,0.9-3.1c0.2-1.5,0.3-3.5,0.5-6
			c0.2-2.5,0.3-5.3,0.4-8.4c0.1-3.1,0.2-6.3,0.2-9.6c0-2.1-0.5-3.7-1.6-4.6c-1.1-0.9-2.5-1.7-4.2-2.2c-0.2-0.1-0.6-0.2-1.1-0.5
			s-0.8-0.5-0.8-0.9c0-0.4,0.2-0.6,0.5-0.7c0.4-0.1,0.7-0.2,0.9-0.2c1,0,2,0.1,2.7,0.1c0.8,0,1.5,0.1,2.3,0.1c0.7,0,1.5,0.1,2.3,0.1
			c0.8,0,1.7,0,2.8,0c0.4,0,0.6,0.1,0.8,0.3c0.2,0.2,0.4,0.4,0.5,0.6c0.4,0.5,1.1,1.3,2.1,2.5c0.9,1.1,2.1,2.4,3.3,4
			c1.3,1.5,2.6,3.1,4.1,4.9c1.4,1.7,2.9,3.4,4.3,5.2c1.4,1.7,2.8,3.4,4.1,4.9c1.3,1.5,2.4,2.8,3.3,4c0.9,1.1,1.6,1.9,2,2.4
			c0.2,0.2,0.4,0.4,0.6,0.7c0.3,0.3,0.5,0.4,0.7,0.4c0.4,0,0.6-0.4,0.6-1.1c0-0.8,0-2,0-3.6c0-1.6,0-3.5,0-5.6c0-2.1,0-4.4,0-6.7
			c0-2.4,0-4.7-0.1-7c0-0.9-0.5-1.6-1.3-2.3c-0.8-0.6-1.7-1-2.6-1.2c-0.6-0.1-1.1-0.2-1.6-0.4c-0.5-0.2-0.7-0.5-0.7-0.8
			c0-0.2,0.2-0.4,0.7-0.5c0.5-0.1,0.9-0.2,1.4-0.2c0.6,0,1.1,0,1.6,0c0.5,0,0.9,0,1.4,0c0.4,0,0.9,0,1.3,0c0.9,0,1.7,0,2.2,0
			c0.6,0,1.2,0,1.8-0.1c0.7,0,1.6-0.1,2.7-0.1c0.5,0,0.9,0.1,1.2,0.2c0.3,0.1,0.4,0.3,0.4,0.6c0,0.6-0.6,1-1.9,1.2
			c-1.4,0.3-2.4,0.7-3,1.1c-0.5,0.5-0.8,1.2-0.8,2.3c0,0.6,0,1.7-0.1,3.2c0,1.5-0.1,3.2-0.1,5.2c0,2-0.1,4-0.1,6.2
			c0,2.2-0.1,4.3-0.1,6.4c0,2.1,0,4,0,5.7c0,1,0,1.9,0.1,2.8c0.1,0.9,0.1,1.7,0.2,2.3c0.1,0.7,0.1,1.2,0.1,1.5
			c0,0.8-0.1,1.3-0.4,1.5C368.2,830.8,367.8,831,367.4,831z"/>
		<path class="st2" d="M382.3,830.2c-0.5,0-0.9-0.1-1.2-0.2c-0.3-0.1-0.5-0.4-0.5-0.6c0-0.3,0.2-0.6,0.5-0.8
			c0.3-0.2,0.8-0.4,1.3-0.6c1.1-0.3,2.1-0.8,3-1.4c0.9-0.6,1.6-1.6,2.2-3c1.1-2.4,2.1-4.8,3-7c0.9-2.2,1.8-4.4,2.7-6.6
			c0.8-2.2,1.7-4.4,2.6-6.7c0.9-2.3,1.8-4.8,2.7-7.4c0.4-0.9,0.6-1.7,0.8-2.3c0.2-0.6,0.3-1.2,0.3-1.7c0.5-0.1,1-0.3,1.4-0.4
			c0.4-0.1,0.9-0.4,1.4-0.6c0.5-0.2,0.9-0.6,1.1-1.1c0.3-0.5,0.5-0.8,0.6-1c0.1,0,0.2-0.1,0.3-0.1c0.1,0,0.2,0.1,0.3,0.2
			c0.1,0.2,0.2,0.4,0.3,0.7c0.1,0.2,0.1,0.5,0.2,0.8c0.9,2.9,1.9,5.9,2.9,9c1,3,2,6,2.9,8.9c1,2.9,1.9,5.6,2.7,8
			c0.8,2.5,1.6,4.6,2.2,6.5c0.4,1.3,1,2.3,1.6,3c0.6,0.7,1.2,1.2,1.9,1.6c0.7,0.3,1.4,0.6,2.2,0.8c0.6,0.1,1.1,0.3,1.4,0.5
			c0.3,0.2,0.5,0.5,0.5,0.8c0,0.2-0.1,0.4-0.5,0.5c-0.3,0.1-0.7,0.1-1.1,0.1c-0.6,0-1.5,0-2.5-0.1c-1-0.1-2.1-0.1-3.3-0.1
			c-1.1,0-2.1-0.1-3.1-0.1c-0.8,0-1.6,0-2.5,0c-0.9,0-1.8,0-2.6,0.1c-0.8,0-1.5,0.1-2.1,0.1c-0.5,0-0.9-0.1-1.2-0.2
			c-0.3-0.1-0.5-0.3-0.5-0.6c0-0.3,0.2-0.6,0.5-0.8c0.4-0.2,0.8-0.3,1.3-0.4c1.4-0.2,2.4-0.6,3-1.1c0.6-0.5,0.9-1.1,0.8-1.9
			c0-0.7-0.2-1.5-0.4-2.6c-0.2-1-0.5-2.1-0.8-3.3c-0.3-1.1-0.6-2.2-0.9-3.2c-0.1-0.3-0.2-0.5-0.4-0.6c-0.2-0.1-0.5-0.1-1-0.1h-11.2
			c-0.2,0-0.4,0.1-0.5,0.2c-0.2,0.1-0.3,0.4-0.5,0.8c-0.1,0.5-0.3,1.1-0.6,1.8s-0.5,1.5-0.8,2.4c-0.2,0.8-0.5,1.6-0.6,2.3
			c-0.2,0.7-0.3,1.2-0.3,1.5c-0.1,1,0.1,1.8,0.8,2.4c0.6,0.6,1.6,1,2.8,1.4c1.2,0.3,1.8,0.7,1.8,1.2c0,0.3-0.1,0.5-0.5,0.6
			c-0.3,0.1-0.7,0.1-1.2,0.1c-0.8,0-1.6,0-2.7-0.1c-1,0-2.1-0.1-3.2-0.1c-1.3,0-2.5,0.1-3.7,0.2
			C384.5,830.1,383.4,830.2,382.3,830.2z M396.6,812.7h8.8c0.6,0,0.8-0.1,0.8-0.3c0-0.1,0-0.2,0-0.3c0-0.1-0.1-0.2-0.1-0.4
			l-4.5-14.3c-0.2-0.6-0.4-1-0.5-1c-0.1,0-0.2,0.3-0.4,0.9l-5.2,14.4c-0.1,0.2-0.1,0.4-0.1,0.5c0,0.2,0.1,0.3,0.3,0.4
			C396,812.7,396.2,812.7,396.6,812.7z"/>
		<path class="st2" d="M469.3,830.3c-0.8,0-1.9,0-3.3-0.1c-1.5-0.1-3-0.1-4.7-0.2c-1.6-0.1-3.1-0.1-4.4-0.1c-0.8,0-1.6,0-2.3,0.1
			c-0.7,0-1.4,0.1-2.2,0.1c-0.8,0-1.7,0.1-2.7,0.1c-0.4,0-0.8-0.1-1.1-0.2c-0.3-0.1-0.5-0.3-0.5-0.6c0-0.3,0.1-0.6,0.4-0.7
			c0.3-0.1,0.7-0.3,1.3-0.4c1.5-0.3,2.6-0.7,3.2-1.3c0.6-0.6,0.9-1.6,0.9-3v-27.3c0-1.4-0.3-2.3-0.9-2.9c-0.6-0.6-1.6-1-3.2-1.4
			c-0.6-0.1-1-0.3-1.3-0.4c-0.3-0.2-0.4-0.4-0.4-0.7c0-0.3,0.1-0.5,0.5-0.6c0.3-0.1,0.7-0.2,1.1-0.2c1,0,1.9,0,2.7,0.1
			s1.5,0.1,2.2,0.1c0.7,0,1.5,0,2.5,0c0.6,0,1.5,0,2.5-0.1c1,0,2.1-0.1,3.2-0.2s2.2-0.1,3.1-0.2c1,0,1.7-0.1,2.2-0.1
			c3.7,0,6.9,0.5,9.7,1.4c2.8,1,5.1,2.3,7,4.1c1.8,1.7,3.2,3.8,4.2,6.1c0.9,2.3,1.4,4.9,1.4,7.6c0,2.8-0.5,5.5-1.5,8
			s-2.5,4.7-4.4,6.7c-1.9,1.9-4.1,3.5-6.7,4.6C475.2,829.7,472.3,830.3,469.3,830.3z M468.5,827.8c3,0,5.6-0.7,7.8-2.2
			c2.2-1.4,3.9-3.5,5.1-6.1c1.2-2.6,1.8-5.6,1.8-9c0-2.8-0.4-5.4-1.3-7.6c-0.8-2.2-2-4.1-3.4-5.7c-1.4-1.6-3.1-2.8-4.9-3.6
			c-1.9-0.8-3.8-1.2-5.9-1.2c-1.6,0-2.9,0-4,0.1c-1.1,0.1-1.9,0.4-2.5,0.8c-0.6,0.4-0.8,1.2-0.8,2.2v26.6c0,1.5,0.4,2.7,1.1,3.5
			c0.7,0.8,1.7,1.3,3,1.6C465.7,827.7,467,827.8,468.5,827.8z"/>
		<path class="st2" d="M521.5,830.7c-2.7,0-5.3-0.5-7.7-1.4c-2.4-0.9-4.6-2.3-6.5-4c-1.9-1.7-3.4-3.8-4.5-6.3
			c-1.1-2.4-1.7-5.1-1.7-8.1c0-2.7,0.4-5.4,1.4-7.9c0.9-2.5,2.2-4.8,4-6.7c1.7-2,3.9-3.5,6.5-4.7c2.6-1.2,5.6-1.7,9-1.7
			c2.7,0,5.3,0.5,7.7,1.4c2.4,0.9,4.6,2.3,6.5,4s3.4,3.8,4.5,6.3c1.1,2.4,1.7,5.1,1.7,8.1c0,2.7-0.5,5.3-1.4,7.8
			c-0.9,2.5-2.2,4.8-4,6.8c-1.7,2-3.9,3.5-6.5,4.7C527.9,830.1,524.9,830.7,521.5,830.7z M522.4,828.2c2.8,0,5.2-0.7,7-2
			c1.9-1.3,3.3-3.1,4.2-5.5c0.9-2.3,1.4-5,1.4-8.1c0-2.7-0.3-5.2-0.9-7.7c-0.6-2.4-1.5-4.6-2.6-6.5c-1.2-1.9-2.6-3.4-4.4-4.5
			c-1.8-1.1-3.8-1.6-6.2-1.6c-2.7,0-5,0.6-6.9,1.9s-3.3,3.1-4.2,5.4c-0.9,2.3-1.4,5-1.4,8c0,2.7,0.3,5.3,0.8,7.7
			c0.6,2.4,1.4,4.6,2.6,6.5c1.2,1.9,2.6,3.4,4.4,4.5C518,827.6,520.1,828.2,522.4,828.2z"/>
		<path class="st2" d="M563.4,830.8c-1.7,0-3.3-0.2-4.8-0.7c-1.5-0.5-2.9-1.2-4.1-2.1c-0.2-0.2-0.3-0.4-0.5-0.6
			c-0.2-0.2-0.3-0.5-0.4-0.7c-0.3-0.9-0.5-2.1-0.6-3.5s-0.2-2.6-0.2-3.7c0-0.3,0.1-0.5,0.4-0.6s0.5-0.2,0.8-0.2c0.3,0,0.5,0,0.7,0.1
			c0.2,0.1,0.3,0.3,0.4,0.6c0.8,3.1,2.1,5.3,3.7,6.8c1.7,1.5,3.4,2.3,5.4,2.3c1.4,0,2.5-0.3,3.5-0.9c1-0.6,1.8-1.4,2.3-2.4
			c0.6-1,0.8-2.2,0.8-3.5c0-1.5-0.3-2.8-0.8-3.7c-0.5-1-1.3-1.8-2.3-2.6c-1-0.8-2.3-1.6-3.7-2.5c-1.6-1-3.2-2-4.7-3
			c-1.6-1-2.8-2.3-3.8-3.7c-1-1.4-1.5-3.1-1.5-5.2c0-2.2,0.5-4.1,1.5-5.8c1-1.7,2.5-3,4.5-4c2-1,4.3-1.5,7.1-1.5
			c1.4,0,2.8,0.2,3.9,0.5c1.2,0.3,2.1,0.6,2.9,0.9c0.4,0.1,0.7,0.3,0.9,0.6c0.2,0.3,0.4,0.6,0.5,1c0.2,0.8,0.4,1.8,0.7,3
			c0.2,1.1,0.4,2.3,0.4,3.4c0,0.4-0.3,0.7-1,0.7c-0.4,0-0.7-0.1-1-0.2c-0.3-0.2-0.5-0.4-0.6-0.6c-0.8-2.3-1.8-4-3-5.1
			c-1.2-1.2-2.7-1.7-4.5-1.7c-1.2,0-2.3,0.2-3.3,0.6c-1,0.4-1.8,1.1-2.4,2.1c-0.6,0.9-0.9,2.2-0.9,3.7c0,1.1,0.4,2.1,1.1,3
			c0.7,0.9,1.7,1.8,3,2.7s2.7,1.8,4.3,2.7c1.6,1,3.1,2,4.5,3.1c1.3,1.1,2.4,2.3,3.1,3.7c0.8,1.4,1.1,3,1.1,5c0,2.5-0.6,4.7-1.7,6.5
			c-1.1,1.8-2.7,3.1-4.7,4.1C568.5,830.3,566.1,830.8,563.4,830.8z"/>
		<path class="st2" d="M586.9,830.2c-0.5,0-0.9-0.1-1.2-0.2c-0.3-0.1-0.5-0.4-0.5-0.6c0-0.3,0.2-0.6,0.5-0.8
			c0.3-0.2,0.8-0.4,1.3-0.6c1.1-0.3,2.1-0.8,3-1.4c0.9-0.6,1.6-1.6,2.2-3c1.1-2.4,2.1-4.8,3-7c0.9-2.2,1.8-4.4,2.7-6.6
			c0.8-2.2,1.7-4.4,2.6-6.7c0.9-2.3,1.8-4.8,2.7-7.4c0.4-0.9,0.6-1.7,0.8-2.3c0.2-0.6,0.3-1.2,0.3-1.7c0.5-0.1,1-0.3,1.4-0.4
			c0.4-0.1,0.9-0.4,1.4-0.6c0.5-0.2,0.9-0.6,1.1-1.1c0.3-0.5,0.5-0.8,0.6-1c0.1,0,0.2-0.1,0.3-0.1c0.1,0,0.2,0.1,0.3,0.2
			c0.1,0.2,0.2,0.4,0.3,0.7c0.1,0.2,0.1,0.5,0.2,0.8c0.9,2.9,1.9,5.9,2.9,9c1,3,2,6,2.9,8.9c1,2.9,1.9,5.6,2.7,8
			c0.8,2.5,1.6,4.6,2.2,6.5c0.4,1.3,1,2.3,1.6,3c0.6,0.7,1.2,1.2,1.9,1.6c0.7,0.3,1.4,0.6,2.2,0.8c0.6,0.1,1.1,0.3,1.4,0.5
			c0.3,0.2,0.5,0.5,0.5,0.8c0,0.2-0.1,0.4-0.5,0.5c-0.3,0.1-0.7,0.1-1.1,0.1c-0.6,0-1.5,0-2.5-0.1c-1-0.1-2.1-0.1-3.3-0.1
			c-1.1,0-2.1-0.1-3.1-0.1c-0.8,0-1.6,0-2.5,0c-0.9,0-1.8,0-2.6,0.1c-0.8,0-1.5,0.1-2.1,0.1c-0.5,0-0.9-0.1-1.2-0.2
			c-0.3-0.1-0.5-0.3-0.5-0.6c0-0.3,0.2-0.6,0.5-0.8c0.4-0.2,0.8-0.3,1.3-0.4c1.4-0.2,2.4-0.6,3-1.1c0.6-0.5,0.9-1.1,0.8-1.9
			c0-0.7-0.2-1.5-0.4-2.6c-0.2-1-0.5-2.1-0.8-3.3c-0.3-1.1-0.6-2.2-0.9-3.2c-0.1-0.3-0.2-0.5-0.4-0.6c-0.2-0.1-0.5-0.1-1-0.1h-11.2
			c-0.2,0-0.4,0.1-0.5,0.2c-0.2,0.1-0.3,0.4-0.5,0.8c-0.1,0.5-0.3,1.1-0.6,1.8c-0.3,0.7-0.5,1.5-0.8,2.4c-0.2,0.8-0.5,1.6-0.6,2.3
			c-0.2,0.7-0.3,1.2-0.3,1.5c-0.1,1,0.1,1.8,0.8,2.4c0.6,0.6,1.6,1,2.8,1.4c1.2,0.3,1.8,0.7,1.8,1.2c0,0.3-0.1,0.5-0.5,0.6
			c-0.3,0.1-0.7,0.1-1.2,0.1c-0.8,0-1.6,0-2.7-0.1s-2.1-0.1-3.2-0.1c-1.3,0-2.5,0.1-3.7,0.2C589.2,830.1,588,830.2,586.9,830.2z
			 M601.2,812.7h8.8c0.6,0,0.8-0.1,0.8-0.3c0-0.1,0-0.2,0-0.3c0-0.1-0.1-0.2-0.1-0.4l-4.5-14.3c-0.2-0.6-0.4-1-0.5-1
			c-0.1,0-0.2,0.3-0.4,0.9l-5.2,14.4c-0.1,0.2-0.1,0.4-0.1,0.5c0,0.2,0.1,0.3,0.3,0.4C600.6,812.7,600.9,812.7,601.2,812.7z"/>
		<path class="st2" d="M636.9,830.1c-0.4,0-0.8-0.1-1.1-0.2s-0.4-0.3-0.4-0.6c0-0.5,0.6-0.8,1.7-1.1c1.5-0.3,2.5-0.7,3-1.3
			c0.5-0.6,0.7-1.6,0.7-3v-27.3c0-1.4-0.2-2.3-0.5-2.9c-0.4-0.6-1.3-1-2.8-1.3c-1.2-0.2-1.7-0.6-1.7-1.1c0-0.2,0.1-0.4,0.4-0.6
			c0.3-0.2,0.6-0.2,1.1-0.2c1,0,1.9,0,2.7,0.1c0.7,0,1.4,0.1,2.1,0.1s1.4,0.1,2.2,0.1c0.8,0,1.6,0,2.3,0c0.7,0,1.4,0,2.2-0.1
			c0.8,0,1.7-0.1,2.7-0.1c1,0,1.6,0.3,1.6,0.8c0,0.3-0.1,0.6-0.5,0.7c-0.3,0.2-0.7,0.3-1.3,0.4c-1.5,0.4-2.6,0.9-3.2,1.5
			c-0.6,0.6-0.9,1.6-0.9,2.7v11.5c0,0.3,0.1,0.5,0.3,0.5c0.2,0.1,0.4,0.1,0.6,0.1h20.1c0.4,0,0.5-0.3,0.5-0.8v-11.4
			c0-1.1-0.3-2-0.8-2.7c-0.5-0.7-1.6-1.2-3.2-1.5c-0.6-0.1-1-0.3-1.3-0.4c-0.3-0.2-0.4-0.4-0.4-0.7c0-0.5,0.5-0.8,1.5-0.8
			s1.9,0,2.8,0.1c0.8,0,1.7,0.1,2.4,0.1c0.8,0,1.6,0,2.4,0c0.8,0,1.4,0,2-0.1s1.2-0.1,1.9-0.1s1.5-0.1,2.6-0.1
			c0.5,0,0.9,0.1,1.1,0.2c0.3,0.2,0.4,0.4,0.4,0.6c0,0.5-0.6,0.9-1.7,1.1c-1.5,0.3-2.4,0.8-2.8,1.4c-0.4,0.6-0.5,1.5-0.5,2.7v27.3
			c0,1.4,0.2,2.4,0.6,3c0.4,0.6,1.4,1,2.8,1.3c1.1,0.2,1.7,0.6,1.7,1.1c0,0.2-0.1,0.4-0.4,0.6c-0.3,0.1-0.7,0.2-1.1,0.2
			c-1,0-1.8,0-2.6-0.1c-0.7-0.1-1.5-0.1-2.1-0.1c-0.7,0-1.4-0.1-2.2-0.1c-0.8,0-1.6,0-2.3,0.1s-1.5,0.1-2.3,0.1
			c-0.8,0.1-1.7,0.1-2.7,0.1c-0.5,0-0.9-0.1-1.1-0.2c-0.3-0.1-0.4-0.3-0.4-0.6c0-0.3,0.1-0.6,0.4-0.7c0.3-0.1,0.7-0.3,1.3-0.4
			c1.4-0.3,2.4-0.7,3.1-1.4c0.7-0.6,1-1.6,1-2.8v-11.6c0-0.2,0-0.4-0.1-0.6c0-0.2-0.2-0.3-0.4-0.3h-20.6c-0.3,0-0.5,0.2-0.5,0.7
			v11.4c0,1.2,0.4,2.2,1.2,3c0.8,0.8,1.9,1.3,3.3,1.6c0.6,0.1,1,0.3,1.3,0.4c0.3,0.1,0.4,0.4,0.4,0.7c0,0.2-0.1,0.4-0.4,0.6
			c-0.3,0.1-0.7,0.2-1.1,0.2c-1,0-1.9,0-2.8-0.1c-0.8-0.1-1.7-0.1-2.4-0.1c-0.8,0-1.6-0.1-2.5-0.1c-0.8,0-1.6,0-2.3,0.1
			c-0.7,0-1.5,0.1-2.3,0.1C638.8,830.1,637.9,830.1,636.9,830.1z"/>
	</g>
</g>
<line class="st3" x1="1025.8" y1="340.1" x2="6.2" y2="340.1"/>
<line class="st3" x1="1025.8" y1="647.1" x2="6.2" y2="647.1"/>
<path class="st2" d="M557.6,155.7c0,21.6-18.8,39.1-41.9,38.9c-23.1-0.2-41.9-18.4-41.2-40c0-0.1,0-0.2,0-0.3c0-1.3,2-1.5,2.4-0.3
	c5.8,15,21.1,25.7,39.1,25.7c17.5,0,32.5-10.1,38.7-24.5C555.3,153.6,557.6,154,557.6,155.7C557.6,155.6,557.6,155.6,557.6,155.7z"
	/>
<g>
	<g>
		
			<ellipse transform="matrix(0.9871 -0.1602 0.1602 0.9871 -5.0041 78.6728)" class="st2" cx="485.5" cy="70.4" rx="11.9" ry="11.9"/>
		
			<ellipse transform="matrix(0.1602 -0.9871 0.9871 0.1602 387.3918 596.0746)" class="st2" cx="544" cy="70.4" rx="11.9" ry="11.9"/>
		<g>
			<path class="st4" d="M581.3,70.4h-8.5c0-14.5-11.8-26.3-26.3-26.3c-14.5,0-26.3,11.8-26.3,26.3h-8.5c0-6,1.5-11.7,4.2-16.6
				c5.9-10.8,17.4-18.1,30.5-18.1c3.7,0,7.2,0.6,10.5,1.6c0.4,0.1,0.7,0.2,1.1,0.4c1.8,0.6,3.6,1.4,5.2,2.4c0.3,0.2,0.7,0.4,1,0.6
				l0,0h0c9.9,5.9,16.6,16.7,17,28.9C581.3,69.7,581.3,70.1,581.3,70.4z"/>
		</g>
		<g>
			<path class="st4" d="M520.3,70.4h-8.5c0-14.5-11.8-26.3-26.3-26.3c-14.5,0-26.3,11.8-26.3,26.3h-8.5v-0.5c0-0.1,0-0.1,0-0.2v-0.3
				c0-0.3,0-0.6,0-0.9c0-0.1,0-0.2,0-0.2c0.7-11.8,7.3-22,16.9-27.8c5.2-3.1,11.3-4.9,17.8-4.9c13.2,0,24.6,7.3,30.5,18.1
				C518.7,58.7,520.3,64.3,520.3,70.4z"/>
		</g>
		<g>
			<path class="st4" d="M516,5c-35.3,0-64.2,28.2-65.3,63.2c0,0.1,0,0.2,0,0.2c0,0.3,0,0.6,0,0.9c0,0.1,0,0.1,0,0.2v0.1
				c0,0.1,0,0.1,0,0.2c0,0.2,0,0.3,0,0.5c0,12.8,3.7,24.7,10,34.8c5.2,8.2,12.1,15.2,20.3,20.3c4.4,2.8,9.1,5.1,14.1,6.8
				c6.6,2.2,13.6,3.4,20.9,3.4c7.3,0,14.3-1.2,20.9-3.4c5-1.7,9.7-4,14.1-6.8c8.2-5.2,15.1-12.2,20.3-20.4c6.4-10.1,10-22,10-34.8
				v-0.9C580.8,33.8,551.7,5,516,5z M560.9,105.1c-6.2,8-14.5,14.4-24.1,18.1c0,0,0,0,0,0c-0.4,0.2-0.7,0.3-1.1,0.4
				c-6.1,2.3-12.8,3.5-19.7,3.5c-6.9,0-13.6-1.3-19.8-3.5c-0.4-0.1-0.7-0.3-1.1-0.4c-9.6-3.8-17.9-10.1-24.1-18.1
				c-7.5-9.6-11.9-21.7-11.9-34.8c0-0.5,0-0.9,0-1.4c0.2-10.4,3.3-20.2,8.5-28.5c0.4-0.6,0.8-1.3,1.2-1.9c0.4-0.6,0.8-1.1,1.2-1.7
				c0.6-0.8,1.1-1.5,1.7-2.2c0.8-1,1.6-2,2.5-2.9c0.6-0.6,1.2-1.2,1.8-1.9c0.5-0.5,0.9-0.9,1.4-1.3c0.1-0.1,0.1-0.1,0.2-0.2
				c0.5-0.5,1.1-0.9,1.6-1.4c0.5-0.4,0.9-0.8,1.4-1.1c0.4-0.3,0.7-0.6,1.1-0.9c0.3-0.2,0.6-0.4,0.8-0.6c0.3-0.2,0.5-0.4,0.8-0.6
				c0.7-0.5,1.4-1,2.1-1.4c0.4-0.3,0.9-0.6,1.3-0.8c0.3-0.2,0.6-0.4,0.9-0.5c0.2-0.1,0.5-0.3,0.7-0.4c0.4-0.2,0.8-0.4,1.1-0.6
				c0.5-0.3,1.1-0.6,1.6-0.8c0.5-0.3,1-0.5,1.6-0.7c0,0,0.1,0,0.1-0.1c0.5-0.2,1.1-0.5,1.6-0.7c0.6-0.2,1.1-0.5,1.7-0.7
				c2.3-0.8,4.6-1.6,7-2.1c0.6-0.2,1.2-0.3,1.8-0.4c0.6-0.1,1.2-0.2,1.8-0.3c0.6-0.1,1.2-0.2,1.8-0.3c0.6-0.1,1.2-0.2,1.9-0.2
				c0.6-0.1,1.2-0.1,1.9-0.2c0.6-0.1,1.3-0.1,1.9-0.1c0.6,0,1.3,0,1.9,0s1.3,0,1.9,0c1.3,0,2.5,0.1,3.8,0.3c0.6,0.1,1.2,0.1,1.9,0.2
				c0.6,0.1,1.2,0.2,1.8,0.3c0.6,0.1,1.2,0.2,1.8,0.3c0.6,0.1,1.2,0.2,1.8,0.4c2.4,0.5,4.7,1.2,7,2.1c0,0,0,0,0,0
				c1.1,0.4,2.2,0.9,3.3,1.4c1.1,0.5,2.2,1,3.2,1.6c0.5,0.3,1,0.6,1.6,0.9c0.5,0.3,1,0.6,1.4,0.8c1.6,1,3.2,2,4.7,3.2
				c0.4,0.3,0.8,0.7,1.3,1c0.7,0.5,1.4,1.1,2,1.7c0.3,0.3,0.6,0.5,0.9,0.8c1.5,1.4,2.9,2.8,4.3,4.4c0.2,0.3,0.5,0.6,0.7,0.8
				c0.3,0.3,0.6,0.7,0.9,1c1.5,1.8,2.8,3.8,4.1,5.8l0,0c5.2,8.3,8.2,18.1,8.5,28.5c0,0.4,0,0.9,0,1.4
				C572.9,83.5,568.4,95.5,560.9,105.1z M535.7,132.2l0-8.5c-6.1,2.3-12.8,3.5-19.7,3.5c-6.9,0-13.6-1.3-19.8-3.5v8.5
				c0,0-0.5,0-1.2,0.1c6.6,2.2,13.6,3.4,20.9,3.4c7.3,0,14.3-1.2,20.9-3.4C536.2,132.2,535.7,132.2,535.7,132.2z"/>
		</g>
		<polygon class="st4" points="520.3,56 520.3,89.9 519.6,91 512.4,91 511.8,89.9 511.8,56 		"/>
		<polygon class="st4" points="520.3,89.9 519.6,91 516,97.3 512.4,91 511.8,89.9 		"/>
	</g>
	<path class="st4" d="M571,47.2c-5.9-4.2-12.9-6.6-20.3-6.6c-15,0-28,9.9-34.7,24.5c-6.7-14.6-19.8-24.5-34.7-24.5
		c-7.4,0-14.3,2.4-20.3,6.6c11.4-21.8,31.8-36.4,55-36.4C539.2,10.8,559.6,25.3,571,47.2z"/>
</g>
<g>
	<path class="st4" d="M519.6,264.6l-1.3,1.4h-4.6l-1.3-1.4c-51.1-54.7-70.9-94.9-59-119.3c5.8-12,17.9-17.5,27.7-20
		c6.4-1.6,12-2,14.2-2.1c0.4,0.1,0.7,0.2,1.1,0.4v8c0,0-0.5,0-1.2,0c-5.3,0.3-26.5,2.3-33.7,17.1c-6.9,14.3-2.9,44.5,54.6,107
		c57.5-62.5,61.5-92.6,54.6-107c-7.2-14.8-28.3-16.9-33.6-17.1c-0.8,0-1.2,0-1.2,0l0-7.9c0.4-0.1,0.7-0.3,1.1-0.4c0,0,0,0,0,0
		c2.3,0.1,7.8,0.5,14.2,2.1c9.8,2.5,21.8,8,27.7,20C590.6,169.8,570.7,209.9,519.6,264.6z"/>
</g>
<path class="st4" d="M543.2,279.4c1.3,2.9-2.3,5.5-5,3.7c-6.3-4.3-14-6.8-22.4-6.8c-8.4,0-16.1,2.5-22.4,6.8c-2.7,1.8-6.3-0.8-5-3.7
	c4.5-10,15.1-17.1,27.5-17.1C528.1,262.3,538.7,269.3,543.2,279.4z"/>
<path class="st4" d="M435.4,171.1c-10.9,0-118.7-47-118.7-57.9s8.8-19.7,19.7-19.7"/>
<path class="st4" d="M433.7,186.4c-7.6,4-100.5,10.5-104.5,2.9s-1-17,6.6-21"/>
<path class="st4" d="M433.7,202.5c-4.2,4.7-65.9,33.3-70.6,29.2c-4.7-4.2-5.1-11.3-1-16"/>
<path class="st4" d="M596.6,171.1c10.9,0,118.7-47,118.7-57.9s-8.8-19.7-19.7-19.7"/>
<path class="st4" d="M598.3,186.4c7.6,4,100.5,10.5,104.5,2.9s1-17-6.6-21"/>
<path class="st4" d="M598.3,202.5c4.2,4.7,65.9,33.3,70.6,29.2c4.7-4.2,5.1-11.3,1-16"/>
<path class="st2" d="M511.7,153.1h8.5c0.6,0,1.1,0.5,1.1,1.1v83.9c0,0.6-0.5,1.1-1.1,1.1h-8.5c-0.6,0-1.1-0.5-1.1-1.1v-83.9
	C510.7,153.6,511.1,153.1,511.7,153.1z"/>
</svg>
