<?xml version="1.0" encoding="utf-8"?>
<!-- Generator: Adobe Illustrator 24.1.1, SVG Export Plug-In . SVG Version: 6.00 Build 0)  -->
<svg version="1.1" id="Vrstva_1" xmlns="http://www.w3.org/2000/svg" xmlns:xlink="http://www.w3.org/1999/xlink" x="0px" y="0px"
	 viewBox="0 0 1032 835" style="enable-background:new 0 0 1032 835;" xml:space="preserve">
<style type="text/css">
	.st0{fill:#FF00FF;}
	.st1{fill:#FFFFFF;}
	.st2{fill:none;stroke:#000000;stroke-width:4.7352;stroke-miterlimit:10;}
	.st3{fill:#E13D58;}
</style>
<g>
	<path d="M22.2,759.1v-41h12.1c2.7,0,5.2,0.4,7.3,1.1s3.9,2,5.1,3.7c1.2,1.7,1.9,4,1.9,6.9c0,2.2-0.5,4.2-1.4,6.1
		c-0.9,1.9-2.5,3.4-4.8,4.5c-2.2,1.1-5.3,1.7-9.2,1.7h-5.3v17H22.2z M27.9,737.1h2.8c1.5,0,2.9,0,4.3-0.1c1.4-0.1,2.7-0.3,3.9-0.8
		c1.2-0.4,2.1-1.2,2.8-2.2c0.7-1,1-2.4,1-4.3c0-1.9-0.4-3.4-1.2-4.3s-1.9-1.6-3.2-1.9s-2.7-0.5-4.2-0.5h-6.2V737.1z"/>
	<path d="M74.4,759.9c-1.8,0-3.6-0.3-5.7-0.8c-2-0.5-4.1-1.4-6.4-2.6l1.9-4.5c3.7,1.9,6.9,2.9,9.8,2.9c3.2,0,5.5-0.7,7-2
		s2.2-2.9,2.2-4.8c0-2-0.7-3.5-2-4.5c-1.4-1.1-3.6-2.1-6.8-3.3c-4.1-1.5-7-3.2-8.6-5s-2.4-4.3-2.4-7.1c0-2.4,0.6-4.3,1.7-5.9
		c1.1-1.6,2.7-2.8,4.6-3.6c1.9-0.8,4.1-1.2,6.5-1.2c1.9,0,3.8,0.3,5.8,0.9s4.1,1.6,6.2,3l-2.2,4.2c-1.8-1.1-3.5-1.9-5.1-2.4
		c-1.6-0.5-3.2-0.7-4.6-0.7c-2.4,0-4.2,0.5-5.5,1.5s-1.9,2.4-1.9,4.1c0,1.3,0.2,2.4,0.7,3.2c0.5,0.9,1.3,1.6,2.5,2.2
		c1.2,0.6,2.7,1.3,4.7,1.9c3.4,1.2,6,2.3,7.7,3.5s2.8,2.5,3.4,3.9c0.6,1.4,0.8,3,0.8,4.7c0,3.8-1.3,6.9-3.8,9.1
		C82.4,758.8,78.9,759.9,74.4,759.9z"/>
	<path d="M115.3,759.1v-15.9l-14.4-25.1h6.7l10.8,20l10.7-20h6.4l-14.4,25.1v15.9H115.3z"/>
	<path d="M165.1,759.9c-3.3,0-6-0.6-8.3-1.8c-2.3-1.2-4.2-2.8-5.6-4.8c-1.5-2.1-2.5-4.4-3.2-7.1c-0.7-2.7-1-5.5-1-8.4
		c0-3.6,0.5-6.6,1.6-9.2s2.5-4.7,4.2-6.4c1.8-1.7,3.7-2.9,5.8-3.7c2.1-0.8,4.3-1.2,6.5-1.2c2.1,0,4.1,0.4,6,1.1
		c1.9,0.8,3.5,1.9,4.8,3.4c1.3,1.5,2.2,3.3,2.6,5.5l-5.4,1.3c-0.3-2-1.2-3.6-2.8-4.7c-1.5-1.1-3.3-1.6-5.3-1.6
		c-1.4,0-2.8,0.3-4.3,0.9c-1.4,0.6-2.7,1.5-3.9,2.7c-1.2,1.2-2.1,2.8-2.9,4.8c-0.7,2-1.1,4.3-1.1,7c0,2.2,0.2,4.3,0.6,6.3
		s1.1,3.9,2,5.5s2.2,2.9,3.9,3.9s3.7,1.4,6.2,1.4c2.8,0,6.2-0.9,10.1-2.8l1.9,4.5C173.1,758.7,168.9,759.9,165.1,759.9z"/>
	<path d="M194.9,759.1v-41h5.7v17.2h18.6v-17.2h5.7v41h-5.7v-18.6h-18.6v18.6H194.9z"/>
	<path d="M261.5,759.9c-3.4,0-6.2-0.6-8.5-1.7c-2.3-1.1-4.2-2.7-5.6-4.7c-1.4-2-2.5-4.2-3.1-6.8c-0.6-2.5-1-5.2-1-8
		c0-2.8,0.3-5.6,1-8.1c0.7-2.6,1.8-4.9,3.2-6.9c1.5-2,3.4-3.6,5.7-4.7s5.1-1.7,8.4-1.7c3.3,0,6.1,0.6,8.4,1.7s4.2,2.7,5.7,4.7
		c1.5,2,2.5,4.3,3.2,6.9s1,5.3,1,8.1c0,2.8-0.3,5.4-1,8c-0.6,2.5-1.7,4.8-3.1,6.8c-1.4,2-3.3,3.5-5.6,4.7
		C267.7,759.3,264.9,759.9,261.5,759.9z M261.5,754.8c2.4,0,4.4-0.4,6-1.3c1.6-0.9,2.8-2,3.7-3.6c0.9-1.5,1.6-3.2,1.9-5.2
		c0.4-2,0.6-4,0.6-6.2c0-3-0.4-5.8-1.1-8.2c-0.7-2.5-2-4.4-3.8-5.9c-1.8-1.5-4.2-2.2-7.4-2.2c-3.1,0-5.6,0.7-7.4,2.2
		c-1.8,1.5-3.1,3.4-3.8,5.9c-0.7,2.5-1.1,5.2-1.1,8.2c0,2.2,0.2,4.2,0.6,6.2c0.4,2,1,3.7,1.9,5.2c0.9,1.5,2.2,2.7,3.8,3.6
		S259.1,754.8,261.5,754.8z"/>
	<path d="M298,759.1v-41h5.7v36.1h17.5v4.9H298z"/>
	<path d="M352.5,759.9c-3.4,0-6.2-0.6-8.5-1.7s-4.2-2.7-5.6-4.7c-1.4-2-2.5-4.2-3.1-6.8c-0.6-2.5-1-5.2-1-8c0-2.8,0.3-5.6,1-8.1
		c0.7-2.6,1.8-4.9,3.2-6.9c1.5-2,3.4-3.6,5.7-4.7c2.3-1.2,5.1-1.7,8.4-1.7c3.3,0,6.1,0.6,8.4,1.7c2.3,1.2,4.2,2.7,5.7,4.7
		c1.5,2,2.5,4.3,3.2,6.9c0.7,2.6,1,5.3,1,8.1c0,2.8-0.3,5.4-1,8c-0.6,2.5-1.7,4.8-3.1,6.8c-1.4,2-3.3,3.5-5.6,4.7
		S355.8,759.9,352.5,759.9z M352.5,754.8c2.4,0,4.4-0.4,6-1.3s2.8-2,3.7-3.6c0.9-1.5,1.6-3.2,1.9-5.2c0.4-2,0.6-4,0.6-6.2
		c0-3-0.4-5.8-1.1-8.2c-0.7-2.5-2-4.4-3.8-5.9c-1.8-1.5-4.2-2.2-7.4-2.2c-3.1,0-5.6,0.7-7.4,2.2c-1.8,1.5-3.1,3.4-3.8,5.9
		c-0.7,2.5-1.1,5.2-1.1,8.2c0,2.2,0.2,4.2,0.6,6.2c0.4,2,1,3.7,1.9,5.2c0.9,1.5,2.2,2.7,3.8,3.6S350.1,754.8,352.5,754.8z"/>
	<path d="M405.3,759.9c-4.3,0-7.8-0.9-10.6-2.7c-2.8-1.8-4.8-4.3-6.2-7.5c-1.4-3.2-2-6.8-2-10.8c0-4.1,0.6-7.5,1.7-10.2
		c1.1-2.8,2.6-5,4.5-6.6c1.9-1.7,3.9-2.8,6.2-3.6c2.3-0.7,4.5-1.1,6.8-1.1c1.3,0,2.6,0.2,3.9,0.5c1.4,0.3,2.7,0.8,3.9,1.6
		c1.2,0.8,2.3,1.8,3.2,3.1c0.9,1.3,1.4,3,1.7,5l-5.1,1.2c-0.5-2.1-1.4-3.7-2.8-4.7s-3-1.6-4.8-1.6c-1.6,0-3.2,0.3-4.8,0.8
		c-1.6,0.5-3,1.4-4.2,2.6s-2.3,2.9-3,5s-1.1,4.8-1.1,8c0,3.2,0.4,6.1,1.3,8.5c0.9,2.4,2.3,4.3,4.3,5.6c2,1.3,4.7,2,8.1,2
		c1.6,0,2.9-0.1,4-0.2c1.1-0.2,2.1-0.3,3-0.5h0.4v-16.7h5.5v20.2c-1.9,0.6-4,1.1-6.2,1.6C410.8,759.6,408.2,759.9,405.3,759.9z"/>
	<path d="M438.3,759.1v-41h5.7v41H438.3z"/>
	<path d="M480.2,759.9c-3.3,0-6-0.6-8.3-1.8c-2.3-1.2-4.2-2.8-5.6-4.8c-1.5-2.1-2.5-4.4-3.2-7.1c-0.7-2.7-1-5.5-1-8.4
		c0-3.6,0.5-6.6,1.6-9.2s2.5-4.7,4.2-6.4c1.8-1.7,3.7-2.9,5.8-3.7c2.1-0.8,4.3-1.2,6.5-1.2c2.1,0,4.1,0.4,6,1.1
		c1.9,0.8,3.5,1.9,4.8,3.4c1.3,1.5,2.2,3.3,2.6,5.5l-5.4,1.3c-0.3-2-1.2-3.6-2.8-4.7c-1.5-1.1-3.3-1.6-5.3-1.6
		c-1.4,0-2.8,0.3-4.3,0.9c-1.4,0.6-2.7,1.5-3.9,2.7c-1.2,1.2-2.1,2.8-2.9,4.8c-0.7,2-1.1,4.3-1.1,7c0,2.2,0.2,4.3,0.6,6.3
		s1.1,3.9,2,5.5s2.2,2.9,3.9,3.9s3.7,1.4,6.2,1.4c2.8,0,6.2-0.9,10.1-2.8l1.9,4.5C488.1,758.7,484,759.9,480.2,759.9z"/>
	<path d="M509.9,759.1v-41h5.7v18.7l3.1-3.7l13.2-15h7.3l-16.7,18.2l17.9,22.8h-7.4l-15.8-20.5l-1.6,2v18.5H509.9z"/>
	<path d="M550.2,759.1v-1.9l15.5-39.1h5.6l15.3,39.3v1.7h-5.5l-4.4-11.5h-16.9l-4.5,11.5H550.2z M561.7,742.6h13.2l-3.8-10.5
		l-2.8-7.8l-2.8,7.8L561.7,742.6z M566.5,713.7l4.9-9h6.4l-7.4,9H566.5z"/>
	<path d="M627,759.1v-41h9.1l11.1,33.7l11.8-33.7h8.8v41h-5.7v-21.3c0-0.3,0-0.8,0-1.7s0-1.9,0-3.1s0-2.4,0-3.7c0-1.2,0-2.4,0.1-3.4
		l-0.7-0.1l-12,33.4h-5.1L633.1,726l-0.7,0.1c0,1,0,2.2,0.1,3.4c0,1.2,0,2.4,0.1,3.6c0,1.2,0,2.2,0,3.1s0,1.5,0,1.7v21.1H627z"/>
	<path d="M704.5,759.9c-3.4,0-6.2-0.6-8.5-1.7s-4.2-2.7-5.6-4.7c-1.4-2-2.5-4.2-3.1-6.8c-0.6-2.5-1-5.2-1-8c0-2.8,0.3-5.6,1-8.1
		c0.7-2.6,1.8-4.9,3.2-6.9c1.5-2,3.4-3.6,5.7-4.7c2.3-1.2,5.1-1.7,8.4-1.7c3.3,0,6.1,0.6,8.4,1.7c2.3,1.2,4.2,2.7,5.7,4.7
		c1.5,2,2.5,4.3,3.2,6.9s1,5.3,1,8.1c0,2.8-0.3,5.4-1,8c-0.6,2.5-1.7,4.8-3.1,6.8c-1.4,2-3.3,3.5-5.6,4.7S707.9,759.9,704.5,759.9z
		 M704.5,754.8c2.4,0,4.4-0.4,6-1.3s2.8-2,3.7-3.6c0.9-1.5,1.6-3.2,1.9-5.2c0.4-2,0.6-4,0.6-6.2c0-3-0.4-5.8-1.1-8.2
		c-0.7-2.5-2-4.4-3.8-5.9c-1.8-1.5-4.2-2.2-7.4-2.2c-3.1,0-5.6,0.7-7.4,2.2c-1.8,1.5-3.1,3.4-3.8,5.9c-0.7,2.5-1.1,5.2-1.1,8.2
		c0,2.2,0.2,4.2,0.6,6.2c0.4,2,1,3.7,1.9,5.2c0.9,1.5,2.2,2.7,3.8,3.6C700.1,754.3,702.1,754.8,704.5,754.8z"/>
	<path d="M756.4,759.9c-3.1,0-5.9-0.6-8.3-1.8s-4.3-3-5.6-5.4c-1.3-2.4-2-5.4-2-8.9v-25.6h5.7V744c0,2.9,0.5,5.1,1.5,6.6
		c1,1.5,2.3,2.6,3.9,3.2c1.6,0.6,3.2,0.9,4.8,0.9c2.2,0,4-0.4,5.3-1.1c1.3-0.7,2.4-1.6,3-2.7c0.7-1.1,1.2-2.3,1.4-3.6
		s0.3-2.4,0.3-3.5v-25.8h5.6v25.8c0,3.2-0.7,6-2,8.4c-1.3,2.4-3.2,4.3-5.6,5.6C762.3,759.2,759.6,759.9,756.4,759.9z"/>
	<path d="M792.4,759.1v-41H804c3.9,0,7.4,0.7,10.5,2.1c3,1.4,5.4,3.6,7.2,6.6s2.6,6.9,2.6,11.8c0,3.9-0.5,7.1-1.6,9.8
		c-1.1,2.6-2.6,4.7-4.5,6.3c-1.9,1.6-4.1,2.7-6.7,3.4c-2.5,0.7-5.3,1-8.2,1H792.4z M798,754.2h4.9c5.3-0.1,9.2-1.3,11.6-3.8
		c2.4-2.4,3.6-6.3,3.6-11.6c0-4.9-1.1-8.8-3.2-11.6c-2.1-2.8-5.8-4.2-10.9-4.2H798V754.2z"/>
	<path d="M842.6,759.1v-41h12.6c1.8,0,3.5,0.2,5.2,0.5s3.2,0.9,4.6,1.8c1.4,0.8,2.4,1.9,3.2,3.3c0.8,1.4,1.2,3.1,1.2,5.1
		c0,2.6-0.7,4.8-2,6.4c-1.3,1.6-3.2,2.9-5.5,3.8c1.9,0.4,3.3,1,4.2,1.8c1,0.7,1.7,1.7,2.1,2.8c0.4,1.1,0.7,2.4,0.9,3.9
		s0.4,3.2,0.7,5.1s0.8,4.1,1.6,6.5h-6.1c-0.6-3.2-1-5.9-1.3-8.1c-0.3-2.2-0.7-4.1-1.1-5.5c-0.5-1.4-1.2-2.4-2.4-3.1
		c-1.1-0.6-2.8-1-5-1h-7.2v17.6H842.6z M848.2,737.2h6.7c2.4,0,4.4-0.6,6-1.7c1.6-1.1,2.5-3.1,2.5-6c0-1.5-0.3-2.7-0.8-3.6
		s-1.3-1.5-2.2-1.9c-0.9-0.4-1.9-0.7-3-0.8s-2.1-0.2-3.2-0.2h-6V737.2z"/>
	<path d="M905.4,759.9c-3.4,0-6.2-0.6-8.5-1.7s-4.2-2.7-5.6-4.7c-1.4-2-2.5-4.2-3.1-6.8c-0.6-2.5-1-5.2-1-8c0-2.8,0.3-5.6,1-8.1
		c0.7-2.6,1.8-4.9,3.2-6.9c1.5-2,3.4-3.6,5.7-4.7c2.3-1.2,5.1-1.7,8.4-1.7c3.3,0,6.1,0.6,8.4,1.7c2.3,1.2,4.2,2.7,5.7,4.7
		c1.5,2,2.5,4.3,3.2,6.9s1,5.3,1,8.1c0,2.8-0.3,5.4-1,8c-0.6,2.5-1.7,4.8-3.1,6.8c-1.4,2-3.3,3.5-5.6,4.7S908.7,759.9,905.4,759.9z
		 M905.4,754.8c2.4,0,4.4-0.4,6-1.3s2.8-2,3.7-3.6c0.9-1.5,1.6-3.2,1.9-5.2c0.4-2,0.6-4,0.6-6.2c0-3-0.4-5.8-1.1-8.2
		c-0.7-2.5-2-4.4-3.8-5.9c-1.8-1.5-4.2-2.2-7.4-2.2c-3.1,0-5.6,0.7-7.4,2.2c-1.8,1.5-3.1,3.4-3.8,5.9c-0.7,2.5-1.1,5.2-1.1,8.2
		c0,2.2,0.2,4.2,0.6,6.2c0.4,2,1,3.7,1.9,5.2c0.9,1.5,2.2,2.7,3.8,3.6C901,754.3,903,754.8,905.4,754.8z"/>
	<path d="M950.9,759.9c-1.8,0-3.6-0.3-5.7-0.8c-2-0.5-4.1-1.4-6.4-2.6l1.9-4.5c3.7,1.9,6.9,2.9,9.8,2.9c3.2,0,5.5-0.7,7-2
		c1.5-1.3,2.2-2.9,2.2-4.8c0-2-0.7-3.5-2-4.5c-1.4-1.1-3.6-2.1-6.8-3.3c-4.1-1.5-7-3.2-8.6-5c-1.6-1.9-2.4-4.3-2.4-7.1
		c0-2.4,0.6-4.3,1.7-5.9c1.1-1.6,2.7-2.8,4.6-3.6c1.9-0.8,4.1-1.2,6.5-1.2c1.9,0,3.8,0.3,5.8,0.9c2,0.6,4.1,1.6,6.2,3l-2.2,4.2
		c-1.8-1.1-3.5-1.9-5.1-2.4c-1.6-0.5-3.1-0.7-4.6-0.7c-2.4,0-4.2,0.5-5.5,1.5c-1.3,1-1.9,2.4-1.9,4.1c0,1.3,0.2,2.4,0.7,3.2
		c0.5,0.9,1.3,1.6,2.5,2.2s2.7,1.3,4.7,1.9c3.4,1.2,6,2.3,7.7,3.5c1.7,1.2,2.8,2.5,3.4,3.9c0.6,1.4,0.8,3,0.8,4.7
		c0,3.8-1.3,6.9-3.8,9.1C958.9,758.8,955.4,759.9,950.9,759.9z"/>
	<path d="M991.4,759.1V723h-12.7v-4.9h31.1v4.9h-12.7v36.1H991.4z"/>
	<path d="M340.9,830.5v-41h7.1l19.1,32.1l0.6-0.1c0-0.9,0-2-0.1-3.3c0-1.3,0-2.6-0.1-3.9c0-1.3,0-2.4,0-3.4s0-1.6,0-1.9v-19.5h5.3
		v41h-6.9l-19.5-32.6l-0.6,0.1c0,0.9,0.1,2.1,0.1,3.4c0,1.3,0,2.6,0,4c0,1.3,0,2.5,0,3.5c0,1,0,1.7,0,2v19.6H340.9z"/>
	<path d="M388.5,830.5v-1.9l15.5-39.1h5.6l15.3,39.3v1.7h-5.5l-4.4-11.5h-16.9l-4.5,11.5H388.5z M400,814h13.2l-3.8-10.5l-2.8-7.8
		l-2.8,7.8L400,814z"/>
	<path d="M465.4,830.5v-41H477c3.9,0,7.4,0.7,10.5,2.1c3,1.4,5.4,3.6,7.2,6.6c1.7,3,2.6,6.9,2.6,11.8c0,3.9-0.5,7.1-1.6,9.8
		c-1.1,2.6-2.6,4.7-4.5,6.3c-1.9,1.6-4.1,2.7-6.7,3.4c-2.5,0.7-5.3,1-8.2,1H465.4z M471,825.5h4.9c5.3-0.1,9.2-1.3,11.6-3.8
		c2.4-2.4,3.6-6.3,3.6-11.6c0-4.9-1.1-8.8-3.2-11.6c-2.1-2.8-5.8-4.2-10.9-4.2H471V825.5z"/>
	<path d="M531.6,831.2c-3.4,0-6.2-0.6-8.5-1.7s-4.2-2.7-5.6-4.7c-1.4-2-2.5-4.2-3.1-6.8c-0.6-2.5-1-5.2-1-8c0-2.8,0.3-5.6,1-8.1
		c0.7-2.6,1.8-4.9,3.2-6.9c1.5-2,3.4-3.6,5.7-4.7c2.3-1.2,5.1-1.7,8.4-1.7c3.3,0,6.1,0.6,8.4,1.7c2.3,1.2,4.2,2.7,5.7,4.7
		c1.5,2,2.5,4.3,3.2,6.9c0.7,2.6,1,5.3,1,8.1c0,2.8-0.3,5.4-1,8c-0.6,2.5-1.7,4.8-3.1,6.8c-1.4,2-3.3,3.5-5.6,4.7
		S534.9,831.2,531.6,831.2z M531.6,826.1c2.4,0,4.4-0.4,6-1.3s2.8-2,3.7-3.6c0.9-1.5,1.6-3.2,1.9-5.2c0.4-2,0.6-4,0.6-6.2
		c0-3-0.4-5.8-1.1-8.2c-0.7-2.5-2-4.4-3.8-5.9c-1.8-1.5-4.2-2.2-7.4-2.2c-3.1,0-5.6,0.7-7.4,2.2c-1.8,1.5-3.1,3.4-3.8,5.9
		c-0.7,2.5-1.1,5.2-1.1,8.2c0,2.2,0.2,4.2,0.6,6.2c0.4,2,1,3.7,1.9,5.2c0.9,1.5,2.2,2.7,3.8,3.6S529.2,826.1,531.6,826.1z"/>
	<path d="M577.1,831.2c-1.8,0-3.6-0.3-5.7-0.8c-2-0.5-4.1-1.4-6.4-2.6l1.9-4.5c3.7,1.9,6.9,2.9,9.8,2.9c3.2,0,5.5-0.7,7-2
		s2.2-2.9,2.2-4.8c0-2-0.7-3.5-2-4.5c-1.4-1.1-3.6-2.1-6.8-3.3c-4.1-1.5-7-3.2-8.6-5s-2.4-4.3-2.4-7.1c0-2.4,0.6-4.3,1.7-5.9
		c1.1-1.6,2.7-2.8,4.6-3.6c1.9-0.8,4.1-1.2,6.5-1.2c1.9,0,3.8,0.3,5.8,0.9s4.1,1.6,6.2,3l-2.2,4.2c-1.8-1.1-3.5-1.9-5.1-2.4
		c-1.6-0.5-3.2-0.7-4.6-0.7c-2.4,0-4.2,0.5-5.5,1.5s-1.9,2.4-1.9,4.1c0,1.3,0.2,2.4,0.7,3.2c0.5,0.9,1.3,1.6,2.5,2.2
		c1.2,0.6,2.7,1.3,4.7,1.9c3.4,1.2,6,2.3,7.7,3.5s2.8,2.5,3.4,3.9c0.6,1.4,0.8,3,0.8,4.7c0,3.8-1.3,6.9-3.8,9.1
		C585.1,830.1,581.6,831.2,577.1,831.2z"/>
	<path d="M604.4,830.5v-1.9l15.5-39.1h5.6l15.3,39.3v1.7h-5.5l-4.4-11.5H614l-4.5,11.5H604.4z M615.9,814h13.2l-3.8-10.5l-2.8-7.8
		l-2.8,7.8L615.9,814z"/>
	<path d="M656.5,830.5v-41h5.7v17.2h18.6v-17.2h5.7v41h-5.7v-18.6h-18.6v18.6H656.5z"/>
</g>
<g>
	<path d="M43.4,580.2V415.2h48.7c11,0,20.8,1.5,29.5,4.5c8.7,3,15.5,7.9,20.6,14.8c5,6.9,7.5,16.1,7.5,27.7c0,8.8-1.9,17-5.7,24.5
		c-3.8,7.5-10.2,13.6-19.2,18.1s-21.4,6.8-37.1,6.8H66.3v68.6H43.4z M66.3,491.7h11.1c5.9,0,11.7-0.2,17.5-0.5s10.9-1.4,15.6-3.2
		c4.7-1.8,8.4-4.7,11.2-8.7c2.8-4.1,4.1-9.8,4.1-17.2c0-7.7-1.7-13.5-5-17.4c-3.3-3.9-7.6-6.4-12.8-7.8c-5.2-1.3-10.8-2-16.7-2h-25
		V491.7z"/>
	<path d="M277.4,583.3c-7.1,0-14.7-1.1-22.8-3.3c-8.1-2.2-16.6-5.7-25.6-10.6l7.5-18.2c14.8,7.8,28,11.7,39.5,11.7
		c12.8,0,22.1-2.6,28-7.9c5.9-5.3,8.8-11.7,8.8-19.5c0-7.9-2.7-13.9-8.2-18.2c-5.5-4.2-14.6-8.6-27.3-13.1
		c-16.5-5.9-28.1-12.7-34.6-20.3s-9.8-17.2-9.8-28.7c0-9.5,2.3-17.5,6.8-23.9c4.6-6.4,10.7-11.3,18.5-14.6c7.8-3.3,16.5-5,26.2-5
		c7.6,0,15.4,1.3,23.5,3.8c8.1,2.5,16.4,6.6,24.9,12.2l-9,17.1c-7.1-4.5-13.9-7.8-20.4-9.8c-6.5-2-12.7-3-18.5-3c-9.7,0-17,2-22.1,6
		c-5.1,4-7.6,9.6-7.6,16.7c0,5.2,1,9.5,3,13c2,3.4,5.3,6.4,9.9,8.9c4.6,2.5,10.9,5.1,18.8,7.7c13.9,4.7,24.2,9.4,31.1,14.3
		c6.9,4.8,11.4,10.1,13.7,15.7c2.3,5.7,3.4,12,3.4,19.1c0,15.4-5.1,27.6-15.2,36.5C309.7,578.8,295.6,583.3,277.4,583.3z"/>
	<path d="M495.8,583.3c-13.6,0-25-2.3-34.4-6.9c-9.4-4.6-17-10.9-22.7-18.9c-5.8-8-10-17.1-12.6-27.3c-2.6-10.2-3.9-20.9-3.9-32.1
		c0-11.5,1.4-22.4,4.1-32.7c2.8-10.4,7.1-19.6,13-27.6c5.9-8.1,13.5-14.4,22.9-19.1c9.4-4.6,20.6-7,33.7-7c13.2,0,24.4,2.3,33.7,7
		c9.3,4.6,16.9,11,22.8,19.1c5.9,8.1,10.2,17.3,12.9,27.6c2.7,10.4,4.1,21.3,4.1,32.7c0,11.2-1.3,21.9-3.9,32.1
		c-2.6,10.2-6.8,19.3-12.5,27.3c-5.7,8-13.3,14.3-22.7,18.9C520.9,581,509.4,583.3,495.8,583.3z M495.8,562.8
		c9.7,0,17.7-1.7,24.1-5.2c6.4-3.5,11.4-8.2,15.1-14.3c3.7-6.1,6.3-13.1,7.8-20.9c1.6-7.9,2.3-16.2,2.3-24.9
		c0-12.2-1.5-23.2-4.4-33.1c-3-9.9-8-17.8-15.2-23.6c-7.2-5.8-17.1-8.8-29.7-8.8c-12.5,0-22.4,2.9-29.6,8.8
		c-7.2,5.8-12.3,13.7-15.3,23.6c-3,9.9-4.5,20.9-4.5,33.1c0,8.7,0.8,17,2.3,24.9c1.6,7.9,4.2,14.8,7.8,20.9
		c3.7,6.1,8.7,10.9,15.1,14.3C478.1,561.1,486.2,562.8,495.8,562.8z"/>
	<path d="M703.1,580.2l-56.7-165.1h25l27.8,90.5l15.7,51.9h1.3l16.9-52.3l28.4-90.1h24l-58.3,165.1H703.1z"/>
	<path d="M842.1,580.2v-7.5l62.4-157.6H927l61.6,158.2v6.9h-22.1l-17.8-46.3h-68.1l-18,46.3H842.1z M888.2,513.8h53.2l-15.2-42.1
		l-11.1-31.6l-11.3,31.6L888.2,513.8z"/>
</g>
<path class="st0" d="M576,149.5c0,14.6-26.9,106.5-60,106.5s-60-92-60-106.5c0-14.6,26.9-26.5,60-26.5S576,134.9,576,149.5z"/>
<path class="st1" d="M514,123c35.9,0,65,12.9,65,27.5S549.9,256,514,256"/>
<path class="st1" d="M517,256c-34.8,0-63-91-63-105.5c0-14.6,28.2-27.5,63-27.5"/>
<circle class="st1" cx="516" cy="70.4" r="60"/>
<line class="st2" x1="1025.8" y1="340.1" x2="6.2" y2="340.1"/>
<line class="st2" x1="1025.8" y1="647.1" x2="6.2" y2="647.1"/>
<path d="M557.6,155.7c0,21.6-18.8,39.1-41.9,38.9c-23.1-0.2-41.9-18.4-41.2-40c0-0.1,0-0.2,0-0.3c0-1.3,2-1.5,2.4-0.3
	c5.8,15,21.1,25.7,39.1,25.7c17.5,0,32.5-10.1,38.7-24.5C555.3,153.6,557.6,154,557.6,155.7C557.6,155.6,557.6,155.6,557.6,155.7z"
	/>
<g>
	<g>
		<ellipse transform="matrix(0.9871 -0.1602 0.1602 0.9871 -5.0041 78.6728)" cx="485.5" cy="70.4" rx="11.9" ry="11.9"/>
		<ellipse transform="matrix(0.1602 -0.9871 0.9871 0.1602 387.3918 596.0746)" cx="544" cy="70.4" rx="11.9" ry="11.9"/>
		<g>
			<path class="st3" d="M581.3,70.4h-8.5c0-14.5-11.8-26.3-26.3-26.3c-14.5,0-26.3,11.8-26.3,26.3h-8.5c0-6,1.5-11.7,4.2-16.6
				c5.9-10.8,17.4-18.1,30.5-18.1c3.7,0,7.2,0.6,10.5,1.6c0.4,0.1,0.7,0.2,1.1,0.4c1.8,0.6,3.6,1.4,5.2,2.4c0.3,0.2,0.7,0.4,1,0.6
				l0,0h0c9.9,5.9,16.6,16.7,17,28.9C581.3,69.7,581.3,70.1,581.3,70.4z"/>
		</g>
		<g>
			<path class="st3" d="M520.3,70.4h-8.5c0-14.5-11.8-26.3-26.3-26.3c-14.5,0-26.3,11.8-26.3,26.3h-8.5v-0.5c0-0.1,0-0.1,0-0.2v-0.3
				c0-0.3,0-0.6,0-0.9c0-0.1,0-0.2,0-0.2c0.7-11.8,7.3-22,16.9-27.8c5.2-3.1,11.3-4.9,17.8-4.9c13.2,0,24.6,7.3,30.5,18.1
				C518.7,58.7,520.3,64.3,520.3,70.4z"/>
		</g>
		<g>
			<path class="st3" d="M516,5c-35.3,0-64.2,28.2-65.3,63.2c0,0.1,0,0.2,0,0.2c0,0.3,0,0.6,0,0.9c0,0.1,0,0.1,0,0.2v0.1
				c0,0.1,0,0.1,0,0.2c0,0.2,0,0.3,0,0.5c0,12.8,3.7,24.7,10,34.8c5.2,8.2,12.1,15.2,20.3,20.3c4.4,2.8,9.1,5.1,14.1,6.8
				c6.6,2.2,13.6,3.4,20.9,3.4c7.3,0,14.3-1.2,20.9-3.4c5-1.7,9.7-4,14.1-6.8c8.2-5.2,15.1-12.2,20.3-20.4c6.4-10.1,10-22,10-34.8
				v-0.9C580.8,33.8,551.7,5,516,5z M560.9,105.1c-6.2,8-14.5,14.4-24.1,18.1c0,0,0,0,0,0c-0.4,0.2-0.7,0.3-1.1,0.4
				c-6.1,2.3-12.8,3.5-19.7,3.5c-6.9,0-13.6-1.3-19.8-3.5c-0.4-0.1-0.7-0.3-1.1-0.4c-9.6-3.8-17.9-10.1-24.1-18.1
				c-7.5-9.6-11.9-21.7-11.9-34.8c0-0.5,0-0.9,0-1.4c0.2-10.4,3.3-20.2,8.5-28.5c0.4-0.6,0.8-1.3,1.2-1.9c0.4-0.6,0.8-1.1,1.2-1.7
				c0.6-0.8,1.1-1.5,1.7-2.2c0.8-1,1.6-2,2.5-2.9c0.6-0.6,1.2-1.2,1.8-1.9c0.5-0.5,0.9-0.9,1.4-1.3c0.1-0.1,0.1-0.1,0.2-0.2
				c0.5-0.5,1.1-0.9,1.6-1.4c0.5-0.4,0.9-0.8,1.4-1.1c0.4-0.3,0.7-0.6,1.1-0.9c0.3-0.2,0.6-0.4,0.8-0.6c0.3-0.2,0.5-0.4,0.8-0.6
				c0.7-0.5,1.4-1,2.1-1.4c0.4-0.3,0.9-0.6,1.3-0.8c0.3-0.2,0.6-0.4,0.9-0.5c0.2-0.1,0.5-0.3,0.7-0.4c0.4-0.2,0.8-0.4,1.1-0.6
				c0.5-0.3,1.1-0.6,1.6-0.8c0.5-0.3,1-0.5,1.6-0.7c0,0,0.1,0,0.1-0.1c0.5-0.2,1.1-0.5,1.6-0.7c0.6-0.2,1.1-0.5,1.7-0.7
				c2.3-0.8,4.6-1.6,7-2.1c0.6-0.2,1.2-0.3,1.8-0.4c0.6-0.1,1.2-0.2,1.8-0.3c0.6-0.1,1.2-0.2,1.8-0.3c0.6-0.1,1.2-0.2,1.9-0.2
				c0.6-0.1,1.2-0.1,1.9-0.2c0.6-0.1,1.3-0.1,1.9-0.1c0.6,0,1.3,0,1.9,0s1.3,0,1.9,0c1.3,0,2.5,0.1,3.8,0.3c0.6,0.1,1.2,0.1,1.9,0.2
				c0.6,0.1,1.2,0.2,1.8,0.3c0.6,0.1,1.2,0.2,1.8,0.3c0.6,0.1,1.2,0.2,1.8,0.4c2.4,0.5,4.7,1.2,7,2.1c0,0,0,0,0,0
				c1.1,0.4,2.2,0.9,3.3,1.4c1.1,0.5,2.2,1,3.2,1.6c0.5,0.3,1,0.6,1.6,0.9c0.5,0.3,1,0.6,1.4,0.8c1.6,1,3.2,2,4.7,3.2
				c0.4,0.3,0.8,0.7,1.3,1c0.7,0.5,1.4,1.1,2,1.7c0.3,0.3,0.6,0.5,0.9,0.8c1.5,1.4,2.9,2.8,4.3,4.4c0.2,0.3,0.5,0.6,0.7,0.8
				c0.3,0.3,0.6,0.7,0.9,1c1.5,1.8,2.8,3.8,4.1,5.8l0,0c5.2,8.3,8.2,18.1,8.5,28.5c0,0.4,0,0.9,0,1.4
				C572.9,83.5,568.4,95.5,560.9,105.1z M535.7,132.2l0-8.5c-6.1,2.3-12.8,3.5-19.7,3.5c-6.9,0-13.6-1.3-19.8-3.5v8.5
				c0,0-0.5,0-1.2,0.1c6.6,2.2,13.6,3.4,20.9,3.4c7.3,0,14.3-1.2,20.9-3.4C536.2,132.2,535.7,132.2,535.7,132.2z"/>
		</g>
		<polygon class="st3" points="520.3,56 520.3,89.9 519.6,91 512.4,91 511.8,89.9 511.8,56 		"/>
		<polygon class="st3" points="520.3,89.9 519.6,91 516,97.3 512.4,91 511.8,89.9 		"/>
	</g>
	<path class="st3" d="M571,47.2c-5.9-4.2-12.9-6.6-20.3-6.6c-15,0-28,9.9-34.7,24.5c-6.7-14.6-19.8-24.5-34.7-24.5
		c-7.4,0-14.3,2.4-20.3,6.6c11.4-21.8,31.8-36.4,55-36.4C539.2,10.8,559.6,25.3,571,47.2z"/>
</g>
<g>
	<path class="st3" d="M519.6,264.6l-1.3,1.4h-4.6l-1.3-1.4c-51.1-54.7-70.9-94.9-59-119.3c5.8-12,17.9-17.5,27.7-20
		c6.4-1.6,12-2,14.2-2.1c0.4,0.1,0.7,0.2,1.1,0.4v8c0,0-0.5,0-1.2,0c-5.3,0.3-26.5,2.3-33.7,17.1c-6.9,14.3-2.9,44.5,54.6,107
		c57.5-62.5,61.5-92.6,54.6-107c-7.2-14.8-28.3-16.9-33.6-17.1c-0.8,0-1.2,0-1.2,0l0-7.9c0.4-0.1,0.7-0.3,1.1-0.4c0,0,0,0,0,0
		c2.3,0.1,7.8,0.5,14.2,2.1c9.8,2.5,21.8,8,27.7,20C590.6,169.8,570.7,209.9,519.6,264.6z"/>
</g>
<path class="st3" d="M543.2,279.4c1.3,2.9-2.3,5.5-5,3.7c-6.3-4.3-14-6.8-22.4-6.8c-8.4,0-16.1,2.5-22.4,6.8c-2.7,1.8-6.3-0.8-5-3.7
	c4.5-10,15.1-17.1,27.5-17.1C528.1,262.3,538.7,269.3,543.2,279.4z"/>
<path class="st3" d="M435.4,171.1c-10.9,0-118.7-47-118.7-57.9s8.8-19.7,19.7-19.7"/>
<path class="st3" d="M433.7,186.4c-7.6,4-100.5,10.5-104.5,2.9s-1-17,6.6-21"/>
<path class="st3" d="M433.7,202.5c-4.2,4.7-65.9,33.3-70.6,29.2c-4.7-4.2-5.1-11.3-1-16"/>
<path class="st3" d="M596.6,171.1c10.9,0,118.7-47,118.7-57.9s-8.8-19.7-19.7-19.7"/>
<path class="st3" d="M598.3,186.4c7.6,4,100.5,10.5,104.5,2.9s1-17-6.6-21"/>
<path class="st3" d="M598.3,202.5c4.2,4.7,65.9,33.3,70.6,29.2c4.7-4.2,5.1-11.3,1-16"/>
<path d="M511.7,153.1h8.5c0.6,0,1.1,0.5,1.1,1.1v83.9c0,0.6-0.5,1.1-1.1,1.1h-8.5c-0.6,0-1.1-0.5-1.1-1.1v-83.9
	C510.7,153.6,511.1,153.1,511.7,153.1z"/>
</svg>
